<svg xmlns="http://www.w3.org/2000/svg" width="195" height="147" viewBox="0 0 195 147" fill="none">
  <path d="M87.9494 20.7439C92.1723 13.3541 102.828 13.3541 107.051 20.7439L111.129 27.8806C114.963 34.5909 123.269 37.2892 130.315 34.1138L137.82 30.7316C145.584 27.2331 154.207 33.5027 153.274 41.9665L152.378 50.0851C151.529 57.7756 156.67 64.8497 164.246 66.4184L172.264 68.0785C180.608 69.8062 183.904 79.9565 178.167 86.2567L165.945 99.6757C164.998 100.716 164.202 101.884 163.581 103.145L154.849 120.862C152.997 124.62 149.172 127 144.982 127H140.662H128.255H118.725H105.701H91.5006H76.2746H60.85H50.0176C45.8283 127 42.0026 124.62 40.1507 120.862L31.4195 103.145C30.7978 101.884 30.0017 100.716 29.0546 99.6757L16.8335 86.2567C11.0957 79.9565 14.3915 69.8062 22.736 68.0785L30.7538 66.4184C38.3303 64.8497 43.4705 57.7756 42.6221 50.0851L41.7265 41.9665C40.7928 33.5027 49.4163 27.2331 57.1795 30.7316L64.6848 34.1138C71.731 37.2892 80.0366 34.5909 83.8711 27.8806L87.9494 20.7439Z" fill="#979A2B" stroke="#454D11" stroke-width="4"/>
  <path d="M114.42 70.9824C118.22 64.3551 127.78 64.3551 131.58 70.9824C135.138 77.186 142.854 79.648 149.361 76.726C156.32 73.6007 164.067 79.2055 163.233 86.7398C162.448 93.8362 167.197 100.364 174.188 101.806C181.667 103.349 184.62 112.451 179.471 118.085L173.487 124.632C172.537 125.671 171.738 126.839 171.114 128.102L165.822 138.804C163.967 142.554 160.145 144.927 155.962 144.927H154.873H145.712H138.674H129.056H118.57H107.326H95.9354H90.0384C85.8546 144.927 82.033 142.554 80.1783 138.804L74.8858 128.102C74.2615 126.839 73.4626 125.671 72.5125 124.632L66.5294 118.085C61.3803 112.451 64.3332 103.349 71.8123 101.806C78.8033 100.364 83.5525 93.8362 82.7668 86.7398C81.9327 79.2055 89.6798 73.6007 96.6395 76.726C103.146 79.648 110.862 77.186 114.42 70.9824Z" fill="#979A2B" stroke="#454D11" stroke-width="4"/>
</svg>