<svg xmlns="http://www.w3.org/2000/svg" width="210" height="128" viewBox="0 0 210 128" fill="none">
  <path d="M94.954 17.3201C92.075 9.43631 80.925 9.43628 78.046 17.3201L68.48 43.5163C67.5509 46.0605 64.7649 47.4024 62.1964 46.5427L35.8369 37.7207C27.8941 35.0624 20.9454 43.7434 25.2784 50.9113L39.7704 74.8849C41.1641 77.1904 40.4806 80.1857 38.2246 81.6583L18.6088 94.4637C11.1146 99.3559 14.5788 111 23.5285 111H44.98H68.0219H86.5H104.978H128.02H149.471C158.421 111 161.885 99.3559 154.391 94.4637L134.775 81.6583C132.519 80.1857 131.836 77.1904 133.23 74.8849L147.722 50.9113C152.055 43.7434 145.106 35.0624 137.163 37.7207L110.804 46.5427C108.235 47.4024 105.449 46.0605 104.52 43.5163L94.954 17.3201Z" fill="#454D11"/>
  <path d="M94.954 17.3201C92.075 9.43631 80.925 9.43628 78.046 17.3201L68.48 43.5163C67.5509 46.0605 64.7649 47.4024 62.1964 46.5427L35.8369 37.7207C27.8941 35.0624 20.9454 43.7434 25.2784 50.9113L39.7704 74.8849C41.1641 77.1904 40.4806 80.1857 38.2246 81.6583L18.6088 94.4637C11.1146 99.3559 14.5788 111 23.5285 111H44.98H68.0219H86.5H104.978H128.02H149.471C158.421 111 161.885 99.3559 154.391 94.4637L134.775 81.6583C132.519 80.1857 131.836 77.1904 133.23 74.8849L147.722 50.9113C152.055 43.7434 145.106 35.0624 137.163 37.7207L110.804 46.5427C108.235 47.4024 105.449 46.0605 104.52 43.5163L94.954 17.3201Z" fill="url(#paint0_linear_585_84)" fill-opacity="0.2"/>
  <path d="M94.954 17.3201C92.075 9.43631 80.925 9.43628 78.046 17.3201L68.48 43.5163C67.5509 46.0605 64.7649 47.4024 62.1964 46.5427L35.8369 37.7207C27.8941 35.0624 20.9454 43.7434 25.2784 50.9113L39.7704 74.8849C41.1641 77.1904 40.4806 80.1857 38.2246 81.6583L18.6088 94.4637C11.1146 99.3559 14.5788 111 23.5285 111H44.98H68.0219H86.5H104.978H128.02H149.471C158.421 111 161.885 99.3559 154.391 94.4637L134.775 81.6583C132.519 80.1857 131.836 77.1904 133.23 74.8849L147.722 50.9113C152.055 43.7434 145.106 35.0624 137.163 37.7207L110.804 46.5427C108.235 47.4024 105.449 46.0605 104.52 43.5163L94.954 17.3201Z" stroke="#969629" stroke-width="4"/>
  <path d="M156.96 63.4546C154.091 55.5473 142.909 55.5473 140.04 63.4546L135.815 75.0983C134.889 77.6518 132.093 78.9985 129.519 78.1313L117.852 74.2013C109.918 71.5288 102.953 80.1875 107.263 87.3643L113.804 98.2547C115.186 100.555 114.506 103.535 112.264 105.008L105.459 109.478C97.9914 114.385 101.466 126 110.402 126H118.98H135.362H148.5H161.638H178.02H186.598C195.534 126 199.009 114.385 191.541 109.478L184.736 105.008C182.494 103.535 181.814 100.555 183.196 98.2547L189.737 87.3643C194.047 80.1875 187.082 71.5288 179.148 74.2013L167.481 78.1313C164.907 78.9985 162.111 77.6518 161.185 75.0983L156.96 63.4546Z" fill="#454D11"/>
  <path d="M156.96 63.4546C154.091 55.5473 142.909 55.5473 140.04 63.4546L135.815 75.0983C134.889 77.6518 132.093 78.9985 129.519 78.1313L117.852 74.2013C109.918 71.5288 102.953 80.1875 107.263 87.3643L113.804 98.2547C115.186 100.555 114.506 103.535 112.264 105.008L105.459 109.478C97.9914 114.385 101.466 126 110.402 126H118.98H135.362H148.5H161.638H178.02H186.598C195.534 126 199.009 114.385 191.541 109.478L184.736 105.008C182.494 103.535 181.814 100.555 183.196 98.2547L189.737 87.3643C194.047 80.1875 187.082 71.5288 179.148 74.2013L167.481 78.1313C164.907 78.9985 162.111 77.6518 161.185 75.0983L156.96 63.4546Z" fill="url(#paint1_linear_585_84)" fill-opacity="0.2"/>
  <path d="M156.96 63.4546C154.091 55.5473 142.909 55.5473 140.04 63.4546L135.815 75.0983C134.889 77.6518 132.093 78.9985 129.519 78.1313L117.852 74.2013C109.918 71.5288 102.953 80.1875 107.263 87.3643L113.804 98.2547C115.186 100.555 114.506 103.535 112.264 105.008L105.459 109.478C97.9914 114.385 101.466 126 110.402 126H118.98H135.362H148.5H161.638H178.02H186.598C195.534 126 199.009 114.385 191.541 109.478L184.736 105.008C182.494 103.535 181.814 100.555 183.196 98.2547L189.737 87.3643C194.047 80.1875 187.082 71.5288 179.148 74.2013L167.481 78.1313C164.907 78.9985 162.111 77.6518 161.185 75.0983L156.96 63.4546Z" stroke="#969629" stroke-width="4"/>
  <defs>
    <linearGradient id="paint0_linear_585_84" x1="61.656" y1="14.7341" x2="80.2527" y2="113.684" gradientUnits="userSpaceOnUse">
      <stop/>
      <stop offset="1" stop-opacity="0"/>
    </linearGradient>
    <linearGradient id="paint1_linear_585_84" x1="130.836" y1="56.5436" x2="144.225" y2="127.32" gradientUnits="userSpaceOnUse">
      <stop/>
      <stop offset="1" stop-opacity="0"/>
    </linearGradient>
  </defs>
</svg>