<svg xmlns="http://www.w3.org/2000/svg" width="199" height="133" viewBox="0 0 199 133" fill="none">
  <path d="M99.9577 20.6602C104.184 13.2897 114.816 13.2897 119.042 20.6602L121.39 24.754C125.227 31.4444 133.511 34.135 140.547 30.9756L144.884 29.028C152.648 25.5416 161.26 31.8142 160.323 40.273L159.824 44.78C158.972 52.4764 164.119 59.5564 171.702 61.1211L176.199 62.0488C184.556 63.7731 187.852 73.9438 182.096 80.2428L172.316 90.9434C171.366 91.9829 170.567 93.1511 169.943 94.4134L162.296 109.876C160.441 113.627 156.619 116 152.435 116H149.121H137.732H128.984H117.028H103.993H90.0162H75.8572H66.5645C62.3807 116 58.5591 113.627 56.7044 109.876L49.0574 94.4134C48.4332 93.1511 47.6342 91.9829 46.6841 90.9434L36.9045 80.2428C31.1476 73.9438 34.444 63.7731 42.8014 62.0488L47.2977 61.1211C54.8813 59.5564 60.0276 52.4764 59.1756 44.78L58.6766 40.273C57.7402 31.8142 66.3524 25.5416 74.116 29.028L78.453 30.9756C85.4886 34.135 93.7734 31.4443 97.6101 24.754L99.9577 20.6602Z" fill="#979A2B" stroke="#454D11" stroke-width="4"/>
  <path d="M69.9604 68.4546C67.0915 60.5473 55.9085 60.5473 53.0396 68.4546L48.8151 80.0983C47.8887 82.6518 45.093 83.9985 42.5188 83.1313L30.8519 79.2013C22.9182 76.5288 15.9531 85.1875 20.2635 92.3643L26.8042 103.255C28.1855 105.555 27.5056 108.535 25.2635 110.008L18.4595 114.478C10.9914 119.385 14.4657 131 23.4015 131H31.98H48.3624H61.5H74.6376H91.02H99.5985C108.534 131 112.009 119.385 104.541 114.478L97.7365 110.008C95.4944 108.535 94.8145 105.555 96.1957 103.255L102.737 92.3643C107.047 85.1875 100.082 76.5288 92.1481 79.2013L80.4812 83.1313C77.907 83.9985 75.1113 82.6518 74.1849 80.0983L69.9604 68.4546Z" fill="#454D11"/>
  <path d="M69.9604 68.4546C67.0915 60.5473 55.9085 60.5473 53.0396 68.4546L48.8151 80.0983C47.8887 82.6518 45.093 83.9985 42.5188 83.1313L30.8519 79.2013C22.9182 76.5288 15.9531 85.1875 20.2635 92.3643L26.8042 103.255C28.1855 105.555 27.5056 108.535 25.2635 110.008L18.4595 114.478C10.9914 119.385 14.4657 131 23.4015 131H31.98H48.3624H61.5H74.6376H91.02H99.5985C108.534 131 112.009 119.385 104.541 114.478L97.7365 110.008C95.4944 108.535 94.8145 105.555 96.1957 103.255L102.737 92.3643C107.047 85.1875 100.082 76.5288 92.1481 79.2013L80.4812 83.1313C77.907 83.9985 75.1113 82.6518 74.1849 80.0983L69.9604 68.4546Z" fill="url(#paint0_linear_585_154)" fill-opacity="0.2"/>
  <path d="M69.9604 68.4546C67.0915 60.5473 55.9085 60.5473 53.0396 68.4546L48.8151 80.0983C47.8887 82.6518 45.093 83.9985 42.5188 83.1313L30.8519 79.2013C22.9182 76.5288 15.9531 85.1875 20.2635 92.3643L26.8042 103.255C28.1855 105.555 27.5056 108.535 25.2635 110.008L18.4595 114.478C10.9914 119.385 14.4657 131 23.4015 131H31.98H48.3624H61.5H74.6376H91.02H99.5985C108.534 131 112.009 119.385 104.541 114.478L97.7365 110.008C95.4944 108.535 94.8145 105.555 96.1957 103.255L102.737 92.3643C107.047 85.1875 100.082 76.5288 92.1481 79.2013L80.4812 83.1313C77.907 83.9985 75.1113 82.6518 74.1849 80.0983L69.9604 68.4546Z" stroke="#969629" stroke-width="4"/>
  <defs>
    <linearGradient id="paint0_linear_585_154" x1="43.8364" y1="61.5436" x2="57.2245" y2="132.32" gradientUnits="userSpaceOnUse">
      <stop/>
      <stop offset="1" stop-opacity="0"/>
    </linearGradient>
  </defs>
</svg>