<svg xmlns="http://www.w3.org/2000/svg" width="241" height="142" viewBox="0 0 241 142" fill="none">
  <path d="M79.9577 21.1301C84.1844 13.7597 94.8156 13.7597 99.0423 21.1302L101.39 25.224C105.227 31.9143 113.511 34.605 120.547 31.4455L124.884 29.498C132.648 26.0116 141.26 32.2841 140.323 40.743L139.824 45.25C138.972 52.9463 144.119 60.0264 151.702 61.5911L156.199 62.5187C164.556 64.2431 167.852 74.4138 162.096 80.7128L152.316 91.4134C151.366 92.4529 150.567 93.6211 149.943 94.8834L142.296 110.346C140.441 114.097 136.619 116.47 132.435 116.47H129.121H117.732H108.984H97.0285H83.9929H70.0162H55.8572H46.5645C42.3807 116.47 38.5591 114.097 36.7044 110.346L29.0574 94.8834C28.4332 93.6211 27.6342 92.4529 26.6841 91.4134L16.9045 80.7128C11.1476 74.4138 14.444 64.2431 22.8014 62.5188L27.2977 61.5911C34.8813 60.0264 40.0276 52.9463 39.1756 45.25L38.6766 40.743C37.7402 32.2841 46.3524 26.0116 54.116 29.498L58.453 31.4455C65.4886 34.605 73.7734 31.9143 77.6101 25.2239L79.9577 21.1301Z" fill="#979A2B" stroke="#454D11" stroke-width="4"/>
  <path d="M141.958 39.1301C146.184 31.7597 156.816 31.7597 161.042 39.1302L163.39 43.224C167.227 49.9143 175.511 52.605 182.547 49.4455L186.884 47.498C194.648 44.0116 203.26 50.2841 202.323 58.743L201.824 63.25C200.972 70.9463 206.119 78.0264 213.702 79.5911L218.199 80.5187C226.556 82.2431 229.852 92.4138 224.096 98.7128L214.316 109.413C213.366 110.453 212.567 111.621 211.943 112.883L204.296 128.346C202.441 132.097 198.619 134.47 194.435 134.47H191.121H179.732H170.984H159.028H145.993H132.016H117.857H108.565C104.381 134.47 100.559 132.097 98.7044 128.346L91.0574 112.883C90.4332 111.621 89.6342 110.453 88.6841 109.413L78.9045 98.7128C73.1476 92.4138 76.444 82.2431 84.8014 80.5188L89.2977 79.5911C96.8813 78.0264 102.028 70.9463 101.176 63.25L100.677 58.743C99.7402 50.2841 108.352 44.0116 116.116 47.498L120.453 49.4455C127.489 52.605 135.773 49.9143 139.61 43.2239L141.958 39.1301Z" fill="#979A2B" stroke="#454D11" stroke-width="4"/>
  <path d="M112.96 76.9246C110.091 69.0173 98.9085 69.0173 96.0396 76.9246L91.8151 88.5682C90.8887 91.1217 88.093 92.4685 85.5188 91.6013L73.8519 87.6713C65.9182 84.9988 58.9531 93.6575 63.2635 100.834L69.8042 111.725C71.1855 114.024 70.5056 117.005 68.2635 118.478L61.4595 122.948C53.9914 127.855 57.4657 139.47 66.4015 139.47H74.98H91.3624H104.5H117.638H134.02H142.598C151.534 139.47 155.009 127.855 147.541 122.948L140.736 118.478C138.494 117.005 137.814 114.024 139.196 111.725L145.737 100.834C150.047 93.6575 143.082 84.9988 135.148 87.6713L123.481 91.6013C120.907 92.4685 118.111 91.1217 117.185 88.5682L112.96 76.9246Z" fill="#454D11"/>
  <path d="M112.96 76.9246C110.091 69.0173 98.9085 69.0173 96.0396 76.9246L91.8151 88.5682C90.8887 91.1217 88.093 92.4685 85.5188 91.6013L73.8519 87.6713C65.9182 84.9988 58.9531 93.6575 63.2635 100.834L69.8042 111.725C71.1855 114.024 70.5056 117.005 68.2635 118.478L61.4595 122.948C53.9914 127.855 57.4657 139.47 66.4015 139.47H74.98H91.3624H104.5H117.638H134.02H142.598C151.534 139.47 155.009 127.855 147.541 122.948L140.736 118.478C138.494 117.005 137.814 114.024 139.196 111.725L145.737 100.834C150.047 93.6575 143.082 84.9988 135.148 87.6713L123.481 91.6013C120.907 92.4685 118.111 91.1217 117.185 88.5682L112.96 76.9246Z" fill="url(#paint0_linear_582_37)" fill-opacity="0.2"/>
  <path d="M112.96 76.9246C110.091 69.0173 98.9085 69.0173 96.0396 76.9246L91.8151 88.5682C90.8887 91.1217 88.093 92.4685 85.5188 91.6013L73.8519 87.6713C65.9182 84.9988 58.9531 93.6575 63.2635 100.834L69.8042 111.725C71.1855 114.024 70.5056 117.005 68.2635 118.478L61.4595 122.948C53.9914 127.855 57.4657 139.47 66.4015 139.47H74.98H91.3624H104.5H117.638H134.02H142.598C151.534 139.47 155.009 127.855 147.541 122.948L140.736 118.478C138.494 117.005 137.814 114.024 139.196 111.725L145.737 100.834C150.047 93.6575 143.082 84.9988 135.148 87.6713L123.481 91.6013C120.907 92.4685 118.111 91.1217 117.185 88.5682L112.96 76.9246Z" stroke="#969629" stroke-width="4"/>
  <defs>
    <linearGradient id="paint0_linear_582_37" x1="86.8364" y1="70.0136" x2="100.225" y2="140.79" gradientUnits="userSpaceOnUse">
      <stop/>
      <stop offset="1" stop-opacity="0"/>
    </linearGradient>
  </defs>
</svg>