<svg xmlns="http://www.w3.org/2000/svg" width="271" height="145" viewBox="0 0 271 145" fill="none">
  <path fill-rule="evenodd" clip-rule="evenodd" d="M139.509 101.35L135.415 0L131.32 101.35L104.133 3.683L123.353 103.252L74.5377 14.5334L116.035 106.954L48.2243 31.9664L109.762 112.256L26.6114 55.042L104.872 118.872L10.864 82.5162L101.629 126.446L1.83125 112.908L100.207 134.569L0 144.579L100.683 142.803H170.146L270.829 144.579L170.623 134.569L268.998 112.908L169.201 126.446L259.965 82.5162L165.957 118.872L244.218 55.042L161.067 112.256L222.605 31.9664L154.795 106.954L196.292 14.5334L147.477 103.252L166.696 3.683L139.509 101.35Z" fill="#BA5F04"/>
</svg>