<svg xmlns="http://www.w3.org/2000/svg" width="203" height="109" viewBox="0 0 203 109" fill="none">
  <path fill-rule="evenodd" clip-rule="evenodd" d="M104.569 75.916L101.5 0L98.4311 75.916L78.0528 2.75875L92.4588 77.3408L55.8697 10.8863L86.9739 80.1137L36.1465 23.9444L82.2721 84.0851L19.9465 41.2292L78.6069 89.041L8.14312 61.8088L76.1758 94.7142L1.37261 84.5738L75.11 100.799L0 108.297L75.4669 106.967H127.533L203 108.297L127.89 100.799L201.627 84.5738L126.824 94.7142L194.857 61.8088L124.393 89.041L183.053 41.2292L120.728 84.0851L166.854 23.9444L116.026 80.1137L147.13 10.8863L110.541 77.3408L124.947 2.75875L104.569 75.916Z" fill="#FFC634"/>
</svg>