<svg xmlns="http://www.w3.org/2000/svg" width="228" height="154" viewBox="0 0 228 154" fill="none">
  <path d="M87.4742 20.495C91.7084 13.1628 102.292 13.1628 106.526 20.495L110.528 27.4256C114.369 34.0765 122.613 36.752 129.627 33.624L137.034 30.3206C144.799 26.8581 153.389 33.1365 152.447 41.5857L151.611 49.084C150.752 56.792 155.91 63.884 163.508 65.4407L171.068 66.9897C179.451 68.7073 182.749 78.9184 176.954 85.2149L165.112 98.0821C164.156 99.1209 163.351 100.289 162.722 101.553L154.082 118.904C152.221 122.639 148.408 125 144.235 125H139.941H127.598H118.117H105.159H91.0314H75.8835H60.5379H49.765C45.5922 125 41.7787 122.639 39.9185 118.904L31.278 101.553C30.6487 100.289 29.8441 99.1209 28.888 98.0821L17.046 85.2149C11.2511 78.9184 14.5489 68.7073 22.932 66.9897L30.4922 65.4407C38.0901 63.884 43.2484 56.792 42.3891 49.084L41.5532 41.5857C40.6112 33.1365 49.201 26.8581 56.9655 30.3206L64.373 33.624C71.3874 36.752 79.6313 34.0765 83.472 27.4256L87.4742 20.495Z" fill="#979A2B" stroke="#454D11" stroke-width="4"/>
  <path fill-rule="evenodd" clip-rule="evenodd" d="M112.024 102.007L109 27L105.976 102.007L85.8993 29.7257L100.092 103.415L64.044 37.7559L94.6885 106.154L44.6123 50.6577L90.0562 110.078L28.6517 67.7355L86.4452 114.975L17.0228 88.0686L84.0501 120.58L10.3523 110.561L83 126.592L9 134L83.3516 132.686H134.648L209 134L135 126.592L207.648 110.561L133.95 120.58L200.977 88.0686L131.555 114.975L189.348 67.7355L127.944 110.078L173.388 50.6577L123.311 106.154L153.956 37.7559L117.908 103.415L132.101 29.7257L112.024 102.007Z" fill="#FFC634"/>
  <path d="M151.422 82.0474C155.006 75.8188 163.994 75.8188 167.578 82.0474C170.995 87.9846 178.405 90.318 184.629 87.5328C191.174 84.6037 198.465 89.866 197.682 96.9101C196.928 103.699 201.476 109.944 208.165 111.319C215.199 112.766 217.974 121.33 213.125 126.617L207.528 132.719C206.575 133.758 205.773 134.927 205.146 136.19L200.333 145.89C198.475 149.633 194.658 152 190.479 152H189.824H181.108H174.412H165.262H155.285H144.588H133.751H128.521C124.342 152 120.525 149.633 118.667 145.89L113.854 136.19C113.227 134.927 112.425 133.758 111.472 132.719L105.875 126.617C101.026 121.33 103.801 112.766 110.835 111.319C117.524 109.944 122.072 103.699 121.318 96.9101C120.535 89.866 127.826 84.6037 134.371 87.5328C140.595 90.318 148.005 87.9846 151.422 82.0474Z" fill="#979A2B" stroke="#454D11" stroke-width="4"/>
</svg>