<svg width="271" height="273" viewBox="0 0 271 273" fill="none" xmlns="http://www.w3.org/2000/svg">
<path d="M148.958 38.6602C153.184 31.2897 163.816 31.2897 168.042 38.6602L170.39 42.754C174.227 49.4444 182.511 52.135 189.547 48.9756L193.884 47.028C201.648 43.5416 210.26 49.8142 209.323 58.273L208.824 62.78C207.972 70.4764 213.119 77.5564 220.702 79.1211L225.199 80.0488C233.556 81.7731 236.852 91.9438 231.096 98.2428L221.316 108.943C220.366 109.983 219.567 111.151 218.943 112.413L211.296 127.876C209.441 131.627 205.619 134 201.435 134H198.121H186.732H177.984H166.028H152.993H139.016H124.857H115.565C111.381 134 107.559 131.627 105.704 127.876L98.0574 112.413C97.4332 111.151 96.6342 109.983 95.6841 108.943L85.9045 98.2428C80.1476 91.9438 83.444 81.7731 91.8014 80.0488L96.2977 79.1211C103.881 77.5564 109.028 70.4764 108.176 62.78L107.677 58.273C106.74 49.8142 115.352 43.5416 123.116 47.028L127.453 48.9756C134.489 52.135 142.773 49.4443 146.61 42.754L148.958 38.6602Z" fill="#979A2B" stroke="#454D11" stroke-width="4"/>
<path fill-rule="evenodd" clip-rule="evenodd" d="M139.509 101.35L135.415 0L131.32 101.35L104.133 3.683L123.353 103.252L74.5377 14.5334L116.035 106.954L48.2243 31.9664L109.762 112.256L26.6114 55.042L104.872 118.872L10.864 82.5162L101.629 126.446L1.83125 112.908L100.207 134.569L0 144.579L100.683 142.803H170.146L270.829 144.579L170.623 134.569L268.998 112.908L169.201 126.446L259.965 82.5162L165.957 118.872L244.218 55.042L161.067 112.256L222.605 31.9664L154.795 106.954L196.292 14.5334L147.477 103.252L166.696 3.683L139.509 101.35Z" fill="#BA5F04"/>
<path d="M98.5716 85.9304C95.7028 78.0232 84.5198 78.0232 81.6509 85.9304L77.4264 97.5741C76.4999 100.128 73.7043 101.474 71.13 100.607L59.4632 96.6772C51.5295 94.0047 44.5643 102.663 48.8747 109.84L55.4155 120.731C56.7968 123.03 56.1169 126.01 53.8748 127.484L47.0707 131.954C39.6026 136.861 43.077 148.476 52.0128 148.476H128.21C137.146 148.476 140.62 136.861 133.152 131.954L126.348 127.484C124.106 126.01 123.426 123.03 124.807 120.731L131.348 109.84C135.658 102.663 128.693 94.0047 120.759 96.6772L109.092 100.607C106.518 101.474 103.723 100.128 102.796 97.5741L98.5716 85.9304Z" fill="#454D11"/>
<path d="M98.5716 85.9304C95.7028 78.0232 84.5198 78.0232 81.6509 85.9304L77.4264 97.5741C76.4999 100.128 73.7043 101.474 71.13 100.607L59.4632 96.6772C51.5295 94.0047 44.5643 102.663 48.8747 109.84L55.4155 120.731C56.7968 123.03 56.1169 126.01 53.8748 127.484L47.0707 131.954C39.6026 136.861 43.077 148.476 52.0128 148.476H128.21C137.146 148.476 140.62 136.861 133.152 131.954L126.348 127.484C124.106 126.01 123.426 123.03 124.807 120.731L131.348 109.84C135.658 102.663 128.693 94.0047 120.759 96.6772L109.092 100.607C106.518 101.474 103.723 100.128 102.796 97.5741L98.5716 85.9304Z" fill="url(#paint0_linear_582_60)" fill-opacity="0.2"/>
<path d="M98.5716 85.9304C95.7028 78.0232 84.5198 78.0232 81.6509 85.9304L77.4264 97.5741C76.4999 100.128 73.7043 101.474 71.13 100.607L59.4632 96.6772C51.5295 94.0047 44.5643 102.663 48.8747 109.84L55.4155 120.731C56.7968 123.03 56.1169 126.01 53.8748 127.484L47.0707 131.954C39.6026 136.861 43.077 148.476 52.0128 148.476H128.21C137.146 148.476 140.62 136.861 133.152 131.954L126.348 127.484C124.106 126.01 123.426 123.03 124.807 120.731L131.348 109.84C135.658 102.663 128.693 94.0047 120.759 96.6772L109.092 100.607C106.518 101.474 103.723 100.128 102.796 97.5741L98.5716 85.9304Z" stroke="#969629" stroke-width="4"/>
<defs>
<linearGradient id="paint0_linear_582_60" x1="72.4477" y1="79.0195" x2="85.8358" y2="149.796" gradientUnits="userSpaceOnUse">
<stop/>
<stop offset="1" stop-opacity="0"/>
</linearGradient>
</defs>
</svg>
