<svg xmlns="http://www.w3.org/2000/svg" width="1370" height="3229" viewBox="0 0 1370 3229" fill="none">
<path d="M879.922 272.074C882.157 265.933 890.843 265.933 893.078 272.074L893.458 273.118C894.757 276.686 898.664 278.569 902.264 277.36L903.334 277C909.508 274.927 914.919 281.67 911.558 287.248L910.494 289.014C908.756 291.9 909.61 295.644 912.429 297.491C917.638 300.903 915.222 309 908.995 309H907.38H895.792H886.5H877.208H865.62H864.005C857.778 309 855.362 300.903 860.571 297.491C863.39 295.644 864.244 291.9 862.506 289.014L861.442 287.249C858.081 281.67 863.492 274.927 869.666 277L870.736 277.36C874.336 278.569 878.243 276.686 879.542 273.118L879.922 272.074Z" fill="#454D11"/>
<path d="M879.922 272.074C882.157 265.933 890.843 265.933 893.078 272.074L893.458 273.118C894.757 276.686 898.664 278.569 902.264 277.36L903.334 277C909.508 274.927 914.919 281.67 911.558 287.248L910.494 289.014C908.756 291.9 909.61 295.644 912.429 297.491C917.638 300.903 915.222 309 908.995 309H907.38H895.792H886.5H877.208H865.62H864.005C857.778 309 855.362 300.903 860.571 297.491C863.39 295.644 864.244 291.9 862.506 289.014L861.442 287.249C858.081 281.67 863.492 274.927 869.666 277L870.736 277.36C874.336 278.569 878.243 276.686 879.542 273.118L879.922 272.074Z" fill="url(#paint0_linear_755_123)" fill-opacity="0.2"/>
<path d="M1072.75 206.756C1074.71 201.391 1082.29 201.391 1084.25 206.756C1085.39 209.872 1088.8 211.516 1091.95 210.462C1097.36 208.652 1102.09 214.562 1099.14 219.442L1098.64 220.278C1097.18 222.693 1097.89 225.831 1100.26 227.374C1104.62 230.222 1102.6 237 1097.39 237H1096.02H1086.3H1078.5H1070.7H1060.98H1059.61C1054.4 237 1052.38 230.222 1056.74 227.374C1059.11 225.831 1059.82 222.693 1058.36 220.278L1057.86 219.442C1054.91 214.562 1059.64 208.652 1065.05 210.462C1068.2 211.516 1071.61 209.872 1072.75 206.756Z" fill="#454D11"/>
<path d="M1072.75 206.756C1074.71 201.391 1082.29 201.391 1084.25 206.756C1085.39 209.872 1088.8 211.516 1091.95 210.462C1097.36 208.652 1102.09 214.562 1099.14 219.442L1098.64 220.278C1097.18 222.693 1097.89 225.831 1100.26 227.374C1104.62 230.222 1102.6 237 1097.39 237H1096.02H1086.3H1078.5H1070.7H1060.98H1059.61C1054.4 237 1052.38 230.222 1056.74 227.374C1059.11 225.831 1059.82 222.693 1058.36 220.278L1057.86 219.442C1054.91 214.562 1059.64 208.652 1065.05 210.462C1068.2 211.516 1071.61 209.872 1072.75 206.756Z" fill="url(#paint1_linear_755_123)" fill-opacity="0.2"/>
<path d="M872.912 15.0515C874.835 9.87201 882.165 9.87201 884.088 15.0515C885.202 18.0508 888.537 19.6187 891.576 18.6183C896.779 16.9054 901.427 22.5689 898.558 27.2361L898.106 27.9714C896.681 30.2907 897.373 33.3242 899.664 34.795C903.863 37.4913 901.954 44 896.963 44H895.54H886.084H878.5H870.916H861.46H860.037C855.046 44 853.137 37.4913 857.336 34.795C859.627 33.3242 860.319 30.2907 858.894 27.9714L858.442 27.2361C855.573 22.5689 860.221 16.9054 865.424 18.6183C868.463 19.6187 871.798 18.0508 872.912 15.0515Z" fill="#454D11"/>
<path d="M872.912 15.0515C874.835 9.87201 882.165 9.87201 884.088 15.0515C885.202 18.0508 888.537 19.6187 891.576 18.6183C896.779 16.9054 901.427 22.5689 898.558 27.2361L898.106 27.9714C896.681 30.2907 897.373 33.3242 899.664 34.795C903.863 37.4913 901.954 44 896.963 44H895.54H886.084H878.5H870.916H861.46H860.037C855.046 44 853.137 37.4913 857.336 34.795C859.627 33.3242 860.319 30.2907 858.894 27.9714L858.442 27.2361C855.573 22.5689 860.221 16.9054 865.424 18.6183C868.463 19.6187 871.798 18.0508 872.912 15.0515Z" fill="url(#paint2_linear_755_123)" fill-opacity="0.2"/>
<path d="M588.756 163.388C590.739 158.076 598.261 158.076 600.244 163.388C601.39 166.461 604.758 168.085 607.875 167.064L608.15 166.974C613.473 165.231 618.075 171.077 615.131 175.842L614.665 176.596C613.198 178.971 613.909 182.084 616.261 183.586C620.565 186.335 618.618 193 613.512 193H612.02H602.297H594.5H586.703H576.98H575.488C570.382 193 568.435 186.335 572.739 183.586C575.091 182.084 575.802 178.971 574.335 176.596L573.869 175.842C570.925 171.077 575.527 165.231 580.85 166.974L581.125 167.064C584.242 168.085 587.61 166.461 588.756 163.388Z" fill="#454D11"/>
<path d="M588.756 163.388C590.739 158.076 598.261 158.076 600.244 163.388C601.39 166.461 604.758 168.085 607.875 167.064L608.15 166.974C613.473 165.231 618.075 171.077 615.131 175.842L614.665 176.596C613.198 178.971 613.909 182.084 616.261 183.586C620.565 186.335 618.618 193 613.512 193H612.02H602.297H594.5H586.703H576.98H575.488C570.382 193 568.435 186.335 572.739 183.586C575.091 182.084 575.802 178.971 574.335 176.596L573.869 175.842C570.925 171.077 575.527 165.231 580.85 166.974L581.125 167.064C584.242 168.085 587.61 166.461 588.756 163.388Z" fill="url(#paint3_linear_755_123)" fill-opacity="0.2"/>
<path d="M811.442 325.081C808.545 317.24 797.455 317.24 794.558 325.081L791.291 333.923C790.358 336.451 787.589 337.784 785.031 336.937L776.055 333.968C768.096 331.335 761.177 340.056 765.55 347.208L770.369 355.088C771.785 357.404 771.095 360.426 768.815 361.898L764.878 364.438C757.338 369.304 760.784 381 769.758 381H775.64H790.824H803H815.176H830.36H836.242C845.216 381 848.662 369.304 841.122 364.438L837.185 361.898C834.905 360.426 834.215 357.404 835.631 355.088L840.45 347.208C844.823 340.056 837.904 331.335 829.945 333.968L820.969 336.937C818.411 337.784 815.642 336.451 814.709 333.923L811.442 325.081Z" fill="#454D11"/>
<path d="M811.442 325.081C808.545 317.24 797.455 317.24 794.558 325.081L791.291 333.923C790.358 336.451 787.589 337.784 785.031 336.937L776.055 333.968C768.096 331.335 761.177 340.056 765.55 347.208L770.369 355.088C771.785 357.404 771.095 360.426 768.815 361.898L764.878 364.438C757.338 369.304 760.784 381 769.758 381H775.64H790.824H803H815.176H830.36H836.242C845.216 381 848.662 369.304 841.122 364.438L837.185 361.898C834.905 360.426 834.215 357.404 835.631 355.088L840.45 347.208C844.823 340.056 837.904 331.335 829.945 333.968L820.969 336.937C818.411 337.784 815.642 336.451 814.709 333.923L811.442 325.081Z" fill="url(#paint4_linear_755_123)" fill-opacity="0.2"/>
<path d="M811.442 325.081C808.545 317.24 797.455 317.24 794.558 325.081L791.291 333.923C790.358 336.451 787.589 337.784 785.031 336.937L776.055 333.968C768.096 331.335 761.177 340.056 765.55 347.208L770.369 355.088C771.785 357.404 771.095 360.426 768.815 361.898L764.878 364.438C757.338 369.304 760.784 381 769.758 381H775.64H790.824H803H815.176H830.36H836.242C845.216 381 848.662 369.304 841.122 364.438L837.185 361.898C834.905 360.426 834.215 357.404 835.631 355.088L840.45 347.208C844.823 340.056 837.904 331.335 829.945 333.968L820.969 336.937C818.411 337.784 815.642 336.451 814.709 333.923L811.442 325.081Z" stroke="#969629" stroke-width="4"/>
<path d="M1172.4 302.219C1169.51 294.353 1158.39 294.353 1155.5 302.219L1152.25 311.088C1151.32 313.625 1148.54 314.964 1145.97 314.11L1137.01 311.124C1129.06 308.477 1122.12 317.175 1126.47 324.336L1131.38 332.41C1132.78 334.72 1132.1 337.727 1129.83 339.199L1125.72 341.868C1118.21 346.749 1121.67 358.415 1130.63 358.415H1136.61H1151.79H1163.95H1176.12H1191.29H1197.28C1206.24 358.415 1209.69 346.749 1202.18 341.868L1198.07 339.199C1195.81 337.727 1195.12 334.72 1196.52 332.41L1201.43 324.336C1205.78 317.175 1198.84 308.477 1190.89 311.124L1181.93 314.11C1179.37 314.964 1176.59 313.625 1175.66 311.088L1172.4 302.219Z" fill="#454D11"/>
<path d="M1172.4 302.219C1169.51 294.353 1158.39 294.353 1155.5 302.219L1152.25 311.088C1151.32 313.625 1148.54 314.964 1145.97 314.11L1137.01 311.124C1129.06 308.477 1122.12 317.175 1126.47 324.336L1131.38 332.41C1132.78 334.72 1132.1 337.727 1129.83 339.199L1125.72 341.868C1118.21 346.749 1121.67 358.415 1130.63 358.415H1136.61H1151.79H1163.95H1176.12H1191.29H1197.28C1206.24 358.415 1209.69 346.749 1202.18 341.868L1198.07 339.199C1195.81 337.727 1195.12 334.72 1196.52 332.41L1201.43 324.336C1205.78 317.175 1198.84 308.477 1190.89 311.124L1181.93 314.11C1179.37 314.964 1176.59 313.625 1175.66 311.088L1172.4 302.219Z" fill="url(#paint5_linear_755_123)" fill-opacity="0.2"/>
<path d="M1172.4 302.219C1169.51 294.353 1158.39 294.353 1155.5 302.219L1152.25 311.088C1151.32 313.625 1148.54 314.964 1145.97 314.11L1137.01 311.124C1129.06 308.477 1122.12 317.175 1126.47 324.336L1131.38 332.41C1132.78 334.72 1132.1 337.727 1129.83 339.199L1125.72 341.868C1118.21 346.749 1121.67 358.415 1130.63 358.415H1136.61H1151.79H1163.95H1176.12H1191.29H1197.28C1206.24 358.415 1209.69 346.749 1202.18 341.868L1198.07 339.199C1195.81 337.727 1195.12 334.72 1196.52 332.41L1201.43 324.336C1205.78 317.175 1198.84 308.477 1190.89 311.124L1181.93 314.11C1179.37 314.964 1176.59 313.625 1175.66 311.088L1172.4 302.219Z" stroke="#969629" stroke-width="4"/>
<path d="M851.401 440.219C848.514 432.353 837.389 432.353 834.502 440.219L831.248 449.088C830.317 451.625 827.538 452.964 824.974 452.11L816.01 449.124C808.06 446.477 801.124 455.175 805.474 462.336L810.379 470.41C811.783 472.72 811.096 475.727 808.83 477.199L804.722 479.868C797.209 484.749 800.665 496.415 809.625 496.415H815.615H830.786H842.951H855.117H870.288H876.278C885.238 496.415 888.695 484.749 881.181 479.868L877.073 477.199C874.807 475.727 874.12 472.72 875.524 470.41L880.429 462.336C884.779 455.175 877.843 446.477 869.893 449.124L860.929 452.11C858.365 452.964 855.586 451.625 854.655 449.088L851.401 440.219Z" fill="#454D11"/>
<path d="M851.401 440.219C848.514 432.353 837.389 432.353 834.502 440.219L831.248 449.088C830.317 451.625 827.538 452.964 824.974 452.11L816.01 449.124C808.06 446.477 801.124 455.175 805.474 462.336L810.379 470.41C811.783 472.72 811.096 475.727 808.83 477.199L804.722 479.868C797.209 484.749 800.665 496.415 809.625 496.415H815.615H830.786H842.951H855.117H870.288H876.278C885.238 496.415 888.695 484.749 881.181 479.868L877.073 477.199C874.807 475.727 874.12 472.72 875.524 470.41L880.429 462.336C884.779 455.175 877.843 446.477 869.893 449.124L860.929 452.11C858.365 452.964 855.586 451.625 854.655 449.088L851.401 440.219Z" fill="url(#paint6_linear_755_123)" fill-opacity="0.2"/>
<path d="M851.401 440.219C848.514 432.353 837.389 432.353 834.502 440.219L831.248 449.088C830.317 451.625 827.538 452.964 824.974 452.11L816.01 449.124C808.06 446.477 801.124 455.175 805.474 462.336L810.379 470.41C811.783 472.72 811.096 475.727 808.83 477.199L804.722 479.868C797.209 484.749 800.665 496.415 809.625 496.415H815.615H830.786H842.951H855.117H870.288H876.278C885.238 496.415 888.695 484.749 881.181 479.868L877.073 477.199C874.807 475.727 874.12 472.72 875.524 470.41L880.429 462.336C884.779 455.175 877.843 446.477 869.893 449.124L860.929 452.11C858.365 452.964 855.586 451.625 854.655 449.088L851.401 440.219Z" stroke="#969629" stroke-width="4"/>
<path d="M1260.4 429.219C1257.51 421.353 1246.39 421.353 1243.5 429.219L1240.25 438.088C1239.32 440.625 1236.54 441.964 1233.97 441.11L1225.01 438.124C1217.06 435.477 1210.12 444.175 1214.47 451.336L1219.38 459.41C1220.78 461.72 1220.1 464.727 1217.83 466.199L1213.72 468.868C1206.21 473.749 1209.67 485.415 1218.63 485.415H1224.61H1239.79H1251.95H1264.12H1279.29H1285.28C1294.24 485.415 1297.69 473.749 1290.18 468.868L1286.07 466.199C1283.81 464.727 1283.12 461.72 1284.52 459.41L1289.43 451.336C1293.78 444.175 1286.84 435.477 1278.89 438.124L1269.93 441.11C1267.37 441.964 1264.59 440.625 1263.66 438.088L1260.4 429.219Z" fill="#454D11"/>
<path d="M1260.4 429.219C1257.51 421.353 1246.39 421.353 1243.5 429.219L1240.25 438.088C1239.32 440.625 1236.54 441.964 1233.97 441.11L1225.01 438.124C1217.06 435.477 1210.12 444.175 1214.47 451.336L1219.38 459.41C1220.78 461.72 1220.1 464.727 1217.83 466.199L1213.72 468.868C1206.21 473.749 1209.67 485.415 1218.63 485.415H1224.61H1239.79H1251.95H1264.12H1279.29H1285.28C1294.24 485.415 1297.69 473.749 1290.18 468.868L1286.07 466.199C1283.81 464.727 1283.12 461.72 1284.52 459.41L1289.43 451.336C1293.78 444.175 1286.84 435.477 1278.89 438.124L1269.93 441.11C1267.37 441.964 1264.59 440.625 1263.66 438.088L1260.4 429.219Z" fill="url(#paint7_linear_755_123)" fill-opacity="0.2"/>
<path d="M1260.4 429.219C1257.51 421.353 1246.39 421.353 1243.5 429.219L1240.25 438.088C1239.32 440.625 1236.54 441.964 1233.97 441.11L1225.01 438.124C1217.06 435.477 1210.12 444.175 1214.47 451.336L1219.38 459.41C1220.78 461.72 1220.1 464.727 1217.83 466.199L1213.72 468.868C1206.21 473.749 1209.67 485.415 1218.63 485.415H1224.61H1239.79H1251.95H1264.12H1279.29H1285.28C1294.24 485.415 1297.69 473.749 1290.18 468.868L1286.07 466.199C1283.81 464.727 1283.12 461.72 1284.52 459.41L1289.43 451.336C1293.78 444.175 1286.84 435.477 1278.89 438.124L1269.93 441.11C1267.37 441.964 1264.59 440.625 1263.66 438.088L1260.4 429.219Z" stroke="#969629" stroke-width="4"/>
<path d="M1217.45 517.333C1214.58 509.447 1203.42 509.447 1200.55 517.333L1194.72 533.301C1193.79 535.846 1191 537.188 1188.43 536.328L1172.37 530.948C1164.43 528.288 1157.48 536.967 1161.81 544.136L1170.67 558.813C1172.07 561.118 1171.38 564.112 1169.13 565.585L1158.59 572.465C1151.1 577.359 1154.57 589 1163.52 589H1175.88H1194.26H1209H1223.74H1242.12H1254.48C1263.43 589 1266.9 577.359 1259.41 572.465L1248.87 565.585C1246.62 564.112 1245.93 561.118 1247.33 558.813L1256.19 544.136C1260.52 536.967 1253.57 528.288 1245.63 530.948L1229.57 536.328C1227 537.188 1224.21 535.846 1223.28 533.301L1217.45 517.333Z" fill="#454D11"/>
<path d="M1217.45 517.333C1214.58 509.447 1203.42 509.447 1200.55 517.333L1194.72 533.301C1193.79 535.846 1191 537.188 1188.43 536.328L1172.37 530.948C1164.43 528.288 1157.48 536.967 1161.81 544.136L1170.67 558.813C1172.07 561.118 1171.38 564.112 1169.13 565.585L1158.59 572.465C1151.1 577.359 1154.57 589 1163.52 589H1175.88H1194.26H1209H1223.74H1242.12H1254.48C1263.43 589 1266.9 577.359 1259.41 572.465L1248.87 565.585C1246.62 564.112 1245.93 561.118 1247.33 558.813L1256.19 544.136C1260.52 536.967 1253.57 528.288 1245.63 530.948L1229.57 536.328C1227 537.188 1224.21 535.846 1223.28 533.301L1217.45 517.333Z" fill="url(#paint8_linear_755_123)" fill-opacity="0.2"/>
<path d="M1217.45 517.333C1214.58 509.447 1203.42 509.447 1200.55 517.333L1194.72 533.301C1193.79 535.846 1191 537.188 1188.43 536.328L1172.37 530.948C1164.43 528.288 1157.48 536.967 1161.81 544.136L1170.67 558.813C1172.07 561.118 1171.38 564.112 1169.13 565.585L1158.59 572.465C1151.1 577.359 1154.57 589 1163.52 589H1175.88H1194.26H1209H1223.74H1242.12H1254.48C1263.43 589 1266.9 577.359 1259.41 572.465L1248.87 565.585C1246.62 564.112 1245.93 561.118 1247.33 558.813L1256.19 544.136C1260.52 536.967 1253.57 528.288 1245.63 530.948L1229.57 536.328C1227 537.188 1224.21 535.846 1223.28 533.301L1217.45 517.333Z" stroke="#969629" stroke-width="4"/>
<path d="M772.955 586.337C770.077 578.45 758.923 578.45 756.045 586.337L748.188 607.871C747.26 610.416 744.472 611.758 741.903 610.898L720.248 603.644C712.307 600.984 705.356 609.662 709.686 616.832L721.615 636.581C723.007 638.886 722.324 641.879 720.07 643.352L704.59 653.466C697.099 658.36 700.564 670 709.512 670H726.82H747.731H764.5H781.269H802.18H819.488C828.436 670 831.901 658.36 824.41 653.466L808.93 643.352C806.676 641.879 805.993 638.886 807.385 636.581L819.314 616.832C823.644 609.662 816.693 600.984 808.752 603.644L787.097 610.898C784.528 611.758 781.74 610.416 780.812 607.871L772.955 586.337Z" fill="#454D11"/>
<path d="M772.955 586.337C770.077 578.45 758.923 578.45 756.045 586.337L748.188 607.871C747.26 610.416 744.472 611.758 741.903 610.898L720.248 603.644C712.307 600.984 705.356 609.662 709.686 616.832L721.615 636.581C723.007 638.886 722.324 641.879 720.07 643.352L704.59 653.466C697.099 658.36 700.564 670 709.512 670H726.82H747.731H764.5H781.269H802.18H819.488C828.436 670 831.901 658.36 824.41 653.466L808.93 643.352C806.676 641.879 805.993 638.886 807.385 636.581L819.314 616.832C823.644 609.662 816.693 600.984 808.752 603.644L787.097 610.898C784.528 611.758 781.74 610.416 780.812 607.871L772.955 586.337Z" fill="url(#paint9_linear_755_123)" fill-opacity="0.2"/>
<path d="M772.955 586.337C770.077 578.45 758.923 578.45 756.045 586.337L748.188 607.871C747.26 610.416 744.472 611.758 741.903 610.898L720.248 603.644C712.307 600.984 705.356 609.662 709.686 616.832L721.615 636.581C723.007 638.886 722.324 641.879 720.07 643.352L704.59 653.466C697.099 658.36 700.564 670 709.512 670H726.82H747.731H764.5H781.269H802.18H819.488C828.436 670 831.901 658.36 824.41 653.466L808.93 643.352C806.676 641.879 805.993 638.886 807.385 636.581L819.314 616.832C823.644 609.662 816.693 600.984 808.752 603.644L787.097 610.898C784.528 611.758 781.74 610.416 780.812 607.871L772.955 586.337Z" stroke="#969629" stroke-width="4"/>
<path d="M492.954 1018.32C490.075 1010.44 478.925 1010.44 476.046 1018.32L466.48 1044.52C465.551 1047.06 462.765 1048.4 460.196 1047.54L433.837 1038.72C425.894 1036.06 418.945 1044.74 423.278 1051.91L437.77 1075.88C439.164 1078.19 438.481 1081.19 436.225 1082.66L416.609 1095.46C409.115 1100.36 412.579 1112 421.529 1112H442.98H466.022H484.5H502.978H526.02H547.471C556.421 1112 559.885 1100.36 552.391 1095.46L532.775 1082.66C530.519 1081.19 529.836 1078.19 531.23 1075.88L545.722 1051.91C550.055 1044.74 543.106 1036.06 535.163 1038.72L508.804 1047.54C506.235 1048.4 503.449 1047.06 502.52 1044.52L492.954 1018.32Z" fill="#454D11"/>
<path d="M492.954 1018.32C490.075 1010.44 478.925 1010.44 476.046 1018.32L466.48 1044.52C465.551 1047.06 462.765 1048.4 460.196 1047.54L433.837 1038.72C425.894 1036.06 418.945 1044.74 423.278 1051.91L437.77 1075.88C439.164 1078.19 438.481 1081.19 436.225 1082.66L416.609 1095.46C409.115 1100.36 412.579 1112 421.529 1112H442.98H466.022H484.5H502.978H526.02H547.471C556.421 1112 559.885 1100.36 552.391 1095.46L532.775 1082.66C530.519 1081.19 529.836 1078.19 531.23 1075.88L545.722 1051.91C550.055 1044.74 543.106 1036.06 535.163 1038.72L508.804 1047.54C506.235 1048.4 503.449 1047.06 502.52 1044.52L492.954 1018.32Z" fill="url(#paint10_linear_755_123)" fill-opacity="0.2"/>
<path d="M492.954 1018.32C490.075 1010.44 478.925 1010.44 476.046 1018.32L466.48 1044.52C465.551 1047.06 462.765 1048.4 460.196 1047.54L433.837 1038.72C425.894 1036.06 418.945 1044.74 423.278 1051.91L437.77 1075.88C439.164 1078.19 438.481 1081.19 436.225 1082.66L416.609 1095.46C409.115 1100.36 412.579 1112 421.529 1112H442.98H466.022H484.5H502.978H526.02H547.471C556.421 1112 559.885 1100.36 552.391 1095.46L532.775 1082.66C530.519 1081.19 529.836 1078.19 531.23 1075.88L545.722 1051.91C550.055 1044.74 543.106 1036.06 535.163 1038.72L508.804 1047.54C506.235 1048.4 503.449 1047.06 502.52 1044.52L492.954 1018.32Z" stroke="#969629" stroke-width="4"/>
<path d="M1038.95 765.337C1036.08 757.45 1024.92 757.45 1022.05 765.337L1014.19 786.871C1013.26 789.416 1010.47 790.758 1007.9 789.898L986.248 782.644C978.307 779.984 971.356 788.662 975.686 795.832L987.615 815.581C989.007 817.886 988.324 820.879 986.07 822.352L970.59 832.466C963.099 837.36 966.564 849 975.512 849H992.82H1013.73H1030.5H1047.27H1068.18H1085.49C1094.44 849 1097.9 837.36 1090.41 832.466L1074.93 822.352C1072.68 820.879 1071.99 817.886 1073.39 815.581L1085.31 795.832C1089.64 788.662 1082.69 779.984 1074.75 782.644L1053.1 789.898C1050.53 790.758 1047.74 789.416 1046.81 786.871L1038.95 765.337Z" fill="#454D11"/>
<path d="M1038.95 765.337C1036.08 757.45 1024.92 757.45 1022.05 765.337L1014.19 786.871C1013.26 789.416 1010.47 790.758 1007.9 789.898L986.248 782.644C978.307 779.984 971.356 788.662 975.686 795.832L987.615 815.581C989.007 817.886 988.324 820.879 986.07 822.352L970.59 832.466C963.099 837.36 966.564 849 975.512 849H992.82H1013.73H1030.5H1047.27H1068.18H1085.49C1094.44 849 1097.9 837.36 1090.41 832.466L1074.93 822.352C1072.68 820.879 1071.99 817.886 1073.39 815.581L1085.31 795.832C1089.64 788.662 1082.69 779.984 1074.75 782.644L1053.1 789.898C1050.53 790.758 1047.74 789.416 1046.81 786.871L1038.95 765.337Z" fill="url(#paint11_linear_755_123)" fill-opacity="0.2"/>
<path d="M1038.95 765.337C1036.08 757.45 1024.92 757.45 1022.05 765.337L1014.19 786.871C1013.26 789.416 1010.47 790.758 1007.9 789.898L986.248 782.644C978.307 779.984 971.356 788.662 975.686 795.832L987.615 815.581C989.007 817.886 988.324 820.879 986.07 822.352L970.59 832.466C963.099 837.36 966.564 849 975.512 849H992.82H1013.73H1030.5H1047.27H1068.18H1085.49C1094.44 849 1097.9 837.36 1090.41 832.466L1074.93 822.352C1072.68 820.879 1071.99 817.886 1073.39 815.581L1085.31 795.832C1089.64 788.662 1082.69 779.984 1074.75 782.644L1053.1 789.898C1050.53 790.758 1047.74 789.416 1046.81 786.871L1038.95 765.337Z" stroke="#969629" stroke-width="4"/>
<path d="M1244.46 1071.37C1241.58 1063.48 1230.42 1063.48 1227.54 1071.37L1224.28 1080.33C1223.35 1082.88 1220.56 1084.22 1217.99 1083.36L1208.98 1080.34C1201.04 1077.67 1194.09 1086.34 1198.41 1093.52L1203.44 1101.86C1204.83 1104.16 1204.15 1107.15 1201.9 1108.63L1197.55 1111.47C1190.07 1116.37 1193.54 1128 1202.48 1128H1208.64H1223.82H1236H1248.18H1263.36H1269.52C1278.46 1128 1281.93 1116.37 1274.45 1111.47L1270.1 1108.63C1267.85 1107.15 1267.17 1104.16 1268.56 1101.86L1273.59 1093.52C1277.91 1086.34 1270.96 1077.67 1263.02 1080.34L1254.01 1083.36C1251.44 1084.22 1248.65 1082.88 1247.72 1080.33L1244.46 1071.37Z" fill="#454D11"/>
<path d="M1244.46 1071.37C1241.58 1063.48 1230.42 1063.48 1227.54 1071.37L1224.28 1080.33C1223.35 1082.88 1220.56 1084.22 1217.99 1083.36L1208.98 1080.34C1201.04 1077.67 1194.09 1086.34 1198.41 1093.52L1203.44 1101.86C1204.83 1104.16 1204.15 1107.15 1201.9 1108.63L1197.55 1111.47C1190.07 1116.37 1193.54 1128 1202.48 1128H1208.64H1223.82H1236H1248.18H1263.36H1269.52C1278.46 1128 1281.93 1116.37 1274.45 1111.47L1270.1 1108.63C1267.85 1107.15 1267.17 1104.16 1268.56 1101.86L1273.59 1093.52C1277.91 1086.34 1270.96 1077.67 1263.02 1080.34L1254.01 1083.36C1251.44 1084.22 1248.65 1082.88 1247.72 1080.33L1244.46 1071.37Z" fill="url(#paint12_linear_755_123)" fill-opacity="0.2"/>
<path d="M1244.46 1071.37C1241.58 1063.48 1230.42 1063.48 1227.54 1071.37L1224.28 1080.33C1223.35 1082.88 1220.56 1084.22 1217.99 1083.36L1208.98 1080.34C1201.04 1077.67 1194.09 1086.34 1198.41 1093.52L1203.44 1101.86C1204.83 1104.16 1204.15 1107.15 1201.9 1108.63L1197.55 1111.47C1190.07 1116.37 1193.54 1128 1202.48 1128H1208.64H1223.82H1236H1248.18H1263.36H1269.52C1278.46 1128 1281.93 1116.37 1274.45 1111.47L1270.1 1108.63C1267.85 1107.15 1267.17 1104.16 1268.56 1101.86L1273.59 1093.52C1277.91 1086.34 1270.96 1077.67 1263.02 1080.34L1254.01 1083.36C1251.44 1084.22 1248.65 1082.88 1247.72 1080.33L1244.46 1071.37Z" stroke="#969629" stroke-width="4"/>
<path d="M513.955 1454.34C511.077 1446.45 499.923 1446.45 497.045 1454.34L489.188 1475.87C488.26 1478.42 485.472 1479.76 482.903 1478.9L461.248 1471.64C453.307 1468.98 446.356 1477.66 450.686 1484.83L462.615 1504.58C464.007 1506.89 463.324 1509.88 461.07 1511.35L445.59 1521.47C438.099 1526.36 441.564 1538 450.512 1538H467.82H488.731H505.5H522.269H543.18H560.488C569.436 1538 572.901 1526.36 565.41 1521.47L549.93 1511.35C547.676 1509.88 546.993 1506.89 548.385 1504.58L560.314 1484.83C564.644 1477.66 557.693 1468.98 549.752 1471.64L528.097 1478.9C525.528 1479.76 522.74 1478.42 521.812 1475.87L513.955 1454.34Z" fill="#454D11"/>
<path d="M513.955 1454.34C511.077 1446.45 499.923 1446.45 497.045 1454.34L489.188 1475.87C488.26 1478.42 485.472 1479.76 482.903 1478.9L461.248 1471.64C453.307 1468.98 446.356 1477.66 450.686 1484.83L462.615 1504.58C464.007 1506.89 463.324 1509.88 461.07 1511.35L445.59 1521.47C438.099 1526.36 441.564 1538 450.512 1538H467.82H488.731H505.5H522.269H543.18H560.488C569.436 1538 572.901 1526.36 565.41 1521.47L549.93 1511.35C547.676 1509.88 546.993 1506.89 548.385 1504.58L560.314 1484.83C564.644 1477.66 557.693 1468.98 549.752 1471.64L528.097 1478.9C525.528 1479.76 522.74 1478.42 521.812 1475.87L513.955 1454.34Z" fill="url(#paint13_linear_755_123)" fill-opacity="0.2"/>
<path d="M513.955 1454.34C511.077 1446.45 499.923 1446.45 497.045 1454.34L489.188 1475.87C488.26 1478.42 485.472 1479.76 482.903 1478.9L461.248 1471.64C453.307 1468.98 446.356 1477.66 450.686 1484.83L462.615 1504.58C464.007 1506.89 463.324 1509.88 461.07 1511.35L445.59 1521.47C438.099 1526.36 441.564 1538 450.512 1538H467.82H488.731H505.5H522.269H543.18H560.488C569.436 1538 572.901 1526.36 565.41 1521.47L549.93 1511.35C547.676 1509.88 546.993 1506.89 548.385 1504.58L560.314 1484.83C564.644 1477.66 557.693 1468.98 549.752 1471.64L528.097 1478.9C525.528 1479.76 522.74 1478.42 521.812 1475.87L513.955 1454.34Z" stroke="#969629" stroke-width="4"/>
<path d="M74.9564 1597.37C72.0812 1589.48 60.9188 1589.48 58.0436 1597.37L52.7504 1611.9C51.8223 1614.45 49.0327 1615.79 46.462 1614.93L31.8631 1610.03C23.9237 1607.37 16.9689 1616.04 21.2934 1623.21L29.3831 1636.63C30.7721 1638.93 30.0899 1641.92 27.8392 1643.39L18.553 1649.47C11.0685 1654.37 14.5365 1666 23.481 1666H34.58H52.2943H66.5H80.7057H98.42H109.519C118.463 1666 121.931 1654.37 114.447 1649.47L105.161 1643.39C102.91 1641.92 102.228 1638.93 103.617 1636.63L111.707 1623.21C116.031 1616.04 109.076 1607.37 101.137 1610.03L86.5379 1614.93C83.9673 1615.79 81.1777 1614.45 80.2496 1611.9L74.9564 1597.37Z" fill="#454D11"/>
<path d="M74.9564 1597.37C72.0812 1589.48 60.9188 1589.48 58.0436 1597.37L52.7504 1611.9C51.8223 1614.45 49.0327 1615.79 46.462 1614.93L31.8631 1610.03C23.9237 1607.37 16.9689 1616.04 21.2934 1623.21L29.3831 1636.63C30.7721 1638.93 30.0899 1641.92 27.8392 1643.39L18.553 1649.47C11.0685 1654.37 14.5365 1666 23.481 1666H34.58H52.2943H66.5H80.7057H98.42H109.519C118.463 1666 121.931 1654.37 114.447 1649.47L105.161 1643.39C102.91 1641.92 102.228 1638.93 103.617 1636.63L111.707 1623.21C116.031 1616.04 109.076 1607.37 101.137 1610.03L86.5379 1614.93C83.9673 1615.79 81.1777 1614.45 80.2496 1611.9L74.9564 1597.37Z" fill="url(#paint14_linear_755_123)" fill-opacity="0.2"/>
<path d="M74.9564 1597.37C72.0812 1589.48 60.9188 1589.48 58.0436 1597.37L52.7504 1611.9C51.8223 1614.45 49.0327 1615.79 46.462 1614.93L31.8631 1610.03C23.9237 1607.37 16.9689 1616.04 21.2934 1623.21L29.3831 1636.63C30.7721 1638.93 30.0899 1641.92 27.8392 1643.39L18.553 1649.47C11.0685 1654.37 14.5365 1666 23.481 1666H34.58H52.2943H66.5H80.7057H98.42H109.519C118.463 1666 121.931 1654.37 114.447 1649.47L105.161 1643.39C102.91 1641.92 102.228 1638.93 103.617 1636.63L111.707 1623.21C116.031 1616.04 109.076 1607.37 101.137 1610.03L86.5379 1614.93C83.9673 1615.79 81.1777 1614.45 80.2496 1611.9L74.9564 1597.37Z" stroke="#969629" stroke-width="4"/>
<path d="M1045.96 1538.39C1043.08 1530.49 1031.92 1530.49 1029.04 1538.39L1017.34 1570.54C1016.41 1573.09 1013.62 1574.43 1011.05 1573.57L978.801 1562.74C970.862 1560.07 963.905 1568.74 968.227 1575.92L985.988 1605.39C987.375 1607.7 986.693 1610.68 984.444 1612.16L959.533 1628.47C952.052 1633.37 955.521 1645 964.464 1645H991.18H1016.89H1037.5H1058.11H1083.82H1110.54C1119.48 1645 1122.95 1633.37 1115.47 1628.47L1090.56 1612.16C1088.31 1610.68 1087.62 1607.7 1089.01 1605.39L1106.77 1575.92C1111.09 1568.74 1104.14 1560.07 1096.2 1562.74L1063.95 1573.57C1061.38 1574.43 1058.59 1573.09 1057.66 1570.54L1045.96 1538.39Z" fill="#454D11"/>
<path d="M1045.96 1538.39C1043.08 1530.49 1031.92 1530.49 1029.04 1538.39L1017.34 1570.54C1016.41 1573.09 1013.62 1574.43 1011.05 1573.57L978.801 1562.74C970.862 1560.07 963.905 1568.74 968.227 1575.92L985.988 1605.39C987.375 1607.7 986.693 1610.68 984.444 1612.16L959.533 1628.47C952.052 1633.37 955.521 1645 964.464 1645H991.18H1016.89H1037.5H1058.11H1083.82H1110.54C1119.48 1645 1122.95 1633.37 1115.47 1628.47L1090.56 1612.16C1088.31 1610.68 1087.62 1607.7 1089.01 1605.39L1106.77 1575.92C1111.09 1568.74 1104.14 1560.07 1096.2 1562.74L1063.95 1573.57C1061.38 1574.43 1058.59 1573.09 1057.66 1570.54L1045.96 1538.39Z" fill="url(#paint15_linear_755_123)" fill-opacity="0.2"/>
<path d="M1045.96 1538.39C1043.08 1530.49 1031.92 1530.49 1029.04 1538.39L1017.34 1570.54C1016.41 1573.09 1013.62 1574.43 1011.05 1573.57L978.801 1562.74C970.862 1560.07 963.905 1568.74 968.227 1575.92L985.988 1605.39C987.375 1607.7 986.693 1610.68 984.444 1612.16L959.533 1628.47C952.052 1633.37 955.521 1645 964.464 1645H991.18H1016.89H1037.5H1058.11H1083.82H1110.54C1119.48 1645 1122.95 1633.37 1115.47 1628.47L1090.56 1612.16C1088.31 1610.68 1087.62 1607.7 1089.01 1605.39L1106.77 1575.92C1111.09 1568.74 1104.14 1560.07 1096.2 1562.74L1063.95 1573.57C1061.38 1574.43 1058.59 1573.09 1057.66 1570.54L1045.96 1538.39Z" stroke="#969629" stroke-width="4"/>
<path d="M967.955 1592.34C965.077 1584.45 953.923 1584.45 951.045 1592.34L943.188 1613.87C942.26 1616.42 939.472 1617.76 936.903 1616.9L915.248 1609.64C907.307 1606.98 900.356 1615.66 904.686 1622.83L916.615 1642.58C918.007 1644.89 917.324 1647.88 915.07 1649.35L899.59 1659.47C892.099 1664.36 895.564 1676 904.512 1676H921.82H942.731H959.5H976.269H997.18H1014.49C1023.44 1676 1026.9 1664.36 1019.41 1659.47L1003.93 1649.35C1001.68 1647.88 1000.99 1644.89 1002.39 1642.58L1014.31 1622.83C1018.64 1615.66 1011.69 1606.98 1003.75 1609.64L982.097 1616.9C979.528 1617.76 976.74 1616.42 975.812 1613.87L967.955 1592.34Z" fill="#454D11"/>
<path d="M967.955 1592.34C965.077 1584.45 953.923 1584.45 951.045 1592.34L943.188 1613.87C942.26 1616.42 939.472 1617.76 936.903 1616.9L915.248 1609.64C907.307 1606.98 900.356 1615.66 904.686 1622.83L916.615 1642.58C918.007 1644.89 917.324 1647.88 915.07 1649.35L899.59 1659.47C892.099 1664.36 895.564 1676 904.512 1676H921.82H942.731H959.5H976.269H997.18H1014.49C1023.44 1676 1026.9 1664.36 1019.41 1659.47L1003.93 1649.35C1001.68 1647.88 1000.99 1644.89 1002.39 1642.58L1014.31 1622.83C1018.64 1615.66 1011.69 1606.98 1003.75 1609.64L982.097 1616.9C979.528 1617.76 976.74 1616.42 975.812 1613.87L967.955 1592.34Z" fill="url(#paint16_linear_755_123)" fill-opacity="0.2"/>
<path d="M967.955 1592.34C965.077 1584.45 953.923 1584.45 951.045 1592.34L943.188 1613.87C942.26 1616.42 939.472 1617.76 936.903 1616.9L915.248 1609.64C907.307 1606.98 900.356 1615.66 904.686 1622.83L916.615 1642.58C918.007 1644.89 917.324 1647.88 915.07 1649.35L899.59 1659.47C892.099 1664.36 895.564 1676 904.512 1676H921.82H942.731H959.5H976.269H997.18H1014.49C1023.44 1676 1026.9 1664.36 1019.41 1659.47L1003.93 1649.35C1001.68 1647.88 1000.99 1644.89 1002.39 1642.58L1014.31 1622.83C1018.64 1615.66 1011.69 1606.98 1003.75 1609.64L982.097 1616.9C979.528 1617.76 976.74 1616.42 975.812 1613.87L967.955 1592.34Z" stroke="#969629" stroke-width="4"/>
<path d="M615.955 2071.34C613.077 2063.45 601.923 2063.45 599.045 2071.34L591.188 2092.87C590.26 2095.42 587.472 2096.76 584.903 2095.9L563.248 2088.64C555.307 2085.98 548.356 2094.66 552.686 2101.83L564.615 2121.58C566.007 2123.89 565.324 2126.88 563.07 2128.35L547.59 2138.47C540.099 2143.36 543.564 2155 552.512 2155H569.82H590.731H607.5H624.269H645.18H662.488C671.436 2155 674.901 2143.36 667.41 2138.47L651.93 2128.35C649.676 2126.88 648.993 2123.89 650.385 2121.58L662.314 2101.83C666.644 2094.66 659.693 2085.98 651.752 2088.64L630.097 2095.9C627.528 2096.76 624.74 2095.42 623.812 2092.87L615.955 2071.34Z" fill="#454D11"/>
<path d="M615.955 2071.34C613.077 2063.45 601.923 2063.45 599.045 2071.34L591.188 2092.87C590.26 2095.42 587.472 2096.76 584.903 2095.9L563.248 2088.64C555.307 2085.98 548.356 2094.66 552.686 2101.83L564.615 2121.58C566.007 2123.89 565.324 2126.88 563.07 2128.35L547.59 2138.47C540.099 2143.36 543.564 2155 552.512 2155H569.82H590.731H607.5H624.269H645.18H662.488C671.436 2155 674.901 2143.36 667.41 2138.47L651.93 2128.35C649.676 2126.88 648.993 2123.89 650.385 2121.58L662.314 2101.83C666.644 2094.66 659.693 2085.98 651.752 2088.64L630.097 2095.9C627.528 2096.76 624.74 2095.42 623.812 2092.87L615.955 2071.34Z" fill="url(#paint17_linear_755_123)" fill-opacity="0.2"/>
<path d="M615.955 2071.34C613.077 2063.45 601.923 2063.45 599.045 2071.34L591.188 2092.87C590.26 2095.42 587.472 2096.76 584.903 2095.9L563.248 2088.64C555.307 2085.98 548.356 2094.66 552.686 2101.83L564.615 2121.58C566.007 2123.89 565.324 2126.88 563.07 2128.35L547.59 2138.47C540.099 2143.36 543.564 2155 552.512 2155H569.82H590.731H607.5H624.269H645.18H662.488C671.436 2155 674.901 2143.36 667.41 2138.47L651.93 2128.35C649.676 2126.88 648.993 2123.89 650.385 2121.58L662.314 2101.83C666.644 2094.66 659.693 2085.98 651.752 2088.64L630.097 2095.9C627.528 2096.76 624.74 2095.42 623.812 2092.87L615.955 2071.34Z" stroke="#969629" stroke-width="4"/>
<path d="M930.459 2390.43C927.588 2382.53 916.412 2382.53 913.541 2390.43L909.637 2401.18C908.71 2403.73 905.916 2405.07 903.343 2404.21L892.561 2400.58C884.626 2397.91 877.664 2406.57 881.979 2413.75L888.018 2423.79C889.401 2426.09 888.721 2429.07 886.476 2430.55L880.489 2434.48C873.016 2439.38 876.488 2451 885.427 2451H893.2H909.183H922H934.817H950.8H958.573C967.512 2451 970.984 2439.38 963.511 2434.48L957.524 2430.55C955.279 2429.07 954.599 2426.09 955.982 2423.79L962.021 2413.75C966.336 2406.57 959.374 2397.91 951.439 2400.58L940.657 2404.21C938.084 2405.07 935.29 2403.73 934.363 2401.18L930.459 2390.43Z" fill="#454D11"/>
<path d="M930.459 2390.43C927.588 2382.53 916.412 2382.53 913.541 2390.43L909.637 2401.18C908.71 2403.73 905.916 2405.07 903.343 2404.21L892.561 2400.58C884.626 2397.91 877.664 2406.57 881.979 2413.75L888.018 2423.79C889.401 2426.09 888.721 2429.07 886.476 2430.55L880.489 2434.48C873.016 2439.38 876.488 2451 885.427 2451H893.2H909.183H922H934.817H950.8H958.573C967.512 2451 970.984 2439.38 963.511 2434.48L957.524 2430.55C955.279 2429.07 954.599 2426.09 955.982 2423.79L962.021 2413.75C966.336 2406.57 959.374 2397.91 951.439 2400.58L940.657 2404.21C938.084 2405.07 935.29 2403.73 934.363 2401.18L930.459 2390.43Z" fill="url(#paint18_linear_755_123)" fill-opacity="0.2"/>
<path d="M930.459 2390.43C927.588 2382.53 916.412 2382.53 913.541 2390.43L909.637 2401.18C908.71 2403.73 905.916 2405.07 903.343 2404.21L892.561 2400.58C884.626 2397.91 877.664 2406.57 881.979 2413.75L888.018 2423.79C889.401 2426.09 888.721 2429.07 886.476 2430.55L880.489 2434.48C873.016 2439.38 876.488 2451 885.427 2451H893.2H909.183H922H934.817H950.8H958.573C967.512 2451 970.984 2439.38 963.511 2434.48L957.524 2430.55C955.279 2429.07 954.599 2426.09 955.982 2423.79L962.021 2413.75C966.336 2406.57 959.374 2397.91 951.439 2400.58L940.657 2404.21C938.084 2405.07 935.29 2403.73 934.363 2401.18L930.459 2390.43Z" stroke="#969629" stroke-width="4"/>
<path d="M1159.95 2815.34C1157.08 2807.45 1145.92 2807.45 1143.05 2815.34L1135.19 2836.87C1134.26 2839.42 1131.47 2840.76 1128.9 2839.9L1107.25 2832.64C1099.31 2829.98 1092.36 2838.66 1096.69 2845.83L1108.61 2865.58C1110.01 2867.89 1109.32 2870.88 1107.07 2872.35L1091.59 2882.47C1084.1 2887.36 1087.56 2899 1096.51 2899H1113.82H1134.73H1151.5H1168.27H1189.18H1206.49C1215.44 2899 1218.9 2887.36 1211.41 2882.47L1195.93 2872.35C1193.68 2870.88 1192.99 2867.89 1194.39 2865.58L1206.31 2845.83C1210.64 2838.66 1203.69 2829.98 1195.75 2832.64L1174.1 2839.9C1171.53 2840.76 1168.74 2839.42 1167.81 2836.87L1159.95 2815.34Z" fill="#454D11"/>
<path d="M1159.95 2815.34C1157.08 2807.45 1145.92 2807.45 1143.05 2815.34L1135.19 2836.87C1134.26 2839.42 1131.47 2840.76 1128.9 2839.9L1107.25 2832.64C1099.31 2829.98 1092.36 2838.66 1096.69 2845.83L1108.61 2865.58C1110.01 2867.89 1109.32 2870.88 1107.07 2872.35L1091.59 2882.47C1084.1 2887.36 1087.56 2899 1096.51 2899H1113.82H1134.73H1151.5H1168.27H1189.18H1206.49C1215.44 2899 1218.9 2887.36 1211.41 2882.47L1195.93 2872.35C1193.68 2870.88 1192.99 2867.89 1194.39 2865.58L1206.31 2845.83C1210.64 2838.66 1203.69 2829.98 1195.75 2832.64L1174.1 2839.9C1171.53 2840.76 1168.74 2839.42 1167.81 2836.87L1159.95 2815.34Z" fill="url(#paint19_linear_755_123)" fill-opacity="0.2"/>
<path d="M1159.95 2815.34C1157.08 2807.45 1145.92 2807.45 1143.05 2815.34L1135.19 2836.87C1134.26 2839.42 1131.47 2840.76 1128.9 2839.9L1107.25 2832.64C1099.31 2829.98 1092.36 2838.66 1096.69 2845.83L1108.61 2865.58C1110.01 2867.89 1109.32 2870.88 1107.07 2872.35L1091.59 2882.47C1084.1 2887.36 1087.56 2899 1096.51 2899H1113.82H1134.73H1151.5H1168.27H1189.18H1206.49C1215.44 2899 1218.9 2887.36 1211.41 2882.47L1195.93 2872.35C1193.68 2870.88 1192.99 2867.89 1194.39 2865.58L1206.31 2845.83C1210.64 2838.66 1203.69 2829.98 1195.75 2832.64L1174.1 2839.9C1171.53 2840.76 1168.74 2839.42 1167.81 2836.87L1159.95 2815.34Z" stroke="#969629" stroke-width="4"/>
<path d="M877.955 2939.34C875.077 2931.45 863.923 2931.45 861.045 2939.34L853.188 2960.87C852.26 2963.42 849.472 2964.76 846.903 2963.9L825.248 2956.64C817.307 2953.98 810.356 2962.66 814.686 2969.83L826.615 2989.58C828.007 2991.89 827.324 2994.88 825.07 2996.35L809.59 3006.47C802.099 3011.36 805.564 3023 814.512 3023H831.82H852.731H869.5H886.269H907.18H924.488C933.436 3023 936.901 3011.36 929.41 3006.47L913.93 2996.35C911.676 2994.88 910.993 2991.89 912.385 2989.58L924.314 2969.83C928.644 2962.66 921.693 2953.98 913.752 2956.64L892.097 2963.9C889.528 2964.76 886.74 2963.42 885.812 2960.87L877.955 2939.34Z" fill="#454D11"/>
<path d="M877.955 2939.34C875.077 2931.45 863.923 2931.45 861.045 2939.34L853.188 2960.87C852.26 2963.42 849.472 2964.76 846.903 2963.9L825.248 2956.64C817.307 2953.98 810.356 2962.66 814.686 2969.83L826.615 2989.58C828.007 2991.89 827.324 2994.88 825.07 2996.35L809.59 3006.47C802.099 3011.36 805.564 3023 814.512 3023H831.82H852.731H869.5H886.269H907.18H924.488C933.436 3023 936.901 3011.36 929.41 3006.47L913.93 2996.35C911.676 2994.88 910.993 2991.89 912.385 2989.58L924.314 2969.83C928.644 2962.66 921.693 2953.98 913.752 2956.64L892.097 2963.9C889.528 2964.76 886.74 2963.42 885.812 2960.87L877.955 2939.34Z" fill="url(#paint20_linear_755_123)" fill-opacity="0.2"/>
<path d="M877.955 2939.34C875.077 2931.45 863.923 2931.45 861.045 2939.34L853.188 2960.87C852.26 2963.42 849.472 2964.76 846.903 2963.9L825.248 2956.64C817.307 2953.98 810.356 2962.66 814.686 2969.83L826.615 2989.58C828.007 2991.89 827.324 2994.88 825.07 2996.35L809.59 3006.47C802.099 3011.36 805.564 3023 814.512 3023H831.82H852.731H869.5H886.269H907.18H924.488C933.436 3023 936.901 3011.36 929.41 3006.47L913.93 2996.35C911.676 2994.88 910.993 2991.89 912.385 2989.58L924.314 2969.83C928.644 2962.66 921.693 2953.98 913.752 2956.64L892.097 2963.9C889.528 2964.76 886.74 2963.42 885.812 2960.87L877.955 2939.34Z" stroke="#969629" stroke-width="4"/>
<path d="M928.96 2976.45C926.091 2968.55 914.909 2968.55 912.04 2976.45L907.815 2988.1C906.889 2990.65 904.093 2992 901.519 2991.13L889.852 2987.2C881.918 2984.53 874.953 2993.19 879.263 3000.36L885.804 3011.25C887.186 3013.55 886.506 3016.53 884.264 3018.01L877.459 3022.48C869.991 3027.39 873.466 3039 882.402 3039H890.98H907.362H920.5H933.638H950.02H958.598C967.534 3039 971.009 3027.39 963.541 3022.48L956.736 3018.01C954.494 3016.53 953.814 3013.55 955.196 3011.25L961.737 3000.36C966.047 2993.19 959.082 2984.53 951.148 2987.2L939.481 2991.13C936.907 2992 934.111 2990.65 933.185 2988.1L928.96 2976.45Z" fill="#454D11"/>
<path d="M928.96 2976.45C926.091 2968.55 914.909 2968.55 912.04 2976.45L907.815 2988.1C906.889 2990.65 904.093 2992 901.519 2991.13L889.852 2987.2C881.918 2984.53 874.953 2993.19 879.263 3000.36L885.804 3011.25C887.186 3013.55 886.506 3016.53 884.264 3018.01L877.459 3022.48C869.991 3027.39 873.466 3039 882.402 3039H890.98H907.362H920.5H933.638H950.02H958.598C967.534 3039 971.009 3027.39 963.541 3022.48L956.736 3018.01C954.494 3016.53 953.814 3013.55 955.196 3011.25L961.737 3000.36C966.047 2993.19 959.082 2984.53 951.148 2987.2L939.481 2991.13C936.907 2992 934.111 2990.65 933.185 2988.1L928.96 2976.45Z" fill="url(#paint21_linear_755_123)" fill-opacity="0.2"/>
<path d="M928.96 2976.45C926.091 2968.55 914.909 2968.55 912.04 2976.45L907.815 2988.1C906.889 2990.65 904.093 2992 901.519 2991.13L889.852 2987.2C881.918 2984.53 874.953 2993.19 879.263 3000.36L885.804 3011.25C887.186 3013.55 886.506 3016.53 884.264 3018.01L877.459 3022.48C869.991 3027.39 873.466 3039 882.402 3039H890.98H907.362H920.5H933.638H950.02H958.598C967.534 3039 971.009 3027.39 963.541 3022.48L956.736 3018.01C954.494 3016.53 953.814 3013.55 955.196 3011.25L961.737 3000.36C966.047 2993.19 959.082 2984.53 951.148 2987.2L939.481 2991.13C936.907 2992 934.111 2990.65 933.185 2988.1L928.96 2976.45Z" stroke="#969629" stroke-width="4"/>
<path d="M684.455 451.333C681.577 443.447 670.423 443.447 667.545 451.333L661.718 467.301C660.789 469.846 658.002 471.188 655.433 470.328L639.368 464.948C631.426 462.288 624.476 470.967 628.806 478.136L637.674 492.813C639.066 495.118 638.383 498.112 636.128 499.585L625.595 506.465C618.103 511.359 621.568 523 630.517 523H642.88H661.26H676H690.74H709.12H721.483C730.432 523 733.897 511.359 726.405 506.465L715.872 499.585C713.617 498.112 712.934 495.118 714.326 492.813L723.194 478.136C727.524 470.967 720.574 462.288 712.632 464.948L696.567 470.328C693.998 471.188 691.211 469.846 690.282 467.301L684.455 451.333Z" fill="#454D11"/>
<path d="M684.455 451.333C681.577 443.447 670.423 443.447 667.545 451.333L661.718 467.301C660.789 469.846 658.002 471.188 655.433 470.328L639.368 464.948C631.426 462.288 624.476 470.967 628.806 478.136L637.674 492.813C639.066 495.118 638.383 498.112 636.128 499.585L625.595 506.465C618.103 511.359 621.568 523 630.517 523H642.88H661.26H676H690.74H709.12H721.483C730.432 523 733.897 511.359 726.405 506.465L715.872 499.585C713.617 498.112 712.934 495.118 714.326 492.813L723.194 478.136C727.524 470.967 720.574 462.288 712.632 464.948L696.567 470.328C693.998 471.188 691.211 469.846 690.282 467.301L684.455 451.333Z" fill="url(#paint22_linear_755_123)" fill-opacity="0.2"/>
<path d="M684.455 451.333C681.577 443.447 670.423 443.447 667.545 451.333L661.718 467.301C660.789 469.846 658.002 471.188 655.433 470.328L639.368 464.948C631.426 462.288 624.476 470.967 628.806 478.136L637.674 492.813C639.066 495.118 638.383 498.112 636.128 499.585L625.595 506.465C618.103 511.359 621.568 523 630.517 523H642.88H661.26H676H690.74H709.12H721.483C730.432 523 733.897 511.359 726.405 506.465L715.872 499.585C713.617 498.112 712.934 495.118 714.326 492.813L723.194 478.136C727.524 470.967 720.574 462.288 712.632 464.948L696.567 470.328C693.998 471.188 691.211 469.846 690.282 467.301L684.455 451.333Z" stroke="#969629" stroke-width="4"/>
<path d="M1246.45 696.228C1243.56 688.361 1232.44 688.361 1229.55 696.228L1226.71 703.965C1225.78 706.503 1223 707.842 1220.44 706.987L1212.62 704.383C1204.67 701.734 1197.73 710.43 1202.08 717.592L1206.37 724.647C1207.77 726.957 1207.08 729.963 1204.82 731.435L1201.71 733.454C1194.2 738.336 1197.66 750 1206.62 750H1211.6H1226.25H1238H1249.75H1264.4H1269.38C1278.34 750 1281.8 738.336 1274.29 733.454L1271.18 731.435C1268.92 729.963 1268.23 726.957 1269.63 724.647L1273.92 717.592C1278.27 710.43 1271.33 701.734 1263.38 704.383L1255.56 706.987C1253 707.842 1250.22 706.503 1249.29 703.965L1246.45 696.228Z" fill="#454D11"/>
<path d="M1246.45 696.228C1243.56 688.361 1232.44 688.361 1229.55 696.228L1226.71 703.965C1225.78 706.503 1223 707.842 1220.44 706.987L1212.62 704.383C1204.67 701.734 1197.73 710.43 1202.08 717.592L1206.37 724.647C1207.77 726.957 1207.08 729.963 1204.82 731.435L1201.71 733.454C1194.2 738.336 1197.66 750 1206.62 750H1211.6H1226.25H1238H1249.75H1264.4H1269.38C1278.34 750 1281.8 738.336 1274.29 733.454L1271.18 731.435C1268.92 729.963 1268.23 726.957 1269.63 724.647L1273.92 717.592C1278.27 710.43 1271.33 701.734 1263.38 704.383L1255.56 706.987C1253 707.842 1250.22 706.503 1249.29 703.965L1246.45 696.228Z" fill="url(#paint23_linear_755_123)" fill-opacity="0.2"/>
<path d="M1246.45 696.228C1243.56 688.361 1232.44 688.361 1229.55 696.228L1226.71 703.965C1225.78 706.503 1223 707.842 1220.44 706.987L1212.62 704.383C1204.67 701.734 1197.73 710.43 1202.08 717.592L1206.37 724.647C1207.77 726.957 1207.08 729.963 1204.82 731.435L1201.71 733.454C1194.2 738.336 1197.66 750 1206.62 750H1211.6H1226.25H1238H1249.75H1264.4H1269.38C1278.34 750 1281.8 738.336 1274.29 733.454L1271.18 731.435C1268.92 729.963 1268.23 726.957 1269.63 724.647L1273.92 717.592C1278.27 710.43 1271.33 701.734 1263.38 704.383L1255.56 706.987C1253 707.842 1250.22 706.503 1249.29 703.965L1246.45 696.228Z" stroke="#969629" stroke-width="4"/>
<path d="M435.455 586.333C432.577 578.447 421.423 578.447 418.545 586.333L412.718 602.301C411.789 604.846 409.002 606.188 406.433 605.328L390.368 599.948C382.426 597.288 375.476 605.967 379.806 613.136L388.674 627.813C390.066 630.118 389.383 633.112 387.128 634.585L376.595 641.465C369.103 646.359 372.568 658 381.517 658H393.88H412.26H427H441.74H460.12H472.483C481.432 658 484.897 646.359 477.405 641.465L466.872 634.585C464.617 633.112 463.934 630.118 465.326 627.813L474.194 613.136C478.524 605.967 471.574 597.288 463.632 599.948L447.567 605.328C444.998 606.188 442.211 604.846 441.282 602.301L435.455 586.333Z" fill="#454D11"/>
<path d="M435.455 586.333C432.577 578.447 421.423 578.447 418.545 586.333L412.718 602.301C411.789 604.846 409.002 606.188 406.433 605.328L390.368 599.948C382.426 597.288 375.476 605.967 379.806 613.136L388.674 627.813C390.066 630.118 389.383 633.112 387.128 634.585L376.595 641.465C369.103 646.359 372.568 658 381.517 658H393.88H412.26H427H441.74H460.12H472.483C481.432 658 484.897 646.359 477.405 641.465L466.872 634.585C464.617 633.112 463.934 630.118 465.326 627.813L474.194 613.136C478.524 605.967 471.574 597.288 463.632 599.948L447.567 605.328C444.998 606.188 442.211 604.846 441.282 602.301L435.455 586.333Z" fill="url(#paint24_linear_755_123)" fill-opacity="0.2"/>
<path d="M435.455 586.333C432.577 578.447 421.423 578.447 418.545 586.333L412.718 602.301C411.789 604.846 409.002 606.188 406.433 605.328L390.368 599.948C382.426 597.288 375.476 605.967 379.806 613.136L388.674 627.813C390.066 630.118 389.383 633.112 387.128 634.585L376.595 641.465C369.103 646.359 372.568 658 381.517 658H393.88H412.26H427H441.74H460.12H472.483C481.432 658 484.897 646.359 477.405 641.465L466.872 634.585C464.617 633.112 463.934 630.118 465.326 627.813L474.194 613.136C478.524 605.967 471.574 597.288 463.632 599.948L447.567 605.328C444.998 606.188 442.211 604.846 441.282 602.301L435.455 586.333Z" stroke="#969629" stroke-width="4"/>
<path d="M156.456 711.37C153.581 703.478 142.419 703.478 139.544 711.37L136.28 720.33C135.352 722.877 132.562 724.221 129.991 723.359L120.982 720.336C113.042 717.672 106.087 726.345 110.412 733.516L115.443 741.859C116.832 744.163 116.15 747.152 113.899 748.625L109.553 751.469C102.069 756.367 105.537 768 114.481 768H120.64H135.824H148H160.176H175.36H181.519C190.463 768 193.931 756.367 186.447 751.469L182.101 748.625C179.85 747.152 179.168 744.163 180.557 741.859L185.588 733.516C189.913 726.345 182.958 717.672 175.018 720.336L166.009 723.359C163.438 724.221 160.648 722.877 159.72 720.33L156.456 711.37Z" fill="#454D11"/>
<path d="M156.456 711.37C153.581 703.478 142.419 703.478 139.544 711.37L136.28 720.33C135.352 722.877 132.562 724.221 129.991 723.359L120.982 720.336C113.042 717.672 106.087 726.345 110.412 733.516L115.443 741.859C116.832 744.163 116.15 747.152 113.899 748.625L109.553 751.469C102.069 756.367 105.537 768 114.481 768H120.64H135.824H148H160.176H175.36H181.519C190.463 768 193.931 756.367 186.447 751.469L182.101 748.625C179.85 747.152 179.168 744.163 180.557 741.859L185.588 733.516C189.913 726.345 182.958 717.672 175.018 720.336L166.009 723.359C163.438 724.221 160.648 722.877 159.72 720.33L156.456 711.37Z" fill="url(#paint25_linear_755_123)" fill-opacity="0.2"/>
<path d="M156.456 711.37C153.581 703.478 142.419 703.478 139.544 711.37L136.28 720.33C135.352 722.877 132.562 724.221 129.991 723.359L120.982 720.336C113.042 717.672 106.087 726.345 110.412 733.516L115.443 741.859C116.832 744.163 116.15 747.152 113.899 748.625L109.553 751.469C102.069 756.367 105.537 768 114.481 768H120.64H135.824H148H160.176H175.36H181.519C190.463 768 193.931 756.367 186.447 751.469L182.101 748.625C179.85 747.152 179.168 744.163 180.557 741.859L185.588 733.516C189.913 726.345 182.958 717.672 175.018 720.336L166.009 723.359C163.438 724.221 160.648 722.877 159.72 720.33L156.456 711.37Z" stroke="#969629" stroke-width="4"/>
<path fill-rule="evenodd" clip-rule="evenodd" d="M419.569 1385.92L416.5 1310L413.431 1385.92L393.053 1312.76L407.459 1387.34L370.87 1320.89L401.974 1390.11L351.146 1333.94L397.272 1394.09L334.947 1351.23L393.607 1399.04L323.143 1371.81L391.176 1404.71L316.373 1394.57L390.11 1410.8L315 1418.3L390.467 1416.97H442.533L518 1418.3L442.89 1410.8L516.627 1394.57L441.824 1404.71L509.857 1371.81L439.393 1399.04L498.053 1351.23L435.728 1394.09L481.854 1333.94L431.026 1390.11L462.13 1320.89L425.541 1387.34L439.947 1312.76L419.569 1385.92Z" fill="#FFC634"/>
<path fill-rule="evenodd" clip-rule="evenodd" d="M209.024 1792.01L206 1717L202.976 1792.01L182.899 1719.73L197.092 1793.41L161.044 1727.76L191.689 1796.15L141.612 1740.66L187.056 1800.08L125.652 1757.74L183.445 1804.97L114.023 1778.07L181.05 1810.58L107.352 1800.56L180 1816.59L106 1824L180.352 1822.69H231.648L306 1824L232 1816.59L304.648 1800.56L230.95 1810.58L297.977 1778.07L228.555 1804.97L286.348 1757.74L224.944 1800.08L270.388 1740.66L220.311 1796.15L250.956 1727.76L214.908 1793.41L229.101 1719.73L209.024 1792.01Z" fill="#FFC634"/>
<path fill-rule="evenodd" clip-rule="evenodd" d="M1108.02 2024.01L1105 1949L1101.98 2024.01L1081.9 1951.73L1096.09 2025.41L1060.04 1959.76L1090.69 2028.15L1040.61 1972.66L1086.06 2032.08L1024.65 1989.74L1082.45 2036.97L1013.02 2010.07L1080.05 2042.58L1006.35 2032.56L1079 2048.59L1005 2056L1079.35 2054.69H1130.65L1205 2056L1131 2048.59L1203.65 2032.56L1129.95 2042.58L1196.98 2010.07L1127.55 2036.97L1185.35 1989.74L1123.94 2032.08L1169.39 1972.66L1119.31 2028.15L1149.96 1959.76L1113.91 2025.41L1128.1 1951.73L1108.02 2024.01Z" fill="#FFC634"/>
<path fill-rule="evenodd" clip-rule="evenodd" d="M1135.66 1223.15L1132.5 1145L1129.34 1223.15L1108.36 1147.84L1123.19 1224.62L1085.52 1156.21L1117.54 1227.47L1065.21 1169.65L1112.7 1231.56L1048.54 1187.44L1108.93 1236.66L1036.38 1208.63L1106.43 1242.5L1029.41 1232.06L1105.33 1248.76L1028 1256.48L1105.7 1255.11H1159.3L1237 1256.48L1159.67 1248.76L1235.59 1232.06L1158.57 1242.5L1228.62 1208.63L1156.07 1236.66L1216.46 1187.44L1152.3 1231.56L1199.79 1169.65L1147.46 1227.47L1179.48 1156.21L1141.81 1224.62L1156.64 1147.84L1135.66 1223.15Z" fill="#FFC634"/>
<path fill-rule="evenodd" clip-rule="evenodd" d="M1052.51 2015.35L1048.41 1914L1044.32 2015.35L1017.13 1917.68L1036.35 2017.25L987.538 1928.53L1029.03 2020.95L961.224 1945.97L1022.76 2026.26L939.611 1969.04L1017.87 2032.87L923.864 1996.52L1014.63 2040.45L914.831 2026.91L1013.21 2048.57L913 2058.58L1013.68 2056.8H1083.15L1183.83 2058.58L1083.62 2048.57L1182 2026.91L1082.2 2040.45L1172.97 1996.52L1078.96 2032.87L1157.22 1969.04L1074.07 2026.26L1135.61 1945.97L1067.79 2020.95L1109.29 1928.53L1060.48 2017.25L1079.7 1917.68L1052.51 2015.35Z" fill="#BA5F04"/>
<path fill-rule="evenodd" clip-rule="evenodd" d="M693.509 2185.35L689.415 2084L685.32 2185.35L658.133 2087.68L677.353 2187.25L628.538 2098.53L670.035 2190.95L602.224 2115.97L663.762 2196.26L580.611 2139.04L658.872 2202.87L564.864 2166.52L655.629 2210.45L555.831 2196.91L654.207 2218.57L554 2228.58L654.683 2226.8H724.146L824.829 2228.58L724.623 2218.57L822.998 2196.91L723.201 2210.45L813.965 2166.52L719.957 2202.87L798.218 2139.04L715.067 2196.26L776.605 2115.97L708.795 2190.95L750.292 2098.53L701.477 2187.25L720.696 2087.68L693.509 2185.35Z" fill="#BA5F04"/>
<path fill-rule="evenodd" clip-rule="evenodd" d="M790.509 2459.35L786.415 2358L782.32 2459.35L755.133 2361.68L774.353 2461.25L725.538 2372.53L767.035 2464.95L699.224 2389.97L760.762 2470.26L677.611 2413.04L755.872 2476.87L661.864 2440.52L752.629 2484.45L652.831 2470.91L751.207 2492.57L651 2502.58L751.683 2500.8H821.146L921.829 2502.58L821.623 2492.57L919.998 2470.91L820.201 2484.45L910.965 2440.52L816.957 2476.87L895.218 2413.04L812.067 2470.26L873.605 2389.97L805.795 2464.95L847.292 2372.53L798.477 2461.25L817.696 2361.68L790.509 2459.35Z" fill="#BA5F04"/>
<path fill-rule="evenodd" clip-rule="evenodd" d="M1128.51 3057.35L1124.41 2956L1120.32 3057.35L1093.13 2959.68L1112.35 3059.25L1063.54 2970.53L1105.03 3062.95L1037.22 2987.97L1098.76 3068.26L1015.61 3011.04L1093.87 3074.87L999.864 3038.52L1090.63 3082.45L990.831 3068.91L1089.21 3090.57L989 3100.58L1089.68 3098.8H1159.15L1259.83 3100.58L1159.62 3090.57L1258 3068.91L1158.2 3082.45L1248.97 3038.52L1154.96 3074.87L1233.22 3011.04L1150.07 3068.26L1211.61 2987.97L1143.79 3062.95L1185.29 2970.53L1136.48 3059.25L1155.7 2959.68L1128.51 3057.35Z" fill="#BA5F04"/>
<path d="M117.324 913.78C122.313 905.039 134.916 905.039 139.905 913.78L147.487 927.065C150.81 932.886 158.014 935.227 164.124 932.47L178.069 926.179C187.244 922.04 197.439 929.448 196.337 939.452L194.662 954.65C193.928 961.313 198.381 967.443 204.946 968.803L219.92 971.907C229.777 973.951 233.672 985.938 226.898 993.385L209.889 1012.08C209.069 1012.98 208.38 1014 207.842 1015.09L196.94 1037.24C194.753 1041.68 190.23 1044.5 185.277 1044.5H164.453H178.91H153.348H138.171H103.881H121.623H85.907H71.952C66.9988 1044.5 62.4759 1041.68 60.2884 1037.24L49.3865 1015.09C48.8484 1014 48.1593 1012.98 47.3394 1012.08L30.3306 993.385C23.5571 985.939 27.4518 973.951 37.3084 971.907L52.2832 968.803C58.8475 967.443 63.3006 961.313 62.5664 954.65L60.8917 939.452C59.7893 929.448 69.9852 922.04 79.1598 926.179L93.1048 932.47C99.2146 935.227 106.419 932.886 109.741 927.065L117.324 913.78Z" fill="#979A2B"/>
<path d="M195.061 947.772C199.283 940.376 209.946 940.376 214.168 947.772L221.75 961.056C225.584 967.773 233.897 970.474 240.946 967.293L254.892 961.002C262.655 957.499 271.282 963.768 270.349 972.233L268.674 987.431C267.827 995.12 272.965 1002.19 280.54 1003.76L295.514 1006.87C303.855 1008.59 307.15 1018.74 301.419 1025.04L284.41 1043.74C283.464 1044.78 282.669 1045.94 282.048 1047.21L271.146 1069.35C269.295 1073.11 265.468 1075.5 261.277 1075.5H254.91H240.453H229.348H214.171H197.623H179.881H161.907H147.952C143.761 1075.5 139.934 1073.11 138.083 1069.35L127.181 1047.21C126.56 1045.94 125.765 1044.78 124.819 1043.74L107.81 1025.04C102.079 1018.74 105.374 1008.59 113.714 1006.87L128.689 1003.76C136.263 1002.19 141.402 995.12 140.554 987.431L138.88 972.233C137.947 963.768 146.574 957.499 154.337 961.002L168.282 967.293C175.332 970.474 183.644 967.773 187.478 961.056L195.061 947.772Z" fill="#979A2B" stroke="#454D11" stroke-width="4"/>
<path d="M792.46 1245.64C796.687 1238.27 807.313 1238.27 811.54 1245.64L817.047 1255.23C820.884 1261.92 829.164 1264.61 836.197 1261.45L846.347 1256.9C854.111 1253.42 862.721 1259.69 861.783 1268.15L860.59 1278.92C859.737 1286.62 864.885 1293.7 872.47 1295.26L883.183 1297.47C891.543 1299.19 894.84 1309.37 889.078 1315.67L875.032 1331.02C874.082 1332.06 873.282 1333.23 872.657 1334.49L863.061 1353.88C861.206 1357.63 857.385 1360 853.203 1360H848.039H834.806H824.64H810.748H795.601H779.36H762.907H750.797C746.615 1360 742.794 1357.63 740.939 1353.88L731.343 1334.49C730.718 1333.23 729.918 1332.06 728.968 1331.02L714.922 1315.67C709.16 1309.37 712.457 1299.19 720.817 1297.47L731.53 1295.26C739.115 1293.7 744.263 1286.62 743.41 1278.92L742.217 1268.15C741.279 1259.69 749.889 1253.42 757.653 1256.9L767.803 1261.45C774.836 1264.61 783.116 1261.92 786.953 1255.23L792.46 1245.64Z" fill="#979A2B" stroke="#454D11" stroke-width="4"/>
<path d="M718.949 1331.74C723.172 1324.35 733.828 1324.35 738.051 1331.74L742.129 1338.88C745.963 1345.59 754.269 1348.29 761.315 1345.11L768.82 1341.73C776.584 1338.23 785.207 1344.5 784.274 1352.97L783.378 1361.09C782.529 1368.78 787.67 1375.85 795.246 1377.42L803.264 1379.08C811.608 1380.81 814.904 1390.96 809.167 1397.26L796.945 1410.68C795.998 1411.72 795.202 1412.88 794.581 1414.15L785.849 1431.86C783.997 1435.62 780.172 1438 775.982 1438H771.662H759.255H749.725H736.701H722.501H707.275H691.85H681.018C676.828 1438 673.003 1435.62 671.151 1431.86L662.419 1414.15C661.798 1412.88 661.002 1411.72 660.055 1410.68L647.833 1397.26C642.096 1390.96 645.392 1380.81 653.736 1379.08L661.754 1377.42C669.33 1375.85 674.471 1368.78 673.622 1361.09L672.726 1352.97C671.793 1344.5 680.416 1338.23 688.18 1341.73L695.685 1345.11C702.731 1348.29 711.037 1345.59 714.871 1338.88L718.949 1331.74Z" fill="#979A2B" stroke="#454D11" stroke-width="4"/>
<path d="M764.061 1406.77C768.283 1399.38 778.946 1399.38 783.168 1406.77L790.75 1420.06C794.584 1426.77 802.897 1429.47 809.946 1426.29L823.892 1420C831.655 1416.5 840.282 1422.77 839.349 1431.23L837.674 1446.43C836.827 1454.12 841.965 1461.19 849.54 1462.76L864.514 1465.87C872.855 1467.59 876.15 1477.74 870.419 1484.04L853.41 1502.74C852.464 1503.78 851.669 1504.94 851.048 1506.21L840.146 1528.35C838.295 1532.11 834.468 1534.5 830.277 1534.5H823.91H809.453H798.348H783.171H766.623H748.881H730.907H716.952C712.761 1534.5 708.934 1532.11 707.083 1528.35L696.181 1506.21C695.56 1504.94 694.765 1503.78 693.819 1502.74L676.81 1484.04C671.079 1477.74 674.374 1467.59 682.714 1465.87L697.689 1462.76C705.263 1461.19 710.402 1454.12 709.554 1446.43L707.88 1431.23C706.947 1422.77 715.574 1416.5 723.337 1420L737.282 1426.29C744.332 1429.47 752.644 1426.77 756.478 1420.06L764.061 1406.77Z" fill="#979A2B" stroke="#454D11" stroke-width="4"/>
<path d="M325.061 1890.77C329.283 1883.38 339.946 1883.38 344.168 1890.77L351.75 1904.06C355.584 1910.77 363.897 1913.47 370.946 1910.29L384.892 1904C392.655 1900.5 401.282 1906.77 400.349 1915.23L398.674 1930.43C397.827 1938.12 402.965 1945.19 410.54 1946.76L425.514 1949.87C433.855 1951.59 437.15 1961.74 431.419 1968.04L414.41 1986.74C413.464 1987.78 412.669 1988.94 412.048 1990.21L401.146 2012.35C399.295 2016.11 395.468 2018.5 391.277 2018.5H384.91H370.453H359.348H344.171H327.623H309.881H291.907H277.952C273.761 2018.5 269.934 2016.11 268.083 2012.35L257.181 1990.21C256.56 1988.94 255.765 1987.78 254.819 1986.74L237.81 1968.04C232.079 1961.74 235.374 1951.59 243.714 1949.87L258.689 1946.76C266.263 1945.19 271.402 1938.12 270.554 1930.43L268.88 1915.23C267.947 1906.77 276.574 1900.5 284.337 1904L298.282 1910.29C305.332 1913.47 313.644 1910.77 317.478 1904.06L325.061 1890.77Z" fill="#979A2B" stroke="#454D11" stroke-width="4"/>
<path d="M408.444 1962.8C412.664 1955.4 423.336 1955.4 427.556 1962.8L430.43 1967.84C434.263 1974.56 442.582 1977.27 449.635 1974.08L454.916 1971.69C462.679 1968.19 471.31 1974.46 470.378 1982.92L469.739 1988.73C468.893 1996.41 474.03 2003.48 481.601 2005.05L487.306 2006.24C495.642 2007.97 498.938 2018.11 493.212 2024.41L482.567 2036.12C481.622 2037.16 480.827 2038.33 480.207 2039.59L472.211 2055.85C470.361 2059.62 466.533 2062 462.34 2062H458.727H447.02H438.028H425.739H412.339H397.972H383.417H373.66C369.467 2062 365.639 2059.62 363.789 2055.85L355.793 2039.59C355.173 2038.33 354.378 2037.16 353.433 2036.12L351.953 2037.47L353.433 2036.12L342.788 2024.41C337.062 2018.11 340.358 2007.97 348.694 2006.24L354.399 2005.05C361.97 2003.48 367.107 1996.41 366.261 1988.73L365.622 1982.92C364.69 1974.46 373.321 1968.19 381.084 1971.69L386.365 1974.08C393.418 1977.27 401.737 1974.56 405.57 1967.84L408.444 1962.8Z" fill="#979A2B" stroke="#454D11" stroke-width="4"/>
<path d="M557.45 1806.73C561.674 1799.35 572.326 1799.35 576.55 1806.73L579.649 1812.16C583.484 1818.87 591.788 1821.56 598.833 1818.39L604.54 1815.82C612.303 1812.32 620.926 1818.59 619.992 1827.05L619.314 1833.2C618.465 1840.89 623.606 1847.96 631.183 1849.53L637.257 1850.79C645.603 1852.52 648.899 1862.67 643.159 1868.97L632.276 1880.91C631.329 1881.95 630.532 1883.12 629.91 1884.38L621.785 1900.86C619.933 1904.62 616.108 1907 611.919 1907H608.17H596.336H587.246H574.823H561.277H546.754H532.042H522.081C517.892 1907 514.067 1904.62 512.215 1900.86L504.09 1884.38C503.468 1883.12 502.671 1881.95 501.724 1880.91L490.841 1868.97C485.101 1862.67 488.397 1852.52 496.743 1850.79L502.817 1849.53C510.394 1847.96 515.535 1840.89 514.686 1833.2L514.008 1827.05C513.074 1818.59 521.697 1812.32 529.46 1815.82L535.167 1818.39C542.212 1821.56 550.516 1818.87 554.351 1812.16L557.45 1806.73Z" fill="#979A2B" stroke="#454D11" stroke-width="4"/>
<path d="M1237.06 2325.77C1241.28 2318.38 1251.95 2318.38 1256.17 2325.77L1263.75 2339.06C1267.58 2345.77 1275.9 2348.47 1282.95 2345.29L1296.89 2339C1304.65 2335.5 1313.28 2341.77 1312.35 2350.23L1310.67 2365.43C1309.83 2373.12 1314.97 2380.19 1322.54 2381.76L1337.51 2384.87C1345.85 2386.59 1349.15 2396.74 1343.42 2403.04L1326.41 2421.74C1325.46 2422.78 1324.67 2423.94 1324.05 2425.21L1313.15 2447.35C1311.29 2451.11 1307.47 2453.5 1303.28 2453.5H1296.91H1282.45H1271.35H1256.17H1239.62H1221.88H1203.91H1189.95C1185.76 2453.5 1181.93 2451.11 1180.08 2447.35L1169.18 2425.21C1168.56 2423.94 1167.76 2422.78 1166.82 2421.74L1149.81 2403.04C1144.08 2396.74 1147.37 2386.59 1155.71 2384.87L1170.69 2381.76C1178.26 2380.19 1183.4 2373.12 1182.55 2365.43L1180.88 2350.23C1179.95 2341.77 1188.57 2335.5 1196.34 2339L1210.28 2345.29C1217.33 2348.47 1225.64 2345.77 1229.48 2339.06L1237.06 2325.77Z" fill="#979A2B" stroke="#454D11" stroke-width="4"/>
<path d="M1307.06 1740.77C1311.28 1733.38 1321.95 1733.38 1326.17 1740.77L1333.75 1754.06C1337.58 1760.77 1345.9 1763.47 1352.95 1760.29L1366.89 1754C1374.65 1750.5 1383.28 1756.77 1382.35 1765.23L1380.67 1780.43C1379.83 1788.12 1384.97 1795.19 1392.54 1796.76L1407.51 1799.87C1415.85 1801.59 1419.15 1811.74 1413.42 1818.04L1396.41 1836.74C1395.46 1837.78 1394.67 1838.94 1394.05 1840.21L1383.15 1862.35C1381.29 1866.11 1377.47 1868.5 1373.28 1868.5H1366.91H1352.45H1341.35H1326.17H1309.62H1291.88H1273.91H1259.95C1255.76 1868.5 1251.93 1866.11 1250.08 1862.35L1239.18 1840.21C1238.56 1838.94 1237.76 1837.78 1236.82 1836.74L1219.81 1818.04C1214.08 1811.74 1217.37 1801.59 1225.71 1799.87L1240.69 1796.76C1248.26 1795.19 1253.4 1788.12 1252.55 1780.43L1250.88 1765.23C1249.95 1756.77 1258.57 1750.5 1266.34 1754L1280.28 1760.29C1287.33 1763.47 1295.64 1760.77 1299.48 1754.06L1307.06 1740.77Z" fill="#979A2B" stroke="#454D11" stroke-width="4"/>
<path d="M721.714 800.742C726.705 792.011 739.295 792.011 744.286 800.742L747.386 806.165C750.709 811.979 757.906 814.316 764.011 811.566L769.719 808.995C778.894 804.862 789.084 812.272 787.98 822.274L787.302 828.417C786.566 835.082 791.022 841.214 797.589 842.573L803.662 843.83C813.526 845.871 817.421 857.87 810.637 865.315L799.754 877.261C798.933 878.162 798.243 879.174 797.704 880.267L789.579 896.748C787.39 901.188 782.869 904 777.919 904H762.336H774.17H753.246H740.823H712.754H727.277H698.042H688.081C683.131 904 678.61 901.188 676.421 896.748L668.296 880.267C667.757 879.174 667.067 878.162 666.246 877.261L655.363 865.315C648.579 857.87 652.474 845.871 662.338 843.83L668.411 842.573C674.978 841.214 679.434 835.082 678.698 828.417L678.02 822.274C676.916 812.272 687.106 804.862 696.281 808.995L701.989 811.566C708.094 814.316 715.291 811.979 718.614 806.165L721.714 800.742Z" fill="#979A2B"/>
<path d="M391.949 2378.74C396.172 2371.35 406.828 2371.35 411.051 2378.74L415.129 2385.88C418.963 2392.59 427.269 2395.29 434.315 2392.11L441.82 2388.73C449.584 2385.23 458.207 2391.5 457.274 2399.97L456.378 2408.09C455.529 2415.78 460.67 2422.85 468.246 2424.42L476.264 2426.08C484.608 2427.81 487.904 2437.96 482.167 2444.26L469.945 2457.68C468.998 2458.72 468.202 2459.88 467.581 2461.15L458.849 2478.86C456.997 2482.62 453.172 2485 448.982 2485H444.662H432.255H422.725H409.701H395.501H380.275H364.85H354.018C349.828 2485 346.003 2482.62 344.151 2478.86L335.419 2461.15C334.798 2459.88 334.002 2458.72 333.055 2457.68L320.833 2444.26C315.096 2437.96 318.392 2427.81 326.736 2426.08L334.754 2424.42C342.33 2422.85 347.471 2415.78 346.622 2408.09L345.726 2399.97C344.793 2391.5 353.416 2385.23 361.18 2388.73L368.685 2392.11C375.731 2395.29 384.037 2392.59 387.871 2385.88L391.949 2378.74Z" fill="#979A2B" stroke="#454D11" stroke-width="4"/>
<path d="M441.277 2441.43C444.912 2435.07 454.088 2435.07 457.723 2441.43C461.167 2447.46 468.635 2449.88 474.962 2447.03C481.642 2444.01 489.067 2449.4 488.265 2456.68C487.504 2463.58 492.117 2469.93 498.914 2471.33C506.09 2472.82 508.925 2481.55 503.993 2486.97L498.219 2493.31C497.272 2494.35 496.477 2495.52 495.855 2496.78L490.89 2506.86C489.039 2510.62 485.213 2513 481.022 2513H480.267H471.423H464.63H455.346H445.224H434.37H423.375H417.978C413.787 2513 409.961 2510.62 408.11 2506.86L403.145 2496.78C402.523 2495.52 401.728 2494.35 400.781 2493.31L395.007 2486.97C390.075 2481.55 392.91 2472.82 400.086 2471.33C406.883 2469.93 411.496 2463.58 410.735 2456.68C409.933 2449.4 417.358 2444.01 424.038 2447.03C430.365 2449.88 437.833 2447.46 441.277 2441.43Z" fill="#979A2B" stroke="#454D11" stroke-width="4"/>
<path d="M1309.06 2827.77C1313.28 2820.38 1323.95 2820.38 1328.17 2827.77L1335.75 2841.06C1339.58 2847.77 1347.9 2850.47 1354.95 2847.29L1368.89 2841C1376.65 2837.5 1385.28 2843.77 1384.35 2852.23L1382.67 2867.43C1381.83 2875.12 1386.97 2882.19 1394.54 2883.76L1409.51 2886.87C1417.85 2888.59 1421.15 2898.74 1415.42 2905.04L1398.41 2923.74C1397.46 2924.78 1396.67 2925.94 1396.05 2927.21L1385.15 2949.35C1383.29 2953.11 1379.47 2955.5 1375.28 2955.5H1368.91H1354.45H1343.35H1328.17H1311.62H1293.88H1275.91H1261.95C1257.76 2955.5 1253.93 2953.11 1252.08 2949.35L1241.18 2927.21C1240.56 2925.94 1239.76 2924.78 1238.82 2923.74L1221.81 2905.04C1216.08 2898.74 1219.37 2888.59 1227.71 2886.87L1242.69 2883.76C1250.26 2882.19 1255.4 2875.12 1254.55 2867.43L1252.88 2852.23C1251.95 2843.77 1260.57 2837.5 1268.34 2841L1282.28 2847.29C1289.33 2850.47 1297.64 2847.77 1301.48 2841.06L1309.06 2827.77Z" fill="#979A2B" stroke="#454D11" stroke-width="4"/>
<path d="M127.061 3033.77C131.283 3026.38 141.946 3026.38 146.168 3033.77L153.75 3047.06C157.584 3053.77 165.897 3056.47 172.946 3053.29L186.892 3047C194.655 3043.5 203.282 3049.77 202.349 3058.23L200.674 3073.43C199.827 3081.12 204.965 3088.19 212.54 3089.76L227.514 3092.87C235.855 3094.59 239.15 3104.74 233.419 3111.04L216.41 3129.74C215.464 3130.78 214.669 3131.94 214.048 3133.21L203.146 3155.35C201.295 3159.11 197.468 3161.5 193.277 3161.5H186.91H172.453H161.348H146.171H129.623H111.881H93.907H79.952C75.7608 3161.5 71.9338 3159.11 70.0828 3155.35L59.1809 3133.21C58.56 3131.94 57.7649 3130.78 56.8189 3129.74L39.8101 3111.04C34.0786 3104.74 37.3742 3094.59 45.7143 3092.87L60.6892 3089.76C68.2633 3088.19 73.4015 3081.12 72.5543 3073.43L70.8797 3058.23C69.9469 3049.77 78.5742 3043.5 86.3373 3047L100.282 3053.29C107.332 3056.47 115.644 3053.77 119.478 3047.06L127.061 3033.77Z" fill="#979A2B" stroke="#454D11" stroke-width="4"/>
<defs>
<linearGradient id="paint0_linear_755_123" x1="874.006" y1="261.435" x2="883.419" y2="311.352" gradientUnits="userSpaceOnUse">
<stop/>
<stop offset="1" stop-opacity="0"/>
</linearGradient>
<linearGradient id="paint1_linear_755_123" x1="1068.02" y1="197.218" x2="1075.87" y2="238.976" gradientUnits="userSpaceOnUse">
<stop/>
<stop offset="1" stop-opacity="0"/>
</linearGradient>
<linearGradient id="paint2_linear_755_123" x1="868.304" y1="5.9477" x2="875.696" y2="45.9352" gradientUnits="userSpaceOnUse">
<stop/>
<stop offset="1" stop-opacity="0"/>
</linearGradient>
<linearGradient id="paint3_linear_755_123" x1="584.017" y1="154.083" x2="591.539" y2="194.993" gradientUnits="userSpaceOnUse">
<stop/>
<stop offset="1" stop-opacity="0"/>
</linearGradient>
<linearGradient id="paint4_linear_755_123" x1="786.629" y1="317.597" x2="798.612" y2="382.101" gradientUnits="userSpaceOnUse">
<stop/>
<stop offset="1" stop-opacity="0"/>
</linearGradient>
<linearGradient id="paint5_linear_755_123" x1="1147.59" y1="294.654" x2="1159.72" y2="359.505" gradientUnits="userSpaceOnUse">
<stop/>
<stop offset="1" stop-opacity="0"/>
</linearGradient>
<linearGradient id="paint6_linear_755_123" x1="826.594" y1="432.654" x2="838.723" y2="497.505" gradientUnits="userSpaceOnUse">
<stop/>
<stop offset="1" stop-opacity="0"/>
</linearGradient>
<linearGradient id="paint7_linear_755_123" x1="1235.59" y1="421.654" x2="1247.72" y2="486.505" gradientUnits="userSpaceOnUse">
<stop/>
<stop offset="1" stop-opacity="0"/>
</linearGradient>
<linearGradient id="paint8_linear_755_123" x1="1189.18" y1="511.76" x2="1204.03" y2="590.735" gradientUnits="userSpaceOnUse">
<stop/>
<stop offset="1" stop-opacity="0"/>
</linearGradient>
<linearGradient id="paint9_linear_755_123" x1="741.954" y1="582.382" x2="758.857" y2="672.249" gradientUnits="userSpaceOnUse">
<stop/>
<stop offset="1" stop-opacity="0"/>
</linearGradient>
<linearGradient id="paint10_linear_755_123" x1="459.656" y1="1015.73" x2="478.253" y2="1114.68" gradientUnits="userSpaceOnUse">
<stop/>
<stop offset="1" stop-opacity="0"/>
</linearGradient>
<linearGradient id="paint11_linear_755_123" x1="1007.95" y1="761.382" x2="1024.86" y2="851.249" gradientUnits="userSpaceOnUse">
<stop/>
<stop offset="1" stop-opacity="0"/>
</linearGradient>
<linearGradient id="paint12_linear_755_123" x1="1219.63" y1="1063.73" x2="1231.94" y2="1129.08" gradientUnits="userSpaceOnUse">
<stop/>
<stop offset="1" stop-opacity="0"/>
</linearGradient>
<linearGradient id="paint13_linear_755_123" x1="482.954" y1="1450.38" x2="499.857" y2="1540.25" gradientUnits="userSpaceOnUse">
<stop/>
<stop offset="1" stop-opacity="0"/>
</linearGradient>
<linearGradient id="paint14_linear_755_123" x1="47.4003" y1="1591.35" x2="61.7639" y2="1667.6" gradientUnits="userSpaceOnUse">
<stop/>
<stop offset="1" stop-opacity="0"/>
</linearGradient>
<linearGradient id="paint15_linear_755_123" x1="1009.78" y1="1537.49" x2="1030.66" y2="1648.22" gradientUnits="userSpaceOnUse">
<stop/>
<stop offset="1" stop-opacity="0"/>
</linearGradient>
<linearGradient id="paint16_linear_755_123" x1="936.954" y1="1588.38" x2="953.857" y2="1678.25" gradientUnits="userSpaceOnUse">
<stop/>
<stop offset="1" stop-opacity="0"/>
</linearGradient>
<linearGradient id="paint17_linear_755_123" x1="584.954" y1="2067.38" x2="601.857" y2="2157.25" gradientUnits="userSpaceOnUse">
<stop/>
<stop offset="1" stop-opacity="0"/>
</linearGradient>
<linearGradient id="paint18_linear_755_123" x1="904.767" y1="2383.27" x2="917.796" y2="2452.24" gradientUnits="userSpaceOnUse">
<stop/>
<stop offset="1" stop-opacity="0"/>
</linearGradient>
<linearGradient id="paint19_linear_755_123" x1="1128.95" y1="2811.38" x2="1145.86" y2="2901.25" gradientUnits="userSpaceOnUse">
<stop/>
<stop offset="1" stop-opacity="0"/>
</linearGradient>
<linearGradient id="paint20_linear_755_123" x1="846.954" y1="2935.38" x2="863.857" y2="3025.25" gradientUnits="userSpaceOnUse">
<stop/>
<stop offset="1" stop-opacity="0"/>
</linearGradient>
<linearGradient id="paint21_linear_755_123" x1="902.836" y1="2969.54" x2="916.225" y2="3040.32" gradientUnits="userSpaceOnUse">
<stop/>
<stop offset="1" stop-opacity="0"/>
</linearGradient>
<linearGradient id="paint22_linear_755_123" x1="656.182" y1="445.76" x2="671.034" y2="524.735" gradientUnits="userSpaceOnUse">
<stop/>
<stop offset="1" stop-opacity="0"/>
</linearGradient>
<linearGradient id="paint23_linear_755_123" x1="1222.2" y1="688.327" x2="1233.93" y2="750.984" gradientUnits="userSpaceOnUse">
<stop/>
<stop offset="1" stop-opacity="0"/>
</linearGradient>
<linearGradient id="paint24_linear_755_123" x1="407.182" y1="580.76" x2="422.034" y2="659.735" gradientUnits="userSpaceOnUse">
<stop/>
<stop offset="1" stop-opacity="0"/>
</linearGradient>
<linearGradient id="paint25_linear_755_123" x1="131.629" y1="703.733" x2="143.941" y2="769.083" gradientUnits="userSpaceOnUse">
<stop/>
<stop offset="1" stop-opacity="0"/>
</linearGradient>
</defs>
</svg>