<svg width="228" height="18" viewBox="0 0 228 18" fill="none" xmlns="http://www.w3.org/2000/svg">
<rect width="194.661" height="17" rx="8.5" transform="matrix(1 0 0 -1 33.3389 17)" fill="#814507"/>
<rect width="195" height="17" rx="8.5" transform="matrix(1 0 0 -1 33 17)" fill="#979A2B"/>
<path d="M0.54 5.5V4.252H3.036L3.036 13H1.656L1.656 5.5H0.54ZM4.91531 8.512C4.91531 7.128 5.14731 6.048 5.61131 5.272C6.08331 4.488 6.89131 4.096 8.03531 4.096C9.17931 4.096 9.98331 4.488 10.4473 5.272C10.9193 6.048 11.1553 7.128 11.1553 8.512C11.1553 9.912 10.9193 11.008 10.4473 11.8C9.98331 12.584 9.17931 12.976 8.03531 12.976C6.89131 12.976 6.08331 12.584 5.61131 11.8C5.14731 11.008 4.91531 9.912 4.91531 8.512ZM9.81131 8.512C9.81131 7.864 9.76731 7.316 9.67931 6.868C9.59931 6.42 9.43131 6.056 9.17531 5.776C8.91931 5.488 8.53931 5.344 8.03531 5.344C7.53131 5.344 7.15131 5.488 6.89531 5.776C6.63931 6.056 6.46731 6.42 6.37931 6.868C6.29931 7.316 6.25931 7.864 6.25931 8.512C6.25931 9.184 6.29931 9.748 6.37931 10.204C6.45931 10.66 6.62731 11.028 6.88331 11.308C7.14731 11.588 7.53131 11.728 8.03531 11.728C8.53931 11.728 8.91931 11.588 9.17531 11.308C9.43931 11.028 9.61131 10.66 9.69131 10.204C9.77131 9.748 9.81131 9.184 9.81131 8.512ZM12.6028 8.512C12.6028 7.128 12.8348 6.048 13.2988 5.272C13.7708 4.488 14.5788 4.096 15.7228 4.096C16.8668 4.096 17.6708 4.488 18.1348 5.272C18.6068 6.048 18.8428 7.128 18.8428 8.512C18.8428 9.912 18.6068 11.008 18.1348 11.8C17.6708 12.584 16.8668 12.976 15.7228 12.976C14.5788 12.976 13.7708 12.584 13.2988 11.8C12.8348 11.008 12.6028 9.912 12.6028 8.512ZM17.4988 8.512C17.4988 7.864 17.4548 7.316 17.3668 6.868C17.2868 6.42 17.1188 6.056 16.8628 5.776C16.6068 5.488 16.2268 5.344 15.7228 5.344C15.2188 5.344 14.8388 5.488 14.5828 5.776C14.3268 6.056 14.1548 6.42 14.0668 6.868C13.9868 7.316 13.9468 7.864 13.9468 8.512C13.9468 9.184 13.9868 9.748 14.0668 10.204C14.1468 10.66 14.3148 11.028 14.5708 11.308C14.8348 11.588 15.2188 11.728 15.7228 11.728C16.2268 11.728 16.6068 11.588 16.8628 11.308C17.1268 11.028 17.2988 10.66 17.3788 10.204C17.4588 9.748 17.4988 9.184 17.4988 8.512ZM20.0743 6.364C20.0743 5.78 20.2423 5.324 20.5783 4.996C20.9223 4.66 21.3623 4.492 21.8983 4.492C22.4343 4.492 22.8703 4.66 23.2063 4.996C23.5503 5.324 23.7223 5.78 23.7223 6.364C23.7223 6.948 23.5503 7.408 23.2063 7.744C22.8703 8.08 22.4343 8.248 21.8983 8.248C21.3623 8.248 20.9223 8.08 20.5783 7.744C20.2423 7.408 20.0743 6.948 20.0743 6.364ZM27.3943 4.648L22.6063 13H21.2623L26.0503 4.648H27.3943ZM21.8983 5.32C21.3943 5.32 21.1423 5.668 21.1423 6.364C21.1423 7.068 21.3943 7.42 21.8983 7.42C22.1383 7.42 22.3223 7.336 22.4503 7.168C22.5863 6.992 22.6543 6.724 22.6543 6.364C22.6543 5.668 22.4023 5.32 21.8983 5.32ZM24.9583 11.272C24.9583 10.688 25.1263 10.232 25.4623 9.904C25.8063 9.568 26.2463 9.4 26.7823 9.4C27.3103 9.4 27.7423 9.568 28.0783 9.904C28.4223 10.232 28.5943 10.688 28.5943 11.272C28.5943 11.856 28.4223 12.316 28.0783 12.652C27.7423 12.988 27.3103 13.156 26.7823 13.156C26.2463 13.156 25.8063 12.988 25.4623 12.652C25.1263 12.316 24.9583 11.856 24.9583 11.272ZM26.7703 10.228C26.2663 10.228 26.0143 10.576 26.0143 11.272C26.0143 11.968 26.2663 12.316 26.7703 12.316C27.2743 12.316 27.5263 11.968 27.5263 11.272C27.5263 10.576 27.2743 10.228 26.7703 10.228Z" fill="white"/>
</svg>
