<svg width="1440" height="99" viewBox="0 0 1440 99" fill="none" xmlns="http://www.w3.org/2000/svg">
<mask id="path-1-outside-1_53_18" maskUnits="userSpaceOnUse" x="-27" y="-1" width="1495" height="101" fill="black">
<rect fill="white" x="-27" y="-1" width="1495" height="101"/>
<path d="M32.9617 48.68C38.533 49.8673 43.0083 52.653 46.3877 57.037C49.767 61.3297 51.4567 66.2617 51.4567 71.833C51.4567 79.8703 48.6253 86.2637 42.9627 91.013C37.3913 95.671 29.5823 98 19.5357 98H-25.2633V1.826H18.0287C27.8013 1.826 35.4277 4.06366 40.9077 8.53899C46.479 13.0143 49.2647 19.088 49.2647 26.76C49.2647 32.4227 47.7577 37.1263 44.7437 40.871C41.821 44.6157 37.8937 47.2187 32.9617 48.68ZM-1.83632 40.734H13.5077C17.3437 40.734 20.2663 39.912 22.2757 38.268C24.3763 36.5327 25.4267 34.021 25.4267 30.733C25.4267 27.445 24.3763 24.9333 22.2757 23.198C20.2663 21.4627 17.3437 20.595 13.5077 20.595H-1.83632V40.734ZM15.4257 79.094C19.353 79.094 22.367 78.2263 24.4677 76.491C26.6597 74.6643 27.7557 72.0613 27.7557 68.682C27.7557 65.3027 26.614 62.654 24.3307 60.736C22.1387 58.818 19.079 57.859 15.1517 57.859H-1.83632V79.094H15.4257ZM88.4713 1.826V98H65.0443V1.826H88.4713ZM150.933 98.959C141.891 98.959 133.579 96.8583 125.999 92.657C118.509 88.4557 112.527 82.6103 108.052 75.121C103.668 67.5403 101.476 59.0463 101.476 49.639C101.476 40.2317 103.668 31.7833 108.052 24.294C112.527 16.8047 118.509 10.9593 125.999 6.758C133.579 2.55667 141.891 0.455998 150.933 0.455998C159.975 0.455998 168.24 2.55667 175.73 6.758C183.31 10.9593 189.247 16.8047 193.54 24.294C197.924 31.7833 200.116 40.2317 200.116 49.639C200.116 59.0463 197.924 67.5403 193.54 75.121C189.156 82.6103 183.219 88.4557 175.73 92.657C168.24 96.8583 159.975 98.959 150.933 98.959ZM150.933 77.587C158.605 77.587 164.724 75.0297 169.291 69.915C173.949 64.8003 176.278 58.0417 176.278 49.639C176.278 41.145 173.949 34.3863 169.291 29.363C164.724 24.2483 158.605 21.691 150.933 21.691C143.169 21.691 136.959 24.2027 132.301 29.226C127.734 34.2493 125.451 41.0537 125.451 49.639C125.451 58.133 127.734 64.9373 132.301 70.052C136.959 75.0753 143.169 77.587 150.933 77.587ZM236.576 20.595V40.049H267.949V58.133H236.576V79.231H272.059V98H213.149V1.826H272.059V20.595H236.576ZM322.066 98.959C315.033 98.959 308.731 97.8173 303.16 95.534C297.589 93.2507 293.113 89.8713 289.734 85.396C286.446 80.9207 284.711 75.532 284.528 69.23H309.462C309.827 72.792 311.06 75.532 313.161 77.45C315.262 79.2767 318.002 80.19 321.381 80.19C324.852 80.19 327.592 79.4137 329.601 77.861C331.61 76.217 332.615 73.9793 332.615 71.148C332.615 68.7733 331.793 66.8097 330.149 65.257C328.596 63.7043 326.633 62.4257 324.258 61.421C321.975 60.4163 318.687 59.2747 314.394 57.996C308.183 56.078 303.114 54.16 299.187 52.242C295.26 50.324 291.88 47.4927 289.049 43.748C286.218 40.0033 284.802 35.117 284.802 29.089C284.802 20.1383 288.044 13.1513 294.529 8.128C301.014 3.01333 309.462 0.455998 319.874 0.455998C330.469 0.455998 339.008 3.01333 345.493 8.128C351.978 13.1513 355.448 20.184 355.905 29.226H330.56C330.377 26.1207 329.236 23.7003 327.135 21.965C325.034 20.1383 322.34 19.225 319.052 19.225C316.221 19.225 313.937 20.0013 312.202 21.554C310.467 23.0153 309.599 25.1617 309.599 27.993C309.599 31.0983 311.06 33.5187 313.983 35.254C316.906 36.9893 321.472 38.8617 327.683 40.871C333.894 42.9717 338.917 44.981 342.753 46.899C346.68 48.817 350.06 51.6027 352.891 55.256C355.722 58.9093 357.138 63.613 357.138 69.367C357.138 74.847 355.722 79.8247 352.891 84.3C350.151 88.7753 346.132 92.3373 340.835 94.986C335.538 97.6347 329.281 98.959 322.066 98.959ZM434.164 1.826V20.595H394.982V40.871H424.3V59.092H394.982V98H371.555V1.826H434.164ZM469.904 20.595V40.049H501.277V58.133H469.904V79.231H505.387V98H446.477V1.826H505.387V20.595H469.904ZM569.642 98L549.64 61.695H544.023V98H520.596V1.826H559.915C567.496 1.826 573.935 3.15033 579.232 5.79899C584.621 8.44766 588.639 12.101 591.288 16.759C593.937 21.3257 595.261 26.4403 595.261 32.103C595.261 38.4963 593.434 44.2047 589.781 49.228C586.219 54.2513 580.922 57.8133 573.889 59.914L596.083 98H569.642ZM544.023 45.118H558.545C562.838 45.118 566.034 44.0677 568.135 41.967C570.327 39.8663 571.423 36.898 571.423 33.062C571.423 29.4087 570.327 26.5317 568.135 24.431C566.034 22.3303 562.838 21.28 558.545 21.28H544.023V45.118ZM669.836 81.012H633.942L628.188 98H603.665L638.463 1.826H665.589L700.387 98H675.59L669.836 81.012ZM663.808 62.928L651.889 27.719L640.107 62.928H663.808ZM798.235 48.68C803.806 49.8673 808.282 52.653 811.661 57.037C815.04 61.3297 816.73 66.2617 816.73 71.833C816.73 79.8703 813.899 86.2637 808.236 91.013C802.665 95.671 794.856 98 784.809 98H740.01V1.826H783.302C793.075 1.826 800.701 4.06366 806.181 8.53899C811.752 13.0143 814.538 19.088 814.538 26.76C814.538 32.4227 813.031 37.1263 810.017 40.871C807.094 44.6157 803.167 47.2187 798.235 48.68ZM763.437 40.734H778.781C782.617 40.734 785.54 39.912 787.549 38.268C789.65 36.5327 790.7 34.021 790.7 30.733C790.7 27.445 789.65 24.9333 787.549 23.198C785.54 21.4627 782.617 20.595 778.781 20.595H763.437V40.734ZM780.699 79.094C784.626 79.094 787.64 78.2263 789.741 76.491C791.933 74.6643 793.029 72.0613 793.029 68.682C793.029 65.3027 791.887 62.654 789.604 60.736C787.412 58.818 784.352 57.859 780.425 57.859H763.437V79.094H780.699ZM853.745 1.826V98H830.318V1.826H853.745ZM916.206 98.959C907.164 98.959 898.853 96.8583 891.272 92.657C883.783 88.4557 877.8 82.6103 873.325 75.121C868.941 67.5403 866.749 59.0463 866.749 49.639C866.749 40.2317 868.941 31.7833 873.325 24.294C877.8 16.8047 883.783 10.9593 891.272 6.758C898.853 2.55667 907.164 0.455998 916.206 0.455998C925.248 0.455998 933.514 2.55667 941.003 6.758C948.584 10.9593 954.52 16.8047 958.813 24.294C963.197 31.7833 965.389 40.2317 965.389 49.639C965.389 59.0463 963.197 67.5403 958.813 75.121C954.429 82.6103 948.492 88.4557 941.003 92.657C933.514 96.8583 925.248 98.959 916.206 98.959ZM916.206 77.587C923.878 77.587 929.997 75.0297 934.564 69.915C939.222 64.8003 941.551 58.0417 941.551 49.639C941.551 41.145 939.222 34.3863 934.564 29.363C929.997 24.2483 923.878 21.691 916.206 21.691C908.443 21.691 902.232 24.2027 897.574 29.226C893.007 34.2493 890.724 41.0537 890.724 49.639C890.724 58.133 893.007 64.9373 897.574 70.052C902.232 75.0753 908.443 77.587 916.206 77.587ZM1001.85 20.595V40.049H1033.22V58.133H1001.85V79.231H1037.33V98H978.422V1.826H1037.33V20.595H1001.85ZM1087.34 98.959C1080.31 98.959 1074 97.8173 1068.43 95.534C1062.86 93.2507 1058.39 89.8713 1055.01 85.396C1051.72 80.9207 1049.98 75.532 1049.8 69.23H1074.74C1075.1 72.792 1076.33 75.532 1078.43 77.45C1080.54 79.2767 1083.28 80.19 1086.65 80.19C1090.13 80.19 1092.87 79.4137 1094.87 77.861C1096.88 76.217 1097.89 73.9793 1097.89 71.148C1097.89 68.7733 1097.07 66.8097 1095.42 65.257C1093.87 63.7043 1091.91 62.4257 1089.53 61.421C1087.25 60.4163 1083.96 59.2747 1079.67 57.996C1073.46 56.078 1068.39 54.16 1064.46 52.242C1060.53 50.324 1057.15 47.4927 1054.32 43.748C1051.49 40.0033 1050.08 35.117 1050.08 29.089C1050.08 20.1383 1053.32 13.1513 1059.8 8.128C1066.29 3.01333 1074.74 0.455998 1085.15 0.455998C1095.74 0.455998 1104.28 3.01333 1110.77 8.128C1117.25 13.1513 1120.72 20.184 1121.18 29.226H1095.83C1095.65 26.1207 1094.51 23.7003 1092.41 21.965C1090.31 20.1383 1087.61 19.225 1084.33 19.225C1081.49 19.225 1079.21 20.0013 1077.48 21.554C1075.74 23.0153 1074.87 25.1617 1074.87 27.993C1074.87 31.0983 1076.33 33.5187 1079.26 35.254C1082.18 36.9893 1086.75 38.8617 1092.96 40.871C1099.17 42.9717 1104.19 44.981 1108.03 46.899C1111.95 48.817 1115.33 51.6027 1118.16 55.256C1121 58.9093 1122.41 63.613 1122.41 69.367C1122.41 74.847 1121 79.8247 1118.16 84.3C1115.42 88.7753 1111.41 92.3373 1106.11 94.986C1100.81 97.6347 1094.55 98.959 1087.34 98.959ZM1199.44 1.826V20.595H1160.26V40.871H1189.57V59.092H1160.26V98H1136.83V1.826H1199.44ZM1235.18 20.595V40.049H1266.55V58.133H1235.18V79.231H1270.66V98H1211.75V1.826H1270.66V20.595H1235.18ZM1334.92 98L1314.91 61.695H1309.3V98H1285.87V1.826H1325.19C1332.77 1.826 1339.21 3.15033 1344.51 5.79899C1349.89 8.44766 1353.91 12.101 1356.56 16.759C1359.21 21.3257 1360.53 26.4403 1360.53 32.103C1360.53 38.4963 1358.71 44.2047 1355.05 49.228C1351.49 54.2513 1346.2 57.8133 1339.16 59.914L1361.36 98H1334.92ZM1309.3 45.118H1323.82C1328.11 45.118 1331.31 44.0677 1333.41 41.967C1335.6 39.8663 1336.7 36.898 1336.7 33.062C1336.7 29.4087 1335.6 26.5317 1333.41 24.431C1331.31 22.3303 1328.11 21.28 1323.82 21.28H1309.3V45.118ZM1435.11 81.012H1399.22L1393.46 98H1368.94L1403.74 1.826H1430.86L1465.66 98H1440.86L1435.11 81.012ZM1429.08 62.928L1417.16 27.719L1405.38 62.928H1429.08Z"/>
</mask>
<path d="M32.9617 48.68L32.6776 47.7212L32.7532 49.658L32.9617 48.68ZM46.3877 57.037L45.5956 57.6475L45.6019 57.6556L46.3877 57.037ZM42.9627 91.013L43.6041 91.7802L43.6053 91.7792L42.9627 91.013ZM-25.2633 98H-26.2633V99H-25.2633V98ZM-25.2633 1.826V0.825996H-26.2633V1.826H-25.2633ZM40.9077 8.53899L40.2751 9.31355L40.2814 9.31861L40.9077 8.53899ZM44.7437 40.871L43.9647 40.244L43.96 40.2498L43.9554 40.2557L44.7437 40.871ZM-1.83632 40.734H-2.83632V41.734H-1.83632V40.734ZM22.2757 38.268L22.9089 39.042L22.9126 39.039L22.2757 38.268ZM22.2757 23.198L21.6221 23.9548L21.6303 23.962L21.6388 23.969L22.2757 23.198ZM-1.83632 20.595V19.595H-2.83632V20.595H-1.83632ZM24.4677 76.491L25.1046 77.262L25.1079 77.2592L24.4677 76.491ZM24.3307 60.736L23.6722 61.4886L23.6798 61.4952L23.6875 61.5017L24.3307 60.736ZM-1.83632 57.859V56.859H-2.83632V57.859H-1.83632ZM-1.83632 79.094H-2.83632V80.094H-1.83632V79.094ZM32.7532 49.658C38.1 50.7975 42.3657 53.4572 45.5957 57.6475L47.1797 56.4265C43.651 51.8488 38.966 48.9372 33.1701 47.702L32.7532 49.658ZM45.6019 57.6556C48.8395 61.7682 50.4567 66.4812 50.4567 71.833H52.4567C52.4567 66.0421 50.6945 60.8912 47.1734 56.4184L45.6019 57.6556ZM50.4567 71.833C50.4567 79.604 47.7346 85.7056 42.3201 90.2468L43.6053 91.7792C49.5161 86.8218 52.4567 80.1366 52.4567 71.833H50.4567ZM42.3213 90.2458C36.9882 94.7046 29.4372 97 19.5357 97V99C29.7275 99 37.7945 96.6374 43.6041 91.7802L42.3213 90.2458ZM19.5357 97H-25.2633V99H19.5357V97ZM-24.2633 98V1.826H-26.2633V98H-24.2633ZM-25.2633 2.826H18.0287V0.825996H-25.2633V2.826ZM18.0287 2.826C27.6579 2.826 35.0312 5.03095 40.2751 9.31353L41.5402 7.76446C35.8242 3.09638 27.9448 0.825996 18.0287 0.825996V2.826ZM40.2814 9.31861C45.5972 13.5887 48.2647 19.3655 48.2647 26.76H50.2647C50.2647 18.8105 47.3608 12.44 41.5339 7.75937L40.2814 9.31861ZM48.2647 26.76C48.2647 32.2369 46.8112 36.7074 43.9647 40.244L45.5227 41.498C48.7042 37.5452 50.2647 32.6084 50.2647 26.76H48.2647ZM43.9554 40.2557C41.1716 43.8224 37.4273 46.3139 32.6776 47.7212L33.2458 49.6388C38.3601 48.1234 42.4704 45.409 45.532 41.4863L43.9554 40.2557ZM-1.83632 41.734H13.5077V39.734H-1.83632V41.734ZM13.5077 41.734C17.468 41.734 20.6529 40.8877 22.9089 39.042L21.6424 37.494C19.8797 38.9362 17.2194 39.734 13.5077 39.734V41.734ZM22.9126 39.039C25.2909 37.0742 26.4267 34.2513 26.4267 30.733H24.4267C24.4267 33.7907 23.4618 35.9911 21.6388 37.497L22.9126 39.039ZM26.4267 30.733C26.4267 27.2147 25.2909 24.3918 22.9126 22.427L21.6388 23.969C23.4618 25.4749 24.4267 27.6753 24.4267 30.733H26.4267ZM22.9293 22.4412C20.6722 20.4919 17.4789 19.595 13.5077 19.595V21.595C17.2085 21.595 19.8605 22.4334 21.6221 23.9548L22.9293 22.4412ZM13.5077 19.595H-1.83632V21.595H13.5077V19.595ZM-2.83632 20.595V40.734H-0.836323V20.595H-2.83632ZM15.4257 80.094C19.4852 80.094 22.7602 79.1986 25.1046 77.262L23.8308 75.72C21.9738 77.2541 19.2208 78.094 15.4257 78.094V80.094ZM25.1079 77.2592C27.5706 75.2069 28.7557 72.2975 28.7557 68.682H26.7557C26.7557 71.8252 25.7487 74.1218 23.8275 75.7228L25.1079 77.2592ZM28.7557 68.682C28.7557 65.0514 27.5151 62.105 24.9739 59.9703L23.6875 61.5017C25.7129 63.203 26.7557 65.5539 26.7557 68.682H28.7557ZM24.9892 59.9834C22.5597 57.8576 19.2361 56.859 15.1517 56.859V58.859C18.9219 58.859 21.7177 59.7784 23.6722 61.4886L24.9892 59.9834ZM15.1517 56.859H-1.83632V58.859H15.1517V56.859ZM-2.83632 57.859V79.094H-0.836323V57.859H-2.83632ZM-1.83632 80.094H15.4257V78.094H-1.83632V80.094ZM88.4713 1.826H89.4713V0.825996H88.4713V1.826ZM88.4713 98V99H89.4713V98H88.4713ZM65.0443 98H64.0443V99H65.0443V98ZM65.0443 1.826V0.825996H64.0443V1.826H65.0443ZM87.4713 1.826V98H89.4713V1.826H87.4713ZM88.4713 97H65.0443V99H88.4713V97ZM66.0443 98V1.826H64.0443V98H66.0443ZM65.0443 2.826H88.4713V0.825996H65.0443V2.826ZM125.999 92.657L125.509 93.5292L125.514 93.5316L125.999 92.657ZM108.052 75.121L107.186 75.6216L107.189 75.6278L107.193 75.634L108.052 75.121ZM108.052 24.294L107.193 23.781L107.189 23.7888L108.052 24.294ZM125.999 6.758L125.514 5.88334L125.509 5.88586L125.999 6.758ZM175.73 6.758L175.24 7.63015L175.245 7.63265L175.73 6.758ZM193.54 24.294L192.672 24.7913L192.677 24.7992L193.54 24.294ZM193.54 75.121L194.403 75.6262L194.405 75.6216L193.54 75.121ZM175.73 92.657L176.219 93.5291L175.73 92.657ZM169.291 69.915L168.551 69.2416L168.545 69.249L169.291 69.915ZM169.291 29.363L168.545 30.029L168.551 30.036L168.557 30.0429L169.291 29.363ZM132.301 29.226L131.567 28.546L131.561 28.5533L132.301 29.226ZM132.301 70.052L131.555 70.718L131.561 70.725L131.567 70.7319L132.301 70.052ZM150.933 97.959C142.053 97.959 133.909 95.8979 126.483 91.7823L125.514 93.5316C133.249 97.8188 141.729 99.959 150.933 99.959V97.959ZM126.488 91.7849C119.153 87.6704 113.297 81.95 108.91 74.608L107.193 75.634C111.757 83.2707 117.865 89.241 125.509 93.5291L126.488 91.7849ZM108.917 74.6204C104.628 67.2031 102.476 58.884 102.476 49.639H100.476C100.476 59.2086 102.707 67.8775 107.186 75.6216L108.917 74.6204ZM102.476 49.639C102.476 40.3938 104.628 32.1225 108.915 24.7992L107.189 23.7888C102.707 31.4442 100.476 40.0695 100.476 49.639H102.476ZM108.91 24.8069C113.297 17.465 119.153 11.7446 126.488 7.63014L125.509 5.88586C117.865 10.1741 111.757 16.1443 107.193 23.781L108.91 24.8069ZM126.483 7.63265C133.909 3.51715 142.053 1.456 150.933 1.456V-0.544003C141.729 -0.544003 133.249 1.59618 125.514 5.88335L126.483 7.63265ZM150.933 1.456C159.813 1.456 167.908 3.51712 175.24 7.63014L176.219 5.88586C168.572 1.59621 160.137 -0.544003 150.933 -0.544003V1.456ZM175.245 7.63265C182.667 11.7459 188.471 17.461 192.672 24.7913L194.407 23.7967C190.023 16.1483 183.954 10.1728 176.214 5.88335L175.245 7.63265ZM192.677 24.7992C196.963 32.1225 199.116 40.3938 199.116 49.639H201.116C201.116 40.0695 198.884 31.4442 194.403 23.7888L192.677 24.7992ZM199.116 49.639C199.116 58.884 196.963 67.2031 192.674 74.6204L194.405 75.6216C198.884 67.8775 201.116 59.2086 201.116 49.639H199.116ZM192.677 74.6158C188.381 81.9535 182.573 87.6714 175.24 91.7849L176.219 93.5291C183.865 89.2399 189.93 83.2672 194.403 75.6262L192.677 74.6158ZM175.24 91.7849C167.908 95.8979 159.813 97.959 150.933 97.959V99.959C160.137 99.959 168.572 97.8188 176.219 93.5291L175.24 91.7849ZM150.933 78.587C158.852 78.587 165.256 75.9348 170.037 70.581L168.545 69.249C164.191 74.1246 158.357 76.587 150.933 76.587V78.587ZM170.03 70.5883C174.89 65.2518 177.278 58.2345 177.278 49.639H175.278C175.278 57.8488 173.007 64.3489 168.551 69.2417L170.03 70.5883ZM177.278 49.639C177.278 40.9562 174.892 33.933 170.024 28.6831L168.557 30.0429C173.005 34.8396 175.278 41.3338 175.278 49.639H177.278ZM170.037 28.697C165.256 23.3432 158.852 20.691 150.933 20.691V22.691C158.357 22.691 164.191 25.1534 168.545 30.029L170.037 28.697ZM150.933 20.691C142.932 20.691 136.441 23.2905 131.567 28.5461L133.034 29.9059C137.477 25.1148 143.407 22.691 150.933 22.691V20.691ZM131.561 28.5533C126.786 33.8057 124.451 40.8732 124.451 49.639H126.451C126.451 41.2341 128.682 34.693 133.041 29.8987L131.561 28.5533ZM124.451 49.639C124.451 58.3176 126.788 65.3791 131.555 70.718L133.047 69.386C128.68 64.4955 126.451 57.9484 126.451 49.639H124.451ZM131.567 70.7319C136.441 75.9875 142.932 78.587 150.933 78.587V76.587C143.407 76.587 137.477 74.1632 133.034 69.3721L131.567 70.7319ZM236.576 20.595V19.595H235.576V20.595H236.576ZM236.576 40.049H235.576V41.049H236.576V40.049ZM267.949 40.049H268.949V39.049H267.949V40.049ZM267.949 58.133V59.133H268.949V58.133H267.949ZM236.576 58.133V57.133H235.576V58.133H236.576ZM236.576 79.231H235.576V80.231H236.576V79.231ZM272.059 79.231H273.059V78.231H272.059V79.231ZM272.059 98V99H273.059V98H272.059ZM213.149 98H212.149V99H213.149V98ZM213.149 1.826V0.825996H212.149V1.826H213.149ZM272.059 1.826H273.059V0.825996H272.059V1.826ZM272.059 20.595V21.595H273.059V20.595H272.059ZM235.576 20.595V40.049H237.576V20.595H235.576ZM236.576 41.049H267.949V39.049H236.576V41.049ZM266.949 40.049V58.133H268.949V40.049H266.949ZM267.949 57.133H236.576V59.133H267.949V57.133ZM235.576 58.133V79.231H237.576V58.133H235.576ZM236.576 80.231H272.059V78.231H236.576V80.231ZM271.059 79.231V98H273.059V79.231H271.059ZM272.059 97H213.149V99H272.059V97ZM214.149 98V1.826H212.149V98H214.149ZM213.149 2.826H272.059V0.825996H213.149V2.826ZM271.059 1.826V20.595H273.059V1.826H271.059ZM272.059 19.595H236.576V21.595H272.059V19.595ZM303.16 95.534L302.781 96.4593L303.16 95.534ZM289.734 85.396L288.928 85.9881L288.936 85.9986L289.734 85.396ZM284.528 69.23V68.23H283.499L283.528 69.259L284.528 69.23ZM309.462 69.23L310.457 69.128L310.365 68.23H309.462V69.23ZM313.161 77.45L312.487 78.1885L312.496 78.1967L312.505 78.2046L313.161 77.45ZM329.601 77.861L330.212 78.6523L330.223 78.6438L330.234 78.635L329.601 77.861ZM330.149 65.257L329.442 65.9641L329.452 65.9742L329.462 65.984L330.149 65.257ZM324.258 61.421L323.855 62.3363L323.862 62.3392L323.868 62.342L324.258 61.421ZM314.394 57.996L314.099 58.9515L314.108 58.9544L314.394 57.996ZM299.187 52.242L298.748 53.1406L299.187 52.242ZM289.049 43.748L289.847 43.1449L289.049 43.748ZM294.529 8.128L295.141 8.91858L295.148 8.91316L294.529 8.128ZM345.493 8.128L344.874 8.91319L344.881 8.91855L345.493 8.128ZM355.905 29.226V30.226H356.957L356.904 29.1756L355.905 29.226ZM330.56 29.226L329.562 29.2847L329.617 30.226H330.56V29.226ZM327.135 21.965L326.479 22.7196L326.488 22.7279L326.498 22.736L327.135 21.965ZM312.202 21.554L312.846 22.3189L312.858 22.3092L312.869 22.2992L312.202 21.554ZM313.983 35.254L314.493 34.3941L313.983 35.254ZM327.683 40.871L328.003 39.9236L327.991 39.9196L327.683 40.871ZM342.753 46.899L342.306 47.7935L342.314 47.7976L342.753 46.899ZM352.891 55.256L352.101 55.8686L352.891 55.256ZM352.891 84.3L352.046 83.7654L352.042 83.7716L352.038 83.7778L352.891 84.3ZM340.835 94.986L340.388 94.0916L340.835 94.986ZM322.066 97.959C315.142 97.959 308.972 96.8351 303.539 94.6087L302.781 96.4593C308.491 98.7995 314.925 99.959 322.066 99.959V97.959ZM303.539 94.6087C298.121 92.3882 293.795 89.115 290.532 84.7934L288.936 85.9986C292.431 90.6277 297.056 94.1131 302.781 96.4593L303.539 94.6087ZM290.54 84.8039C287.388 80.5138 285.705 75.3285 285.527 69.201L283.528 69.259C283.716 75.7355 285.504 81.3275 288.928 85.9881L290.54 84.8039ZM284.528 70.23H309.462V68.23H284.528V70.23ZM308.467 69.332C308.851 73.0728 310.161 76.0653 312.487 78.1885L313.835 76.7115C311.959 74.9987 310.804 72.5112 310.457 69.128L308.467 69.332ZM312.505 78.2046C314.824 80.2216 317.814 81.19 321.381 81.19V79.19C318.189 79.19 315.699 78.3317 313.817 76.6954L312.505 78.2046ZM321.381 81.19C324.993 81.19 327.974 80.3822 330.212 78.6523L328.989 77.0697C327.21 78.4451 324.71 79.19 321.381 79.19V81.19ZM330.234 78.635C332.499 76.7823 333.615 74.2483 333.615 71.148H331.615C331.615 73.7103 330.722 75.6517 328.968 77.087L330.234 78.635ZM333.615 71.148C333.615 68.5137 332.691 66.2819 330.836 64.53L329.462 65.984C330.895 67.3374 331.615 69.033 331.615 71.148H333.615ZM330.856 64.5499C329.198 62.8918 327.121 61.5463 324.648 60.5L323.868 62.342C326.145 63.3051 327.995 64.5169 329.442 65.9641L330.856 64.5499ZM324.661 60.5057C322.32 59.476 318.986 58.3204 314.679 57.0376L314.108 58.9544C318.387 60.2289 321.629 61.3567 323.855 62.3363L324.661 60.5057ZM314.689 57.0405C308.506 55.1312 303.49 53.2307 299.626 51.3434L298.748 53.1406C302.738 55.0893 307.86 57.0248 314.099 58.9515L314.689 57.0405ZM299.626 51.3434C295.85 49.4994 292.59 46.7738 289.847 43.1449L288.251 44.3511C291.17 48.2116 294.669 51.1486 298.748 53.1406L299.626 51.3434ZM289.847 43.1449C287.18 39.6177 285.802 34.9616 285.802 29.089H283.802C283.802 35.2724 285.255 40.3889 288.251 44.3511L289.847 43.1449ZM285.802 29.089C285.802 20.4152 288.926 13.7335 295.141 8.91855L293.917 7.33745C287.163 12.5692 283.802 19.8615 283.802 29.089H285.802ZM295.148 8.91316C301.415 3.97057 309.627 1.456 319.874 1.456V-0.544003C309.297 -0.544003 300.612 2.05609 293.91 7.34283L295.148 8.91316ZM319.874 1.456C330.308 1.456 338.61 3.97285 344.874 8.91316L346.112 7.34283C339.406 2.05381 330.629 -0.544003 319.874 -0.544003V1.456ZM344.881 8.91855C351.109 13.7435 354.463 20.4917 354.906 29.2764L356.904 29.1756C356.434 19.8763 352.846 12.5592 346.105 7.33745L344.881 8.91855ZM355.905 28.226H330.56V30.226H355.905V28.226ZM331.558 29.1673C331.362 25.8278 330.118 23.1321 327.772 21.194L326.498 22.736C328.353 24.2686 329.393 26.4135 329.562 29.2847L331.558 29.1673ZM327.791 21.2104C325.477 19.1977 322.535 18.225 319.052 18.225V20.225C322.145 20.225 324.592 21.079 326.479 22.7196L327.791 21.2104ZM319.052 18.225C316.03 18.225 313.491 19.0583 311.535 20.8088L312.869 22.2992C314.383 20.9443 316.411 20.225 319.052 20.225V18.225ZM311.558 20.7891C309.542 22.4863 308.599 24.9462 308.599 27.993H310.599C310.599 25.3771 311.391 23.5444 312.846 22.3189L311.558 20.7891ZM308.599 27.993C308.599 31.4898 310.281 34.2189 313.472 36.1139L314.493 34.3941C311.84 32.8184 310.599 30.7069 310.599 27.993H308.599ZM313.472 36.1139C316.493 37.9075 321.146 39.8071 327.375 41.8224L327.991 39.9196C321.799 37.9163 317.318 36.0712 314.493 34.3941L313.472 36.1139ZM327.363 41.8183C333.55 43.9111 338.526 45.9036 342.306 47.7934L343.2 46.0046C339.308 44.0584 334.237 42.0323 328.003 39.9237L327.363 41.8183ZM342.314 47.7976C346.096 49.6445 349.357 52.3291 352.101 55.8686L353.681 54.6434C350.762 50.8762 347.265 47.9894 343.192 46.0004L342.314 47.7976ZM352.101 55.8686C354.766 59.3073 356.138 63.7794 356.138 69.367H358.138C358.138 63.4466 356.679 58.5113 353.681 54.6434L352.101 55.8686ZM356.138 69.367C356.138 74.6646 354.772 79.4557 352.046 83.7654L353.736 84.8346C356.672 80.1936 358.138 75.0293 358.138 69.367H356.138ZM352.038 83.7778C349.408 88.0737 345.54 91.5155 340.388 94.0916L341.282 95.8804C346.725 93.1591 350.894 89.4769 353.744 84.8222L352.038 83.7778ZM340.388 94.0916C335.256 96.6573 329.159 97.959 322.066 97.959V99.959C329.403 99.959 335.819 98.612 341.282 95.8804L340.388 94.0916ZM434.164 1.826H435.164V0.825996H434.164V1.826ZM434.164 20.595V21.595H435.164V20.595H434.164ZM394.982 20.595V19.595H393.982V20.595H394.982ZM394.982 40.871H393.982V41.871H394.982V40.871ZM424.3 40.871H425.3V39.871H424.3V40.871ZM424.3 59.092V60.092H425.3V59.092H424.3ZM394.982 59.092V58.092H393.982V59.092H394.982ZM394.982 98V99H395.982V98H394.982ZM371.555 98H370.555V99H371.555V98ZM371.555 1.826V0.825996H370.555V1.826H371.555ZM433.164 1.826V20.595H435.164V1.826H433.164ZM434.164 19.595H394.982V21.595H434.164V19.595ZM393.982 20.595V40.871H395.982V20.595H393.982ZM394.982 41.871H424.3V39.871H394.982V41.871ZM423.3 40.871V59.092H425.3V40.871H423.3ZM424.3 58.092H394.982V60.092H424.3V58.092ZM393.982 59.092V98H395.982V59.092H393.982ZM394.982 97H371.555V99H394.982V97ZM372.555 98V1.826H370.555V98H372.555ZM371.555 2.826H434.164V0.825996H371.555V2.826ZM469.904 20.595V19.595H468.904V20.595H469.904ZM469.904 40.049H468.904V41.049H469.904V40.049ZM501.277 40.049H502.277V39.049H501.277V40.049ZM501.277 58.133V59.133H502.277V58.133H501.277ZM469.904 58.133V57.133H468.904V58.133H469.904ZM469.904 79.231H468.904V80.231H469.904V79.231ZM505.387 79.231H506.387V78.231H505.387V79.231ZM505.387 98V99H506.387V98H505.387ZM446.477 98H445.477V99H446.477V98ZM446.477 1.826V0.825996H445.477V1.826H446.477ZM505.387 1.826H506.387V0.825996H505.387V1.826ZM505.387 20.595V21.595H506.387V20.595H505.387ZM468.904 20.595V40.049H470.904V20.595H468.904ZM469.904 41.049H501.277V39.049H469.904V41.049ZM500.277 40.049V58.133H502.277V40.049H500.277ZM501.277 57.133H469.904V59.133H501.277V57.133ZM468.904 58.133V79.231H470.904V58.133H468.904ZM469.904 80.231H505.387V78.231H469.904V80.231ZM504.387 79.231V98H506.387V79.231H504.387ZM505.387 97H446.477V99H505.387V97ZM447.477 98V1.826H445.477V98H447.477ZM446.477 2.826H505.387V0.825996H446.477V2.826ZM504.387 1.826V20.595H506.387V1.826H504.387ZM505.387 19.595H469.904V21.595H505.387V19.595ZM569.642 98L568.766 98.4826L569.051 99H569.642V98ZM549.64 61.695L550.516 61.2124L550.231 60.695H549.64V61.695ZM544.023 61.695V60.695H543.023V61.695H544.023ZM544.023 98V99H545.023V98H544.023ZM520.596 98H519.596V99H520.596V98ZM520.596 1.826V0.825996H519.596V1.826H520.596ZM579.232 5.799L578.785 6.69344L578.791 6.69645L579.232 5.799ZM591.288 16.759L590.419 17.2533L590.423 17.2607L591.288 16.759ZM589.781 49.228L588.972 48.6398L588.965 48.6496L589.781 49.228ZM573.889 59.914L573.603 58.9558L572.385 59.3195L573.025 60.4175L573.889 59.914ZM596.083 98V99H597.823L596.947 97.4965L596.083 98ZM544.023 45.118H543.023V46.118H544.023V45.118ZM568.135 41.967L567.443 41.245L567.435 41.2524L567.428 41.2599L568.135 41.967ZM568.135 24.431L567.428 25.1381L567.435 25.1456L567.443 25.153L568.135 24.431ZM544.023 21.28V20.28H543.023V21.28H544.023ZM570.518 97.5174L550.516 61.2124L548.764 62.1776L568.766 98.4826L570.518 97.5174ZM549.64 60.695H544.023V62.695H549.64V60.695ZM543.023 61.695V98H545.023V61.695H543.023ZM544.023 97H520.596V99H544.023V97ZM521.596 98V1.826H519.596V98H521.596ZM520.596 2.826H559.915V0.825996H520.596V2.826ZM559.915 2.826C567.383 2.826 573.66 4.13085 578.785 6.69342L579.679 4.90457C574.21 2.16981 567.609 0.825996 559.915 0.825996V2.826ZM578.791 6.69645C584.022 9.26775 587.881 12.7902 590.419 17.2533L592.157 16.2647C589.398 11.4118 585.219 7.62757 579.673 4.90155L578.791 6.69645ZM590.423 17.2607C592.977 21.6639 594.261 26.6033 594.261 32.103H596.261C596.261 26.2774 594.897 20.9874 592.153 16.2573L590.423 17.2607ZM594.261 32.103C594.261 38.2916 592.497 43.7927 588.972 48.6398L590.59 49.8162C594.371 44.6166 596.261 38.701 596.261 32.103H594.261ZM588.965 48.6496C585.556 53.4576 580.464 56.9064 573.603 58.9558L574.175 60.8722C581.379 58.7203 586.882 55.0451 590.597 49.8064L588.965 48.6496ZM573.025 60.4175L595.219 98.5035L596.947 97.4965L574.753 59.4105L573.025 60.4175ZM596.083 97H569.642V99H596.083V97ZM544.023 46.118H558.545V44.118H544.023V46.118ZM558.545 46.118C562.985 46.118 566.484 45.0321 568.842 42.6741L567.428 41.2599C565.585 43.1033 562.691 44.118 558.545 44.118V46.118ZM568.827 42.689C571.265 40.3528 572.423 37.0945 572.423 33.062H570.423C570.423 36.7015 569.389 39.3798 567.443 41.245L568.827 42.689ZM572.423 33.062C572.423 29.1957 571.255 26.0359 568.827 23.709L567.443 25.153C569.399 27.0274 570.423 29.6216 570.423 33.062H572.423ZM568.842 23.7239C566.484 21.366 562.985 20.28 558.545 20.28V22.28C562.691 22.28 565.585 23.2947 567.428 25.1381L568.842 23.7239ZM558.545 20.28H544.023V22.28H558.545V20.28ZM543.023 21.28V45.118H545.023V21.28H543.023ZM669.836 81.012L670.783 80.6912L670.553 80.012H669.836V81.012ZM633.942 81.012V80.012H633.225L632.995 80.6912L633.942 81.012ZM628.188 98V99H628.905L629.135 98.3208L628.188 98ZM603.665 98L602.725 97.6598L602.24 99H603.665V98ZM638.463 1.826V0.825996H637.762L637.523 1.48576L638.463 1.826ZM665.589 1.826L666.529 1.48576L666.291 0.825996H665.589V1.826ZM700.387 98V99H701.812L701.328 97.6598L700.387 98ZM675.59 98L674.643 98.3208L674.873 99H675.59V98ZM663.808 62.928V63.928H665.202L664.755 62.6074L663.808 62.928ZM651.889 27.719L652.836 27.3984L651.884 24.5841L650.941 27.4017L651.889 27.719ZM640.107 62.928L639.159 62.6107L638.718 63.928H640.107V62.928ZM669.836 80.012H633.942V82.012H669.836V80.012ZM632.995 80.6912L627.241 97.6792L629.135 98.3208L634.889 81.3328L632.995 80.6912ZM628.188 97H603.665V99H628.188V97ZM604.605 98.3402L639.404 2.16623L637.523 1.48576L602.725 97.6598L604.605 98.3402ZM638.463 2.826H665.589V0.825996H638.463V2.826ZM664.649 2.16623L699.447 98.3402L701.328 97.6598L666.529 1.48576L664.649 2.16623ZM700.387 97H675.59V99H700.387V97ZM676.537 97.6792L670.783 80.6912L668.889 81.3328L674.643 98.3208L676.537 97.6792ZM664.755 62.6074L652.836 27.3984L650.942 28.0396L662.861 63.2486L664.755 62.6074ZM650.941 27.4017L639.159 62.6107L641.055 63.2453L652.837 28.0363L650.941 27.4017ZM640.107 63.928H663.808V61.928H640.107V63.928ZM798.235 48.68L797.951 47.7212L798.027 49.658L798.235 48.68ZM811.661 57.037L810.869 57.6475L810.875 57.6556L811.661 57.037ZM808.236 91.013L808.878 91.7802L808.879 91.7792L808.236 91.013ZM740.01 98H739.01V99H740.01V98ZM740.01 1.826V0.825996H739.01V1.826H740.01ZM806.181 8.53899L805.549 9.31355L805.555 9.31861L806.181 8.53899ZM810.017 40.871L809.238 40.244L809.233 40.2498L809.229 40.2557L810.017 40.871ZM763.437 40.734H762.437V41.734H763.437V40.734ZM787.549 38.268L788.182 39.042L788.186 39.039L787.549 38.268ZM787.549 23.198L786.896 23.9548L786.904 23.962L786.912 23.969L787.549 23.198ZM763.437 20.595V19.595H762.437V20.595H763.437ZM789.741 76.491L790.378 77.262L790.381 77.2592L789.741 76.491ZM789.604 60.736L788.946 61.4886L788.953 61.4952L788.961 61.5017L789.604 60.736ZM763.437 57.859V56.859H762.437V57.859H763.437ZM763.437 79.094H762.437V80.094H763.437V79.094ZM798.027 49.658C803.373 50.7975 807.639 53.4572 810.869 57.6475L812.453 56.4265C808.924 51.8488 804.239 48.9372 798.444 47.702L798.027 49.658ZM810.875 57.6556C814.113 61.7682 815.73 66.4812 815.73 71.833H817.73C817.73 66.0421 815.968 60.8912 812.447 56.4184L810.875 57.6556ZM815.73 71.833C815.73 79.604 813.008 85.7056 807.594 90.2468L808.879 91.7792C814.789 86.8218 817.73 80.1366 817.73 71.833H815.73ZM807.595 90.2458C802.262 94.7046 794.711 97 784.809 97V99C795.001 99 803.068 96.6374 808.878 91.7802L807.595 90.2458ZM784.809 97H740.01V99H784.809V97ZM741.01 98V1.826H739.01V98H741.01ZM740.01 2.826H783.302V0.825996H740.01V2.826ZM783.302 2.826C792.931 2.826 800.305 5.03095 805.549 9.31353L806.814 7.76446C801.098 3.09638 793.218 0.825996 783.302 0.825996V2.826ZM805.555 9.31861C810.871 13.5887 813.538 19.3655 813.538 26.76H815.538C815.538 18.8105 812.634 12.44 806.807 7.75937L805.555 9.31861ZM813.538 26.76C813.538 32.2369 812.085 36.7074 809.238 40.244L810.796 41.498C813.978 37.5452 815.538 32.6084 815.538 26.76H813.538ZM809.229 40.2557C806.445 43.8224 802.701 46.3139 797.951 47.7212L798.519 49.6388C803.633 48.1234 807.744 45.409 810.805 41.4863L809.229 40.2557ZM763.437 41.734H778.781V39.734H763.437V41.734ZM778.781 41.734C782.741 41.734 785.926 40.8877 788.182 39.042L786.916 37.494C785.153 38.9362 782.493 39.734 778.781 39.734V41.734ZM788.186 39.039C790.564 37.0742 791.7 34.2513 791.7 30.733H789.7C789.7 33.7907 788.735 35.9911 786.912 37.497L788.186 39.039ZM791.7 30.733C791.7 27.2147 790.564 24.3918 788.186 22.427L786.912 23.969C788.735 25.4749 789.7 27.6753 789.7 30.733H791.7ZM788.203 22.4412C785.946 20.4919 782.752 19.595 778.781 19.595V21.595C782.482 21.595 785.134 22.4334 786.896 23.9548L788.203 22.4412ZM778.781 19.595H763.437V21.595H778.781V19.595ZM762.437 20.595V40.734H764.437V20.595H762.437ZM780.699 80.094C784.759 80.094 788.034 79.1986 790.378 77.262L789.104 75.72C787.247 77.2541 784.494 78.094 780.699 78.094V80.094ZM790.381 77.2592C792.844 75.2069 794.029 72.2975 794.029 68.682H792.029C792.029 71.8252 791.022 74.1218 789.101 75.7228L790.381 77.2592ZM794.029 68.682C794.029 65.0514 792.789 62.105 790.247 59.9703L788.961 61.5017C790.986 63.203 792.029 65.5539 792.029 68.682H794.029ZM790.263 59.9834C787.833 57.8576 784.51 56.859 780.425 56.859V58.859C784.195 58.859 786.991 59.7784 788.946 61.4886L790.263 59.9834ZM780.425 56.859H763.437V58.859H780.425V56.859ZM762.437 57.859V79.094H764.437V57.859H762.437ZM763.437 80.094H780.699V78.094H763.437V80.094ZM853.745 1.826H854.745V0.825996H853.745V1.826ZM853.745 98V99H854.745V98H853.745ZM830.318 98H829.318V99H830.318V98ZM830.318 1.826V0.825996H829.318V1.826H830.318ZM852.745 1.826V98H854.745V1.826H852.745ZM853.745 97H830.318V99H853.745V97ZM831.318 98V1.826H829.318V98H831.318ZM830.318 2.826H853.745V0.825996H830.318V2.826ZM891.272 92.657L890.783 93.5292L890.787 93.5316L891.272 92.657ZM873.325 75.121L872.459 75.6216L872.463 75.6278L872.467 75.634L873.325 75.121ZM873.325 24.294L872.467 23.781L872.462 23.7888L873.325 24.294ZM891.272 6.758L890.787 5.88334L890.783 5.88586L891.272 6.758ZM941.003 6.758L940.514 7.63015L940.518 7.63265L941.003 6.758ZM958.813 24.294L957.945 24.7913L957.95 24.7992L958.813 24.294ZM958.813 75.121L959.676 75.6262L959.679 75.6216L958.813 75.121ZM941.003 92.657L941.492 93.5291L941.003 92.657ZM934.564 69.915L933.825 69.2416L933.818 69.249L934.564 69.915ZM934.564 29.363L933.818 30.029L933.824 30.036L933.831 30.0429L934.564 29.363ZM897.574 29.226L896.841 28.546L896.834 28.5533L897.574 29.226ZM897.574 70.052L896.828 70.718L896.834 70.725L896.841 70.7319L897.574 70.052ZM916.206 97.959C907.326 97.959 899.183 95.8979 891.757 91.7823L890.787 93.5316C898.523 97.8188 907.002 99.959 916.206 99.959V97.959ZM891.761 91.7849C884.427 87.6704 878.571 81.95 874.183 74.608L872.467 75.634C877.03 83.2707 883.139 89.241 890.783 93.5291L891.761 91.7849ZM874.191 74.6204C869.901 67.2031 867.749 58.884 867.749 49.639H865.749C865.749 59.2086 867.981 67.8775 872.459 75.6216L874.191 74.6204ZM867.749 49.639C867.749 40.3938 869.901 32.1225 874.188 24.7992L872.462 23.7888C867.981 31.4442 865.749 40.0695 865.749 49.639H867.749ZM874.183 24.8069C878.571 17.465 884.427 11.7446 891.761 7.63014L890.783 5.88586C883.139 10.1741 877.03 16.1443 872.467 23.781L874.183 24.8069ZM891.757 7.63265C899.183 3.51715 907.326 1.456 916.206 1.456V-0.544003C907.002 -0.544003 898.523 1.59618 890.787 5.88335L891.757 7.63265ZM916.206 1.456C925.086 1.456 933.182 3.51712 940.514 7.63014L941.492 5.88586C933.846 1.59621 925.41 -0.544003 916.206 -0.544003V1.456ZM940.518 7.63265C947.94 11.7459 953.744 17.461 957.945 24.7913L959.681 23.7967C955.297 16.1483 949.227 10.1728 941.488 5.88335L940.518 7.63265ZM957.95 24.7992C962.237 32.1225 964.389 40.3938 964.389 49.639H966.389C966.389 40.0695 964.157 31.4442 959.676 23.7888L957.95 24.7992ZM964.389 49.639C964.389 58.884 962.237 67.2031 957.947 74.6204L959.679 75.6216C964.157 67.8775 966.389 59.2086 966.389 49.639H964.389ZM957.95 74.6158C953.655 81.9535 947.846 87.6714 940.514 91.7849L941.492 93.5291C949.138 89.2399 955.203 83.2672 959.676 75.6262L957.95 74.6158ZM940.514 91.7849C933.182 95.8979 925.086 97.959 916.206 97.959V99.959C925.41 99.959 933.846 97.8188 941.492 93.5291L940.514 91.7849ZM916.206 78.587C924.125 78.587 930.53 75.9348 935.31 70.581L933.818 69.249C929.465 74.1246 923.631 76.587 916.206 76.587V78.587ZM935.303 70.5883C940.163 65.2518 942.551 58.2345 942.551 49.639H940.551C940.551 57.8488 938.281 64.3489 933.825 69.2417L935.303 70.5883ZM942.551 49.639C942.551 40.9562 940.165 33.933 935.297 28.6831L933.831 30.0429C938.279 34.8396 940.551 41.3338 940.551 49.639H942.551ZM935.31 28.697C930.53 23.3432 924.125 20.691 916.206 20.691V22.691C923.631 22.691 929.465 25.1534 933.818 30.029L935.31 28.697ZM916.206 20.691C908.205 20.691 901.714 23.2905 896.841 28.5461L898.307 29.9059C902.75 25.1148 908.68 22.691 916.206 22.691V20.691ZM896.834 28.5533C892.059 33.8057 889.724 40.8732 889.724 49.639H891.724C891.724 41.2341 893.956 34.693 898.314 29.8987L896.834 28.5533ZM889.724 49.639C889.724 58.3176 892.061 65.3791 896.828 70.718L898.32 69.386C893.953 64.4955 891.724 57.9484 891.724 49.639H889.724ZM896.841 70.7319C901.714 75.9875 908.205 78.587 916.206 78.587V76.587C908.68 76.587 902.75 74.1632 898.307 69.3721L896.841 70.7319ZM1001.85 20.595V19.595H1000.85V20.595H1001.85ZM1001.85 40.049H1000.85V41.049H1001.85V40.049ZM1033.22 40.049H1034.22V39.049H1033.22V40.049ZM1033.22 58.133V59.133H1034.22V58.133H1033.22ZM1001.85 58.133V57.133H1000.85V58.133H1001.85ZM1001.85 79.231H1000.85V80.231H1001.85V79.231ZM1037.33 79.231H1038.33V78.231H1037.33V79.231ZM1037.33 98V99H1038.33V98H1037.33ZM978.422 98H977.422V99H978.422V98ZM978.422 1.826V0.825996H977.422V1.826H978.422ZM1037.33 1.826H1038.33V0.825996H1037.33V1.826ZM1037.33 20.595V21.595H1038.33V20.595H1037.33ZM1000.85 20.595V40.049H1002.85V20.595H1000.85ZM1001.85 41.049H1033.22V39.049H1001.85V41.049ZM1032.22 40.049V58.133H1034.22V40.049H1032.22ZM1033.22 57.133H1001.85V59.133H1033.22V57.133ZM1000.85 58.133V79.231H1002.85V58.133H1000.85ZM1001.85 80.231H1037.33V78.231H1001.85V80.231ZM1036.33 79.231V98H1038.33V79.231H1036.33ZM1037.33 97H978.422V99H1037.33V97ZM979.422 98V1.826H977.422V98H979.422ZM978.422 2.826H1037.33V0.825996H978.422V2.826ZM1036.33 1.826V20.595H1038.33V1.826H1036.33ZM1037.33 19.595H1001.85V21.595H1037.33V19.595ZM1068.43 95.534L1068.05 96.4593L1068.43 95.534ZM1055.01 85.396L1054.2 85.9881L1054.21 85.9986L1055.01 85.396ZM1049.8 69.23V68.23H1048.77L1048.8 69.259L1049.8 69.23ZM1074.74 69.23L1075.73 69.128L1075.64 68.23H1074.74V69.23ZM1078.43 77.45L1077.76 78.1885L1077.77 78.1967L1077.78 78.2046L1078.43 77.45ZM1094.87 77.861L1095.49 78.6523L1095.5 78.6438L1095.51 78.635L1094.87 77.861ZM1095.42 65.257L1094.72 65.9641L1094.73 65.9742L1094.74 65.984L1095.42 65.257ZM1089.53 61.421L1089.13 62.3363L1089.14 62.3392L1089.14 62.342L1089.53 61.421ZM1079.67 57.996L1079.37 58.9515L1079.38 58.9544L1079.67 57.996ZM1064.46 52.242L1064.02 53.1406L1064.46 52.242ZM1054.32 43.748L1055.12 43.1449L1054.32 43.748ZM1059.8 8.128L1060.41 8.91858L1060.42 8.91316L1059.8 8.128ZM1110.77 8.128L1110.15 8.91319L1110.15 8.91855L1110.77 8.128ZM1121.18 29.226V30.226H1122.23L1122.18 29.1756L1121.18 29.226ZM1095.83 29.226L1094.84 29.2847L1094.89 30.226H1095.83V29.226ZM1092.41 21.965L1091.75 22.7196L1091.76 22.7279L1091.77 22.736L1092.41 21.965ZM1077.48 21.554L1078.12 22.3189L1078.13 22.3092L1078.14 22.2992L1077.48 21.554ZM1079.26 35.254L1079.77 34.3941L1079.26 35.254ZM1092.96 40.871L1093.28 39.9236L1093.26 39.9196L1092.96 40.871ZM1108.03 46.899L1107.58 47.7935L1107.59 47.7976L1108.03 46.899ZM1118.16 55.256L1117.37 55.8686L1118.16 55.256ZM1118.16 84.3L1117.32 83.7654L1117.32 83.7716L1117.31 83.7778L1118.16 84.3ZM1106.11 94.986L1105.66 94.0916L1106.11 94.986ZM1087.34 97.959C1080.42 97.959 1074.25 96.8351 1068.81 94.6087L1068.05 96.4593C1073.76 98.7995 1080.2 99.959 1087.34 99.959V97.959ZM1068.81 94.6087C1063.39 92.3882 1059.07 89.115 1055.81 84.7934L1054.21 85.9986C1057.7 90.6277 1062.33 94.1131 1068.05 96.4593L1068.81 94.6087ZM1055.81 84.8039C1052.66 80.5138 1050.98 75.3285 1050.8 69.201L1048.8 69.259C1048.99 75.7355 1050.78 81.3275 1054.2 85.9881L1055.81 84.8039ZM1049.8 70.23H1074.74V68.23H1049.8V70.23ZM1073.74 69.332C1074.12 73.0728 1075.43 76.0653 1077.76 78.1885L1079.11 76.7115C1077.23 74.9987 1076.08 72.5112 1075.73 69.128L1073.74 69.332ZM1077.78 78.2046C1080.1 80.2216 1083.09 81.19 1086.65 81.19V79.19C1083.46 79.19 1080.97 78.3317 1079.09 76.6954L1077.78 78.2046ZM1086.65 81.19C1090.27 81.19 1093.25 80.3822 1095.49 78.6523L1094.26 77.0697C1092.48 78.4451 1089.98 79.19 1086.65 79.19V81.19ZM1095.51 78.635C1097.77 76.7823 1098.89 74.2483 1098.89 71.148H1096.89C1096.89 73.7103 1096 75.6517 1094.24 77.087L1095.51 78.635ZM1098.89 71.148C1098.89 68.5137 1097.96 66.2819 1096.11 64.53L1094.74 65.984C1096.17 67.3374 1096.89 69.033 1096.89 71.148H1098.89ZM1096.13 64.5499C1094.47 62.8918 1092.39 61.5463 1089.92 60.5L1089.14 62.342C1091.42 63.3051 1093.27 64.5169 1094.72 65.9641L1096.13 64.5499ZM1089.93 60.5057C1087.59 59.476 1084.26 58.3204 1079.95 57.0376L1079.38 58.9544C1083.66 60.2289 1086.9 61.3567 1089.13 62.3363L1089.93 60.5057ZM1079.96 57.0405C1073.78 55.1312 1068.76 53.2307 1064.9 51.3434L1064.02 53.1406C1068.01 55.0893 1073.13 57.0248 1079.37 58.9515L1079.96 57.0405ZM1064.9 51.3434C1061.12 49.4994 1057.86 46.7738 1055.12 43.1449L1053.52 44.3511C1056.44 48.2116 1059.94 51.1486 1064.02 53.1406L1064.9 51.3434ZM1055.12 43.1449C1052.45 39.6177 1051.08 34.9616 1051.08 29.089H1049.08C1049.08 35.2724 1050.53 40.3889 1053.52 44.3511L1055.12 43.1449ZM1051.08 29.089C1051.08 20.4152 1054.2 13.7335 1060.41 8.91855L1059.19 7.33745C1052.44 12.5692 1049.08 19.8615 1049.08 29.089H1051.08ZM1060.42 8.91316C1066.69 3.97057 1074.9 1.456 1085.15 1.456V-0.544003C1074.57 -0.544003 1065.89 2.05609 1059.18 7.34283L1060.42 8.91316ZM1085.15 1.456C1095.58 1.456 1103.88 3.97285 1110.15 8.91316L1111.39 7.34283C1104.68 2.05381 1095.9 -0.544003 1085.15 -0.544003V1.456ZM1110.15 8.91855C1116.38 13.7435 1119.74 20.4917 1120.18 29.2764L1122.18 29.1756C1121.71 19.8763 1118.12 12.5592 1111.38 7.33745L1110.15 8.91855ZM1121.18 28.226H1095.83V30.226H1121.18V28.226ZM1096.83 29.1673C1096.64 25.8278 1095.39 23.1321 1093.05 21.194L1091.77 22.736C1093.63 24.2686 1094.67 26.4135 1094.84 29.2847L1096.83 29.1673ZM1093.06 21.2104C1090.75 19.1977 1087.81 18.225 1084.33 18.225V20.225C1087.42 20.225 1089.87 21.079 1091.75 22.7196L1093.06 21.2104ZM1084.33 18.225C1081.3 18.225 1078.76 19.0583 1076.81 20.8088L1078.14 22.2992C1079.66 20.9443 1081.68 20.225 1084.33 20.225V18.225ZM1076.83 20.7891C1074.82 22.4863 1073.87 24.9462 1073.87 27.993H1075.87C1075.87 25.3771 1076.66 23.5444 1078.12 22.3189L1076.83 20.7891ZM1073.87 27.993C1073.87 31.4898 1075.55 34.2189 1078.75 36.1139L1079.77 34.3941C1077.11 32.8184 1075.87 30.7069 1075.87 27.993H1073.87ZM1078.75 36.1139C1081.77 37.9075 1086.42 39.8071 1092.65 41.8224L1093.26 39.9196C1087.07 37.9163 1082.59 36.0712 1079.77 34.3941L1078.75 36.1139ZM1092.64 41.8183C1098.82 43.9111 1103.8 45.9036 1107.58 47.7934L1108.47 46.0046C1104.58 44.0584 1099.51 42.0323 1093.28 39.9237L1092.64 41.8183ZM1107.59 47.7976C1111.37 49.6445 1114.63 52.3291 1117.37 55.8686L1118.95 54.6434C1116.04 50.8762 1112.54 47.9894 1108.47 46.0004L1107.59 47.7976ZM1117.37 55.8686C1120.04 59.3073 1121.41 63.7794 1121.41 69.367H1123.41C1123.41 63.4466 1121.95 58.5113 1118.95 54.6434L1117.37 55.8686ZM1121.41 69.367C1121.41 74.6646 1120.05 79.4557 1117.32 83.7654L1119.01 84.8346C1121.95 80.1936 1123.41 75.0293 1123.41 69.367H1121.41ZM1117.31 83.7778C1114.68 88.0737 1110.81 91.5155 1105.66 94.0916L1106.56 95.8804C1112 93.1591 1116.17 89.4769 1119.02 84.8222L1117.31 83.7778ZM1105.66 94.0916C1100.53 96.6573 1094.43 97.959 1087.34 97.959V99.959C1094.68 99.959 1101.09 98.612 1106.56 95.8804L1105.66 94.0916ZM1199.44 1.826H1200.44V0.825996H1199.44V1.826ZM1199.44 20.595V21.595H1200.44V20.595H1199.44ZM1160.26 20.595V19.595H1159.26V20.595H1160.26ZM1160.26 40.871H1159.26V41.871H1160.26V40.871ZM1189.57 40.871H1190.57V39.871H1189.57V40.871ZM1189.57 59.092V60.092H1190.57V59.092H1189.57ZM1160.26 59.092V58.092H1159.26V59.092H1160.26ZM1160.26 98V99H1161.26V98H1160.26ZM1136.83 98H1135.83V99H1136.83V98ZM1136.83 1.826V0.825996H1135.83V1.826H1136.83ZM1198.44 1.826V20.595H1200.44V1.826H1198.44ZM1199.44 19.595H1160.26V21.595H1199.44V19.595ZM1159.26 20.595V40.871H1161.26V20.595H1159.26ZM1160.26 41.871H1189.57V39.871H1160.26V41.871ZM1188.57 40.871V59.092H1190.57V40.871H1188.57ZM1189.57 58.092H1160.26V60.092H1189.57V58.092ZM1159.26 59.092V98H1161.26V59.092H1159.26ZM1160.26 97H1136.83V99H1160.26V97ZM1137.83 98V1.826H1135.83V98H1137.83ZM1136.83 2.826H1199.44V0.825996H1136.83V2.826ZM1235.18 20.595V19.595H1234.18V20.595H1235.18ZM1235.18 40.049H1234.18V41.049H1235.18V40.049ZM1266.55 40.049H1267.55V39.049H1266.55V40.049ZM1266.55 58.133V59.133H1267.55V58.133H1266.55ZM1235.18 58.133V57.133H1234.18V58.133H1235.18ZM1235.18 79.231H1234.18V80.231H1235.18V79.231ZM1270.66 79.231H1271.66V78.231H1270.66V79.231ZM1270.66 98V99H1271.66V98H1270.66ZM1211.75 98H1210.75V99H1211.75V98ZM1211.75 1.826V0.825996H1210.75V1.826H1211.75ZM1270.66 1.826H1271.66V0.825996H1270.66V1.826ZM1270.66 20.595V21.595H1271.66V20.595H1270.66ZM1234.18 20.595V40.049H1236.18V20.595H1234.18ZM1235.18 41.049H1266.55V39.049H1235.18V41.049ZM1265.55 40.049V58.133H1267.55V40.049H1265.55ZM1266.55 57.133H1235.18V59.133H1266.55V57.133ZM1234.18 58.133V79.231H1236.18V58.133H1234.18ZM1235.18 80.231H1270.66V78.231H1235.18V80.231ZM1269.66 79.231V98H1271.66V79.231H1269.66ZM1270.66 97H1211.75V99H1270.66V97ZM1212.75 98V1.826H1210.75V98H1212.75ZM1211.75 2.826H1270.66V0.825996H1211.75V2.826ZM1269.66 1.826V20.595H1271.66V1.826H1269.66ZM1270.66 19.595H1235.18V21.595H1270.66V19.595ZM1334.92 98L1334.04 98.4826L1334.32 99H1334.92V98ZM1314.91 61.695L1315.79 61.2124L1315.5 60.695H1314.91V61.695ZM1309.3 61.695V60.695H1308.3V61.695H1309.3ZM1309.3 98V99H1310.3V98H1309.3ZM1285.87 98H1284.87V99H1285.87V98ZM1285.87 1.826V0.825996H1284.87V1.826H1285.87ZM1344.51 5.799L1344.06 6.69344L1344.06 6.69645L1344.51 5.799ZM1356.56 16.759L1355.69 17.2533L1355.7 17.2607L1356.56 16.759ZM1355.05 49.228L1354.25 48.6398L1354.24 48.6496L1355.05 49.228ZM1339.16 59.914L1338.88 58.9558L1337.66 59.3195L1338.3 60.4175L1339.16 59.914ZM1361.36 98V99H1363.1L1362.22 97.4965L1361.36 98ZM1309.3 45.118H1308.3V46.118H1309.3V45.118ZM1333.41 41.967L1332.72 41.245L1332.71 41.2524L1332.7 41.2599L1333.41 41.967ZM1333.41 24.431L1332.7 25.1381L1332.71 25.1456L1332.72 25.153L1333.41 24.431ZM1309.3 21.28V20.28H1308.3V21.28H1309.3ZM1335.79 97.5174L1315.79 61.2124L1314.04 62.1776L1334.04 98.4826L1335.79 97.5174ZM1314.91 60.695H1309.3V62.695H1314.91V60.695ZM1308.3 61.695V98H1310.3V61.695H1308.3ZM1309.3 97H1285.87V99H1309.3V97ZM1286.87 98V1.826H1284.87V98H1286.87ZM1285.87 2.826H1325.19V0.825996H1285.87V2.826ZM1325.19 2.826C1332.66 2.826 1338.93 4.13085 1344.06 6.69342L1344.95 4.90457C1339.48 2.16981 1332.88 0.825996 1325.19 0.825996V2.826ZM1344.06 6.69645C1349.3 9.26775 1353.15 12.7902 1355.69 17.2533L1357.43 16.2647C1354.67 11.4118 1350.49 7.62757 1344.95 4.90155L1344.06 6.69645ZM1355.7 17.2607C1358.25 21.6639 1359.53 26.6033 1359.53 32.103H1361.53C1361.53 26.2774 1360.17 20.9874 1357.43 16.2573L1355.7 17.2607ZM1359.53 32.103C1359.53 38.2916 1357.77 43.7927 1354.25 48.6398L1355.86 49.8162C1359.64 44.6166 1361.53 38.701 1361.53 32.103H1359.53ZM1354.24 48.6496C1350.83 53.4576 1345.74 56.9064 1338.88 58.9558L1339.45 60.8722C1346.65 58.7203 1352.16 55.0451 1355.87 49.8064L1354.24 48.6496ZM1338.3 60.4175L1360.49 98.5035L1362.22 97.4965L1340.03 59.4105L1338.3 60.4175ZM1361.36 97H1334.92V99H1361.36V97ZM1309.3 46.118H1323.82V44.118H1309.3V46.118ZM1323.82 46.118C1328.26 46.118 1331.76 45.0321 1334.12 42.6741L1332.7 41.2599C1330.86 43.1033 1327.96 44.118 1323.82 44.118V46.118ZM1334.1 42.689C1336.54 40.3528 1337.7 37.0945 1337.7 33.062H1335.7C1335.7 36.7015 1334.66 39.3798 1332.72 41.245L1334.1 42.689ZM1337.7 33.062C1337.7 29.1957 1336.53 26.0359 1334.1 23.709L1332.72 25.153C1334.67 27.0274 1335.7 29.6216 1335.7 33.062H1337.7ZM1334.12 23.7239C1331.76 21.366 1328.26 20.28 1323.82 20.28V22.28C1327.96 22.28 1330.86 23.2947 1332.7 25.1381L1334.12 23.7239ZM1323.82 20.28H1309.3V22.28H1323.82V20.28ZM1308.3 21.28V45.118H1310.3V21.28H1308.3ZM1435.11 81.012L1436.06 80.6912L1435.83 80.012H1435.11V81.012ZM1399.22 81.012V80.012H1398.5L1398.27 80.6912L1399.22 81.012ZM1393.46 98V99H1394.18L1394.41 98.3208L1393.46 98ZM1368.94 98L1368 97.6598L1367.51 99H1368.94V98ZM1403.74 1.826V0.825996H1403.03L1402.8 1.48576L1403.74 1.826ZM1430.86 1.826L1431.8 1.48576L1431.56 0.825996H1430.86V1.826ZM1465.66 98V99H1467.09L1466.6 97.6598L1465.66 98ZM1440.86 98L1439.92 98.3208L1440.15 99H1440.86V98ZM1429.08 62.928V63.928H1430.48L1430.03 62.6074L1429.08 62.928ZM1417.16 27.719L1418.11 27.3984L1417.16 24.5841L1416.21 27.4017L1417.16 27.719ZM1405.38 62.928L1404.43 62.6107L1403.99 63.928H1405.38V62.928ZM1435.11 80.012H1399.22V82.012H1435.11V80.012ZM1398.27 80.6912L1392.51 97.6792L1394.41 98.3208L1400.16 81.3328L1398.27 80.6912ZM1393.46 97H1368.94V99H1393.46V97ZM1369.88 98.3402L1404.68 2.16623L1402.8 1.48576L1368 97.6598L1369.88 98.3402ZM1403.74 2.826H1430.86V0.825996H1403.74V2.826ZM1429.92 2.16623L1464.72 98.3402L1466.6 97.6598L1431.8 1.48576L1429.92 2.16623ZM1465.66 97H1440.86V99H1465.66V97ZM1441.81 97.6792L1436.06 80.6912L1434.16 81.3328L1439.92 98.3208L1441.81 97.6792ZM1430.03 62.6074L1418.11 27.3984L1416.22 28.0396L1428.13 63.2486L1430.03 62.6074ZM1416.21 27.4017L1404.43 62.6107L1406.33 63.2453L1418.11 28.0363L1416.21 27.4017ZM1405.38 63.928H1429.08V61.928H1405.38V63.928Z" fill="#979A2B" fill-opacity="0.38" mask="url(#path-1-outside-1_53_18)"/>
</svg>
