<svg width="1440" height="99" viewBox="0 0 1440 99" fill="none" xmlns="http://www.w3.org/2000/svg">
<mask id="path-1-outside-1_55_37" maskUnits="userSpaceOnUse" x="-20" y="-1" width="1495" height="101" fill="black">
<rect fill="white" x="-20" y="-1" width="1495" height="101"/>
<path d="M39.9617 48.68C45.533 49.8673 50.0083 52.653 53.3877 57.037C56.767 61.3297 58.4567 66.2617 58.4567 71.833C58.4567 79.8703 55.6253 86.2637 49.9627 91.013C44.3913 95.671 36.5823 98 26.5357 98H-18.2633V1.826H25.0287C34.8013 1.826 42.4277 4.06366 47.9077 8.53899C53.479 13.0143 56.2647 19.088 56.2647 26.76C56.2647 32.4227 54.7577 37.1263 51.7437 40.871C48.821 44.6157 44.8937 47.2187 39.9617 48.68ZM5.16368 40.734H20.5077C24.3437 40.734 27.2663 39.912 29.2757 38.268C31.3763 36.5327 32.4267 34.021 32.4267 30.733C32.4267 27.445 31.3763 24.9333 29.2757 23.198C27.2663 21.4627 24.3437 20.595 20.5077 20.595H5.16368V40.734ZM22.4257 79.094C26.353 79.094 29.367 78.2263 31.4677 76.491C33.6597 74.6643 34.7557 72.0613 34.7557 68.682C34.7557 65.3027 33.614 62.654 31.3307 60.736C29.1387 58.818 26.079 57.859 22.1517 57.859H5.16368V79.094H22.4257ZM95.4713 1.826V98H72.0443V1.826H95.4713ZM157.933 98.959C148.891 98.959 140.579 96.8583 132.999 92.657C125.509 88.4557 119.527 82.6103 115.052 75.121C110.668 67.5403 108.476 59.0463 108.476 49.639C108.476 40.2317 110.668 31.7833 115.052 24.294C119.527 16.8047 125.509 10.9593 132.999 6.758C140.579 2.55667 148.891 0.455998 157.933 0.455998C166.975 0.455998 175.24 2.55667 182.73 6.758C190.31 10.9593 196.247 16.8047 200.54 24.294C204.924 31.7833 207.116 40.2317 207.116 49.639C207.116 59.0463 204.924 67.5403 200.54 75.121C196.156 82.6103 190.219 88.4557 182.73 92.657C175.24 96.8583 166.975 98.959 157.933 98.959ZM157.933 77.587C165.605 77.587 171.724 75.0297 176.291 69.915C180.949 64.8003 183.278 58.0417 183.278 49.639C183.278 41.145 180.949 34.3863 176.291 29.363C171.724 24.2483 165.605 21.691 157.933 21.691C150.169 21.691 143.959 24.2027 139.301 29.226C134.734 34.2493 132.451 41.0537 132.451 49.639C132.451 58.133 134.734 64.9373 139.301 70.052C143.959 75.0753 150.169 77.587 157.933 77.587ZM243.576 20.595V40.049H274.949V58.133H243.576V79.231H279.059V98H220.149V1.826H279.059V20.595H243.576ZM329.066 98.959C322.033 98.959 315.731 97.8173 310.16 95.534C304.589 93.2507 300.113 89.8713 296.734 85.396C293.446 80.9207 291.711 75.532 291.528 69.23H316.462C316.827 72.792 318.06 75.532 320.161 77.45C322.262 79.2767 325.002 80.19 328.381 80.19C331.852 80.19 334.592 79.4137 336.601 77.861C338.61 76.217 339.615 73.9793 339.615 71.148C339.615 68.7733 338.793 66.8097 337.149 65.257C335.596 63.7043 333.633 62.4257 331.258 61.421C328.975 60.4163 325.687 59.2747 321.394 57.996C315.183 56.078 310.114 54.16 306.187 52.242C302.26 50.324 298.88 47.4927 296.049 43.748C293.218 40.0033 291.802 35.117 291.802 29.089C291.802 20.1383 295.044 13.1513 301.529 8.128C308.014 3.01333 316.462 0.455998 326.874 0.455998C337.469 0.455998 346.008 3.01333 352.493 8.128C358.978 13.1513 362.448 20.184 362.905 29.226H337.56C337.377 26.1207 336.236 23.7003 334.135 21.965C332.034 20.1383 329.34 19.225 326.052 19.225C323.221 19.225 320.937 20.0013 319.202 21.554C317.467 23.0153 316.599 25.1617 316.599 27.993C316.599 31.0983 318.06 33.5187 320.983 35.254C323.906 36.9893 328.472 38.8617 334.683 40.871C340.894 42.9717 345.917 44.981 349.753 46.899C353.68 48.817 357.06 51.6027 359.891 55.256C362.722 58.9093 364.138 63.613 364.138 69.367C364.138 74.847 362.722 79.8247 359.891 84.3C357.151 88.7753 353.132 92.3373 347.835 94.986C342.538 97.6347 336.281 98.959 329.066 98.959ZM441.164 1.826V20.595H401.982V40.871H431.3V59.092H401.982V98H378.555V1.826H441.164ZM476.904 20.595V40.049H508.277V58.133H476.904V79.231H512.387V98H453.477V1.826H512.387V20.595H476.904ZM576.642 98L556.64 61.695H551.023V98H527.596V1.826H566.915C574.496 1.826 580.935 3.15033 586.232 5.79899C591.621 8.44766 595.639 12.101 598.288 16.759C600.937 21.3257 602.261 26.4403 602.261 32.103C602.261 38.4963 600.434 44.2047 596.781 49.228C593.219 54.2513 587.922 57.8133 580.889 59.914L603.083 98H576.642ZM551.023 45.118H565.545C569.838 45.118 573.034 44.0677 575.135 41.967C577.327 39.8663 578.423 36.898 578.423 33.062C578.423 29.4087 577.327 26.5317 575.135 24.431C573.034 22.3303 569.838 21.28 565.545 21.28H551.023V45.118ZM676.836 81.012H640.942L635.188 98H610.665L645.463 1.826H672.589L707.387 98H682.59L676.836 81.012ZM670.808 62.928L658.889 27.719L647.107 62.928H670.808ZM805.235 48.68C810.806 49.8673 815.282 52.653 818.661 57.037C822.04 61.3297 823.73 66.2617 823.73 71.833C823.73 79.8703 820.899 86.2637 815.236 91.013C809.665 95.671 801.856 98 791.809 98H747.01V1.826H790.302C800.075 1.826 807.701 4.06366 813.181 8.53899C818.752 13.0143 821.538 19.088 821.538 26.76C821.538 32.4227 820.031 37.1263 817.017 40.871C814.094 44.6157 810.167 47.2187 805.235 48.68ZM770.437 40.734H785.781C789.617 40.734 792.54 39.912 794.549 38.268C796.65 36.5327 797.7 34.021 797.7 30.733C797.7 27.445 796.65 24.9333 794.549 23.198C792.54 21.4627 789.617 20.595 785.781 20.595H770.437V40.734ZM787.699 79.094C791.626 79.094 794.64 78.2263 796.741 76.491C798.933 74.6643 800.029 72.0613 800.029 68.682C800.029 65.3027 798.887 62.654 796.604 60.736C794.412 58.818 791.352 57.859 787.425 57.859H770.437V79.094H787.699ZM860.745 1.826V98H837.318V1.826H860.745ZM923.206 98.959C914.164 98.959 905.853 96.8583 898.272 92.657C890.783 88.4557 884.8 82.6103 880.325 75.121C875.941 67.5403 873.749 59.0463 873.749 49.639C873.749 40.2317 875.941 31.7833 880.325 24.294C884.8 16.8047 890.783 10.9593 898.272 6.758C905.853 2.55667 914.164 0.455998 923.206 0.455998C932.248 0.455998 940.514 2.55667 948.003 6.758C955.584 10.9593 961.52 16.8047 965.813 24.294C970.197 31.7833 972.389 40.2317 972.389 49.639C972.389 59.0463 970.197 67.5403 965.813 75.121C961.429 82.6103 955.492 88.4557 948.003 92.657C940.514 96.8583 932.248 98.959 923.206 98.959ZM923.206 77.587C930.878 77.587 936.997 75.0297 941.564 69.915C946.222 64.8003 948.551 58.0417 948.551 49.639C948.551 41.145 946.222 34.3863 941.564 29.363C936.997 24.2483 930.878 21.691 923.206 21.691C915.443 21.691 909.232 24.2027 904.574 29.226C900.007 34.2493 897.724 41.0537 897.724 49.639C897.724 58.133 900.007 64.9373 904.574 70.052C909.232 75.0753 915.443 77.587 923.206 77.587ZM1008.85 20.595V40.049H1040.22V58.133H1008.85V79.231H1044.33V98H985.422V1.826H1044.33V20.595H1008.85ZM1094.34 98.959C1087.31 98.959 1081 97.8173 1075.43 95.534C1069.86 93.2507 1065.39 89.8713 1062.01 85.396C1058.72 80.9207 1056.98 75.532 1056.8 69.23H1081.74C1082.1 72.792 1083.33 75.532 1085.43 77.45C1087.54 79.2767 1090.28 80.19 1093.65 80.19C1097.13 80.19 1099.87 79.4137 1101.87 77.861C1103.88 76.217 1104.89 73.9793 1104.89 71.148C1104.89 68.7733 1104.07 66.8097 1102.42 65.257C1100.87 63.7043 1098.91 62.4257 1096.53 61.421C1094.25 60.4163 1090.96 59.2747 1086.67 57.996C1080.46 56.078 1075.39 54.16 1071.46 52.242C1067.53 50.324 1064.15 47.4927 1061.32 43.748C1058.49 40.0033 1057.08 35.117 1057.08 29.089C1057.08 20.1383 1060.32 13.1513 1066.8 8.128C1073.29 3.01333 1081.74 0.455998 1092.15 0.455998C1102.74 0.455998 1111.28 3.01333 1117.77 8.128C1124.25 13.1513 1127.72 20.184 1128.18 29.226H1102.83C1102.65 26.1207 1101.51 23.7003 1099.41 21.965C1097.31 20.1383 1094.61 19.225 1091.33 19.225C1088.49 19.225 1086.21 20.0013 1084.48 21.554C1082.74 23.0153 1081.87 25.1617 1081.87 27.993C1081.87 31.0983 1083.33 33.5187 1086.26 35.254C1089.18 36.9893 1093.75 38.8617 1099.96 40.871C1106.17 42.9717 1111.19 44.981 1115.03 46.899C1118.95 48.817 1122.33 51.6027 1125.16 55.256C1128 58.9093 1129.41 63.613 1129.41 69.367C1129.41 74.847 1128 79.8247 1125.16 84.3C1122.42 88.7753 1118.41 92.3373 1113.11 94.986C1107.81 97.6347 1101.55 98.959 1094.34 98.959ZM1206.44 1.826V20.595H1167.26V40.871H1196.57V59.092H1167.26V98H1143.83V1.826H1206.44ZM1242.18 20.595V40.049H1273.55V58.133H1242.18V79.231H1277.66V98H1218.75V1.826H1277.66V20.595H1242.18ZM1341.92 98L1321.91 61.695H1316.3V98H1292.87V1.826H1332.19C1339.77 1.826 1346.21 3.15033 1351.51 5.79899C1356.89 8.44766 1360.91 12.101 1363.56 16.759C1366.21 21.3257 1367.53 26.4403 1367.53 32.103C1367.53 38.4963 1365.71 44.2047 1362.05 49.228C1358.49 54.2513 1353.2 57.8133 1346.16 59.914L1368.36 98H1341.92ZM1316.3 45.118H1330.82C1335.11 45.118 1338.31 44.0677 1340.41 41.967C1342.6 39.8663 1343.7 36.898 1343.7 33.062C1343.7 29.4087 1342.6 26.5317 1340.41 24.431C1338.31 22.3303 1335.11 21.28 1330.82 21.28H1316.3V45.118ZM1442.11 81.012H1406.22L1400.46 98H1375.94L1410.74 1.826H1437.86L1472.66 98H1447.86L1442.11 81.012ZM1436.08 62.928L1424.16 27.719L1412.38 62.928H1436.08Z"/>
</mask>
<path d="M39.9617 48.68L39.6776 47.7212L39.7532 49.658L39.9617 48.68ZM53.3877 57.037L52.5956 57.6475L52.6019 57.6556L53.3877 57.037ZM49.9627 91.013L50.6041 91.7802L50.6053 91.7792L49.9627 91.013ZM-18.2633 98H-19.2633V99H-18.2633V98ZM-18.2633 1.826V0.825996H-19.2633V1.826H-18.2633ZM47.9077 8.53899L47.2751 9.31355L47.2814 9.31861L47.9077 8.53899ZM51.7437 40.871L50.9647 40.244L50.96 40.2498L50.9554 40.2557L51.7437 40.871ZM5.16368 40.734H4.16368V41.734H5.16368V40.734ZM29.2757 38.268L29.9089 39.042L29.9126 39.039L29.2757 38.268ZM29.2757 23.198L28.6221 23.9548L28.6303 23.962L28.6388 23.969L29.2757 23.198ZM5.16368 20.595V19.595H4.16368V20.595H5.16368ZM31.4677 76.491L32.1046 77.262L32.1079 77.2592L31.4677 76.491ZM31.3307 60.736L30.6722 61.4886L30.6798 61.4952L30.6875 61.5017L31.3307 60.736ZM5.16368 57.859V56.859H4.16368V57.859H5.16368ZM5.16368 79.094H4.16368V80.094H5.16368V79.094ZM39.7532 49.658C45.1 50.7975 49.3657 53.4572 52.5957 57.6475L54.1797 56.4265C50.651 51.8488 45.966 48.9372 40.1701 47.702L39.7532 49.658ZM52.6019 57.6556C55.8395 61.7682 57.4567 66.4812 57.4567 71.833H59.4567C59.4567 66.0421 57.6945 60.8912 54.1734 56.4184L52.6019 57.6556ZM57.4567 71.833C57.4567 79.604 54.7346 85.7056 49.3201 90.2468L50.6053 91.7792C56.5161 86.8218 59.4567 80.1366 59.4567 71.833H57.4567ZM49.3213 90.2458C43.9882 94.7046 36.4372 97 26.5357 97V99C36.7275 99 44.7945 96.6374 50.6041 91.7802L49.3213 90.2458ZM26.5357 97H-18.2633V99H26.5357V97ZM-17.2633 98V1.826H-19.2633V98H-17.2633ZM-18.2633 2.826H25.0287V0.825996H-18.2633V2.826ZM25.0287 2.826C34.6579 2.826 42.0312 5.03095 47.2751 9.31353L48.5402 7.76446C42.8242 3.09638 34.9448 0.825996 25.0287 0.825996V2.826ZM47.2814 9.31861C52.5972 13.5887 55.2647 19.3655 55.2647 26.76H57.2647C57.2647 18.8105 54.3608 12.44 48.5339 7.75937L47.2814 9.31861ZM55.2647 26.76C55.2647 32.2369 53.8112 36.7074 50.9647 40.244L52.5227 41.498C55.7042 37.5452 57.2647 32.6084 57.2647 26.76H55.2647ZM50.9554 40.2557C48.1716 43.8224 44.4273 46.3139 39.6776 47.7212L40.2458 49.6388C45.3601 48.1234 49.4704 45.409 52.532 41.4863L50.9554 40.2557ZM5.16368 41.734H20.5077V39.734H5.16368V41.734ZM20.5077 41.734C24.468 41.734 27.6529 40.8877 29.9089 39.042L28.6424 37.494C26.8797 38.9362 24.2194 39.734 20.5077 39.734V41.734ZM29.9126 39.039C32.2909 37.0742 33.4267 34.2513 33.4267 30.733H31.4267C31.4267 33.7907 30.4618 35.9911 28.6388 37.497L29.9126 39.039ZM33.4267 30.733C33.4267 27.2147 32.2909 24.3918 29.9126 22.427L28.6388 23.969C30.4618 25.4749 31.4267 27.6753 31.4267 30.733H33.4267ZM29.9293 22.4412C27.6722 20.4919 24.4789 19.595 20.5077 19.595V21.595C24.2085 21.595 26.8605 22.4334 28.6221 23.9548L29.9293 22.4412ZM20.5077 19.595H5.16368V21.595H20.5077V19.595ZM4.16368 20.595V40.734H6.16368V20.595H4.16368ZM22.4257 80.094C26.4852 80.094 29.7602 79.1986 32.1046 77.262L30.8308 75.72C28.9738 77.2541 26.2208 78.094 22.4257 78.094V80.094ZM32.1079 77.2592C34.5706 75.2069 35.7557 72.2975 35.7557 68.682H33.7557C33.7557 71.8252 32.7487 74.1218 30.8275 75.7228L32.1079 77.2592ZM35.7557 68.682C35.7557 65.0514 34.5151 62.105 31.9739 59.9703L30.6875 61.5017C32.7129 63.203 33.7557 65.5539 33.7557 68.682H35.7557ZM31.9892 59.9834C29.5597 57.8576 26.2361 56.859 22.1517 56.859V58.859C25.9219 58.859 28.7177 59.7784 30.6722 61.4886L31.9892 59.9834ZM22.1517 56.859H5.16368V58.859H22.1517V56.859ZM4.16368 57.859V79.094H6.16368V57.859H4.16368ZM5.16368 80.094H22.4257V78.094H5.16368V80.094ZM95.4713 1.826H96.4713V0.825996H95.4713V1.826ZM95.4713 98V99H96.4713V98H95.4713ZM72.0443 98H71.0443V99H72.0443V98ZM72.0443 1.826V0.825996H71.0443V1.826H72.0443ZM94.4713 1.826V98H96.4713V1.826H94.4713ZM95.4713 97H72.0443V99H95.4713V97ZM73.0443 98V1.826H71.0443V98H73.0443ZM72.0443 2.826H95.4713V0.825996H72.0443V2.826ZM132.999 92.657L132.509 93.5292L132.514 93.5316L132.999 92.657ZM115.052 75.121L114.186 75.6216L114.189 75.6278L114.193 75.634L115.052 75.121ZM115.052 24.294L114.193 23.781L114.189 23.7888L115.052 24.294ZM132.999 6.758L132.514 5.88334L132.509 5.88586L132.999 6.758ZM182.73 6.758L182.24 7.63015L182.245 7.63265L182.73 6.758ZM200.54 24.294L199.672 24.7913L199.677 24.7992L200.54 24.294ZM200.54 75.121L201.403 75.6262L201.405 75.6216L200.54 75.121ZM182.73 92.657L183.219 93.5291L182.73 92.657ZM176.291 69.915L175.551 69.2416L175.545 69.249L176.291 69.915ZM176.291 29.363L175.545 30.029L175.551 30.036L175.557 30.0429L176.291 29.363ZM139.301 29.226L138.567 28.546L138.561 28.5533L139.301 29.226ZM139.301 70.052L138.555 70.718L138.561 70.725L138.567 70.7319L139.301 70.052ZM157.933 97.959C149.053 97.959 140.909 95.8979 133.483 91.7823L132.514 93.5316C140.249 97.8188 148.729 99.959 157.933 99.959V97.959ZM133.488 91.7849C126.153 87.6704 120.297 81.95 115.91 74.608L114.193 75.634C118.757 83.2707 124.865 89.241 132.509 93.5291L133.488 91.7849ZM115.917 74.6204C111.628 67.2031 109.476 58.884 109.476 49.639H107.476C107.476 59.2086 109.707 67.8775 114.186 75.6216L115.917 74.6204ZM109.476 49.639C109.476 40.3938 111.628 32.1225 115.915 24.7992L114.189 23.7888C109.707 31.4442 107.476 40.0695 107.476 49.639H109.476ZM115.91 24.8069C120.297 17.465 126.153 11.7446 133.488 7.63014L132.509 5.88586C124.865 10.1741 118.757 16.1443 114.193 23.781L115.91 24.8069ZM133.483 7.63265C140.909 3.51715 149.053 1.456 157.933 1.456V-0.544003C148.729 -0.544003 140.249 1.59618 132.514 5.88335L133.483 7.63265ZM157.933 1.456C166.813 1.456 174.908 3.51712 182.24 7.63014L183.219 5.88586C175.572 1.59621 167.137 -0.544003 157.933 -0.544003V1.456ZM182.245 7.63265C189.667 11.7459 195.471 17.461 199.672 24.7913L201.407 23.7967C197.023 16.1483 190.954 10.1728 183.214 5.88335L182.245 7.63265ZM199.677 24.7992C203.963 32.1225 206.116 40.3938 206.116 49.639H208.116C208.116 40.0695 205.884 31.4442 201.403 23.7888L199.677 24.7992ZM206.116 49.639C206.116 58.884 203.963 67.2031 199.674 74.6204L201.405 75.6216C205.884 67.8775 208.116 59.2086 208.116 49.639H206.116ZM199.677 74.6158C195.381 81.9535 189.573 87.6714 182.24 91.7849L183.219 93.5291C190.865 89.2399 196.93 83.2672 201.403 75.6262L199.677 74.6158ZM182.24 91.7849C174.908 95.8979 166.813 97.959 157.933 97.959V99.959C167.137 99.959 175.572 97.8188 183.219 93.5291L182.24 91.7849ZM157.933 78.587C165.852 78.587 172.256 75.9348 177.037 70.581L175.545 69.249C171.191 74.1246 165.357 76.587 157.933 76.587V78.587ZM177.03 70.5883C181.89 65.2518 184.278 58.2345 184.278 49.639H182.278C182.278 57.8488 180.007 64.3489 175.551 69.2417L177.03 70.5883ZM184.278 49.639C184.278 40.9562 181.892 33.933 177.024 28.6831L175.557 30.0429C180.005 34.8396 182.278 41.3338 182.278 49.639H184.278ZM177.037 28.697C172.256 23.3432 165.852 20.691 157.933 20.691V22.691C165.357 22.691 171.191 25.1534 175.545 30.029L177.037 28.697ZM157.933 20.691C149.932 20.691 143.441 23.2905 138.567 28.5461L140.034 29.9059C144.477 25.1148 150.407 22.691 157.933 22.691V20.691ZM138.561 28.5533C133.786 33.8057 131.451 40.8732 131.451 49.639H133.451C133.451 41.2341 135.682 34.693 140.041 29.8987L138.561 28.5533ZM131.451 49.639C131.451 58.3176 133.788 65.3791 138.555 70.718L140.047 69.386C135.68 64.4955 133.451 57.9484 133.451 49.639H131.451ZM138.567 70.7319C143.441 75.9875 149.932 78.587 157.933 78.587V76.587C150.407 76.587 144.477 74.1632 140.034 69.3721L138.567 70.7319ZM243.576 20.595V19.595H242.576V20.595H243.576ZM243.576 40.049H242.576V41.049H243.576V40.049ZM274.949 40.049H275.949V39.049H274.949V40.049ZM274.949 58.133V59.133H275.949V58.133H274.949ZM243.576 58.133V57.133H242.576V58.133H243.576ZM243.576 79.231H242.576V80.231H243.576V79.231ZM279.059 79.231H280.059V78.231H279.059V79.231ZM279.059 98V99H280.059V98H279.059ZM220.149 98H219.149V99H220.149V98ZM220.149 1.826V0.825996H219.149V1.826H220.149ZM279.059 1.826H280.059V0.825996H279.059V1.826ZM279.059 20.595V21.595H280.059V20.595H279.059ZM242.576 20.595V40.049H244.576V20.595H242.576ZM243.576 41.049H274.949V39.049H243.576V41.049ZM273.949 40.049V58.133H275.949V40.049H273.949ZM274.949 57.133H243.576V59.133H274.949V57.133ZM242.576 58.133V79.231H244.576V58.133H242.576ZM243.576 80.231H279.059V78.231H243.576V80.231ZM278.059 79.231V98H280.059V79.231H278.059ZM279.059 97H220.149V99H279.059V97ZM221.149 98V1.826H219.149V98H221.149ZM220.149 2.826H279.059V0.825996H220.149V2.826ZM278.059 1.826V20.595H280.059V1.826H278.059ZM279.059 19.595H243.576V21.595H279.059V19.595ZM310.16 95.534L309.781 96.4593L310.16 95.534ZM296.734 85.396L295.928 85.9881L295.936 85.9986L296.734 85.396ZM291.528 69.23V68.23H290.499L290.528 69.259L291.528 69.23ZM316.462 69.23L317.457 69.128L317.365 68.23H316.462V69.23ZM320.161 77.45L319.487 78.1885L319.496 78.1967L319.505 78.2046L320.161 77.45ZM336.601 77.861L337.212 78.6523L337.223 78.6438L337.234 78.635L336.601 77.861ZM337.149 65.257L336.442 65.9641L336.452 65.9742L336.462 65.984L337.149 65.257ZM331.258 61.421L330.855 62.3363L330.862 62.3392L330.868 62.342L331.258 61.421ZM321.394 57.996L321.099 58.9515L321.108 58.9544L321.394 57.996ZM306.187 52.242L305.748 53.1406L306.187 52.242ZM296.049 43.748L296.847 43.1449L296.049 43.748ZM301.529 8.128L302.141 8.91858L302.148 8.91316L301.529 8.128ZM352.493 8.128L351.874 8.91319L351.881 8.91855L352.493 8.128ZM362.905 29.226V30.226H363.957L363.904 29.1756L362.905 29.226ZM337.56 29.226L336.562 29.2847L336.617 30.226H337.56V29.226ZM334.135 21.965L333.479 22.7196L333.488 22.7279L333.498 22.736L334.135 21.965ZM319.202 21.554L319.846 22.3189L319.858 22.3092L319.869 22.2992L319.202 21.554ZM320.983 35.254L321.493 34.3941L320.983 35.254ZM334.683 40.871L335.003 39.9236L334.991 39.9196L334.683 40.871ZM349.753 46.899L349.306 47.7935L349.314 47.7976L349.753 46.899ZM359.891 55.256L359.101 55.8686L359.891 55.256ZM359.891 84.3L359.046 83.7654L359.042 83.7716L359.038 83.7778L359.891 84.3ZM347.835 94.986L347.388 94.0916L347.835 94.986ZM329.066 97.959C322.142 97.959 315.972 96.8351 310.539 94.6087L309.781 96.4593C315.491 98.7995 321.925 99.959 329.066 99.959V97.959ZM310.539 94.6087C305.121 92.3882 300.795 89.115 297.532 84.7934L295.936 85.9986C299.431 90.6277 304.056 94.1131 309.781 96.4593L310.539 94.6087ZM297.54 84.8039C294.388 80.5138 292.705 75.3285 292.527 69.201L290.528 69.259C290.716 75.7355 292.504 81.3275 295.928 85.9881L297.54 84.8039ZM291.528 70.23H316.462V68.23H291.528V70.23ZM315.467 69.332C315.851 73.0728 317.161 76.0653 319.487 78.1885L320.835 76.7115C318.959 74.9987 317.804 72.5112 317.457 69.128L315.467 69.332ZM319.505 78.2046C321.824 80.2216 324.814 81.19 328.381 81.19V79.19C325.189 79.19 322.699 78.3317 320.817 76.6954L319.505 78.2046ZM328.381 81.19C331.993 81.19 334.974 80.3822 337.212 78.6523L335.989 77.0697C334.21 78.4451 331.71 79.19 328.381 79.19V81.19ZM337.234 78.635C339.499 76.7823 340.615 74.2483 340.615 71.148H338.615C338.615 73.7103 337.722 75.6517 335.968 77.087L337.234 78.635ZM340.615 71.148C340.615 68.5137 339.691 66.2819 337.836 64.53L336.462 65.984C337.895 67.3374 338.615 69.033 338.615 71.148H340.615ZM337.856 64.5499C336.198 62.8918 334.121 61.5463 331.648 60.5L330.868 62.342C333.145 63.3051 334.995 64.5169 336.442 65.9641L337.856 64.5499ZM331.661 60.5057C329.32 59.476 325.986 58.3204 321.679 57.0376L321.108 58.9544C325.387 60.2289 328.629 61.3567 330.855 62.3363L331.661 60.5057ZM321.689 57.0405C315.506 55.1312 310.49 53.2307 306.626 51.3434L305.748 53.1406C309.738 55.0893 314.86 57.0248 321.099 58.9515L321.689 57.0405ZM306.626 51.3434C302.85 49.4994 299.59 46.7738 296.847 43.1449L295.251 44.3511C298.17 48.2116 301.669 51.1486 305.748 53.1406L306.626 51.3434ZM296.847 43.1449C294.18 39.6177 292.802 34.9616 292.802 29.089H290.802C290.802 35.2724 292.255 40.3889 295.251 44.3511L296.847 43.1449ZM292.802 29.089C292.802 20.4152 295.926 13.7335 302.141 8.91855L300.917 7.33745C294.163 12.5692 290.802 19.8615 290.802 29.089H292.802ZM302.148 8.91316C308.415 3.97057 316.627 1.456 326.874 1.456V-0.544003C316.297 -0.544003 307.612 2.05609 300.91 7.34283L302.148 8.91316ZM326.874 1.456C337.308 1.456 345.61 3.97285 351.874 8.91316L353.112 7.34283C346.406 2.05381 337.629 -0.544003 326.874 -0.544003V1.456ZM351.881 8.91855C358.109 13.7435 361.463 20.4917 361.906 29.2764L363.904 29.1756C363.434 19.8763 359.846 12.5592 353.105 7.33745L351.881 8.91855ZM362.905 28.226H337.56V30.226H362.905V28.226ZM338.558 29.1673C338.362 25.8278 337.118 23.1321 334.772 21.194L333.498 22.736C335.353 24.2686 336.393 26.4135 336.562 29.2847L338.558 29.1673ZM334.791 21.2104C332.477 19.1977 329.535 18.225 326.052 18.225V20.225C329.145 20.225 331.592 21.079 333.479 22.7196L334.791 21.2104ZM326.052 18.225C323.03 18.225 320.491 19.0583 318.535 20.8088L319.869 22.2992C321.383 20.9443 323.411 20.225 326.052 20.225V18.225ZM318.558 20.7891C316.542 22.4863 315.599 24.9462 315.599 27.993H317.599C317.599 25.3771 318.391 23.5444 319.846 22.3189L318.558 20.7891ZM315.599 27.993C315.599 31.4898 317.281 34.2189 320.472 36.1139L321.493 34.3941C318.84 32.8184 317.599 30.7069 317.599 27.993H315.599ZM320.472 36.1139C323.493 37.9075 328.146 39.8071 334.375 41.8224L334.991 39.9196C328.799 37.9163 324.318 36.0712 321.493 34.3941L320.472 36.1139ZM334.363 41.8183C340.55 43.9111 345.526 45.9036 349.306 47.7934L350.2 46.0046C346.308 44.0584 341.237 42.0323 335.003 39.9237L334.363 41.8183ZM349.314 47.7976C353.096 49.6445 356.357 52.3291 359.101 55.8686L360.681 54.6434C357.762 50.8762 354.265 47.9894 350.192 46.0004L349.314 47.7976ZM359.101 55.8686C361.766 59.3073 363.138 63.7794 363.138 69.367H365.138C365.138 63.4466 363.679 58.5113 360.681 54.6434L359.101 55.8686ZM363.138 69.367C363.138 74.6646 361.772 79.4557 359.046 83.7654L360.736 84.8346C363.672 80.1936 365.138 75.0293 365.138 69.367H363.138ZM359.038 83.7778C356.408 88.0737 352.54 91.5155 347.388 94.0916L348.282 95.8804C353.725 93.1591 357.894 89.4769 360.744 84.8222L359.038 83.7778ZM347.388 94.0916C342.256 96.6573 336.159 97.959 329.066 97.959V99.959C336.403 99.959 342.819 98.612 348.282 95.8804L347.388 94.0916ZM441.164 1.826H442.164V0.825996H441.164V1.826ZM441.164 20.595V21.595H442.164V20.595H441.164ZM401.982 20.595V19.595H400.982V20.595H401.982ZM401.982 40.871H400.982V41.871H401.982V40.871ZM431.3 40.871H432.3V39.871H431.3V40.871ZM431.3 59.092V60.092H432.3V59.092H431.3ZM401.982 59.092V58.092H400.982V59.092H401.982ZM401.982 98V99H402.982V98H401.982ZM378.555 98H377.555V99H378.555V98ZM378.555 1.826V0.825996H377.555V1.826H378.555ZM440.164 1.826V20.595H442.164V1.826H440.164ZM441.164 19.595H401.982V21.595H441.164V19.595ZM400.982 20.595V40.871H402.982V20.595H400.982ZM401.982 41.871H431.3V39.871H401.982V41.871ZM430.3 40.871V59.092H432.3V40.871H430.3ZM431.3 58.092H401.982V60.092H431.3V58.092ZM400.982 59.092V98H402.982V59.092H400.982ZM401.982 97H378.555V99H401.982V97ZM379.555 98V1.826H377.555V98H379.555ZM378.555 2.826H441.164V0.825996H378.555V2.826ZM476.904 20.595V19.595H475.904V20.595H476.904ZM476.904 40.049H475.904V41.049H476.904V40.049ZM508.277 40.049H509.277V39.049H508.277V40.049ZM508.277 58.133V59.133H509.277V58.133H508.277ZM476.904 58.133V57.133H475.904V58.133H476.904ZM476.904 79.231H475.904V80.231H476.904V79.231ZM512.387 79.231H513.387V78.231H512.387V79.231ZM512.387 98V99H513.387V98H512.387ZM453.477 98H452.477V99H453.477V98ZM453.477 1.826V0.825996H452.477V1.826H453.477ZM512.387 1.826H513.387V0.825996H512.387V1.826ZM512.387 20.595V21.595H513.387V20.595H512.387ZM475.904 20.595V40.049H477.904V20.595H475.904ZM476.904 41.049H508.277V39.049H476.904V41.049ZM507.277 40.049V58.133H509.277V40.049H507.277ZM508.277 57.133H476.904V59.133H508.277V57.133ZM475.904 58.133V79.231H477.904V58.133H475.904ZM476.904 80.231H512.387V78.231H476.904V80.231ZM511.387 79.231V98H513.387V79.231H511.387ZM512.387 97H453.477V99H512.387V97ZM454.477 98V1.826H452.477V98H454.477ZM453.477 2.826H512.387V0.825996H453.477V2.826ZM511.387 1.826V20.595H513.387V1.826H511.387ZM512.387 19.595H476.904V21.595H512.387V19.595ZM576.642 98L575.766 98.4826L576.051 99H576.642V98ZM556.64 61.695L557.516 61.2124L557.231 60.695H556.64V61.695ZM551.023 61.695V60.695H550.023V61.695H551.023ZM551.023 98V99H552.023V98H551.023ZM527.596 98H526.596V99H527.596V98ZM527.596 1.826V0.825996H526.596V1.826H527.596ZM586.232 5.799L585.785 6.69344L585.791 6.69645L586.232 5.799ZM598.288 16.759L597.419 17.2533L597.423 17.2607L598.288 16.759ZM596.781 49.228L595.972 48.6398L595.965 48.6496L596.781 49.228ZM580.889 59.914L580.603 58.9558L579.385 59.3195L580.025 60.4175L580.889 59.914ZM603.083 98V99H604.823L603.947 97.4965L603.083 98ZM551.023 45.118H550.023V46.118H551.023V45.118ZM575.135 41.967L574.443 41.245L574.435 41.2524L574.428 41.2599L575.135 41.967ZM575.135 24.431L574.428 25.1381L574.435 25.1456L574.443 25.153L575.135 24.431ZM551.023 21.28V20.28H550.023V21.28H551.023ZM577.518 97.5174L557.516 61.2124L555.764 62.1776L575.766 98.4826L577.518 97.5174ZM556.64 60.695H551.023V62.695H556.64V60.695ZM550.023 61.695V98H552.023V61.695H550.023ZM551.023 97H527.596V99H551.023V97ZM528.596 98V1.826H526.596V98H528.596ZM527.596 2.826H566.915V0.825996H527.596V2.826ZM566.915 2.826C574.383 2.826 580.66 4.13085 585.785 6.69342L586.679 4.90457C581.21 2.16981 574.609 0.825996 566.915 0.825996V2.826ZM585.791 6.69645C591.022 9.26775 594.881 12.7902 597.419 17.2533L599.157 16.2647C596.398 11.4118 592.219 7.62757 586.673 4.90155L585.791 6.69645ZM597.423 17.2607C599.977 21.6639 601.261 26.6033 601.261 32.103H603.261C603.261 26.2774 601.897 20.9874 599.153 16.2573L597.423 17.2607ZM601.261 32.103C601.261 38.2916 599.497 43.7927 595.972 48.6398L597.59 49.8162C601.371 44.6166 603.261 38.701 603.261 32.103H601.261ZM595.965 48.6496C592.556 53.4576 587.464 56.9064 580.603 58.9558L581.175 60.8722C588.379 58.7203 593.882 55.0451 597.597 49.8064L595.965 48.6496ZM580.025 60.4175L602.219 98.5035L603.947 97.4965L581.753 59.4105L580.025 60.4175ZM603.083 97H576.642V99H603.083V97ZM551.023 46.118H565.545V44.118H551.023V46.118ZM565.545 46.118C569.985 46.118 573.484 45.0321 575.842 42.6741L574.428 41.2599C572.585 43.1033 569.691 44.118 565.545 44.118V46.118ZM575.827 42.689C578.265 40.3528 579.423 37.0945 579.423 33.062H577.423C577.423 36.7015 576.389 39.3798 574.443 41.245L575.827 42.689ZM579.423 33.062C579.423 29.1957 578.255 26.0359 575.827 23.709L574.443 25.153C576.399 27.0274 577.423 29.6216 577.423 33.062H579.423ZM575.842 23.7239C573.484 21.366 569.985 20.28 565.545 20.28V22.28C569.691 22.28 572.585 23.2947 574.428 25.1381L575.842 23.7239ZM565.545 20.28H551.023V22.28H565.545V20.28ZM550.023 21.28V45.118H552.023V21.28H550.023ZM676.836 81.012L677.783 80.6912L677.553 80.012H676.836V81.012ZM640.942 81.012V80.012H640.225L639.995 80.6912L640.942 81.012ZM635.188 98V99H635.905L636.135 98.3208L635.188 98ZM610.665 98L609.725 97.6598L609.24 99H610.665V98ZM645.463 1.826V0.825996H644.762L644.523 1.48576L645.463 1.826ZM672.589 1.826L673.529 1.48576L673.291 0.825996H672.589V1.826ZM707.387 98V99H708.812L708.328 97.6598L707.387 98ZM682.59 98L681.643 98.3208L681.873 99H682.59V98ZM670.808 62.928V63.928H672.202L671.755 62.6074L670.808 62.928ZM658.889 27.719L659.836 27.3984L658.884 24.5841L657.941 27.4017L658.889 27.719ZM647.107 62.928L646.159 62.6107L645.718 63.928H647.107V62.928ZM676.836 80.012H640.942V82.012H676.836V80.012ZM639.995 80.6912L634.241 97.6792L636.135 98.3208L641.889 81.3328L639.995 80.6912ZM635.188 97H610.665V99H635.188V97ZM611.605 98.3402L646.404 2.16623L644.523 1.48576L609.725 97.6598L611.605 98.3402ZM645.463 2.826H672.589V0.825996H645.463V2.826ZM671.649 2.16623L706.447 98.3402L708.328 97.6598L673.529 1.48576L671.649 2.16623ZM707.387 97H682.59V99H707.387V97ZM683.537 97.6792L677.783 80.6912L675.889 81.3328L681.643 98.3208L683.537 97.6792ZM671.755 62.6074L659.836 27.3984L657.942 28.0396L669.861 63.2486L671.755 62.6074ZM657.941 27.4017L646.159 62.6107L648.055 63.2453L659.837 28.0363L657.941 27.4017ZM647.107 63.928H670.808V61.928H647.107V63.928ZM805.235 48.68L804.951 47.7212L805.027 49.658L805.235 48.68ZM818.661 57.037L817.869 57.6475L817.875 57.6556L818.661 57.037ZM815.236 91.013L815.878 91.7802L815.879 91.7792L815.236 91.013ZM747.01 98H746.01V99H747.01V98ZM747.01 1.826V0.825996H746.01V1.826H747.01ZM813.181 8.53899L812.549 9.31355L812.555 9.31861L813.181 8.53899ZM817.017 40.871L816.238 40.244L816.233 40.2498L816.229 40.2557L817.017 40.871ZM770.437 40.734H769.437V41.734H770.437V40.734ZM794.549 38.268L795.182 39.042L795.186 39.039L794.549 38.268ZM794.549 23.198L793.896 23.9548L793.904 23.962L793.912 23.969L794.549 23.198ZM770.437 20.595V19.595H769.437V20.595H770.437ZM796.741 76.491L797.378 77.262L797.381 77.2592L796.741 76.491ZM796.604 60.736L795.946 61.4886L795.953 61.4952L795.961 61.5017L796.604 60.736ZM770.437 57.859V56.859H769.437V57.859H770.437ZM770.437 79.094H769.437V80.094H770.437V79.094ZM805.027 49.658C810.373 50.7975 814.639 53.4572 817.869 57.6475L819.453 56.4265C815.924 51.8488 811.239 48.9372 805.444 47.702L805.027 49.658ZM817.875 57.6556C821.113 61.7682 822.73 66.4812 822.73 71.833H824.73C824.73 66.0421 822.968 60.8912 819.447 56.4184L817.875 57.6556ZM822.73 71.833C822.73 79.604 820.008 85.7056 814.594 90.2468L815.879 91.7792C821.789 86.8218 824.73 80.1366 824.73 71.833H822.73ZM814.595 90.2458C809.262 94.7046 801.711 97 791.809 97V99C802.001 99 810.068 96.6374 815.878 91.7802L814.595 90.2458ZM791.809 97H747.01V99H791.809V97ZM748.01 98V1.826H746.01V98H748.01ZM747.01 2.826H790.302V0.825996H747.01V2.826ZM790.302 2.826C799.931 2.826 807.305 5.03095 812.549 9.31353L813.814 7.76446C808.098 3.09638 800.218 0.825996 790.302 0.825996V2.826ZM812.555 9.31861C817.871 13.5887 820.538 19.3655 820.538 26.76H822.538C822.538 18.8105 819.634 12.44 813.807 7.75937L812.555 9.31861ZM820.538 26.76C820.538 32.2369 819.085 36.7074 816.238 40.244L817.796 41.498C820.978 37.5452 822.538 32.6084 822.538 26.76H820.538ZM816.229 40.2557C813.445 43.8224 809.701 46.3139 804.951 47.7212L805.519 49.6388C810.633 48.1234 814.744 45.409 817.805 41.4863L816.229 40.2557ZM770.437 41.734H785.781V39.734H770.437V41.734ZM785.781 41.734C789.741 41.734 792.926 40.8877 795.182 39.042L793.916 37.494C792.153 38.9362 789.493 39.734 785.781 39.734V41.734ZM795.186 39.039C797.564 37.0742 798.7 34.2513 798.7 30.733H796.7C796.7 33.7907 795.735 35.9911 793.912 37.497L795.186 39.039ZM798.7 30.733C798.7 27.2147 797.564 24.3918 795.186 22.427L793.912 23.969C795.735 25.4749 796.7 27.6753 796.7 30.733H798.7ZM795.203 22.4412C792.946 20.4919 789.752 19.595 785.781 19.595V21.595C789.482 21.595 792.134 22.4334 793.896 23.9548L795.203 22.4412ZM785.781 19.595H770.437V21.595H785.781V19.595ZM769.437 20.595V40.734H771.437V20.595H769.437ZM787.699 80.094C791.759 80.094 795.034 79.1986 797.378 77.262L796.104 75.72C794.247 77.2541 791.494 78.094 787.699 78.094V80.094ZM797.381 77.2592C799.844 75.2069 801.029 72.2975 801.029 68.682H799.029C799.029 71.8252 798.022 74.1218 796.101 75.7228L797.381 77.2592ZM801.029 68.682C801.029 65.0514 799.789 62.105 797.247 59.9703L795.961 61.5017C797.986 63.203 799.029 65.5539 799.029 68.682H801.029ZM797.263 59.9834C794.833 57.8576 791.51 56.859 787.425 56.859V58.859C791.195 58.859 793.991 59.7784 795.946 61.4886L797.263 59.9834ZM787.425 56.859H770.437V58.859H787.425V56.859ZM769.437 57.859V79.094H771.437V57.859H769.437ZM770.437 80.094H787.699V78.094H770.437V80.094ZM860.745 1.826H861.745V0.825996H860.745V1.826ZM860.745 98V99H861.745V98H860.745ZM837.318 98H836.318V99H837.318V98ZM837.318 1.826V0.825996H836.318V1.826H837.318ZM859.745 1.826V98H861.745V1.826H859.745ZM860.745 97H837.318V99H860.745V97ZM838.318 98V1.826H836.318V98H838.318ZM837.318 2.826H860.745V0.825996H837.318V2.826ZM898.272 92.657L897.783 93.5292L897.787 93.5316L898.272 92.657ZM880.325 75.121L879.459 75.6216L879.463 75.6278L879.467 75.634L880.325 75.121ZM880.325 24.294L879.467 23.781L879.462 23.7888L880.325 24.294ZM898.272 6.758L897.787 5.88334L897.783 5.88586L898.272 6.758ZM948.003 6.758L947.514 7.63015L947.518 7.63265L948.003 6.758ZM965.813 24.294L964.945 24.7913L964.95 24.7992L965.813 24.294ZM965.813 75.121L966.676 75.6262L966.679 75.6216L965.813 75.121ZM948.003 92.657L948.492 93.5291L948.003 92.657ZM941.564 69.915L940.825 69.2416L940.818 69.249L941.564 69.915ZM941.564 29.363L940.818 30.029L940.824 30.036L940.831 30.0429L941.564 29.363ZM904.574 29.226L903.841 28.546L903.834 28.5533L904.574 29.226ZM904.574 70.052L903.828 70.718L903.834 70.725L903.841 70.7319L904.574 70.052ZM923.206 97.959C914.326 97.959 906.183 95.8979 898.757 91.7823L897.787 93.5316C905.523 97.8188 914.002 99.959 923.206 99.959V97.959ZM898.761 91.7849C891.427 87.6704 885.571 81.95 881.183 74.608L879.467 75.634C884.03 83.2707 890.139 89.241 897.783 93.5291L898.761 91.7849ZM881.191 74.6204C876.901 67.2031 874.749 58.884 874.749 49.639H872.749C872.749 59.2086 874.981 67.8775 879.459 75.6216L881.191 74.6204ZM874.749 49.639C874.749 40.3938 876.901 32.1225 881.188 24.7992L879.462 23.7888C874.981 31.4442 872.749 40.0695 872.749 49.639H874.749ZM881.183 24.8069C885.571 17.465 891.427 11.7446 898.761 7.63014L897.783 5.88586C890.139 10.1741 884.03 16.1443 879.467 23.781L881.183 24.8069ZM898.757 7.63265C906.183 3.51715 914.326 1.456 923.206 1.456V-0.544003C914.002 -0.544003 905.523 1.59618 897.787 5.88335L898.757 7.63265ZM923.206 1.456C932.086 1.456 940.182 3.51712 947.514 7.63014L948.492 5.88586C940.846 1.59621 932.41 -0.544003 923.206 -0.544003V1.456ZM947.518 7.63265C954.94 11.7459 960.744 17.461 964.945 24.7913L966.681 23.7967C962.297 16.1483 956.227 10.1728 948.488 5.88335L947.518 7.63265ZM964.95 24.7992C969.237 32.1225 971.389 40.3938 971.389 49.639H973.389C973.389 40.0695 971.157 31.4442 966.676 23.7888L964.95 24.7992ZM971.389 49.639C971.389 58.884 969.237 67.2031 964.947 74.6204L966.679 75.6216C971.157 67.8775 973.389 59.2086 973.389 49.639H971.389ZM964.95 74.6158C960.655 81.9535 954.846 87.6714 947.514 91.7849L948.492 93.5291C956.138 89.2399 962.203 83.2672 966.676 75.6262L964.95 74.6158ZM947.514 91.7849C940.182 95.8979 932.086 97.959 923.206 97.959V99.959C932.41 99.959 940.846 97.8188 948.492 93.5291L947.514 91.7849ZM923.206 78.587C931.125 78.587 937.53 75.9348 942.31 70.581L940.818 69.249C936.465 74.1246 930.631 76.587 923.206 76.587V78.587ZM942.303 70.5883C947.163 65.2518 949.551 58.2345 949.551 49.639H947.551C947.551 57.8488 945.281 64.3489 940.825 69.2417L942.303 70.5883ZM949.551 49.639C949.551 40.9562 947.165 33.933 942.297 28.6831L940.831 30.0429C945.279 34.8396 947.551 41.3338 947.551 49.639H949.551ZM942.31 28.697C937.53 23.3432 931.125 20.691 923.206 20.691V22.691C930.631 22.691 936.465 25.1534 940.818 30.029L942.31 28.697ZM923.206 20.691C915.205 20.691 908.714 23.2905 903.841 28.5461L905.307 29.9059C909.75 25.1148 915.68 22.691 923.206 22.691V20.691ZM903.834 28.5533C899.059 33.8057 896.724 40.8732 896.724 49.639H898.724C898.724 41.2341 900.956 34.693 905.314 29.8987L903.834 28.5533ZM896.724 49.639C896.724 58.3176 899.061 65.3791 903.828 70.718L905.32 69.386C900.953 64.4955 898.724 57.9484 898.724 49.639H896.724ZM903.841 70.7319C908.714 75.9875 915.205 78.587 923.206 78.587V76.587C915.68 76.587 909.75 74.1632 905.307 69.3721L903.841 70.7319ZM1008.85 20.595V19.595H1007.85V20.595H1008.85ZM1008.85 40.049H1007.85V41.049H1008.85V40.049ZM1040.22 40.049H1041.22V39.049H1040.22V40.049ZM1040.22 58.133V59.133H1041.22V58.133H1040.22ZM1008.85 58.133V57.133H1007.85V58.133H1008.85ZM1008.85 79.231H1007.85V80.231H1008.85V79.231ZM1044.33 79.231H1045.33V78.231H1044.33V79.231ZM1044.33 98V99H1045.33V98H1044.33ZM985.422 98H984.422V99H985.422V98ZM985.422 1.826V0.825996H984.422V1.826H985.422ZM1044.33 1.826H1045.33V0.825996H1044.33V1.826ZM1044.33 20.595V21.595H1045.33V20.595H1044.33ZM1007.85 20.595V40.049H1009.85V20.595H1007.85ZM1008.85 41.049H1040.22V39.049H1008.85V41.049ZM1039.22 40.049V58.133H1041.22V40.049H1039.22ZM1040.22 57.133H1008.85V59.133H1040.22V57.133ZM1007.85 58.133V79.231H1009.85V58.133H1007.85ZM1008.85 80.231H1044.33V78.231H1008.85V80.231ZM1043.33 79.231V98H1045.33V79.231H1043.33ZM1044.33 97H985.422V99H1044.33V97ZM986.422 98V1.826H984.422V98H986.422ZM985.422 2.826H1044.33V0.825996H985.422V2.826ZM1043.33 1.826V20.595H1045.33V1.826H1043.33ZM1044.33 19.595H1008.85V21.595H1044.33V19.595ZM1075.43 95.534L1075.05 96.4593L1075.43 95.534ZM1062.01 85.396L1061.2 85.9881L1061.21 85.9986L1062.01 85.396ZM1056.8 69.23V68.23H1055.77L1055.8 69.259L1056.8 69.23ZM1081.74 69.23L1082.73 69.128L1082.64 68.23H1081.74V69.23ZM1085.43 77.45L1084.76 78.1885L1084.77 78.1967L1084.78 78.2046L1085.43 77.45ZM1101.87 77.861L1102.49 78.6523L1102.5 78.6438L1102.51 78.635L1101.87 77.861ZM1102.42 65.257L1101.72 65.9641L1101.73 65.9742L1101.74 65.984L1102.42 65.257ZM1096.53 61.421L1096.13 62.3363L1096.14 62.3392L1096.14 62.342L1096.53 61.421ZM1086.67 57.996L1086.37 58.9515L1086.38 58.9544L1086.67 57.996ZM1071.46 52.242L1071.02 53.1406L1071.46 52.242ZM1061.32 43.748L1062.12 43.1449L1061.32 43.748ZM1066.8 8.128L1067.41 8.91858L1067.42 8.91316L1066.8 8.128ZM1117.77 8.128L1117.15 8.91319L1117.15 8.91855L1117.77 8.128ZM1128.18 29.226V30.226H1129.23L1129.18 29.1756L1128.18 29.226ZM1102.83 29.226L1101.84 29.2847L1101.89 30.226H1102.83V29.226ZM1099.41 21.965L1098.75 22.7196L1098.76 22.7279L1098.77 22.736L1099.41 21.965ZM1084.48 21.554L1085.12 22.3189L1085.13 22.3092L1085.14 22.2992L1084.48 21.554ZM1086.26 35.254L1086.77 34.3941L1086.26 35.254ZM1099.96 40.871L1100.28 39.9236L1100.26 39.9196L1099.96 40.871ZM1115.03 46.899L1114.58 47.7935L1114.59 47.7976L1115.03 46.899ZM1125.16 55.256L1124.37 55.8686L1125.16 55.256ZM1125.16 84.3L1124.32 83.7654L1124.32 83.7716L1124.31 83.7778L1125.16 84.3ZM1113.11 94.986L1112.66 94.0916L1113.11 94.986ZM1094.34 97.959C1087.42 97.959 1081.25 96.8351 1075.81 94.6087L1075.05 96.4593C1080.76 98.7995 1087.2 99.959 1094.34 99.959V97.959ZM1075.81 94.6087C1070.39 92.3882 1066.07 89.115 1062.81 84.7934L1061.21 85.9986C1064.7 90.6277 1069.33 94.1131 1075.05 96.4593L1075.81 94.6087ZM1062.81 84.8039C1059.66 80.5138 1057.98 75.3285 1057.8 69.201L1055.8 69.259C1055.99 75.7355 1057.78 81.3275 1061.2 85.9881L1062.81 84.8039ZM1056.8 70.23H1081.74V68.23H1056.8V70.23ZM1080.74 69.332C1081.12 73.0728 1082.43 76.0653 1084.76 78.1885L1086.11 76.7115C1084.23 74.9987 1083.08 72.5112 1082.73 69.128L1080.74 69.332ZM1084.78 78.2046C1087.1 80.2216 1090.09 81.19 1093.65 81.19V79.19C1090.46 79.19 1087.97 78.3317 1086.09 76.6954L1084.78 78.2046ZM1093.65 81.19C1097.27 81.19 1100.25 80.3822 1102.49 78.6523L1101.26 77.0697C1099.48 78.4451 1096.98 79.19 1093.65 79.19V81.19ZM1102.51 78.635C1104.77 76.7823 1105.89 74.2483 1105.89 71.148H1103.89C1103.89 73.7103 1103 75.6517 1101.24 77.087L1102.51 78.635ZM1105.89 71.148C1105.89 68.5137 1104.96 66.2819 1103.11 64.53L1101.74 65.984C1103.17 67.3374 1103.89 69.033 1103.89 71.148H1105.89ZM1103.13 64.5499C1101.47 62.8918 1099.39 61.5463 1096.92 60.5L1096.14 62.342C1098.42 63.3051 1100.27 64.5169 1101.72 65.9641L1103.13 64.5499ZM1096.93 60.5057C1094.59 59.476 1091.26 58.3204 1086.95 57.0376L1086.38 58.9544C1090.66 60.2289 1093.9 61.3567 1096.13 62.3363L1096.93 60.5057ZM1086.96 57.0405C1080.78 55.1312 1075.76 53.2307 1071.9 51.3434L1071.02 53.1406C1075.01 55.0893 1080.13 57.0248 1086.37 58.9515L1086.96 57.0405ZM1071.9 51.3434C1068.12 49.4994 1064.86 46.7738 1062.12 43.1449L1060.52 44.3511C1063.44 48.2116 1066.94 51.1486 1071.02 53.1406L1071.9 51.3434ZM1062.12 43.1449C1059.45 39.6177 1058.08 34.9616 1058.08 29.089H1056.08C1056.08 35.2724 1057.53 40.3889 1060.52 44.3511L1062.12 43.1449ZM1058.08 29.089C1058.08 20.4152 1061.2 13.7335 1067.41 8.91855L1066.19 7.33745C1059.44 12.5692 1056.08 19.8615 1056.08 29.089H1058.08ZM1067.42 8.91316C1073.69 3.97057 1081.9 1.456 1092.15 1.456V-0.544003C1081.57 -0.544003 1072.89 2.05609 1066.18 7.34283L1067.42 8.91316ZM1092.15 1.456C1102.58 1.456 1110.88 3.97285 1117.15 8.91316L1118.39 7.34283C1111.68 2.05381 1102.9 -0.544003 1092.15 -0.544003V1.456ZM1117.15 8.91855C1123.38 13.7435 1126.74 20.4917 1127.18 29.2764L1129.18 29.1756C1128.71 19.8763 1125.12 12.5592 1118.38 7.33745L1117.15 8.91855ZM1128.18 28.226H1102.83V30.226H1128.18V28.226ZM1103.83 29.1673C1103.64 25.8278 1102.39 23.1321 1100.05 21.194L1098.77 22.736C1100.63 24.2686 1101.67 26.4135 1101.84 29.2847L1103.83 29.1673ZM1100.06 21.2104C1097.75 19.1977 1094.81 18.225 1091.33 18.225V20.225C1094.42 20.225 1096.87 21.079 1098.75 22.7196L1100.06 21.2104ZM1091.33 18.225C1088.3 18.225 1085.76 19.0583 1083.81 20.8088L1085.14 22.2992C1086.66 20.9443 1088.68 20.225 1091.33 20.225V18.225ZM1083.83 20.7891C1081.82 22.4863 1080.87 24.9462 1080.87 27.993H1082.87C1082.87 25.3771 1083.66 23.5444 1085.12 22.3189L1083.83 20.7891ZM1080.87 27.993C1080.87 31.4898 1082.55 34.2189 1085.75 36.1139L1086.77 34.3941C1084.11 32.8184 1082.87 30.7069 1082.87 27.993H1080.87ZM1085.75 36.1139C1088.77 37.9075 1093.42 39.8071 1099.65 41.8224L1100.26 39.9196C1094.07 37.9163 1089.59 36.0712 1086.77 34.3941L1085.75 36.1139ZM1099.64 41.8183C1105.82 43.9111 1110.8 45.9036 1114.58 47.7934L1115.47 46.0046C1111.58 44.0584 1106.51 42.0323 1100.28 39.9237L1099.64 41.8183ZM1114.59 47.7976C1118.37 49.6445 1121.63 52.3291 1124.37 55.8686L1125.95 54.6434C1123.04 50.8762 1119.54 47.9894 1115.47 46.0004L1114.59 47.7976ZM1124.37 55.8686C1127.04 59.3073 1128.41 63.7794 1128.41 69.367H1130.41C1130.41 63.4466 1128.95 58.5113 1125.95 54.6434L1124.37 55.8686ZM1128.41 69.367C1128.41 74.6646 1127.05 79.4557 1124.32 83.7654L1126.01 84.8346C1128.95 80.1936 1130.41 75.0293 1130.41 69.367H1128.41ZM1124.31 83.7778C1121.68 88.0737 1117.81 91.5155 1112.66 94.0916L1113.56 95.8804C1119 93.1591 1123.17 89.4769 1126.02 84.8222L1124.31 83.7778ZM1112.66 94.0916C1107.53 96.6573 1101.43 97.959 1094.34 97.959V99.959C1101.68 99.959 1108.09 98.612 1113.56 95.8804L1112.66 94.0916ZM1206.44 1.826H1207.44V0.825996H1206.44V1.826ZM1206.44 20.595V21.595H1207.44V20.595H1206.44ZM1167.26 20.595V19.595H1166.26V20.595H1167.26ZM1167.26 40.871H1166.26V41.871H1167.26V40.871ZM1196.57 40.871H1197.57V39.871H1196.57V40.871ZM1196.57 59.092V60.092H1197.57V59.092H1196.57ZM1167.26 59.092V58.092H1166.26V59.092H1167.26ZM1167.26 98V99H1168.26V98H1167.26ZM1143.83 98H1142.83V99H1143.83V98ZM1143.83 1.826V0.825996H1142.83V1.826H1143.83ZM1205.44 1.826V20.595H1207.44V1.826H1205.44ZM1206.44 19.595H1167.26V21.595H1206.44V19.595ZM1166.26 20.595V40.871H1168.26V20.595H1166.26ZM1167.26 41.871H1196.57V39.871H1167.26V41.871ZM1195.57 40.871V59.092H1197.57V40.871H1195.57ZM1196.57 58.092H1167.26V60.092H1196.57V58.092ZM1166.26 59.092V98H1168.26V59.092H1166.26ZM1167.26 97H1143.83V99H1167.26V97ZM1144.83 98V1.826H1142.83V98H1144.83ZM1143.83 2.826H1206.44V0.825996H1143.83V2.826ZM1242.18 20.595V19.595H1241.18V20.595H1242.18ZM1242.18 40.049H1241.18V41.049H1242.18V40.049ZM1273.55 40.049H1274.55V39.049H1273.55V40.049ZM1273.55 58.133V59.133H1274.55V58.133H1273.55ZM1242.18 58.133V57.133H1241.18V58.133H1242.18ZM1242.18 79.231H1241.18V80.231H1242.18V79.231ZM1277.66 79.231H1278.66V78.231H1277.66V79.231ZM1277.66 98V99H1278.66V98H1277.66ZM1218.75 98H1217.75V99H1218.75V98ZM1218.75 1.826V0.825996H1217.75V1.826H1218.75ZM1277.66 1.826H1278.66V0.825996H1277.66V1.826ZM1277.66 20.595V21.595H1278.66V20.595H1277.66ZM1241.18 20.595V40.049H1243.18V20.595H1241.18ZM1242.18 41.049H1273.55V39.049H1242.18V41.049ZM1272.55 40.049V58.133H1274.55V40.049H1272.55ZM1273.55 57.133H1242.18V59.133H1273.55V57.133ZM1241.18 58.133V79.231H1243.18V58.133H1241.18ZM1242.18 80.231H1277.66V78.231H1242.18V80.231ZM1276.66 79.231V98H1278.66V79.231H1276.66ZM1277.66 97H1218.75V99H1277.66V97ZM1219.75 98V1.826H1217.75V98H1219.75ZM1218.75 2.826H1277.66V0.825996H1218.75V2.826ZM1276.66 1.826V20.595H1278.66V1.826H1276.66ZM1277.66 19.595H1242.18V21.595H1277.66V19.595ZM1341.92 98L1341.04 98.4826L1341.32 99H1341.92V98ZM1321.91 61.695L1322.79 61.2124L1322.5 60.695H1321.91V61.695ZM1316.3 61.695V60.695H1315.3V61.695H1316.3ZM1316.3 98V99H1317.3V98H1316.3ZM1292.87 98H1291.87V99H1292.87V98ZM1292.87 1.826V0.825996H1291.87V1.826H1292.87ZM1351.51 5.799L1351.06 6.69344L1351.06 6.69645L1351.51 5.799ZM1363.56 16.759L1362.69 17.2533L1362.7 17.2607L1363.56 16.759ZM1362.05 49.228L1361.25 48.6398L1361.24 48.6496L1362.05 49.228ZM1346.16 59.914L1345.88 58.9558L1344.66 59.3195L1345.3 60.4175L1346.16 59.914ZM1368.36 98V99H1370.1L1369.22 97.4965L1368.36 98ZM1316.3 45.118H1315.3V46.118H1316.3V45.118ZM1340.41 41.967L1339.72 41.245L1339.71 41.2524L1339.7 41.2599L1340.41 41.967ZM1340.41 24.431L1339.7 25.1381L1339.71 25.1456L1339.72 25.153L1340.41 24.431ZM1316.3 21.28V20.28H1315.3V21.28H1316.3ZM1342.79 97.5174L1322.79 61.2124L1321.04 62.1776L1341.04 98.4826L1342.79 97.5174ZM1321.91 60.695H1316.3V62.695H1321.91V60.695ZM1315.3 61.695V98H1317.3V61.695H1315.3ZM1316.3 97H1292.87V99H1316.3V97ZM1293.87 98V1.826H1291.87V98H1293.87ZM1292.87 2.826H1332.19V0.825996H1292.87V2.826ZM1332.19 2.826C1339.66 2.826 1345.93 4.13085 1351.06 6.69342L1351.95 4.90457C1346.48 2.16981 1339.88 0.825996 1332.19 0.825996V2.826ZM1351.06 6.69645C1356.3 9.26775 1360.15 12.7902 1362.69 17.2533L1364.43 16.2647C1361.67 11.4118 1357.49 7.62757 1351.95 4.90155L1351.06 6.69645ZM1362.7 17.2607C1365.25 21.6639 1366.53 26.6033 1366.53 32.103H1368.53C1368.53 26.2774 1367.17 20.9874 1364.43 16.2573L1362.7 17.2607ZM1366.53 32.103C1366.53 38.2916 1364.77 43.7927 1361.25 48.6398L1362.86 49.8162C1366.64 44.6166 1368.53 38.701 1368.53 32.103H1366.53ZM1361.24 48.6496C1357.83 53.4576 1352.74 56.9064 1345.88 58.9558L1346.45 60.8722C1353.65 58.7203 1359.16 55.0451 1362.87 49.8064L1361.24 48.6496ZM1345.3 60.4175L1367.49 98.5035L1369.22 97.4965L1347.03 59.4105L1345.3 60.4175ZM1368.36 97H1341.92V99H1368.36V97ZM1316.3 46.118H1330.82V44.118H1316.3V46.118ZM1330.82 46.118C1335.26 46.118 1338.76 45.0321 1341.12 42.6741L1339.7 41.2599C1337.86 43.1033 1334.96 44.118 1330.82 44.118V46.118ZM1341.1 42.689C1343.54 40.3528 1344.7 37.0945 1344.7 33.062H1342.7C1342.7 36.7015 1341.66 39.3798 1339.72 41.245L1341.1 42.689ZM1344.7 33.062C1344.7 29.1957 1343.53 26.0359 1341.1 23.709L1339.72 25.153C1341.67 27.0274 1342.7 29.6216 1342.7 33.062H1344.7ZM1341.12 23.7239C1338.76 21.366 1335.26 20.28 1330.82 20.28V22.28C1334.96 22.28 1337.86 23.2947 1339.7 25.1381L1341.12 23.7239ZM1330.82 20.28H1316.3V22.28H1330.82V20.28ZM1315.3 21.28V45.118H1317.3V21.28H1315.3ZM1442.11 81.012L1443.06 80.6912L1442.83 80.012H1442.11V81.012ZM1406.22 81.012V80.012H1405.5L1405.27 80.6912L1406.22 81.012ZM1400.46 98V99H1401.18L1401.41 98.3208L1400.46 98ZM1375.94 98L1375 97.6598L1374.51 99H1375.94V98ZM1410.74 1.826V0.825996H1410.03L1409.8 1.48576L1410.74 1.826ZM1437.86 1.826L1438.8 1.48576L1438.56 0.825996H1437.86V1.826ZM1472.66 98V99H1474.09L1473.6 97.6598L1472.66 98ZM1447.86 98L1446.92 98.3208L1447.15 99H1447.86V98ZM1436.08 62.928V63.928H1437.48L1437.03 62.6074L1436.08 62.928ZM1424.16 27.719L1425.11 27.3984L1424.16 24.5841L1423.21 27.4017L1424.16 27.719ZM1412.38 62.928L1411.43 62.6107L1410.99 63.928H1412.38V62.928ZM1442.11 80.012H1406.22V82.012H1442.11V80.012ZM1405.27 80.6912L1399.51 97.6792L1401.41 98.3208L1407.16 81.3328L1405.27 80.6912ZM1400.46 97H1375.94V99H1400.46V97ZM1376.88 98.3402L1411.68 2.16623L1409.8 1.48576L1375 97.6598L1376.88 98.3402ZM1410.74 2.826H1437.86V0.825996H1410.74V2.826ZM1436.92 2.16623L1471.72 98.3402L1473.6 97.6598L1438.8 1.48576L1436.92 2.16623ZM1472.66 97H1447.86V99H1472.66V97ZM1448.81 97.6792L1443.06 80.6912L1441.16 81.3328L1446.92 98.3208L1448.81 97.6792ZM1437.03 62.6074L1425.11 27.3984L1423.22 28.0396L1435.13 63.2486L1437.03 62.6074ZM1423.21 27.4017L1411.43 62.6107L1413.33 63.2453L1425.11 28.0363L1423.21 27.4017ZM1412.38 63.928H1436.08V61.928H1412.38V63.928Z" fill="#454D11" mask="url(#path-1-outside-1_55_37)"/>
</svg>
