<svg width="1440" height="99" viewBox="0 0 1440 99" fill="none" xmlns="http://www.w3.org/2000/svg">
<mask id="path-1-outside-1_587_235" maskUnits="userSpaceOnUse" x="-17" y="-1" width="1495" height="101" fill="black">
<rect fill="white" x="-17" y="-1" width="1495" height="101"/>
<path d="M42.9617 48.68C48.533 49.8673 53.0083 52.653 56.3877 57.037C59.767 61.3297 61.4567 66.2617 61.4567 71.833C61.4567 79.8703 58.6253 86.2637 52.9627 91.013C47.3913 95.671 39.5823 98 29.5357 98H-15.2633V1.826H28.0287C37.8013 1.826 45.4277 4.06366 50.9077 8.53899C56.479 13.0143 59.2647 19.088 59.2647 26.76C59.2647 32.4227 57.7577 37.1263 54.7437 40.871C51.821 44.6157 47.8937 47.2187 42.9617 48.68ZM8.16368 40.734H23.5077C27.3437 40.734 30.2663 39.912 32.2757 38.268C34.3763 36.5327 35.4267 34.021 35.4267 30.733C35.4267 27.445 34.3763 24.9333 32.2757 23.198C30.2663 21.4627 27.3437 20.595 23.5077 20.595H8.16368V40.734ZM25.4257 79.094C29.353 79.094 32.367 78.2263 34.4677 76.491C36.6597 74.6643 37.7557 72.0613 37.7557 68.682C37.7557 65.3027 36.614 62.654 34.3307 60.736C32.1387 58.818 29.079 57.859 25.1517 57.859H8.16368V79.094H25.4257ZM98.4713 1.826V98H75.0443V1.826H98.4713ZM160.933 98.959C151.891 98.959 143.579 96.8583 135.999 92.657C128.509 88.4557 122.527 82.6103 118.052 75.121C113.668 67.5403 111.476 59.0463 111.476 49.639C111.476 40.2317 113.668 31.7833 118.052 24.294C122.527 16.8047 128.509 10.9593 135.999 6.758C143.579 2.55667 151.891 0.455998 160.933 0.455998C169.975 0.455998 178.24 2.55667 185.73 6.758C193.31 10.9593 199.247 16.8047 203.54 24.294C207.924 31.7833 210.116 40.2317 210.116 49.639C210.116 59.0463 207.924 67.5403 203.54 75.121C199.156 82.6103 193.219 88.4557 185.73 92.657C178.24 96.8583 169.975 98.959 160.933 98.959ZM160.933 77.587C168.605 77.587 174.724 75.0297 179.291 69.915C183.949 64.8003 186.278 58.0417 186.278 49.639C186.278 41.145 183.949 34.3863 179.291 29.363C174.724 24.2483 168.605 21.691 160.933 21.691C153.169 21.691 146.959 24.2027 142.301 29.226C137.734 34.2493 135.451 41.0537 135.451 49.639C135.451 58.133 137.734 64.9373 142.301 70.052C146.959 75.0753 153.169 77.587 160.933 77.587ZM246.576 20.595V40.049H277.949V58.133H246.576V79.231H282.059V98H223.149V1.826H282.059V20.595H246.576ZM332.066 98.959C325.033 98.959 318.731 97.8173 313.16 95.534C307.589 93.2507 303.113 89.8713 299.734 85.396C296.446 80.9207 294.711 75.532 294.528 69.23H319.462C319.827 72.792 321.06 75.532 323.161 77.45C325.262 79.2767 328.002 80.19 331.381 80.19C334.852 80.19 337.592 79.4137 339.601 77.861C341.61 76.217 342.615 73.9793 342.615 71.148C342.615 68.7733 341.793 66.8097 340.149 65.257C338.596 63.7043 336.633 62.4257 334.258 61.421C331.975 60.4163 328.687 59.2747 324.394 57.996C318.183 56.078 313.114 54.16 309.187 52.242C305.26 50.324 301.88 47.4927 299.049 43.748C296.218 40.0033 294.802 35.117 294.802 29.089C294.802 20.1383 298.044 13.1513 304.529 8.128C311.014 3.01333 319.462 0.455998 329.874 0.455998C340.469 0.455998 349.008 3.01333 355.493 8.128C361.978 13.1513 365.448 20.184 365.905 29.226H340.56C340.377 26.1207 339.236 23.7003 337.135 21.965C335.034 20.1383 332.34 19.225 329.052 19.225C326.221 19.225 323.937 20.0013 322.202 21.554C320.467 23.0153 319.599 25.1617 319.599 27.993C319.599 31.0983 321.06 33.5187 323.983 35.254C326.906 36.9893 331.472 38.8617 337.683 40.871C343.894 42.9717 348.917 44.981 352.753 46.899C356.68 48.817 360.06 51.6027 362.891 55.256C365.722 58.9093 367.138 63.613 367.138 69.367C367.138 74.847 365.722 79.8247 362.891 84.3C360.151 88.7753 356.132 92.3373 350.835 94.986C345.538 97.6347 339.281 98.959 332.066 98.959ZM444.164 1.826V20.595H404.982V40.871H434.3V59.092H404.982V98H381.555V1.826H444.164ZM479.904 20.595V40.049H511.277V58.133H479.904V79.231H515.387V98H456.477V1.826H515.387V20.595H479.904ZM579.642 98L559.64 61.695H554.023V98H530.596V1.826H569.915C577.496 1.826 583.935 3.15033 589.232 5.79899C594.621 8.44766 598.639 12.101 601.288 16.759C603.937 21.3257 605.261 26.4403 605.261 32.103C605.261 38.4963 603.434 44.2047 599.781 49.228C596.219 54.2513 590.922 57.8133 583.889 59.914L606.083 98H579.642ZM554.023 45.118H568.545C572.838 45.118 576.034 44.0677 578.135 41.967C580.327 39.8663 581.423 36.898 581.423 33.062C581.423 29.4087 580.327 26.5317 578.135 24.431C576.034 22.3303 572.838 21.28 568.545 21.28H554.023V45.118ZM679.836 81.012H643.942L638.188 98H613.665L648.463 1.826H675.589L710.387 98H685.59L679.836 81.012ZM673.808 62.928L661.889 27.719L650.107 62.928H673.808ZM808.235 48.68C813.806 49.8673 818.282 52.653 821.661 57.037C825.04 61.3297 826.73 66.2617 826.73 71.833C826.73 79.8703 823.899 86.2637 818.236 91.013C812.665 95.671 804.856 98 794.809 98H750.01V1.826H793.302C803.075 1.826 810.701 4.06366 816.181 8.53899C821.752 13.0143 824.538 19.088 824.538 26.76C824.538 32.4227 823.031 37.1263 820.017 40.871C817.094 44.6157 813.167 47.2187 808.235 48.68ZM773.437 40.734H788.781C792.617 40.734 795.54 39.912 797.549 38.268C799.65 36.5327 800.7 34.021 800.7 30.733C800.7 27.445 799.65 24.9333 797.549 23.198C795.54 21.4627 792.617 20.595 788.781 20.595H773.437V40.734ZM790.699 79.094C794.626 79.094 797.64 78.2263 799.741 76.491C801.933 74.6643 803.029 72.0613 803.029 68.682C803.029 65.3027 801.887 62.654 799.604 60.736C797.412 58.818 794.352 57.859 790.425 57.859H773.437V79.094H790.699ZM863.745 1.826V98H840.318V1.826H863.745ZM926.206 98.959C917.164 98.959 908.853 96.8583 901.272 92.657C893.783 88.4557 887.8 82.6103 883.325 75.121C878.941 67.5403 876.749 59.0463 876.749 49.639C876.749 40.2317 878.941 31.7833 883.325 24.294C887.8 16.8047 893.783 10.9593 901.272 6.758C908.853 2.55667 917.164 0.455998 926.206 0.455998C935.248 0.455998 943.514 2.55667 951.003 6.758C958.584 10.9593 964.52 16.8047 968.813 24.294C973.197 31.7833 975.389 40.2317 975.389 49.639C975.389 59.0463 973.197 67.5403 968.813 75.121C964.429 82.6103 958.492 88.4557 951.003 92.657C943.514 96.8583 935.248 98.959 926.206 98.959ZM926.206 77.587C933.878 77.587 939.997 75.0297 944.564 69.915C949.222 64.8003 951.551 58.0417 951.551 49.639C951.551 41.145 949.222 34.3863 944.564 29.363C939.997 24.2483 933.878 21.691 926.206 21.691C918.443 21.691 912.232 24.2027 907.574 29.226C903.007 34.2493 900.724 41.0537 900.724 49.639C900.724 58.133 903.007 64.9373 907.574 70.052C912.232 75.0753 918.443 77.587 926.206 77.587ZM1011.85 20.595V40.049H1043.22V58.133H1011.85V79.231H1047.33V98H988.422V1.826H1047.33V20.595H1011.85ZM1097.34 98.959C1090.31 98.959 1084 97.8173 1078.43 95.534C1072.86 93.2507 1068.39 89.8713 1065.01 85.396C1061.72 80.9207 1059.98 75.532 1059.8 69.23H1084.74C1085.1 72.792 1086.33 75.532 1088.43 77.45C1090.54 79.2767 1093.28 80.19 1096.65 80.19C1100.13 80.19 1102.87 79.4137 1104.87 77.861C1106.88 76.217 1107.89 73.9793 1107.89 71.148C1107.89 68.7733 1107.07 66.8097 1105.42 65.257C1103.87 63.7043 1101.91 62.4257 1099.53 61.421C1097.25 60.4163 1093.96 59.2747 1089.67 57.996C1083.46 56.078 1078.39 54.16 1074.46 52.242C1070.53 50.324 1067.15 47.4927 1064.32 43.748C1061.49 40.0033 1060.08 35.117 1060.08 29.089C1060.08 20.1383 1063.32 13.1513 1069.8 8.128C1076.29 3.01333 1084.74 0.455998 1095.15 0.455998C1105.74 0.455998 1114.28 3.01333 1120.77 8.128C1127.25 13.1513 1130.72 20.184 1131.18 29.226H1105.83C1105.65 26.1207 1104.51 23.7003 1102.41 21.965C1100.31 20.1383 1097.61 19.225 1094.33 19.225C1091.49 19.225 1089.21 20.0013 1087.48 21.554C1085.74 23.0153 1084.87 25.1617 1084.87 27.993C1084.87 31.0983 1086.33 33.5187 1089.26 35.254C1092.18 36.9893 1096.75 38.8617 1102.96 40.871C1109.17 42.9717 1114.19 44.981 1118.03 46.899C1121.95 48.817 1125.33 51.6027 1128.16 55.256C1131 58.9093 1132.41 63.613 1132.41 69.367C1132.41 74.847 1131 79.8247 1128.16 84.3C1125.42 88.7753 1121.41 92.3373 1116.11 94.986C1110.81 97.6347 1104.55 98.959 1097.34 98.959ZM1209.44 1.826V20.595H1170.26V40.871H1199.57V59.092H1170.26V98H1146.83V1.826H1209.44ZM1245.18 20.595V40.049H1276.55V58.133H1245.18V79.231H1280.66V98H1221.75V1.826H1280.66V20.595H1245.18ZM1344.92 98L1324.91 61.695H1319.3V98H1295.87V1.826H1335.19C1342.77 1.826 1349.21 3.15033 1354.51 5.79899C1359.89 8.44766 1363.91 12.101 1366.56 16.759C1369.21 21.3257 1370.53 26.4403 1370.53 32.103C1370.53 38.4963 1368.71 44.2047 1365.05 49.228C1361.49 54.2513 1356.2 57.8133 1349.16 59.914L1371.36 98H1344.92ZM1319.3 45.118H1333.82C1338.11 45.118 1341.31 44.0677 1343.41 41.967C1345.6 39.8663 1346.7 36.898 1346.7 33.062C1346.7 29.4087 1345.6 26.5317 1343.41 24.431C1341.31 22.3303 1338.11 21.28 1333.82 21.28H1319.3V45.118ZM1445.11 81.012H1409.22L1403.46 98H1378.94L1413.74 1.826H1440.86L1475.66 98H1450.86L1445.11 81.012ZM1439.08 62.928L1427.16 27.719L1415.38 62.928H1439.08Z"/>
</mask>
<path d="M42.9617 48.68L42.6776 47.7212L42.7532 49.658L42.9617 48.68ZM56.3877 57.037L55.5956 57.6475L55.6019 57.6556L56.3877 57.037ZM52.9627 91.013L53.6041 91.7802L53.6053 91.7792L52.9627 91.013ZM-15.2633 98H-16.2633V99H-15.2633V98ZM-15.2633 1.826V0.825996H-16.2633V1.826H-15.2633ZM50.9077 8.53899L50.2751 9.31355L50.2814 9.31861L50.9077 8.53899ZM54.7437 40.871L53.9647 40.244L53.96 40.2498L53.9554 40.2557L54.7437 40.871ZM8.16368 40.734H7.16368V41.734H8.16368V40.734ZM32.2757 38.268L32.9089 39.042L32.9126 39.039L32.2757 38.268ZM32.2757 23.198L31.6221 23.9548L31.6303 23.962L31.6388 23.969L32.2757 23.198ZM8.16368 20.595V19.595H7.16368V20.595H8.16368ZM34.4677 76.491L35.1046 77.262L35.1079 77.2592L34.4677 76.491ZM34.3307 60.736L33.6722 61.4886L33.6798 61.4952L33.6875 61.5017L34.3307 60.736ZM8.16368 57.859V56.859H7.16368V57.859H8.16368ZM8.16368 79.094H7.16368V80.094H8.16368V79.094ZM42.7532 49.658C48.1 50.7975 52.3657 53.4572 55.5957 57.6475L57.1797 56.4265C53.651 51.8488 48.966 48.9372 43.1701 47.702L42.7532 49.658ZM55.6019 57.6556C58.8395 61.7682 60.4567 66.4812 60.4567 71.833H62.4567C62.4567 66.0421 60.6945 60.8912 57.1734 56.4184L55.6019 57.6556ZM60.4567 71.833C60.4567 79.604 57.7346 85.7056 52.3201 90.2468L53.6053 91.7792C59.5161 86.8218 62.4567 80.1366 62.4567 71.833H60.4567ZM52.3213 90.2458C46.9882 94.7046 39.4372 97 29.5357 97V99C39.7275 99 47.7945 96.6374 53.6041 91.7802L52.3213 90.2458ZM29.5357 97H-15.2633V99H29.5357V97ZM-14.2633 98V1.826H-16.2633V98H-14.2633ZM-15.2633 2.826H28.0287V0.825996H-15.2633V2.826ZM28.0287 2.826C37.6579 2.826 45.0312 5.03095 50.2751 9.31353L51.5402 7.76446C45.8242 3.09638 37.9448 0.825996 28.0287 0.825996V2.826ZM50.2814 9.31861C55.5972 13.5887 58.2647 19.3655 58.2647 26.76H60.2647C60.2647 18.8105 57.3608 12.44 51.5339 7.75937L50.2814 9.31861ZM58.2647 26.76C58.2647 32.2369 56.8112 36.7074 53.9647 40.244L55.5227 41.498C58.7042 37.5452 60.2647 32.6084 60.2647 26.76H58.2647ZM53.9554 40.2557C51.1716 43.8224 47.4273 46.3139 42.6776 47.7212L43.2458 49.6388C48.3601 48.1234 52.4704 45.409 55.532 41.4863L53.9554 40.2557ZM8.16368 41.734H23.5077V39.734H8.16368V41.734ZM23.5077 41.734C27.468 41.734 30.6529 40.8877 32.9089 39.042L31.6424 37.494C29.8797 38.9362 27.2194 39.734 23.5077 39.734V41.734ZM32.9126 39.039C35.2909 37.0742 36.4267 34.2513 36.4267 30.733H34.4267C34.4267 33.7907 33.4618 35.9911 31.6388 37.497L32.9126 39.039ZM36.4267 30.733C36.4267 27.2147 35.2909 24.3918 32.9126 22.427L31.6388 23.969C33.4618 25.4749 34.4267 27.6753 34.4267 30.733H36.4267ZM32.9293 22.4412C30.6722 20.4919 27.4789 19.595 23.5077 19.595V21.595C27.2085 21.595 29.8605 22.4334 31.6221 23.9548L32.9293 22.4412ZM23.5077 19.595H8.16368V21.595H23.5077V19.595ZM7.16368 20.595V40.734H9.16368V20.595H7.16368ZM25.4257 80.094C29.4852 80.094 32.7602 79.1986 35.1046 77.262L33.8308 75.72C31.9738 77.2541 29.2208 78.094 25.4257 78.094V80.094ZM35.1079 77.2592C37.5706 75.2069 38.7557 72.2975 38.7557 68.682H36.7557C36.7557 71.8252 35.7487 74.1218 33.8275 75.7228L35.1079 77.2592ZM38.7557 68.682C38.7557 65.0514 37.5151 62.105 34.9739 59.9703L33.6875 61.5017C35.7129 63.203 36.7557 65.5539 36.7557 68.682H38.7557ZM34.9892 59.9834C32.5597 57.8576 29.2361 56.859 25.1517 56.859V58.859C28.9219 58.859 31.7177 59.7784 33.6722 61.4886L34.9892 59.9834ZM25.1517 56.859H8.16368V58.859H25.1517V56.859ZM7.16368 57.859V79.094H9.16368V57.859H7.16368ZM8.16368 80.094H25.4257V78.094H8.16368V80.094ZM98.4713 1.826H99.4713V0.825996H98.4713V1.826ZM98.4713 98V99H99.4713V98H98.4713ZM75.0443 98H74.0443V99H75.0443V98ZM75.0443 1.826V0.825996H74.0443V1.826H75.0443ZM97.4713 1.826V98H99.4713V1.826H97.4713ZM98.4713 97H75.0443V99H98.4713V97ZM76.0443 98V1.826H74.0443V98H76.0443ZM75.0443 2.826H98.4713V0.825996H75.0443V2.826ZM135.999 92.657L135.509 93.5292L135.514 93.5316L135.999 92.657ZM118.052 75.121L117.186 75.6216L117.189 75.6278L117.193 75.634L118.052 75.121ZM118.052 24.294L117.193 23.781L117.189 23.7888L118.052 24.294ZM135.999 6.758L135.514 5.88334L135.509 5.88586L135.999 6.758ZM185.73 6.758L185.24 7.63015L185.245 7.63265L185.73 6.758ZM203.54 24.294L202.672 24.7913L202.677 24.7992L203.54 24.294ZM203.54 75.121L204.403 75.6262L204.405 75.6216L203.54 75.121ZM185.73 92.657L186.219 93.5291L185.73 92.657ZM179.291 69.915L178.551 69.2416L178.545 69.249L179.291 69.915ZM179.291 29.363L178.545 30.029L178.551 30.036L178.557 30.0429L179.291 29.363ZM142.301 29.226L141.567 28.546L141.561 28.5533L142.301 29.226ZM142.301 70.052L141.555 70.718L141.561 70.725L141.567 70.7319L142.301 70.052ZM160.933 97.959C152.053 97.959 143.909 95.8979 136.483 91.7823L135.514 93.5316C143.249 97.8188 151.729 99.959 160.933 99.959V97.959ZM136.488 91.7849C129.153 87.6704 123.297 81.95 118.91 74.608L117.193 75.634C121.757 83.2707 127.865 89.241 135.509 93.5291L136.488 91.7849ZM118.917 74.6204C114.628 67.2031 112.476 58.884 112.476 49.639H110.476C110.476 59.2086 112.707 67.8775 117.186 75.6216L118.917 74.6204ZM112.476 49.639C112.476 40.3938 114.628 32.1225 118.915 24.7992L117.189 23.7888C112.707 31.4442 110.476 40.0695 110.476 49.639H112.476ZM118.91 24.8069C123.297 17.465 129.153 11.7446 136.488 7.63014L135.509 5.88586C127.865 10.1741 121.757 16.1443 117.193 23.781L118.91 24.8069ZM136.483 7.63265C143.909 3.51715 152.053 1.456 160.933 1.456V-0.544003C151.729 -0.544003 143.249 1.59618 135.514 5.88335L136.483 7.63265ZM160.933 1.456C169.813 1.456 177.908 3.51712 185.24 7.63014L186.219 5.88586C178.572 1.59621 170.137 -0.544003 160.933 -0.544003V1.456ZM185.245 7.63265C192.667 11.7459 198.471 17.461 202.672 24.7913L204.407 23.7967C200.023 16.1483 193.954 10.1728 186.214 5.88335L185.245 7.63265ZM202.677 24.7992C206.963 32.1225 209.116 40.3938 209.116 49.639H211.116C211.116 40.0695 208.884 31.4442 204.403 23.7888L202.677 24.7992ZM209.116 49.639C209.116 58.884 206.963 67.2031 202.674 74.6204L204.405 75.6216C208.884 67.8775 211.116 59.2086 211.116 49.639H209.116ZM202.677 74.6158C198.381 81.9535 192.573 87.6714 185.24 91.7849L186.219 93.5291C193.865 89.2399 199.93 83.2672 204.403 75.6262L202.677 74.6158ZM185.24 91.7849C177.908 95.8979 169.813 97.959 160.933 97.959V99.959C170.137 99.959 178.572 97.8188 186.219 93.5291L185.24 91.7849ZM160.933 78.587C168.852 78.587 175.256 75.9348 180.037 70.581L178.545 69.249C174.191 74.1246 168.357 76.587 160.933 76.587V78.587ZM180.03 70.5883C184.89 65.2518 187.278 58.2345 187.278 49.639H185.278C185.278 57.8488 183.007 64.3489 178.551 69.2417L180.03 70.5883ZM187.278 49.639C187.278 40.9562 184.892 33.933 180.024 28.6831L178.557 30.0429C183.005 34.8396 185.278 41.3338 185.278 49.639H187.278ZM180.037 28.697C175.256 23.3432 168.852 20.691 160.933 20.691V22.691C168.357 22.691 174.191 25.1534 178.545 30.029L180.037 28.697ZM160.933 20.691C152.932 20.691 146.441 23.2905 141.567 28.5461L143.034 29.9059C147.477 25.1148 153.407 22.691 160.933 22.691V20.691ZM141.561 28.5533C136.786 33.8057 134.451 40.8732 134.451 49.639H136.451C136.451 41.2341 138.682 34.693 143.041 29.8987L141.561 28.5533ZM134.451 49.639C134.451 58.3176 136.788 65.3791 141.555 70.718L143.047 69.386C138.68 64.4955 136.451 57.9484 136.451 49.639H134.451ZM141.567 70.7319C146.441 75.9875 152.932 78.587 160.933 78.587V76.587C153.407 76.587 147.477 74.1632 143.034 69.3721L141.567 70.7319ZM246.576 20.595V19.595H245.576V20.595H246.576ZM246.576 40.049H245.576V41.049H246.576V40.049ZM277.949 40.049H278.949V39.049H277.949V40.049ZM277.949 58.133V59.133H278.949V58.133H277.949ZM246.576 58.133V57.133H245.576V58.133H246.576ZM246.576 79.231H245.576V80.231H246.576V79.231ZM282.059 79.231H283.059V78.231H282.059V79.231ZM282.059 98V99H283.059V98H282.059ZM223.149 98H222.149V99H223.149V98ZM223.149 1.826V0.825996H222.149V1.826H223.149ZM282.059 1.826H283.059V0.825996H282.059V1.826ZM282.059 20.595V21.595H283.059V20.595H282.059ZM245.576 20.595V40.049H247.576V20.595H245.576ZM246.576 41.049H277.949V39.049H246.576V41.049ZM276.949 40.049V58.133H278.949V40.049H276.949ZM277.949 57.133H246.576V59.133H277.949V57.133ZM245.576 58.133V79.231H247.576V58.133H245.576ZM246.576 80.231H282.059V78.231H246.576V80.231ZM281.059 79.231V98H283.059V79.231H281.059ZM282.059 97H223.149V99H282.059V97ZM224.149 98V1.826H222.149V98H224.149ZM223.149 2.826H282.059V0.825996H223.149V2.826ZM281.059 1.826V20.595H283.059V1.826H281.059ZM282.059 19.595H246.576V21.595H282.059V19.595ZM313.16 95.534L312.781 96.4593L313.16 95.534ZM299.734 85.396L298.928 85.9881L298.936 85.9986L299.734 85.396ZM294.528 69.23V68.23H293.499L293.528 69.259L294.528 69.23ZM319.462 69.23L320.457 69.128L320.365 68.23H319.462V69.23ZM323.161 77.45L322.487 78.1885L322.496 78.1967L322.505 78.2046L323.161 77.45ZM339.601 77.861L340.212 78.6523L340.223 78.6438L340.234 78.635L339.601 77.861ZM340.149 65.257L339.442 65.9641L339.452 65.9742L339.462 65.984L340.149 65.257ZM334.258 61.421L333.855 62.3363L333.862 62.3392L333.868 62.342L334.258 61.421ZM324.394 57.996L324.099 58.9515L324.108 58.9544L324.394 57.996ZM309.187 52.242L308.748 53.1406L309.187 52.242ZM299.049 43.748L299.847 43.1449L299.049 43.748ZM304.529 8.128L305.141 8.91858L305.148 8.91316L304.529 8.128ZM355.493 8.128L354.874 8.91319L354.881 8.91855L355.493 8.128ZM365.905 29.226V30.226H366.957L366.904 29.1756L365.905 29.226ZM340.56 29.226L339.562 29.2847L339.617 30.226H340.56V29.226ZM337.135 21.965L336.479 22.7196L336.488 22.7279L336.498 22.736L337.135 21.965ZM322.202 21.554L322.846 22.3189L322.858 22.3092L322.869 22.2992L322.202 21.554ZM323.983 35.254L324.493 34.3941L323.983 35.254ZM337.683 40.871L338.003 39.9236L337.991 39.9196L337.683 40.871ZM352.753 46.899L352.306 47.7935L352.314 47.7976L352.753 46.899ZM362.891 55.256L362.101 55.8686L362.891 55.256ZM362.891 84.3L362.046 83.7654L362.042 83.7716L362.038 83.7778L362.891 84.3ZM350.835 94.986L350.388 94.0916L350.835 94.986ZM332.066 97.959C325.142 97.959 318.972 96.8351 313.539 94.6087L312.781 96.4593C318.491 98.7995 324.925 99.959 332.066 99.959V97.959ZM313.539 94.6087C308.121 92.3882 303.795 89.115 300.532 84.7934L298.936 85.9986C302.431 90.6277 307.056 94.1131 312.781 96.4593L313.539 94.6087ZM300.54 84.8039C297.388 80.5138 295.705 75.3285 295.527 69.201L293.528 69.259C293.716 75.7355 295.504 81.3275 298.928 85.9881L300.54 84.8039ZM294.528 70.23H319.462V68.23H294.528V70.23ZM318.467 69.332C318.851 73.0728 320.161 76.0653 322.487 78.1885L323.835 76.7115C321.959 74.9987 320.804 72.5112 320.457 69.128L318.467 69.332ZM322.505 78.2046C324.824 80.2216 327.814 81.19 331.381 81.19V79.19C328.189 79.19 325.699 78.3317 323.817 76.6954L322.505 78.2046ZM331.381 81.19C334.993 81.19 337.974 80.3822 340.212 78.6523L338.989 77.0697C337.21 78.4451 334.71 79.19 331.381 79.19V81.19ZM340.234 78.635C342.499 76.7823 343.615 74.2483 343.615 71.148H341.615C341.615 73.7103 340.722 75.6517 338.968 77.087L340.234 78.635ZM343.615 71.148C343.615 68.5137 342.691 66.2819 340.836 64.53L339.462 65.984C340.895 67.3374 341.615 69.033 341.615 71.148H343.615ZM340.856 64.5499C339.198 62.8918 337.121 61.5463 334.648 60.5L333.868 62.342C336.145 63.3051 337.995 64.5169 339.442 65.9641L340.856 64.5499ZM334.661 60.5057C332.32 59.476 328.986 58.3204 324.679 57.0376L324.108 58.9544C328.387 60.2289 331.629 61.3567 333.855 62.3363L334.661 60.5057ZM324.689 57.0405C318.506 55.1312 313.49 53.2307 309.626 51.3434L308.748 53.1406C312.738 55.0893 317.86 57.0248 324.099 58.9515L324.689 57.0405ZM309.626 51.3434C305.85 49.4994 302.59 46.7738 299.847 43.1449L298.251 44.3511C301.17 48.2116 304.669 51.1486 308.748 53.1406L309.626 51.3434ZM299.847 43.1449C297.18 39.6177 295.802 34.9616 295.802 29.089H293.802C293.802 35.2724 295.255 40.3889 298.251 44.3511L299.847 43.1449ZM295.802 29.089C295.802 20.4152 298.926 13.7335 305.141 8.91855L303.917 7.33745C297.163 12.5692 293.802 19.8615 293.802 29.089H295.802ZM305.148 8.91316C311.415 3.97057 319.627 1.456 329.874 1.456V-0.544003C319.297 -0.544003 310.612 2.05609 303.91 7.34283L305.148 8.91316ZM329.874 1.456C340.308 1.456 348.61 3.97285 354.874 8.91316L356.112 7.34283C349.406 2.05381 340.629 -0.544003 329.874 -0.544003V1.456ZM354.881 8.91855C361.109 13.7435 364.463 20.4917 364.906 29.2764L366.904 29.1756C366.434 19.8763 362.846 12.5592 356.105 7.33745L354.881 8.91855ZM365.905 28.226H340.56V30.226H365.905V28.226ZM341.558 29.1673C341.362 25.8278 340.118 23.1321 337.772 21.194L336.498 22.736C338.353 24.2686 339.393 26.4135 339.562 29.2847L341.558 29.1673ZM337.791 21.2104C335.477 19.1977 332.535 18.225 329.052 18.225V20.225C332.145 20.225 334.592 21.079 336.479 22.7196L337.791 21.2104ZM329.052 18.225C326.03 18.225 323.491 19.0583 321.535 20.8088L322.869 22.2992C324.383 20.9443 326.411 20.225 329.052 20.225V18.225ZM321.558 20.7891C319.542 22.4863 318.599 24.9462 318.599 27.993H320.599C320.599 25.3771 321.391 23.5444 322.846 22.3189L321.558 20.7891ZM318.599 27.993C318.599 31.4898 320.281 34.2189 323.472 36.1139L324.493 34.3941C321.84 32.8184 320.599 30.7069 320.599 27.993H318.599ZM323.472 36.1139C326.493 37.9075 331.146 39.8071 337.375 41.8224L337.991 39.9196C331.799 37.9163 327.318 36.0712 324.493 34.3941L323.472 36.1139ZM337.363 41.8183C343.55 43.9111 348.526 45.9036 352.306 47.7934L353.2 46.0046C349.308 44.0584 344.237 42.0323 338.003 39.9237L337.363 41.8183ZM352.314 47.7976C356.096 49.6445 359.357 52.3291 362.101 55.8686L363.681 54.6434C360.762 50.8762 357.265 47.9894 353.192 46.0004L352.314 47.7976ZM362.101 55.8686C364.766 59.3073 366.138 63.7794 366.138 69.367H368.138C368.138 63.4466 366.679 58.5113 363.681 54.6434L362.101 55.8686ZM366.138 69.367C366.138 74.6646 364.772 79.4557 362.046 83.7654L363.736 84.8346C366.672 80.1936 368.138 75.0293 368.138 69.367H366.138ZM362.038 83.7778C359.408 88.0737 355.54 91.5155 350.388 94.0916L351.282 95.8804C356.725 93.1591 360.894 89.4769 363.744 84.8222L362.038 83.7778ZM350.388 94.0916C345.256 96.6573 339.159 97.959 332.066 97.959V99.959C339.403 99.959 345.819 98.612 351.282 95.8804L350.388 94.0916ZM444.164 1.826H445.164V0.825996H444.164V1.826ZM444.164 20.595V21.595H445.164V20.595H444.164ZM404.982 20.595V19.595H403.982V20.595H404.982ZM404.982 40.871H403.982V41.871H404.982V40.871ZM434.3 40.871H435.3V39.871H434.3V40.871ZM434.3 59.092V60.092H435.3V59.092H434.3ZM404.982 59.092V58.092H403.982V59.092H404.982ZM404.982 98V99H405.982V98H404.982ZM381.555 98H380.555V99H381.555V98ZM381.555 1.826V0.825996H380.555V1.826H381.555ZM443.164 1.826V20.595H445.164V1.826H443.164ZM444.164 19.595H404.982V21.595H444.164V19.595ZM403.982 20.595V40.871H405.982V20.595H403.982ZM404.982 41.871H434.3V39.871H404.982V41.871ZM433.3 40.871V59.092H435.3V40.871H433.3ZM434.3 58.092H404.982V60.092H434.3V58.092ZM403.982 59.092V98H405.982V59.092H403.982ZM404.982 97H381.555V99H404.982V97ZM382.555 98V1.826H380.555V98H382.555ZM381.555 2.826H444.164V0.825996H381.555V2.826ZM479.904 20.595V19.595H478.904V20.595H479.904ZM479.904 40.049H478.904V41.049H479.904V40.049ZM511.277 40.049H512.277V39.049H511.277V40.049ZM511.277 58.133V59.133H512.277V58.133H511.277ZM479.904 58.133V57.133H478.904V58.133H479.904ZM479.904 79.231H478.904V80.231H479.904V79.231ZM515.387 79.231H516.387V78.231H515.387V79.231ZM515.387 98V99H516.387V98H515.387ZM456.477 98H455.477V99H456.477V98ZM456.477 1.826V0.825996H455.477V1.826H456.477ZM515.387 1.826H516.387V0.825996H515.387V1.826ZM515.387 20.595V21.595H516.387V20.595H515.387ZM478.904 20.595V40.049H480.904V20.595H478.904ZM479.904 41.049H511.277V39.049H479.904V41.049ZM510.277 40.049V58.133H512.277V40.049H510.277ZM511.277 57.133H479.904V59.133H511.277V57.133ZM478.904 58.133V79.231H480.904V58.133H478.904ZM479.904 80.231H515.387V78.231H479.904V80.231ZM514.387 79.231V98H516.387V79.231H514.387ZM515.387 97H456.477V99H515.387V97ZM457.477 98V1.826H455.477V98H457.477ZM456.477 2.826H515.387V0.825996H456.477V2.826ZM514.387 1.826V20.595H516.387V1.826H514.387ZM515.387 19.595H479.904V21.595H515.387V19.595ZM579.642 98L578.766 98.4826L579.051 99H579.642V98ZM559.64 61.695L560.516 61.2124L560.231 60.695H559.64V61.695ZM554.023 61.695V60.695H553.023V61.695H554.023ZM554.023 98V99H555.023V98H554.023ZM530.596 98H529.596V99H530.596V98ZM530.596 1.826V0.825996H529.596V1.826H530.596ZM589.232 5.799L588.785 6.69344L588.791 6.69645L589.232 5.799ZM601.288 16.759L600.419 17.2533L600.423 17.2607L601.288 16.759ZM599.781 49.228L598.972 48.6398L598.965 48.6496L599.781 49.228ZM583.889 59.914L583.603 58.9558L582.385 59.3195L583.025 60.4175L583.889 59.914ZM606.083 98V99H607.823L606.947 97.4965L606.083 98ZM554.023 45.118H553.023V46.118H554.023V45.118ZM578.135 41.967L577.443 41.245L577.435 41.2524L577.428 41.2599L578.135 41.967ZM578.135 24.431L577.428 25.1381L577.435 25.1456L577.443 25.153L578.135 24.431ZM554.023 21.28V20.28H553.023V21.28H554.023ZM580.518 97.5174L560.516 61.2124L558.764 62.1776L578.766 98.4826L580.518 97.5174ZM559.64 60.695H554.023V62.695H559.64V60.695ZM553.023 61.695V98H555.023V61.695H553.023ZM554.023 97H530.596V99H554.023V97ZM531.596 98V1.826H529.596V98H531.596ZM530.596 2.826H569.915V0.825996H530.596V2.826ZM569.915 2.826C577.383 2.826 583.66 4.13085 588.785 6.69342L589.679 4.90457C584.21 2.16981 577.609 0.825996 569.915 0.825996V2.826ZM588.791 6.69645C594.022 9.26775 597.881 12.7902 600.419 17.2533L602.157 16.2647C599.398 11.4118 595.219 7.62757 589.673 4.90155L588.791 6.69645ZM600.423 17.2607C602.977 21.6639 604.261 26.6033 604.261 32.103H606.261C606.261 26.2774 604.897 20.9874 602.153 16.2573L600.423 17.2607ZM604.261 32.103C604.261 38.2916 602.497 43.7927 598.972 48.6398L600.59 49.8162C604.371 44.6166 606.261 38.701 606.261 32.103H604.261ZM598.965 48.6496C595.556 53.4576 590.464 56.9064 583.603 58.9558L584.175 60.8722C591.379 58.7203 596.882 55.0451 600.597 49.8064L598.965 48.6496ZM583.025 60.4175L605.219 98.5035L606.947 97.4965L584.753 59.4105L583.025 60.4175ZM606.083 97H579.642V99H606.083V97ZM554.023 46.118H568.545V44.118H554.023V46.118ZM568.545 46.118C572.985 46.118 576.484 45.0321 578.842 42.6741L577.428 41.2599C575.585 43.1033 572.691 44.118 568.545 44.118V46.118ZM578.827 42.689C581.265 40.3528 582.423 37.0945 582.423 33.062H580.423C580.423 36.7015 579.389 39.3798 577.443 41.245L578.827 42.689ZM582.423 33.062C582.423 29.1957 581.255 26.0359 578.827 23.709L577.443 25.153C579.399 27.0274 580.423 29.6216 580.423 33.062H582.423ZM578.842 23.7239C576.484 21.366 572.985 20.28 568.545 20.28V22.28C572.691 22.28 575.585 23.2947 577.428 25.1381L578.842 23.7239ZM568.545 20.28H554.023V22.28H568.545V20.28ZM553.023 21.28V45.118H555.023V21.28H553.023ZM679.836 81.012L680.783 80.6912L680.553 80.012H679.836V81.012ZM643.942 81.012V80.012H643.225L642.995 80.6912L643.942 81.012ZM638.188 98V99H638.905L639.135 98.3208L638.188 98ZM613.665 98L612.725 97.6598L612.24 99H613.665V98ZM648.463 1.826V0.825996H647.762L647.523 1.48576L648.463 1.826ZM675.589 1.826L676.529 1.48576L676.291 0.825996H675.589V1.826ZM710.387 98V99H711.812L711.328 97.6598L710.387 98ZM685.59 98L684.643 98.3208L684.873 99H685.59V98ZM673.808 62.928V63.928H675.202L674.755 62.6074L673.808 62.928ZM661.889 27.719L662.836 27.3984L661.884 24.5841L660.941 27.4017L661.889 27.719ZM650.107 62.928L649.159 62.6107L648.718 63.928H650.107V62.928ZM679.836 80.012H643.942V82.012H679.836V80.012ZM642.995 80.6912L637.241 97.6792L639.135 98.3208L644.889 81.3328L642.995 80.6912ZM638.188 97H613.665V99H638.188V97ZM614.605 98.3402L649.404 2.16623L647.523 1.48576L612.725 97.6598L614.605 98.3402ZM648.463 2.826H675.589V0.825996H648.463V2.826ZM674.649 2.16623L709.447 98.3402L711.328 97.6598L676.529 1.48576L674.649 2.16623ZM710.387 97H685.59V99H710.387V97ZM686.537 97.6792L680.783 80.6912L678.889 81.3328L684.643 98.3208L686.537 97.6792ZM674.755 62.6074L662.836 27.3984L660.942 28.0396L672.861 63.2486L674.755 62.6074ZM660.941 27.4017L649.159 62.6107L651.055 63.2453L662.837 28.0363L660.941 27.4017ZM650.107 63.928H673.808V61.928H650.107V63.928ZM808.235 48.68L807.951 47.7212L808.027 49.658L808.235 48.68ZM821.661 57.037L820.869 57.6475L820.875 57.6556L821.661 57.037ZM818.236 91.013L818.878 91.7802L818.879 91.7792L818.236 91.013ZM750.01 98H749.01V99H750.01V98ZM750.01 1.826V0.825996H749.01V1.826H750.01ZM816.181 8.53899L815.549 9.31355L815.555 9.31861L816.181 8.53899ZM820.017 40.871L819.238 40.244L819.233 40.2498L819.229 40.2557L820.017 40.871ZM773.437 40.734H772.437V41.734H773.437V40.734ZM797.549 38.268L798.182 39.042L798.186 39.039L797.549 38.268ZM797.549 23.198L796.896 23.9548L796.904 23.962L796.912 23.969L797.549 23.198ZM773.437 20.595V19.595H772.437V20.595H773.437ZM799.741 76.491L800.378 77.262L800.381 77.2592L799.741 76.491ZM799.604 60.736L798.946 61.4886L798.953 61.4952L798.961 61.5017L799.604 60.736ZM773.437 57.859V56.859H772.437V57.859H773.437ZM773.437 79.094H772.437V80.094H773.437V79.094ZM808.027 49.658C813.373 50.7975 817.639 53.4572 820.869 57.6475L822.453 56.4265C818.924 51.8488 814.239 48.9372 808.444 47.702L808.027 49.658ZM820.875 57.6556C824.113 61.7682 825.73 66.4812 825.73 71.833H827.73C827.73 66.0421 825.968 60.8912 822.447 56.4184L820.875 57.6556ZM825.73 71.833C825.73 79.604 823.008 85.7056 817.594 90.2468L818.879 91.7792C824.789 86.8218 827.73 80.1366 827.73 71.833H825.73ZM817.595 90.2458C812.262 94.7046 804.711 97 794.809 97V99C805.001 99 813.068 96.6374 818.878 91.7802L817.595 90.2458ZM794.809 97H750.01V99H794.809V97ZM751.01 98V1.826H749.01V98H751.01ZM750.01 2.826H793.302V0.825996H750.01V2.826ZM793.302 2.826C802.931 2.826 810.305 5.03095 815.549 9.31353L816.814 7.76446C811.098 3.09638 803.218 0.825996 793.302 0.825996V2.826ZM815.555 9.31861C820.871 13.5887 823.538 19.3655 823.538 26.76H825.538C825.538 18.8105 822.634 12.44 816.807 7.75937L815.555 9.31861ZM823.538 26.76C823.538 32.2369 822.085 36.7074 819.238 40.244L820.796 41.498C823.978 37.5452 825.538 32.6084 825.538 26.76H823.538ZM819.229 40.2557C816.445 43.8224 812.701 46.3139 807.951 47.7212L808.519 49.6388C813.633 48.1234 817.744 45.409 820.805 41.4863L819.229 40.2557ZM773.437 41.734H788.781V39.734H773.437V41.734ZM788.781 41.734C792.741 41.734 795.926 40.8877 798.182 39.042L796.916 37.494C795.153 38.9362 792.493 39.734 788.781 39.734V41.734ZM798.186 39.039C800.564 37.0742 801.7 34.2513 801.7 30.733H799.7C799.7 33.7907 798.735 35.9911 796.912 37.497L798.186 39.039ZM801.7 30.733C801.7 27.2147 800.564 24.3918 798.186 22.427L796.912 23.969C798.735 25.4749 799.7 27.6753 799.7 30.733H801.7ZM798.203 22.4412C795.946 20.4919 792.752 19.595 788.781 19.595V21.595C792.482 21.595 795.134 22.4334 796.896 23.9548L798.203 22.4412ZM788.781 19.595H773.437V21.595H788.781V19.595ZM772.437 20.595V40.734H774.437V20.595H772.437ZM790.699 80.094C794.759 80.094 798.034 79.1986 800.378 77.262L799.104 75.72C797.247 77.2541 794.494 78.094 790.699 78.094V80.094ZM800.381 77.2592C802.844 75.2069 804.029 72.2975 804.029 68.682H802.029C802.029 71.8252 801.022 74.1218 799.101 75.7228L800.381 77.2592ZM804.029 68.682C804.029 65.0514 802.789 62.105 800.247 59.9703L798.961 61.5017C800.986 63.203 802.029 65.5539 802.029 68.682H804.029ZM800.263 59.9834C797.833 57.8576 794.51 56.859 790.425 56.859V58.859C794.195 58.859 796.991 59.7784 798.946 61.4886L800.263 59.9834ZM790.425 56.859H773.437V58.859H790.425V56.859ZM772.437 57.859V79.094H774.437V57.859H772.437ZM773.437 80.094H790.699V78.094H773.437V80.094ZM863.745 1.826H864.745V0.825996H863.745V1.826ZM863.745 98V99H864.745V98H863.745ZM840.318 98H839.318V99H840.318V98ZM840.318 1.826V0.825996H839.318V1.826H840.318ZM862.745 1.826V98H864.745V1.826H862.745ZM863.745 97H840.318V99H863.745V97ZM841.318 98V1.826H839.318V98H841.318ZM840.318 2.826H863.745V0.825996H840.318V2.826ZM901.272 92.657L900.783 93.5292L900.787 93.5316L901.272 92.657ZM883.325 75.121L882.459 75.6216L882.463 75.6278L882.467 75.634L883.325 75.121ZM883.325 24.294L882.467 23.781L882.462 23.7888L883.325 24.294ZM901.272 6.758L900.787 5.88334L900.783 5.88586L901.272 6.758ZM951.003 6.758L950.514 7.63015L950.518 7.63265L951.003 6.758ZM968.813 24.294L967.945 24.7913L967.95 24.7992L968.813 24.294ZM968.813 75.121L969.676 75.6262L969.679 75.6216L968.813 75.121ZM951.003 92.657L951.492 93.5291L951.003 92.657ZM944.564 69.915L943.825 69.2416L943.818 69.249L944.564 69.915ZM944.564 29.363L943.818 30.029L943.824 30.036L943.831 30.0429L944.564 29.363ZM907.574 29.226L906.841 28.546L906.834 28.5533L907.574 29.226ZM907.574 70.052L906.828 70.718L906.834 70.725L906.841 70.7319L907.574 70.052ZM926.206 97.959C917.326 97.959 909.183 95.8979 901.757 91.7823L900.787 93.5316C908.523 97.8188 917.002 99.959 926.206 99.959V97.959ZM901.761 91.7849C894.427 87.6704 888.571 81.95 884.183 74.608L882.467 75.634C887.03 83.2707 893.139 89.241 900.783 93.5291L901.761 91.7849ZM884.191 74.6204C879.901 67.2031 877.749 58.884 877.749 49.639H875.749C875.749 59.2086 877.981 67.8775 882.459 75.6216L884.191 74.6204ZM877.749 49.639C877.749 40.3938 879.901 32.1225 884.188 24.7992L882.462 23.7888C877.981 31.4442 875.749 40.0695 875.749 49.639H877.749ZM884.183 24.8069C888.571 17.465 894.427 11.7446 901.761 7.63014L900.783 5.88586C893.139 10.1741 887.03 16.1443 882.467 23.781L884.183 24.8069ZM901.757 7.63265C909.183 3.51715 917.326 1.456 926.206 1.456V-0.544003C917.002 -0.544003 908.523 1.59618 900.787 5.88335L901.757 7.63265ZM926.206 1.456C935.086 1.456 943.182 3.51712 950.514 7.63014L951.492 5.88586C943.846 1.59621 935.41 -0.544003 926.206 -0.544003V1.456ZM950.518 7.63265C957.94 11.7459 963.744 17.461 967.945 24.7913L969.681 23.7967C965.297 16.1483 959.227 10.1728 951.488 5.88335L950.518 7.63265ZM967.95 24.7992C972.237 32.1225 974.389 40.3938 974.389 49.639H976.389C976.389 40.0695 974.157 31.4442 969.676 23.7888L967.95 24.7992ZM974.389 49.639C974.389 58.884 972.237 67.2031 967.947 74.6204L969.679 75.6216C974.157 67.8775 976.389 59.2086 976.389 49.639H974.389ZM967.95 74.6158C963.655 81.9535 957.846 87.6714 950.514 91.7849L951.492 93.5291C959.138 89.2399 965.203 83.2672 969.676 75.6262L967.95 74.6158ZM950.514 91.7849C943.182 95.8979 935.086 97.959 926.206 97.959V99.959C935.41 99.959 943.846 97.8188 951.492 93.5291L950.514 91.7849ZM926.206 78.587C934.125 78.587 940.53 75.9348 945.31 70.581L943.818 69.249C939.465 74.1246 933.631 76.587 926.206 76.587V78.587ZM945.303 70.5883C950.163 65.2518 952.551 58.2345 952.551 49.639H950.551C950.551 57.8488 948.281 64.3489 943.825 69.2417L945.303 70.5883ZM952.551 49.639C952.551 40.9562 950.165 33.933 945.297 28.6831L943.831 30.0429C948.279 34.8396 950.551 41.3338 950.551 49.639H952.551ZM945.31 28.697C940.53 23.3432 934.125 20.691 926.206 20.691V22.691C933.631 22.691 939.465 25.1534 943.818 30.029L945.31 28.697ZM926.206 20.691C918.205 20.691 911.714 23.2905 906.841 28.5461L908.307 29.9059C912.75 25.1148 918.68 22.691 926.206 22.691V20.691ZM906.834 28.5533C902.059 33.8057 899.724 40.8732 899.724 49.639H901.724C901.724 41.2341 903.956 34.693 908.314 29.8987L906.834 28.5533ZM899.724 49.639C899.724 58.3176 902.061 65.3791 906.828 70.718L908.32 69.386C903.953 64.4955 901.724 57.9484 901.724 49.639H899.724ZM906.841 70.7319C911.714 75.9875 918.205 78.587 926.206 78.587V76.587C918.68 76.587 912.75 74.1632 908.307 69.3721L906.841 70.7319ZM1011.85 20.595V19.595H1010.85V20.595H1011.85ZM1011.85 40.049H1010.85V41.049H1011.85V40.049ZM1043.22 40.049H1044.22V39.049H1043.22V40.049ZM1043.22 58.133V59.133H1044.22V58.133H1043.22ZM1011.85 58.133V57.133H1010.85V58.133H1011.85ZM1011.85 79.231H1010.85V80.231H1011.85V79.231ZM1047.33 79.231H1048.33V78.231H1047.33V79.231ZM1047.33 98V99H1048.33V98H1047.33ZM988.422 98H987.422V99H988.422V98ZM988.422 1.826V0.825996H987.422V1.826H988.422ZM1047.33 1.826H1048.33V0.825996H1047.33V1.826ZM1047.33 20.595V21.595H1048.33V20.595H1047.33ZM1010.85 20.595V40.049H1012.85V20.595H1010.85ZM1011.85 41.049H1043.22V39.049H1011.85V41.049ZM1042.22 40.049V58.133H1044.22V40.049H1042.22ZM1043.22 57.133H1011.85V59.133H1043.22V57.133ZM1010.85 58.133V79.231H1012.85V58.133H1010.85ZM1011.85 80.231H1047.33V78.231H1011.85V80.231ZM1046.33 79.231V98H1048.33V79.231H1046.33ZM1047.33 97H988.422V99H1047.33V97ZM989.422 98V1.826H987.422V98H989.422ZM988.422 2.826H1047.33V0.825996H988.422V2.826ZM1046.33 1.826V20.595H1048.33V1.826H1046.33ZM1047.33 19.595H1011.85V21.595H1047.33V19.595ZM1078.43 95.534L1078.05 96.4593L1078.43 95.534ZM1065.01 85.396L1064.2 85.9881L1064.21 85.9986L1065.01 85.396ZM1059.8 69.23V68.23H1058.77L1058.8 69.259L1059.8 69.23ZM1084.74 69.23L1085.73 69.128L1085.64 68.23H1084.74V69.23ZM1088.43 77.45L1087.76 78.1885L1087.77 78.1967L1087.78 78.2046L1088.43 77.45ZM1104.87 77.861L1105.49 78.6523L1105.5 78.6438L1105.51 78.635L1104.87 77.861ZM1105.42 65.257L1104.72 65.9641L1104.73 65.9742L1104.74 65.984L1105.42 65.257ZM1099.53 61.421L1099.13 62.3363L1099.14 62.3392L1099.14 62.342L1099.53 61.421ZM1089.67 57.996L1089.37 58.9515L1089.38 58.9544L1089.67 57.996ZM1074.46 52.242L1074.02 53.1406L1074.46 52.242ZM1064.32 43.748L1065.12 43.1449L1064.32 43.748ZM1069.8 8.128L1070.41 8.91858L1070.42 8.91316L1069.8 8.128ZM1120.77 8.128L1120.15 8.91319L1120.15 8.91855L1120.77 8.128ZM1131.18 29.226V30.226H1132.23L1132.18 29.1756L1131.18 29.226ZM1105.83 29.226L1104.84 29.2847L1104.89 30.226H1105.83V29.226ZM1102.41 21.965L1101.75 22.7196L1101.76 22.7279L1101.77 22.736L1102.41 21.965ZM1087.48 21.554L1088.12 22.3189L1088.13 22.3092L1088.14 22.2992L1087.48 21.554ZM1089.26 35.254L1089.77 34.3941L1089.26 35.254ZM1102.96 40.871L1103.28 39.9236L1103.26 39.9196L1102.96 40.871ZM1118.03 46.899L1117.58 47.7935L1117.59 47.7976L1118.03 46.899ZM1128.16 55.256L1127.37 55.8686L1128.16 55.256ZM1128.16 84.3L1127.32 83.7654L1127.32 83.7716L1127.31 83.7778L1128.16 84.3ZM1116.11 94.986L1115.66 94.0916L1116.11 94.986ZM1097.34 97.959C1090.42 97.959 1084.25 96.8351 1078.81 94.6087L1078.05 96.4593C1083.76 98.7995 1090.2 99.959 1097.34 99.959V97.959ZM1078.81 94.6087C1073.39 92.3882 1069.07 89.115 1065.81 84.7934L1064.21 85.9986C1067.7 90.6277 1072.33 94.1131 1078.05 96.4593L1078.81 94.6087ZM1065.81 84.8039C1062.66 80.5138 1060.98 75.3285 1060.8 69.201L1058.8 69.259C1058.99 75.7355 1060.78 81.3275 1064.2 85.9881L1065.81 84.8039ZM1059.8 70.23H1084.74V68.23H1059.8V70.23ZM1083.74 69.332C1084.12 73.0728 1085.43 76.0653 1087.76 78.1885L1089.11 76.7115C1087.23 74.9987 1086.08 72.5112 1085.73 69.128L1083.74 69.332ZM1087.78 78.2046C1090.1 80.2216 1093.09 81.19 1096.65 81.19V79.19C1093.46 79.19 1090.97 78.3317 1089.09 76.6954L1087.78 78.2046ZM1096.65 81.19C1100.27 81.19 1103.25 80.3822 1105.49 78.6523L1104.26 77.0697C1102.48 78.4451 1099.98 79.19 1096.65 79.19V81.19ZM1105.51 78.635C1107.77 76.7823 1108.89 74.2483 1108.89 71.148H1106.89C1106.89 73.7103 1106 75.6517 1104.24 77.087L1105.51 78.635ZM1108.89 71.148C1108.89 68.5137 1107.96 66.2819 1106.11 64.53L1104.74 65.984C1106.17 67.3374 1106.89 69.033 1106.89 71.148H1108.89ZM1106.13 64.5499C1104.47 62.8918 1102.39 61.5463 1099.92 60.5L1099.14 62.342C1101.42 63.3051 1103.27 64.5169 1104.72 65.9641L1106.13 64.5499ZM1099.93 60.5057C1097.59 59.476 1094.26 58.3204 1089.95 57.0376L1089.38 58.9544C1093.66 60.2289 1096.9 61.3567 1099.13 62.3363L1099.93 60.5057ZM1089.96 57.0405C1083.78 55.1312 1078.76 53.2307 1074.9 51.3434L1074.02 53.1406C1078.01 55.0893 1083.13 57.0248 1089.37 58.9515L1089.96 57.0405ZM1074.9 51.3434C1071.12 49.4994 1067.86 46.7738 1065.12 43.1449L1063.52 44.3511C1066.44 48.2116 1069.94 51.1486 1074.02 53.1406L1074.9 51.3434ZM1065.12 43.1449C1062.45 39.6177 1061.08 34.9616 1061.08 29.089H1059.08C1059.08 35.2724 1060.53 40.3889 1063.52 44.3511L1065.12 43.1449ZM1061.08 29.089C1061.08 20.4152 1064.2 13.7335 1070.41 8.91855L1069.19 7.33745C1062.44 12.5692 1059.08 19.8615 1059.08 29.089H1061.08ZM1070.42 8.91316C1076.69 3.97057 1084.9 1.456 1095.15 1.456V-0.544003C1084.57 -0.544003 1075.89 2.05609 1069.18 7.34283L1070.42 8.91316ZM1095.15 1.456C1105.58 1.456 1113.88 3.97285 1120.15 8.91316L1121.39 7.34283C1114.68 2.05381 1105.9 -0.544003 1095.15 -0.544003V1.456ZM1120.15 8.91855C1126.38 13.7435 1129.74 20.4917 1130.18 29.2764L1132.18 29.1756C1131.71 19.8763 1128.12 12.5592 1121.38 7.33745L1120.15 8.91855ZM1131.18 28.226H1105.83V30.226H1131.18V28.226ZM1106.83 29.1673C1106.64 25.8278 1105.39 23.1321 1103.05 21.194L1101.77 22.736C1103.63 24.2686 1104.67 26.4135 1104.84 29.2847L1106.83 29.1673ZM1103.06 21.2104C1100.75 19.1977 1097.81 18.225 1094.33 18.225V20.225C1097.42 20.225 1099.87 21.079 1101.75 22.7196L1103.06 21.2104ZM1094.33 18.225C1091.3 18.225 1088.76 19.0583 1086.81 20.8088L1088.14 22.2992C1089.66 20.9443 1091.68 20.225 1094.33 20.225V18.225ZM1086.83 20.7891C1084.82 22.4863 1083.87 24.9462 1083.87 27.993H1085.87C1085.87 25.3771 1086.66 23.5444 1088.12 22.3189L1086.83 20.7891ZM1083.87 27.993C1083.87 31.4898 1085.55 34.2189 1088.75 36.1139L1089.77 34.3941C1087.11 32.8184 1085.87 30.7069 1085.87 27.993H1083.87ZM1088.75 36.1139C1091.77 37.9075 1096.42 39.8071 1102.65 41.8224L1103.26 39.9196C1097.07 37.9163 1092.59 36.0712 1089.77 34.3941L1088.75 36.1139ZM1102.64 41.8183C1108.82 43.9111 1113.8 45.9036 1117.58 47.7934L1118.47 46.0046C1114.58 44.0584 1109.51 42.0323 1103.28 39.9237L1102.64 41.8183ZM1117.59 47.7976C1121.37 49.6445 1124.63 52.3291 1127.37 55.8686L1128.95 54.6434C1126.04 50.8762 1122.54 47.9894 1118.47 46.0004L1117.59 47.7976ZM1127.37 55.8686C1130.04 59.3073 1131.41 63.7794 1131.41 69.367H1133.41C1133.41 63.4466 1131.95 58.5113 1128.95 54.6434L1127.37 55.8686ZM1131.41 69.367C1131.41 74.6646 1130.05 79.4557 1127.32 83.7654L1129.01 84.8346C1131.95 80.1936 1133.41 75.0293 1133.41 69.367H1131.41ZM1127.31 83.7778C1124.68 88.0737 1120.81 91.5155 1115.66 94.0916L1116.56 95.8804C1122 93.1591 1126.17 89.4769 1129.02 84.8222L1127.31 83.7778ZM1115.66 94.0916C1110.53 96.6573 1104.43 97.959 1097.34 97.959V99.959C1104.68 99.959 1111.09 98.612 1116.56 95.8804L1115.66 94.0916ZM1209.44 1.826H1210.44V0.825996H1209.44V1.826ZM1209.44 20.595V21.595H1210.44V20.595H1209.44ZM1170.26 20.595V19.595H1169.26V20.595H1170.26ZM1170.26 40.871H1169.26V41.871H1170.26V40.871ZM1199.57 40.871H1200.57V39.871H1199.57V40.871ZM1199.57 59.092V60.092H1200.57V59.092H1199.57ZM1170.26 59.092V58.092H1169.26V59.092H1170.26ZM1170.26 98V99H1171.26V98H1170.26ZM1146.83 98H1145.83V99H1146.83V98ZM1146.83 1.826V0.825996H1145.83V1.826H1146.83ZM1208.44 1.826V20.595H1210.44V1.826H1208.44ZM1209.44 19.595H1170.26V21.595H1209.44V19.595ZM1169.26 20.595V40.871H1171.26V20.595H1169.26ZM1170.26 41.871H1199.57V39.871H1170.26V41.871ZM1198.57 40.871V59.092H1200.57V40.871H1198.57ZM1199.57 58.092H1170.26V60.092H1199.57V58.092ZM1169.26 59.092V98H1171.26V59.092H1169.26ZM1170.26 97H1146.83V99H1170.26V97ZM1147.83 98V1.826H1145.83V98H1147.83ZM1146.83 2.826H1209.44V0.825996H1146.83V2.826ZM1245.18 20.595V19.595H1244.18V20.595H1245.18ZM1245.18 40.049H1244.18V41.049H1245.18V40.049ZM1276.55 40.049H1277.55V39.049H1276.55V40.049ZM1276.55 58.133V59.133H1277.55V58.133H1276.55ZM1245.18 58.133V57.133H1244.18V58.133H1245.18ZM1245.18 79.231H1244.18V80.231H1245.18V79.231ZM1280.66 79.231H1281.66V78.231H1280.66V79.231ZM1280.66 98V99H1281.66V98H1280.66ZM1221.75 98H1220.75V99H1221.75V98ZM1221.75 1.826V0.825996H1220.75V1.826H1221.75ZM1280.66 1.826H1281.66V0.825996H1280.66V1.826ZM1280.66 20.595V21.595H1281.66V20.595H1280.66ZM1244.18 20.595V40.049H1246.18V20.595H1244.18ZM1245.18 41.049H1276.55V39.049H1245.18V41.049ZM1275.55 40.049V58.133H1277.55V40.049H1275.55ZM1276.55 57.133H1245.18V59.133H1276.55V57.133ZM1244.18 58.133V79.231H1246.18V58.133H1244.18ZM1245.18 80.231H1280.66V78.231H1245.18V80.231ZM1279.66 79.231V98H1281.66V79.231H1279.66ZM1280.66 97H1221.75V99H1280.66V97ZM1222.75 98V1.826H1220.75V98H1222.75ZM1221.75 2.826H1280.66V0.825996H1221.75V2.826ZM1279.66 1.826V20.595H1281.66V1.826H1279.66ZM1280.66 19.595H1245.18V21.595H1280.66V19.595ZM1344.92 98L1344.04 98.4826L1344.32 99H1344.92V98ZM1324.91 61.695L1325.79 61.2124L1325.5 60.695H1324.91V61.695ZM1319.3 61.695V60.695H1318.3V61.695H1319.3ZM1319.3 98V99H1320.3V98H1319.3ZM1295.87 98H1294.87V99H1295.87V98ZM1295.87 1.826V0.825996H1294.87V1.826H1295.87ZM1354.51 5.799L1354.06 6.69344L1354.06 6.69645L1354.51 5.799ZM1366.56 16.759L1365.69 17.2533L1365.7 17.2607L1366.56 16.759ZM1365.05 49.228L1364.25 48.6398L1364.24 48.6496L1365.05 49.228ZM1349.16 59.914L1348.88 58.9558L1347.66 59.3195L1348.3 60.4175L1349.16 59.914ZM1371.36 98V99H1373.1L1372.22 97.4965L1371.36 98ZM1319.3 45.118H1318.3V46.118H1319.3V45.118ZM1343.41 41.967L1342.72 41.245L1342.71 41.2524L1342.7 41.2599L1343.41 41.967ZM1343.41 24.431L1342.7 25.1381L1342.71 25.1456L1342.72 25.153L1343.41 24.431ZM1319.3 21.28V20.28H1318.3V21.28H1319.3ZM1345.79 97.5174L1325.79 61.2124L1324.04 62.1776L1344.04 98.4826L1345.79 97.5174ZM1324.91 60.695H1319.3V62.695H1324.91V60.695ZM1318.3 61.695V98H1320.3V61.695H1318.3ZM1319.3 97H1295.87V99H1319.3V97ZM1296.87 98V1.826H1294.87V98H1296.87ZM1295.87 2.826H1335.19V0.825996H1295.87V2.826ZM1335.19 2.826C1342.66 2.826 1348.93 4.13085 1354.06 6.69342L1354.95 4.90457C1349.48 2.16981 1342.88 0.825996 1335.19 0.825996V2.826ZM1354.06 6.69645C1359.3 9.26775 1363.15 12.7902 1365.69 17.2533L1367.43 16.2647C1364.67 11.4118 1360.49 7.62757 1354.95 4.90155L1354.06 6.69645ZM1365.7 17.2607C1368.25 21.6639 1369.53 26.6033 1369.53 32.103H1371.53C1371.53 26.2774 1370.17 20.9874 1367.43 16.2573L1365.7 17.2607ZM1369.53 32.103C1369.53 38.2916 1367.77 43.7927 1364.25 48.6398L1365.86 49.8162C1369.64 44.6166 1371.53 38.701 1371.53 32.103H1369.53ZM1364.24 48.6496C1360.83 53.4576 1355.74 56.9064 1348.88 58.9558L1349.45 60.8722C1356.65 58.7203 1362.16 55.0451 1365.87 49.8064L1364.24 48.6496ZM1348.3 60.4175L1370.49 98.5035L1372.22 97.4965L1350.03 59.4105L1348.3 60.4175ZM1371.36 97H1344.92V99H1371.36V97ZM1319.3 46.118H1333.82V44.118H1319.3V46.118ZM1333.82 46.118C1338.26 46.118 1341.76 45.0321 1344.12 42.6741L1342.7 41.2599C1340.86 43.1033 1337.96 44.118 1333.82 44.118V46.118ZM1344.1 42.689C1346.54 40.3528 1347.7 37.0945 1347.7 33.062H1345.7C1345.7 36.7015 1344.66 39.3798 1342.72 41.245L1344.1 42.689ZM1347.7 33.062C1347.7 29.1957 1346.53 26.0359 1344.1 23.709L1342.72 25.153C1344.67 27.0274 1345.7 29.6216 1345.7 33.062H1347.7ZM1344.12 23.7239C1341.76 21.366 1338.26 20.28 1333.82 20.28V22.28C1337.96 22.28 1340.86 23.2947 1342.7 25.1381L1344.12 23.7239ZM1333.82 20.28H1319.3V22.28H1333.82V20.28ZM1318.3 21.28V45.118H1320.3V21.28H1318.3ZM1445.11 81.012L1446.06 80.6912L1445.83 80.012H1445.11V81.012ZM1409.22 81.012V80.012H1408.5L1408.27 80.6912L1409.22 81.012ZM1403.46 98V99H1404.18L1404.41 98.3208L1403.46 98ZM1378.94 98L1378 97.6598L1377.51 99H1378.94V98ZM1413.74 1.826V0.825996H1413.03L1412.8 1.48576L1413.74 1.826ZM1440.86 1.826L1441.8 1.48576L1441.56 0.825996H1440.86V1.826ZM1475.66 98V99H1477.09L1476.6 97.6598L1475.66 98ZM1450.86 98L1449.92 98.3208L1450.15 99H1450.86V98ZM1439.08 62.928V63.928H1440.48L1440.03 62.6074L1439.08 62.928ZM1427.16 27.719L1428.11 27.3984L1427.16 24.5841L1426.21 27.4017L1427.16 27.719ZM1415.38 62.928L1414.43 62.6107L1413.99 63.928H1415.38V62.928ZM1445.11 80.012H1409.22V82.012H1445.11V80.012ZM1408.27 80.6912L1402.51 97.6792L1404.41 98.3208L1410.16 81.3328L1408.27 80.6912ZM1403.46 97H1378.94V99H1403.46V97ZM1379.88 98.3402L1414.68 2.16623L1412.8 1.48576L1378 97.6598L1379.88 98.3402ZM1413.74 2.826H1440.86V0.825996H1413.74V2.826ZM1439.92 2.16623L1474.72 98.3402L1476.6 97.6598L1441.8 1.48576L1439.92 2.16623ZM1475.66 97H1450.86V99H1475.66V97ZM1451.81 97.6792L1446.06 80.6912L1444.16 81.3328L1449.92 98.3208L1451.81 97.6792ZM1440.03 62.6074L1428.11 27.3984L1426.22 28.0396L1438.13 63.2486L1440.03 62.6074ZM1426.21 27.4017L1414.43 62.6107L1416.33 63.2453L1428.11 28.0363L1426.21 27.4017ZM1415.38 63.928H1439.08V61.928H1415.38V63.928Z" fill="#FFC086" fill-opacity="0.25" mask="url(#path-1-outside-1_587_235)"/>
</svg>
