<svg width="996" height="3755" viewBox="0 0 996 3755" fill="none" xmlns="http://www.w3.org/2000/svg">
<path d="M150 602H319.5L265.052 547.796C254.872 537.662 249.15 523.89 249.15 509.527V418.718L235.851 250.009C234.196 229.013 244.899 208.97 263.268 198.668L373.522 136.83C377.333 134.693 381.39 133.026 385.603 131.866L586.406 76.5767C597.17 73.6129 606.751 67.3855 613.83 58.7518L662 0H261.16V51.2104C261.16 72.8649 248.224 92.4251 228.297 100.901L129.754 142.82C119.524 147.171 110.887 154.574 105.021 164.018L81.1292 202.481C75.8157 211.035 73 220.904 73 230.974V431.588C73 439.788 74.8674 447.88 78.4606 455.251L150 602Z" fill="#834105" fill-opacity="0.1"/>
<path d="M319.314 665.736L150 602H318.5L404.575 653.054C408.838 655.582 413.429 657.512 418.218 658.788L507.111 682.476L736.955 700.336C751.966 701.502 765.807 708.882 775.141 720.695L853.831 820.281C870.549 841.439 869.097 871.687 850.428 891.145L840.402 901.596L833.307 968.436C832.772 973.478 831.529 978.418 829.616 983.113L805.523 1042.24C801.592 1051.89 794.953 1060.19 786.408 1066.16L690.421 1133.11C687.41 1135.21 684.192 1136.99 680.818 1138.44L528 1204H362.5L484.161 1128.52C489.023 1125.51 494.333 1123.28 499.893 1121.93L630.965 1090.12C648.758 1085.8 663.151 1072.76 669.199 1055.48L686.527 1005.96C691.686 991.221 709.755 985.84 722.14 995.358C731.411 1002.48 744.56 1001.49 752.656 993.053L840.402 901.596L841.349 892.67C844.845 859.737 818.145 831.446 785.065 833.032L735.659 835.4C709.528 836.653 686.257 818.994 680.43 793.49L673.795 764.449C669.852 747.191 657.7 732.962 641.272 726.365L581 702.166L507.111 682.476L334.155 669.036C329.077 668.642 324.081 667.531 319.314 665.736Z" fill="#814507" fill-opacity="0.1"/>
<path d="M312.796 1290.85L360.841 1204H529L333.334 1304.08C320.215 1310.79 310.408 1322.57 306.187 1336.68L282.257 1416.72C279.957 1424.41 275.971 1431.49 270.588 1437.45L96.7065 1629.91C82.8577 1645.23 78.9672 1667.12 86.6849 1686.28L89.5871 1693.49C97.2499 1712.51 115.03 1725.56 135.479 1727.15L273.563 1737.92C287.792 1739.03 301.003 1745.73 310.309 1756.55L352.833 1806H170.161L27.3496 1724.96C10.4452 1715.37 0 1697.43 0 1678V1634.09C0 1627.56 1.18339 1621.08 3.49275 1614.98L62.9221 1457.87C69.8106 1439.66 85.9687 1426.57 105.212 1423.61L229.088 1404.53C246.15 1401.91 260.928 1391.28 268.849 1375.94L312.796 1290.85Z" fill="#834105" fill-opacity="0.1"/>
<path d="M345.697 1921.91L166 1806H349.638L440.494 1886.95C449.391 1894.88 460.661 1899.64 472.547 1900.5L779.142 1922.52C784.202 1922.88 788.981 1924.98 792.672 1928.46L816.797 1951.22C822.622 1956.71 818.734 1966.5 810.728 1966.5C804.29 1966.5 800.008 1973.16 802.678 1979.02L826.603 2031.5C830.754 2040.6 831.818 2050.82 829.635 2060.58L794.576 2217.37C789.943 2238.08 773.602 2254.17 752.814 2258.46L610.194 2287.96C600.829 2289.9 592.228 2294.27 585.202 2300.53C581.695 2308.06 576.518 2314.63 570.14 2319.77L560.08 2334.52C542.533 2360.25 552.746 2395.59 581.311 2408H238.554L362.647 2368.48L547.107 2330.62C555.716 2328.86 563.566 2325.07 570.14 2319.77L576.518 2310.42C579.019 2306.75 581.941 2303.43 585.202 2300.53C586.821 2297.05 588.083 2293.37 588.944 2289.53L596.549 2255.58C599.005 2244.61 604.822 2234.69 613.187 2227.18L659.041 2186.05C669.519 2176.65 675.913 2163.54 676.862 2149.49L683.888 2045.53L688.51 1993.46C690.99 1965.52 671.672 1940.34 644.048 1935.5L517.723 1913.35C512.115 1912.36 506.386 1912.27 500.749 1913.08L382.615 1929.98C369.738 1931.83 356.628 1928.96 345.697 1921.91Z" fill="#814507" fill-opacity="0.1"/>
<path d="M416.276 3087.8L288.5 3010H577.5L650.71 3050.62C656.52 3053.85 662.875 3055.97 669.457 3056.89L904.802 3089.69C917.819 3091.5 929.727 3098 938.295 3107.96L965.314 3139.39C982.682 3159.59 982.722 3189.44 965.406 3209.69L936.247 3243.79C934.419 3245.93 932.425 3247.92 930.286 3249.75L868.708 3302.36C859.504 3310.22 853.209 3320.95 850.835 3332.82L834.318 3415.41C832.158 3426.21 826.746 3436.09 818.809 3443.73L765.39 3495.13C756.407 3503.78 744.712 3509.05 732.287 3510.05L378.686 3538.56C370.985 3539.18 363.507 3541.44 356.757 3545.2L232.531 3614.37L175.5 3754.5L89.5 3694L232.531 3614.37L251.095 3568.75C258.449 3550.68 274.978 3537.98 294.333 3535.54L500.929 3509.39C505.623 3508.8 510.218 3507.59 514.597 3505.8L639.374 3454.76C665.762 3443.96 672.584 3409.74 652.353 3389.65C636.71 3374.12 636.665 3348.83 652.253 3333.25L713.408 3272.09C721.894 3263.61 727.311 3252.54 728.805 3240.63L736.158 3182.01C740.28 3149.15 714.125 3120.36 681.022 3121.31L577.114 3124.31C572.721 3124.44 568.329 3124.03 564.035 3123.09L432.835 3094.43C426.986 3093.15 421.39 3090.91 416.276 3087.8Z" fill="#814507" fill-opacity="0.1"/>
<path d="M577.5 3010L429.5 2925.8L285.009 2846.83C263.492 2835.07 252.601 2810.29 258.486 2786.48L274 2723.73L299.193 2590.37C304.011 2564.87 326.296 2546.4 352.254 2546.4H509.994C517.257 2546.4 524.445 2544.93 531.128 2542.09L587.925 2517.93C624.541 2502.36 632.312 2453.88 602.397 2427.64L580 2408H240.5L280.347 2431.59C309.374 2448.77 305.58 2491.92 274 2503.77L122.043 2538.97C102.363 2543.53 86.8728 2558.7 81.8946 2578.27L58.3813 2670.75C54.347 2686.61 57.7282 2703.45 67.5743 2716.53L288.5 3010H577.5Z" fill="#834105" fill-opacity="0.1"/>
</svg>
