<svg xmlns="http://www.w3.org/2000/svg" width="589" height="607" viewBox="0 0 589 607" fill="none">
  <path d="M91 606.5H259.5L195.163 552.18C183.011 541.92 176 526.824 176 510.92V422L162.684 251.8C161.047 230.876 171.681 210.899 189.953 200.574L300.242 138.254C304.066 136.093 308.14 134.406 312.373 133.232L512.915 77.6008C523.704 74.6078 533.296 68.3349 540.364 59.6504L588.5 0.5H188V52.3926C188 73.9941 175.127 93.5172 155.272 102.026L56.719 144.263C46.49 148.647 37.8653 156.084 32.0248 165.557L8.0342 204.469C2.78157 212.988 0 222.8 0 232.809V433.14C0 442.55 2.4589 451.796 7.13302 459.963L91 606.5Z" fill="#834105" fill-opacity="0.1"/>
</svg>