<svg xmlns="http://www.w3.org/2000/svg" width="561" height="570" viewBox="0 0 561 570" fill="none">
  <path d="M520.5 572L372.5 492L229.716 417.847C207.358 406.236 196 380.707 202.344 356.326L217 300L241.858 174.97C246.881 149.701 269.057 131.5 294.821 131.5H453.501C460.436 131.5 467.305 130.165 473.734 127.566L526.361 106.299C564.203 91.0072 572.053 40.8777 540.699 14.7489L523 0H183.5L222.859 22.1396C251.246 38.1071 247.676 80.0581 217 91L65.0681 124.442C45.3675 128.778 29.7264 143.733 24.5117 163.22L2.01651 247.28C-2.39802 263.777 1.25059 281.389 11.8554 294.774L231.5 572H520.5Z" fill="#834105" fill-opacity="0.1"/>
</svg>