<svg xmlns="http://www.w3.org/2000/svg" width="890" height="745" viewBox="0 0 890 745" fill="none">
  <path d="M327.276 77.7971L199.5 0H488.5L561.71 40.6225C567.52 43.8465 573.875 45.9704 580.457 46.8876L815.802 79.6852C828.819 81.4992 840.727 87.9982 849.295 97.9639L876.314 129.39C893.682 149.592 893.722 179.442 876.406 199.69L847.247 233.787C845.419 235.926 843.425 237.918 841.286 239.746L779.708 292.36C770.504 300.225 764.209 310.954 761.835 322.825L745.318 405.41C743.158 416.211 737.746 426.093 729.809 433.731L676.39 485.135C667.407 493.778 655.712 499.047 643.287 500.049L289.686 528.558C281.985 529.179 274.507 531.445 267.757 535.203L143.531 604.367L86.5 744.5L0.5 684L143.531 604.367L162.095 558.753C169.449 540.683 185.978 527.984 205.333 525.535L411.929 499.395C416.623 498.801 421.218 497.593 425.597 495.801L550.374 444.756C576.762 433.961 583.584 399.742 563.353 379.653C547.71 364.121 547.665 338.835 563.253 323.247L624.408 262.092C632.894 253.606 638.311 242.536 639.805 230.629L647.158 172.014C651.28 139.155 625.125 110.361 592.022 111.315L488.114 114.309C483.721 114.436 479.329 114.026 475.035 113.088L343.835 84.4298C337.986 83.1522 332.39 80.9107 327.276 77.7971Z" fill="#814507" fill-opacity="0.1"/>
</svg>