<svg xmlns="http://www.w3.org/2000/svg" width="716" height="598" viewBox="0 0 716 598" fill="none">
  <path d="M169.852 63.3269L0.5 0H169L255.094 50.7256C259.345 53.2301 263.918 55.1402 268.688 56.4026L357.611 79.9412L587.542 97.6893C602.502 98.844 616.306 106.171 625.647 117.913L704.017 216.435C720.888 237.644 719.425 268.073 700.598 287.566L690.902 297.605L683.817 363.907C683.275 368.977 682.018 373.945 680.083 378.663L656.067 437.211C652.107 446.863 645.436 455.162 636.861 461.104L540.915 527.581C537.908 529.665 534.696 531.438 531.331 532.872L378.5 598H213L334.681 523.01C339.53 520.022 344.821 517.82 350.357 516.485L481.473 484.877C499.263 480.588 513.67 467.583 519.75 450.323L536.987 401.395C542.178 386.659 560.232 381.271 572.65 390.752C581.931 397.839 595.049 396.848 603.161 388.449L690.902 297.605L691.803 289.175C695.322 256.236 668.628 227.922 635.54 229.498L586.079 231.853C559.983 233.096 536.74 215.479 530.884 190.018L524.342 161.572C520.37 144.304 508.179 130.083 491.721 123.519L431.5 99.5L357.611 79.9412L184.609 66.5873C179.561 66.1977 174.594 65.1002 169.852 63.3269Z" fill="#814507" fill-opacity="0.1"/>
</svg>