<svg xmlns="http://www.w3.org/2000/svg" width="529" height="559" viewBox="0 0 529 559" fill="none">
  <path d="M312.5 81L360.5 0.5H528.5L333.587 92.9936C320.131 99.379 309.909 111.039 305.341 125.215L282.382 196.456C279.828 204.378 275.479 211.603 269.672 217.566L99.2708 392.549C83.9839 408.248 79.6985 431.627 88.4239 451.726L88.9783 453.004C96.9828 471.443 114.567 483.909 134.616 485.36L274.264 495.464C287.91 496.451 300.673 502.581 309.973 512.615L352.5 558.5H170L28.8439 484.185C11.1053 474.847 0 456.45 0 436.403V400.585C0 393.595 1.35723 386.671 3.99636 380.198L62.3032 237.189C69.5473 219.421 85.6755 206.832 104.67 204.119L229.483 186.288C246.19 183.901 260.82 173.841 269.028 159.095L312.5 81Z" fill="#834105" fill-opacity="0.1"/>
</svg>