<svg xmlns="http://www.w3.org/2000/svg" width="665" height="618" viewBox="0 0 665 618" fill="none">
  <path d="M179.786 119.111L0.5 0.5H184L274.693 83.3822C283.637 91.5558 295.07 96.4841 307.154 97.3745L612.84 119.899C618.112 120.287 623.081 122.513 626.881 126.189L651.053 149.573C656.852 155.183 652.88 165 644.812 165C638.316 165 633.971 171.686 636.61 177.621L660.684 231.788C664.787 241.021 665.84 251.323 663.687 261.196L628.431 422.916C623.908 443.663 607.646 459.833 586.875 464.239L444.56 494.427C435.191 496.414 426.604 500.836 419.607 507.144C416.114 515.066 410.789 521.972 404.159 527.337L393.837 542.861C376.402 569.083 386.735 604.687 415.5 617.5H73L197 577L381.32 538.196C389.86 536.398 397.64 532.612 404.159 527.337L410.797 517.353C413.317 513.564 416.282 510.141 419.607 507.144C421.045 503.881 422.173 500.446 422.952 496.876L430.86 460.668C433.229 449.82 438.884 439.967 447.055 432.449L493.599 389.629C503.806 380.238 510.009 367.28 510.921 353.44L518 246L522.752 191.083C525.159 163.278 505.98 138.22 478.511 133.28L352.177 110.56C346.43 109.527 340.554 109.432 334.778 110.28L217.422 127.503C204.271 129.433 190.871 126.445 179.786 119.111Z" fill="#814507" fill-opacity="0.1"/>
</svg>