<svg width="1440" height="464" viewBox="0 0 1440 464" fill="none" xmlns="http://www.w3.org/2000/svg">
<g filter="url(#filter0_d_873_161)">
<path d="M1346 59L1376.46 80.6576L1412.13 69.4739L1434.41 99.4854L1471.79 99.8704L1483.7 135.298L1519.13 147.214L1519.51 184.59L1549.53 206.87L1538.34 242.536L1560 273L1538.34 303.464L1549.53 339.13L1519.51 361.41L1519.13 398.786L1483.7 410.702L1471.79 446.13L1434.41 446.515L1412.13 476.526L1376.46 465.342L1346 487L1315.54 465.342L1279.87 476.526L1257.59 446.515L1220.21 446.13L1208.3 410.702L1172.87 398.786L1172.49 361.41L1142.47 339.13L1153.66 303.464L1132 273L1153.66 242.536L1142.47 206.87L1172.49 184.59L1172.87 147.214L1208.3 135.298L1220.21 99.8704L1257.59 99.4854L1279.87 69.4739L1315.54 80.6576L1346 59Z" fill="#814507"/>
<path d="M1346 75.1946L1374.16 95.2132L1407.13 84.8759L1427.72 112.616L1462.27 112.972L1473.28 145.719L1506.03 156.733L1506.38 191.28L1534.12 211.875L1523.79 244.841L1543.81 273L1523.79 301.159L1534.12 334.125L1506.38 354.72L1506.03 389.267L1473.28 400.281L1462.27 433.028L1427.72 433.384L1407.13 461.124L1374.16 450.787L1346 470.805L1317.84 450.787L1284.87 461.124L1264.28 433.384L1229.73 433.028L1218.72 400.281L1185.97 389.267L1185.62 354.72L1157.88 334.125L1168.21 301.159L1148.19 273L1168.21 244.841L1157.88 211.875L1185.62 191.28L1185.97 156.733L1218.72 145.719L1229.73 112.972L1264.28 112.616L1284.87 84.8759L1317.84 95.2132L1346 75.1946Z" fill="#BA5F04"/>
<path d="M1346 91.3892L1371.85 109.769L1402.12 100.278L1421.03 125.747L1452.75 126.074L1462.86 156.139L1492.93 166.252L1493.25 197.971L1518.72 216.879L1509.23 247.147L1527.61 273L1509.23 298.853L1518.72 329.121L1493.25 348.029L1492.93 379.748L1462.86 389.861L1452.75 419.926L1421.03 420.253L1402.12 445.722L1371.85 436.231L1346 454.611L1320.15 436.231L1289.88 445.722L1270.97 420.253L1239.25 419.926L1229.14 389.861L1199.07 379.748L1198.75 348.029L1173.28 329.121L1182.77 298.853L1164.39 273L1182.77 247.147L1173.28 216.879L1198.75 197.971L1199.07 166.252L1229.14 156.139L1239.25 126.074L1270.97 125.747L1289.88 100.278L1320.15 109.769L1346 91.3892Z" fill="#FEBD59"/>
</g>
<g filter="url(#filter1_d_873_161)">
<path d="M138 0L168.464 21.6576L204.13 10.4739L226.41 40.4854L263.786 40.8704L275.702 76.298L311.13 88.214L311.515 125.59L341.526 147.87L330.342 183.536L352 214L330.342 244.464L341.526 280.13L311.515 302.41L311.13 339.786L275.702 351.702L263.786 387.13L226.41 387.515L204.13 417.526L168.464 406.342L138 428L107.536 406.342L71.8704 417.526L49.5899 387.515L12.214 387.13L0.298035 351.702L-35.1296 339.786L-35.5146 302.41L-65.5261 280.13L-54.3424 244.464L-76 214L-54.3424 183.536L-65.5261 147.87L-35.5146 125.59L-35.1296 88.214L0.298035 76.298L12.214 40.8704L49.5899 40.4854L71.8704 10.4739L107.536 21.6576L138 0Z" fill="#814507"/>
<path d="M138 16.1946L166.159 36.2132L199.125 25.8759L219.72 53.6162L254.267 53.9721L265.281 86.7187L298.028 97.7329L298.384 132.28L326.124 152.875L315.787 185.841L335.805 214L315.787 242.159L326.124 275.125L298.384 295.72L298.028 330.267L265.281 341.281L254.267 374.028L219.72 374.384L199.125 402.124L166.159 391.787L138 411.805L109.841 391.787L76.8748 402.124L56.2804 374.384L21.7329 374.028L10.7187 341.281L-22.0279 330.267L-22.3838 295.72L-50.1241 275.125L-39.7868 242.159L-59.8054 214L-39.7868 185.841L-50.1241 152.875L-22.3838 132.28L-22.0279 97.7329L10.7187 86.7187L21.7329 53.9721L56.2804 53.6162L76.8748 25.8759L109.841 36.2132L138 16.1946Z" fill="#BA5F04"/>
<path d="M138 32.3892L163.853 50.7689L194.121 41.2779L213.029 66.7471L244.748 67.0738L254.861 97.1394L284.926 107.252L285.253 138.971L310.722 157.879L301.231 188.147L319.611 214L301.231 239.853L310.722 270.121L285.253 289.029L284.926 320.748L254.861 330.861L244.748 360.926L213.029 361.253L194.121 386.722L163.853 377.231L138 395.611L112.147 377.231L81.8792 386.722L62.9709 361.253L31.2518 360.926L21.1394 330.861L-8.92624 320.748L-9.25293 289.029L-34.7221 270.121L-25.2311 239.853L-43.6108 214L-25.2311 188.147L-34.7221 157.879L-9.25293 138.971L-8.92624 107.252L21.1394 97.1394L31.2518 67.0738L62.9709 66.7471L81.8792 41.2779L112.147 50.7689L138 32.3892Z" fill="#FEBD59"/>
</g>
<g filter="url(#filter2_d_873_161)">
<path d="M281.5 136L312.889 158.315L349.638 146.792L372.595 177.715L411.107 178.112L423.384 214.616L459.888 226.893L460.285 265.405L491.208 288.362L479.685 325.111L502 356.5L479.685 387.889L491.208 424.638L460.285 447.595L459.888 486.107L423.384 498.384L411.107 534.888L372.595 535.285L349.638 566.208L312.889 554.685L281.5 577L250.111 554.685L213.362 566.208L190.405 535.285L151.893 534.888L139.616 498.384L103.112 486.107L102.715 447.595L71.792 424.638L83.3154 387.889L61 356.5L83.3154 325.111L71.792 288.362L102.715 265.405L103.112 226.893L139.616 214.616L151.893 178.112L190.405 177.715L213.362 146.792L250.111 158.315L281.5 136Z" fill="#814507"/>
<path d="M281.5 152.686L310.514 173.313L344.482 162.662L365.702 191.245L401.299 191.611L412.647 225.353L446.389 236.701L446.755 272.298L475.338 293.518L464.687 327.486L485.314 356.5L464.687 385.514L475.338 419.482L446.755 440.702L446.389 476.299L412.647 487.647L401.299 521.389L365.702 521.755L344.482 550.338L310.514 539.687L281.5 560.314L252.486 539.687L218.518 550.338L197.298 521.755L161.701 521.389L150.353 487.647L116.611 476.299L116.245 440.702L87.6618 419.482L98.3131 385.514L77.6865 356.5L98.3131 327.486L87.6618 293.518L116.245 272.298L116.611 236.701L150.353 225.353L161.701 191.611L197.298 191.245L218.518 162.662L252.486 173.313L281.5 152.686Z" fill="#BA5F04"/>
<path d="M281.5 169.373L308.139 188.311L339.325 178.532L358.808 204.774L391.491 205.111L401.91 236.09L432.889 246.509L433.226 279.192L459.468 298.675L449.689 329.861L468.627 356.5L449.689 383.139L459.468 414.325L433.226 433.808L432.889 466.491L401.91 476.91L391.491 507.889L358.808 508.226L339.325 534.468L308.139 524.689L281.5 543.627L254.861 524.689L223.675 534.468L204.192 508.226L171.509 507.889L161.09 476.91L130.111 466.491L129.774 433.808L103.532 414.325L113.311 383.139L94.373 356.5L113.311 329.861L103.532 298.675L129.774 279.192L130.111 246.509L161.09 236.09L171.509 205.111L204.192 204.774L223.675 178.532L254.861 188.311L281.5 169.373Z" fill="#FEBD59"/>
</g>
<g filter="url(#filter3_d_873_161)">
<path d="M1099.5 160L1120.92 175.231L1146.01 167.366L1161.68 188.472L1187.96 188.743L1196.34 213.658L1221.26 222.038L1221.53 248.324L1242.63 263.993L1234.77 289.076L1250 310.5L1234.77 331.924L1242.63 357.007L1221.53 372.676L1221.26 398.962L1196.34 407.342L1187.96 432.257L1161.68 432.528L1146.01 453.634L1120.92 445.769L1099.5 461L1078.08 445.769L1052.99 453.634L1037.32 432.528L1011.04 432.257L1002.66 407.342L977.743 398.962L977.472 372.676L956.366 357.007L964.231 331.924L949 310.5L964.231 289.076L956.366 263.993L977.472 248.324L977.743 222.038L1002.66 213.658L1011.04 188.743L1037.32 188.472L1052.99 167.366L1078.08 175.231L1099.5 160Z" fill="#814507"/>
<path d="M1099.5 171.389L1119.3 185.468L1142.49 178.198L1156.97 197.707L1181.27 197.957L1189.01 220.987L1212.04 228.733L1212.29 253.029L1231.8 267.512L1224.53 290.697L1238.61 310.5L1224.53 330.303L1231.8 353.488L1212.29 367.971L1212.04 392.267L1189.01 400.013L1181.27 423.043L1156.97 423.293L1142.49 442.802L1119.3 435.532L1099.5 449.611L1079.7 435.532L1056.51 442.802L1042.03 423.293L1017.73 423.043L1009.99 400.013L986.957 392.267L986.707 367.971L967.198 353.488L974.468 330.303L960.389 310.5L974.468 290.697L967.198 267.512L986.707 253.029L986.957 228.733L1009.99 220.987L1017.73 197.957L1042.03 197.707L1056.51 178.198L1079.7 185.468L1099.5 171.389Z" fill="#BA5F04"/>
<path d="M1099.5 182.778L1117.68 195.704L1138.97 189.03L1152.27 206.941L1174.57 207.171L1181.68 228.315L1202.83 235.427L1203.06 257.734L1220.97 271.032L1214.3 292.318L1227.22 310.5L1214.3 328.682L1220.97 349.968L1203.06 363.266L1202.83 385.573L1181.68 392.685L1174.57 413.829L1152.27 414.059L1138.97 431.97L1117.68 425.296L1099.5 438.222L1081.32 425.296L1060.03 431.97L1046.73 414.059L1024.43 413.829L1017.32 392.685L996.171 385.573L995.941 363.266L978.03 349.968L984.704 328.682L971.778 310.5L984.704 292.318L978.03 271.032L995.941 257.734L996.171 235.427L1017.32 228.315L1024.43 207.171L1046.73 206.941L1060.03 189.03L1081.32 195.704L1099.5 182.778Z" fill="#FEBD59"/>
</g>
<defs>
<filter id="filter0_d_873_161" x="1132" y="59" width="437" height="436" filterUnits="userSpaceOnUse" color-interpolation-filters="sRGB">
<feFlood flood-opacity="0" result="BackgroundImageFix"/>
<feColorMatrix in="SourceAlpha" type="matrix" values="0 0 0 0 0 0 0 0 0 0 0 0 0 0 0 0 0 0 127 0" result="hardAlpha"/>
<feOffset dx="9" dy="8"/>
<feComposite in2="hardAlpha" operator="out"/>
<feColorMatrix type="matrix" values="0 0 0 0 0 0 0 0 0 0 0 0 0 0 0 0 0 0 0.25 0"/>
<feBlend mode="normal" in2="BackgroundImageFix" result="effect1_dropShadow_873_161"/>
<feBlend mode="normal" in="SourceGraphic" in2="effect1_dropShadow_873_161" result="shape"/>
</filter>
<filter id="filter1_d_873_161" x="-76" y="0" width="437" height="436" filterUnits="userSpaceOnUse" color-interpolation-filters="sRGB">
<feFlood flood-opacity="0" result="BackgroundImageFix"/>
<feColorMatrix in="SourceAlpha" type="matrix" values="0 0 0 0 0 0 0 0 0 0 0 0 0 0 0 0 0 0 127 0" result="hardAlpha"/>
<feOffset dx="9" dy="8"/>
<feComposite in2="hardAlpha" operator="out"/>
<feColorMatrix type="matrix" values="0 0 0 0 0 0 0 0 0 0 0 0 0 0 0 0 0 0 0.25 0"/>
<feBlend mode="normal" in2="BackgroundImageFix" result="effect1_dropShadow_873_161"/>
<feBlend mode="normal" in="SourceGraphic" in2="effect1_dropShadow_873_161" result="shape"/>
</filter>
<filter id="filter2_d_873_161" x="61" y="136" width="450" height="449" filterUnits="userSpaceOnUse" color-interpolation-filters="sRGB">
<feFlood flood-opacity="0" result="BackgroundImageFix"/>
<feColorMatrix in="SourceAlpha" type="matrix" values="0 0 0 0 0 0 0 0 0 0 0 0 0 0 0 0 0 0 127 0" result="hardAlpha"/>
<feOffset dx="9" dy="8"/>
<feComposite in2="hardAlpha" operator="out"/>
<feColorMatrix type="matrix" values="0 0 0 0 0 0 0 0 0 0 0 0 0 0 0 0 0 0 0.25 0"/>
<feBlend mode="normal" in2="BackgroundImageFix" result="effect1_dropShadow_873_161"/>
<feBlend mode="normal" in="SourceGraphic" in2="effect1_dropShadow_873_161" result="shape"/>
</filter>
<filter id="filter3_d_873_161" x="949" y="160" width="310" height="309" filterUnits="userSpaceOnUse" color-interpolation-filters="sRGB">
<feFlood flood-opacity="0" result="BackgroundImageFix"/>
<feColorMatrix in="SourceAlpha" type="matrix" values="0 0 0 0 0 0 0 0 0 0 0 0 0 0 0 0 0 0 127 0" result="hardAlpha"/>
<feOffset dx="9" dy="8"/>
<feComposite in2="hardAlpha" operator="out"/>
<feColorMatrix type="matrix" values="0 0 0 0 0 0 0 0 0 0 0 0 0 0 0 0 0 0 0.25 0"/>
<feBlend mode="normal" in2="BackgroundImageFix" result="effect1_dropShadow_873_161"/>
<feBlend mode="normal" in="SourceGraphic" in2="effect1_dropShadow_873_161" result="shape"/>
</filter>
</defs>
</svg>
