<svg width="128" height="128" viewBox="0 0 128 128" fill="none" xmlns="http://www.w3.org/2000/svg">
<path d="M64 0L77.6314 8.69516L93.7423 7.33081L101.771 21.3648L116.671 27.6439L117.259 43.8017L127.533 56.2857L120.545 70.8658L123.841 86.6947L110.877 96.357L106.44 111.905L90.4706 114.436L79.3162 126.14L64 120.96L48.6838 126.14L37.5294 114.436L21.5602 111.905L17.1228 96.357L4.15896 86.6947L7.4553 70.8658L0.466633 56.2857L10.7415 43.8017L11.329 27.6439L26.2285 21.3648L34.2577 7.33081L50.3686 8.69516L64 0Z" fill="#814507"/>
<path d="M63.9998 7.56364L76.0203 15.2312L90.2271 14.0281L97.3074 26.4035L110.446 31.9405L110.964 46.1888L120.025 57.1974L113.862 70.0544L116.769 84.0126L105.337 92.533L101.424 106.243L87.3421 108.475L77.5059 118.796L63.9998 114.228L50.4937 118.796L40.6576 108.475L26.5756 106.243L22.6627 92.533L11.2309 84.0126L14.1377 70.0544L7.97496 57.1974L17.0355 46.1888L17.5536 31.9405L30.6923 26.4035L37.7726 14.0281L51.9794 15.2312L63.9998 7.56364Z" fill="#BA5F04"/>
<path d="M64.0004 14.5455L74.5338 21.2644L86.9831 20.2102L93.1875 31.0546L104.701 35.9066L105.155 48.3922L113.094 58.0389L107.694 69.3054L110.241 81.5368L100.224 89.0031L96.7949 101.017L84.455 102.973L75.8357 112.017L64.0004 108.015L52.1652 112.017L43.5459 102.973L31.206 101.017L27.7772 89.0031L17.7596 81.5368L20.3068 69.3054L14.9065 58.0389L22.8461 48.3922L23.3002 35.9066L34.8134 31.0546L41.0178 20.2102L53.4671 21.2644L64.0004 14.5455Z" fill="#FEBD59"/>
<path d="M51.3745 49.4887V36.2407H73.5505V88.8727H58.7905V49.4887H51.3745Z" fill="#BA5F04"/>
</svg>
