<svg width="1435" height="265" viewBox="0 0 1435 265" fill="none" xmlns="http://www.w3.org/2000/svg">
<path d="M97 -189L127.464 -167.342L163.13 -178.526L185.41 -148.515L222.786 -148.13L234.702 -112.702L270.13 -100.786L270.515 -63.4101L300.526 -41.1296L289.342 -5.46405L311 25L289.342 55.4641L300.526 91.1296L270.515 113.41L270.13 150.786L234.702 162.702L222.786 198.13L185.41 198.515L163.13 228.526L127.464 217.342L97 239L66.5359 217.342L30.8704 228.526L8.58989 198.515L-28.786 198.13L-40.702 162.702L-76.1296 150.786L-76.5146 113.41L-106.526 91.1296L-95.3424 55.4641L-117 25L-95.3424 -5.46405L-106.526 -41.1296L-76.5146 -63.4101L-76.1296 -100.786L-40.702 -112.702L-28.786 -148.13L8.58989 -148.515L30.8704 -178.526L66.5359 -167.342L97 -189Z" fill="#814507"/>
<path d="M97 -172.805L125.159 -152.787L158.125 -163.124L178.72 -135.384L213.267 -135.028L224.281 -102.281L257.028 -91.2671L257.384 -56.7196L285.124 -36.1252L274.787 -3.15866L294.805 25L274.787 53.1587L285.124 86.1252L257.384 106.72L257.028 141.267L224.281 152.281L213.267 185.028L178.72 185.384L158.125 213.124L125.159 202.787L97 222.805L68.8413 202.787L35.8748 213.124L15.2804 185.384L-19.2671 185.028L-30.2813 152.281L-63.0279 141.267L-63.3838 106.72L-91.1241 86.1252L-80.7868 53.1587L-100.805 25L-80.7868 -3.15866L-91.1241 -36.1252L-63.3838 -56.7196L-63.0279 -91.2671L-30.2813 -102.281L-19.2671 -135.028L15.2804 -135.384L35.8748 -163.124L68.8413 -152.787L97 -172.805Z" fill="#BA5F04"/>
<path d="M97 -156.611L122.853 -138.231L153.121 -147.722L172.029 -122.253L203.748 -121.926L213.861 -91.8606L243.926 -81.7482L244.253 -50.0291L269.722 -31.1208L260.231 -0.853271L278.611 25L260.231 50.8533L269.722 81.1208L244.253 100.029L243.926 131.748L213.861 141.861L203.748 171.926L172.029 172.253L153.121 197.722L122.853 188.231L97 206.611L71.1467 188.231L40.8792 197.722L21.9709 172.253L-9.74816 171.926L-19.8606 141.861L-49.9262 131.748L-50.2529 100.029L-75.7221 81.1208L-66.2311 50.8533L-84.6108 25L-66.2311 -0.853271L-75.7221 -31.1208L-50.2529 -50.0291L-49.9262 -81.7482L-19.8606 -91.8606L-9.74816 -121.926L21.9709 -122.253L40.8792 -147.722L71.1467 -138.231L97 -156.611Z" fill="#FEBD59"/>
<path d="M295 -139L314.787 -124.933L337.953 -132.197L352.425 -112.703L376.702 -112.453L384.442 -89.4419L407.453 -81.7021L407.703 -57.4253L427.197 -42.9534L419.933 -19.7874L434 0L419.933 19.7874L427.197 42.9534L407.703 57.4252L407.453 81.7021L384.442 89.4419L376.702 112.453L352.425 112.703L337.953 132.197L314.787 124.933L295 139L275.213 124.933L252.047 132.197L237.575 112.703L213.298 112.453L205.558 89.4419L182.547 81.7021L182.297 57.4252L162.803 42.9534L170.067 19.7874L156 0L170.067 -19.7874L162.803 -42.9534L182.297 -57.4253L182.547 -81.7021L205.558 -89.4419L213.298 -112.453L237.575 -112.703L252.047 -132.197L275.213 -124.933L295 -139Z" fill="#814507"/>
<path d="M295 -128.481L313.29 -115.478L334.703 -122.193L348.08 -104.175L370.519 -103.943L377.673 -82.6734L398.943 -75.5193L399.175 -53.0796L417.193 -39.7028L410.478 -18.29L423.481 0L410.478 18.29L417.193 39.7028L399.175 53.0796L398.943 75.5193L377.673 82.6734L370.519 103.943L348.08 104.175L334.703 122.193L313.29 115.478L295 128.481L276.71 115.478L255.297 122.193L241.92 104.175L219.481 103.943L212.327 82.6734L191.057 75.5193L190.825 53.0796L172.807 39.7028L179.522 18.29L166.519 0L179.522 -18.29L172.807 -39.7028L190.825 -53.0796L191.057 -75.5193L212.327 -82.6734L219.481 -103.943L241.92 -104.175L255.297 -122.193L276.71 -115.478L295 -128.481Z" fill="#BA5F04"/>
<path d="M295 -117.962L311.793 -106.024L331.452 -112.189L343.734 -95.6456L364.336 -95.4334L370.905 -75.9048L390.433 -69.3364L390.646 -48.7339L407.189 -36.4523L401.024 -16.7925L412.962 0L401.024 16.7925L407.189 36.4523L390.646 48.7339L390.433 69.3364L370.905 75.9048L364.336 95.4334L343.734 95.6456L331.452 112.189L311.793 106.024L295 117.962L278.207 106.024L258.548 112.189L246.266 95.6456L225.664 95.4334L219.095 75.9048L199.567 69.3364L199.354 48.7339L182.811 36.4523L188.976 16.7925L177.038 0L188.976 -16.7925L182.811 -36.4523L199.354 -48.7339L199.567 -69.3364L219.095 -75.9048L225.664 -95.4334L246.266 -95.6456L258.548 -112.189L278.207 -106.024L295 -117.962Z" fill="#FEBD59"/>
<path d="M709 -289L739.464 -267.342L775.13 -278.526L797.41 -248.515L834.786 -248.13L846.702 -212.702L882.13 -200.786L882.515 -163.41L912.526 -141.13L901.342 -105.464L923 -75L901.342 -44.5359L912.526 -8.87036L882.515 13.4101L882.13 50.786L846.702 62.702L834.786 98.1296L797.41 98.5146L775.13 128.526L739.464 117.342L709 139L678.536 117.342L642.87 128.526L620.59 98.5146L583.214 98.1296L571.298 62.702L535.87 50.786L535.485 13.4101L505.474 -8.87036L516.658 -44.5359L495 -75L516.658 -105.464L505.474 -141.13L535.485 -163.41L535.87 -200.786L571.298 -212.702L583.214 -248.13L620.59 -248.515L642.87 -278.526L678.536 -267.342L709 -289Z" fill="#814507"/>
<path d="M709 -272.805L737.159 -252.787L770.125 -263.124L790.72 -235.384L825.267 -235.028L836.281 -202.281L869.028 -191.267L869.384 -156.72L897.124 -136.125L886.787 -103.159L906.805 -75L886.787 -46.8413L897.124 -13.8748L869.384 6.7196L869.028 41.2671L836.281 52.2813L825.267 85.028L790.72 85.3838L770.125 113.124L737.159 102.787L709 122.805L680.841 102.787L647.875 113.124L627.28 85.3838L592.733 85.028L581.719 52.2813L548.972 41.2671L548.616 6.7196L520.876 -13.8748L531.213 -46.8413L511.195 -75L531.213 -103.159L520.876 -136.125L548.616 -156.72L548.972 -191.267L581.719 -202.281L592.733 -235.028L627.28 -235.384L647.875 -263.124L680.841 -252.787L709 -272.805Z" fill="#BA5F04"/>
<path d="M709 -256.611L734.853 -238.231L765.121 -247.722L784.029 -222.253L815.748 -221.926L825.861 -191.861L855.926 -181.748L856.253 -150.029L881.722 -131.121L872.231 -100.853L890.611 -75L872.231 -49.1467L881.722 -18.8792L856.253 0.0291138L855.926 31.7482L825.861 41.8606L815.748 71.9262L784.029 72.2529L765.121 97.7221L734.853 88.2311L709 106.611L683.147 88.2311L652.879 97.7221L633.971 72.2529L602.252 71.9262L592.139 41.8606L562.074 31.7482L561.747 0.0291138L536.278 -18.8792L545.769 -49.1467L527.389 -75L545.769 -100.853L536.278 -131.121L561.747 -150.029L562.074 -181.748L592.139 -191.861L602.252 -221.926L633.971 -222.253L652.879 -247.722L683.147 -238.231L709 -256.611Z" fill="#FEBD59"/>
<path d="M1221 -163L1251.46 -141.342L1287.13 -152.526L1309.41 -122.515L1346.79 -122.13L1358.7 -86.702L1394.13 -74.786L1394.51 -37.4101L1424.53 -15.1296L1413.34 20.5359L1435 51L1413.34 81.4641L1424.53 117.13L1394.51 139.41L1394.13 176.786L1358.7 188.702L1346.79 224.13L1309.41 224.515L1287.13 254.526L1251.46 243.342L1221 265L1190.54 243.342L1154.87 254.526L1132.59 224.515L1095.21 224.13L1083.3 188.702L1047.87 176.786L1047.49 139.41L1017.47 117.13L1028.66 81.4641L1007 51L1028.66 20.5359L1017.47 -15.1296L1047.49 -37.4101L1047.87 -74.786L1083.3 -86.702L1095.21 -122.13L1132.59 -122.515L1154.87 -152.526L1190.54 -141.342L1221 -163Z" fill="#814507"/>
<path d="M1221 -146.805L1249.16 -126.787L1282.13 -137.124L1302.72 -109.384L1337.27 -109.028L1348.28 -76.2813L1381.03 -65.2671L1381.38 -30.7196L1409.12 -10.1252L1398.79 22.8413L1418.81 51L1398.79 79.1587L1409.12 112.125L1381.38 132.72L1381.03 167.267L1348.28 178.281L1337.27 211.028L1302.72 211.384L1282.13 239.124L1249.16 228.787L1221 248.805L1192.84 228.787L1159.87 239.124L1139.28 211.384L1104.73 211.028L1093.72 178.281L1060.97 167.267L1060.62 132.72L1032.88 112.125L1043.21 79.1587L1023.19 51L1043.21 22.8413L1032.88 -10.1252L1060.62 -30.7196L1060.97 -65.2671L1093.72 -76.2813L1104.73 -109.028L1139.28 -109.384L1159.87 -137.124L1192.84 -126.787L1221 -146.805Z" fill="#BA5F04"/>
<path d="M1221 -130.611L1246.85 -112.231L1277.12 -121.722L1296.03 -96.2529L1327.75 -95.9262L1337.86 -65.8606L1367.93 -55.7482L1368.25 -24.0291L1393.72 -5.12083L1384.23 25.1467L1402.61 51L1384.23 76.8533L1393.72 107.121L1368.25 126.029L1367.93 157.748L1337.86 167.861L1327.75 197.926L1296.03 198.253L1277.12 223.722L1246.85 214.231L1221 232.611L1195.15 214.231L1164.88 223.722L1145.97 198.253L1114.25 197.926L1104.14 167.861L1074.07 157.748L1073.75 126.029L1048.28 107.121L1057.77 76.8533L1039.39 51L1057.77 25.1467L1048.28 -5.12083L1073.75 -24.0291L1074.07 -55.7482L1104.14 -65.8606L1114.25 -95.9262L1145.97 -96.2529L1164.88 -121.722L1195.15 -112.231L1221 -130.611Z" fill="#FEBD59"/>
</svg>
