<svg width="692" height="392" viewBox="0 0 692 392" fill="none" xmlns="http://www.w3.org/2000/svg">
<g filter="url(#filter0_f_3_62)">
<ellipse cx="346" cy="196" rx="227" ry="77" fill="black" fill-opacity="0.54"/>
</g>
<path d="M208.834 208.816C210.072 208.816 211.133 209.04 212.018 209.488C212.904 209.936 213.581 210.581 214.05 211.424C214.52 212.267 214.754 213.269 214.754 214.432C214.754 215.584 214.52 216.581 214.05 217.424C213.581 218.256 212.904 218.896 212.018 219.344C211.133 219.781 210.072 220 208.834 220H205.522V208.816H208.834ZM208.834 219.072C210.392 219.072 211.576 218.667 212.386 217.856C213.208 217.035 213.618 215.893 213.618 214.432C213.618 212.96 213.208 211.813 212.386 210.992C211.576 210.16 210.392 209.744 208.834 209.744H206.642V219.072H208.834ZM224.723 215.184C224.723 215.568 224.712 215.861 224.691 216.064H217.443C217.475 216.725 217.635 217.291 217.923 217.76C218.211 218.229 218.59 218.587 219.059 218.832C219.528 219.067 220.04 219.184 220.595 219.184C221.32 219.184 221.928 219.008 222.419 218.656C222.92 218.304 223.251 217.829 223.411 217.232H224.595C224.382 218.085 223.923 218.784 223.219 219.328C222.526 219.861 221.651 220.128 220.595 220.128C219.774 220.128 219.038 219.947 218.387 219.584C217.736 219.211 217.224 218.688 216.851 218.016C216.488 217.333 216.307 216.539 216.307 215.632C216.307 214.725 216.488 213.931 216.851 213.248C217.214 212.565 217.72 212.043 218.371 211.68C219.022 211.317 219.763 211.136 220.595 211.136C221.427 211.136 222.152 211.317 222.771 211.68C223.4 212.043 223.88 212.533 224.211 213.152C224.552 213.76 224.723 214.437 224.723 215.184ZM223.587 215.152C223.598 214.501 223.464 213.947 223.187 213.488C222.92 213.029 222.552 212.683 222.083 212.448C221.614 212.213 221.102 212.096 220.547 212.096C219.715 212.096 219.006 212.363 218.419 212.896C217.832 213.429 217.507 214.181 217.443 215.152H223.587ZM234.603 212.208H232.571V220H231.451V212.208H230.235V211.264H231.451V210.656C231.451 209.707 231.691 209.008 232.171 208.56C232.661 208.112 233.451 207.888 234.539 207.888V208.848C233.813 208.848 233.301 208.987 233.003 209.264C232.715 209.541 232.571 210.005 232.571 210.656V211.264H234.603V212.208ZM240.19 220.128C239.369 220.128 238.627 219.947 237.966 219.584C237.315 219.211 236.798 218.688 236.414 218.016C236.041 217.333 235.854 216.539 235.854 215.632C235.854 214.725 236.046 213.936 236.43 213.264C236.814 212.581 237.337 212.059 237.998 211.696C238.659 211.323 239.401 211.136 240.222 211.136C241.043 211.136 241.785 211.323 242.446 211.696C243.118 212.059 243.641 212.581 244.014 213.264C244.398 213.936 244.59 214.725 244.59 215.632C244.59 216.528 244.398 217.317 244.014 218C243.63 218.683 243.102 219.211 242.43 219.584C241.758 219.947 241.011 220.128 240.19 220.128ZM240.19 219.152C240.766 219.152 241.299 219.024 241.79 218.768C242.281 218.501 242.675 218.107 242.974 217.584C243.283 217.051 243.438 216.4 243.438 215.632C243.438 214.864 243.289 214.219 242.99 213.696C242.691 213.163 242.297 212.768 241.806 212.512C241.315 212.245 240.782 212.112 240.206 212.112C239.63 212.112 239.097 212.245 238.606 212.512C238.115 212.768 237.721 213.163 237.422 213.696C237.134 214.219 236.99 214.864 236.99 215.632C236.99 216.4 237.134 217.051 237.422 217.584C237.721 218.107 238.11 218.501 238.59 218.768C239.081 219.024 239.614 219.152 240.19 219.152ZM247.752 212.816C247.997 212.272 248.37 211.851 248.872 211.552C249.384 211.253 250.008 211.104 250.744 211.104V212.272H250.44C249.629 212.272 248.978 212.491 248.488 212.928C247.997 213.365 247.752 214.096 247.752 215.12V220H246.632V211.264H247.752V212.816ZM262.828 211.104C263.852 211.104 264.684 211.429 265.324 212.08C265.975 212.72 266.3 213.653 266.3 214.88V220H265.196V215.008C265.196 214.059 264.967 213.333 264.508 212.832C264.05 212.331 263.426 212.08 262.636 212.08C261.815 212.08 261.159 212.352 260.668 212.896C260.178 213.44 259.932 214.229 259.932 215.264V220H258.828V215.008C258.828 214.059 258.599 213.333 258.14 212.832C257.682 212.331 257.052 212.08 256.252 212.08C255.431 212.08 254.775 212.352 254.284 212.896C253.794 213.44 253.548 214.229 253.548 215.264V220H252.428V211.264H253.548V212.768C253.826 212.224 254.22 211.813 254.732 211.536C255.244 211.248 255.815 211.104 256.444 211.104C257.202 211.104 257.863 211.285 258.428 211.648C259.004 212.011 259.42 212.544 259.676 213.248C259.911 212.555 260.311 212.027 260.876 211.664C261.452 211.291 262.103 211.104 262.828 211.104ZM268.276 215.616C268.276 214.72 268.452 213.936 268.804 213.264C269.166 212.581 269.662 212.059 270.292 211.696C270.932 211.323 271.652 211.136 272.452 211.136C273.284 211.136 273.998 211.328 274.596 211.712C275.204 212.096 275.641 212.587 275.908 213.184V211.264H277.028V220H275.908V218.064C275.63 218.661 275.188 219.157 274.58 219.552C273.982 219.936 273.268 220.128 272.436 220.128C271.646 220.128 270.932 219.941 270.292 219.568C269.662 219.195 269.166 218.667 268.804 217.984C268.452 217.301 268.276 216.512 268.276 215.616ZM275.908 215.632C275.908 214.928 275.764 214.309 275.476 213.776C275.188 213.243 274.793 212.832 274.292 212.544C273.801 212.256 273.257 212.112 272.66 212.112C272.041 212.112 271.486 212.251 270.996 212.528C270.505 212.805 270.116 213.211 269.828 213.744C269.55 214.267 269.412 214.891 269.412 215.616C269.412 216.331 269.55 216.96 269.828 217.504C270.116 218.037 270.505 218.448 270.996 218.736C271.486 219.013 272.041 219.152 272.66 219.152C273.257 219.152 273.801 219.008 274.292 218.72C274.793 218.432 275.188 218.021 275.476 217.488C275.764 216.955 275.908 216.336 275.908 215.632ZM284.535 209.616C284.311 209.616 284.119 209.536 283.959 209.376C283.799 209.216 283.719 209.019 283.719 208.784C283.719 208.549 283.799 208.357 283.959 208.208C284.119 208.048 284.311 207.968 284.535 207.968C284.759 207.968 284.951 208.048 285.111 208.208C285.271 208.357 285.351 208.549 285.351 208.784C285.351 209.019 285.271 209.216 285.111 209.376C284.951 209.536 284.759 209.616 284.535 209.616ZM285.095 211.264V220H283.975V211.264H285.095ZM291.728 211.104C292.773 211.104 293.626 211.429 294.288 212.08C294.949 212.72 295.28 213.653 295.28 214.88V220H294.176V215.008C294.176 214.059 293.936 213.333 293.456 212.832C292.986 212.331 292.341 212.08 291.52 212.08C290.677 212.08 290.005 212.347 289.504 212.88C289.002 213.413 288.752 214.197 288.752 215.232V220H287.632V211.264H288.752V212.752C289.029 212.219 289.429 211.813 289.952 211.536C290.474 211.248 291.066 211.104 291.728 211.104ZM299.213 212.208V217.632C299.213 218.165 299.314 218.533 299.517 218.736C299.719 218.939 300.077 219.04 300.589 219.04H301.613V220H300.413C299.623 220 299.037 219.819 298.653 219.456C298.269 219.083 298.077 218.475 298.077 217.632V212.208H296.861V211.264H298.077V209.072H299.213V211.264H301.613V212.208H299.213ZM311.364 215.184C311.364 215.568 311.353 215.861 311.332 216.064H304.084C304.116 216.725 304.276 217.291 304.564 217.76C304.852 218.229 305.23 218.587 305.7 218.832C306.169 219.067 306.681 219.184 307.236 219.184C307.961 219.184 308.569 219.008 309.06 218.656C309.561 218.304 309.892 217.829 310.052 217.232H311.236C311.022 218.085 310.564 218.784 309.86 219.328C309.166 219.861 308.292 220.128 307.236 220.128C306.414 220.128 305.678 219.947 305.028 219.584C304.377 219.211 303.865 218.688 303.492 218.016C303.129 217.333 302.948 216.539 302.948 215.632C302.948 214.725 303.129 213.931 303.492 213.248C303.854 212.565 304.361 212.043 305.012 211.68C305.662 211.317 306.404 211.136 307.236 211.136C308.068 211.136 308.793 211.317 309.412 211.68C310.041 212.043 310.521 212.533 310.852 213.152C311.193 213.76 311.364 214.437 311.364 215.184ZM310.228 215.152C310.238 214.501 310.105 213.947 309.828 213.488C309.561 213.029 309.193 212.683 308.724 212.448C308.254 212.213 307.742 212.096 307.188 212.096C306.356 212.096 305.646 212.363 305.06 212.896C304.473 213.429 304.148 214.181 304.084 215.152H310.228ZM314.533 212.816C314.778 212.272 315.151 211.851 315.653 211.552C316.165 211.253 316.789 211.104 317.525 211.104V212.272H317.221C316.41 212.272 315.759 212.491 315.269 212.928C314.778 213.365 314.533 214.096 314.533 215.12V220H313.413V211.264H314.533V212.816ZM318.698 215.616C318.698 214.72 318.874 213.936 319.226 213.264C319.588 212.581 320.084 212.059 320.714 211.696C321.354 211.323 322.074 211.136 322.874 211.136C323.706 211.136 324.42 211.328 325.018 211.712C325.626 212.096 326.063 212.587 326.33 213.184V211.264H327.45V220H326.33V218.064C326.052 218.661 325.61 219.157 325.002 219.552C324.404 219.936 323.69 220.128 322.858 220.128C322.068 220.128 321.354 219.941 320.714 219.568C320.084 219.195 319.588 218.667 319.226 217.984C318.874 217.301 318.698 216.512 318.698 215.616ZM326.33 215.632C326.33 214.928 326.186 214.309 325.898 213.776C325.61 213.243 325.215 212.832 324.714 212.544C324.223 212.256 323.679 212.112 323.082 212.112C322.463 212.112 321.908 212.251 321.418 212.528C320.927 212.805 320.538 213.211 320.25 213.744C319.972 214.267 319.834 214.891 319.834 215.616C319.834 216.331 319.972 216.96 320.25 217.504C320.538 218.037 320.927 218.448 321.418 218.736C321.908 219.013 322.463 219.152 323.082 219.152C323.679 219.152 324.223 219.008 324.714 218.72C325.215 218.432 325.61 218.021 325.898 217.488C326.186 216.955 326.33 216.336 326.33 215.632ZM331.463 212.208V217.632C331.463 218.165 331.564 218.533 331.767 218.736C331.969 218.939 332.327 219.04 332.839 219.04H333.863V220H332.663C331.873 220 331.287 219.819 330.903 219.456C330.519 219.083 330.327 218.475 330.327 217.632V212.208H329.111V211.264H330.327V209.072H331.463V211.264H333.863V212.208H331.463ZM336.27 209.616C336.046 209.616 335.854 209.536 335.694 209.376C335.534 209.216 335.454 209.019 335.454 208.784C335.454 208.549 335.534 208.357 335.694 208.208C335.854 208.048 336.046 207.968 336.27 207.968C336.494 207.968 336.686 208.048 336.846 208.208C337.006 208.357 337.086 208.549 337.086 208.784C337.086 209.019 337.006 209.216 336.846 209.376C336.686 209.536 336.494 209.616 336.27 209.616ZM336.83 211.264V220H335.71V211.264H336.83ZM342.47 218.912L345.414 211.264H346.598L343.094 220H341.83L338.326 211.264H339.526L342.47 218.912ZM347.604 215.616C347.604 214.72 347.78 213.936 348.132 213.264C348.495 212.581 348.991 212.059 349.62 211.696C350.26 211.323 350.98 211.136 351.78 211.136C352.612 211.136 353.327 211.328 353.924 211.712C354.532 212.096 354.969 212.587 355.236 213.184V211.264H356.356V220H355.236V218.064C354.959 218.661 354.516 219.157 353.908 219.552C353.311 219.936 352.596 220.128 351.764 220.128C350.975 220.128 350.26 219.941 349.62 219.568C348.991 219.195 348.495 218.667 348.132 217.984C347.78 217.301 347.604 216.512 347.604 215.616ZM355.236 215.632C355.236 214.928 355.092 214.309 354.804 213.776C354.516 213.243 354.121 212.832 353.62 212.544C353.129 212.256 352.585 212.112 351.988 212.112C351.369 212.112 350.815 212.251 350.324 212.528C349.833 212.805 349.444 213.211 349.156 213.744C348.879 214.267 348.74 214.891 348.74 215.616C348.74 216.331 348.879 216.96 349.156 217.504C349.444 218.037 349.833 218.448 350.324 218.736C350.815 219.013 351.369 219.152 351.988 219.152C352.585 219.152 353.129 219.008 353.62 218.72C354.121 218.432 354.516 218.021 354.804 217.488C355.092 216.955 355.236 216.336 355.236 215.632ZM359.937 218.144L358.273 222.336H357.505L358.689 218.144H359.937ZM367.173 213.184C367.45 212.597 367.888 212.112 368.485 211.728C369.093 211.333 369.813 211.136 370.645 211.136C371.434 211.136 372.144 211.323 372.773 211.696C373.413 212.059 373.909 212.581 374.261 213.264C374.624 213.936 374.805 214.72 374.805 215.616C374.805 216.512 374.624 217.301 374.261 217.984C373.909 218.667 373.413 219.195 372.773 219.568C372.144 219.941 371.434 220.128 370.645 220.128C369.824 220.128 369.109 219.936 368.501 219.552C367.893 219.157 367.45 218.667 367.173 218.08V224.128H366.069V211.264H367.173V213.184ZM373.669 215.616C373.669 214.891 373.525 214.267 373.237 213.744C372.96 213.211 372.576 212.805 372.085 212.528C371.594 212.251 371.04 212.112 370.421 212.112C369.824 212.112 369.274 212.256 368.773 212.544C368.282 212.832 367.893 213.243 367.605 213.776C367.317 214.309 367.173 214.928 367.173 215.632C367.173 216.336 367.317 216.955 367.605 217.488C367.893 218.021 368.282 218.432 368.773 218.72C369.274 219.008 369.824 219.152 370.421 219.152C371.04 219.152 371.594 219.013 372.085 218.736C372.576 218.448 372.96 218.037 373.237 217.504C373.525 216.96 373.669 216.331 373.669 215.616ZM377.986 212.816C378.231 212.272 378.605 211.851 379.106 211.552C379.618 211.253 380.242 211.104 380.978 211.104V212.272H380.674C379.863 212.272 379.213 212.491 378.722 212.928C378.231 213.365 377.986 214.096 377.986 215.12V220H376.866V211.264H377.986V212.816ZM382.151 215.616C382.151 214.72 382.327 213.936 382.679 213.264C383.041 212.581 383.537 212.059 384.167 211.696C384.807 211.323 385.527 211.136 386.327 211.136C387.159 211.136 387.873 211.328 388.471 211.712C389.079 212.096 389.516 212.587 389.783 213.184V211.264H390.903V220H389.783V218.064C389.505 218.661 389.063 219.157 388.455 219.552C387.857 219.936 387.143 220.128 386.311 220.128C385.521 220.128 384.807 219.941 384.167 219.568C383.537 219.195 383.041 218.667 382.679 217.984C382.327 217.301 382.151 216.512 382.151 215.616ZM389.783 215.632C389.783 214.928 389.639 214.309 389.351 213.776C389.063 213.243 388.668 212.832 388.167 212.544C387.676 212.256 387.132 212.112 386.535 212.112C385.916 212.112 385.361 212.251 384.871 212.528C384.38 212.805 383.991 213.211 383.703 213.744C383.425 214.267 383.287 214.891 383.287 215.616C383.287 216.331 383.425 216.96 383.703 217.504C383.991 218.037 384.38 218.448 384.871 218.736C385.361 219.013 385.916 219.152 386.535 219.152C387.132 219.152 387.676 219.008 388.167 218.72C388.668 218.432 389.063 218.021 389.351 217.488C389.639 216.955 389.783 216.336 389.783 215.632ZM388.279 208.688L384.999 210.592V209.728L388.279 207.68V208.688ZM394.916 212.208V217.632C394.916 218.165 395.017 218.533 395.22 218.736C395.422 218.939 395.78 219.04 396.292 219.04H397.316V220H396.116C395.326 220 394.74 219.819 394.356 219.456C393.972 219.083 393.78 218.475 393.78 217.632V212.208H392.564V211.264H393.78V209.072H394.916V211.264H397.316V212.208H394.916ZM399.723 209.616C399.499 209.616 399.307 209.536 399.147 209.376C398.987 209.216 398.907 209.019 398.907 208.784C398.907 208.549 398.987 208.357 399.147 208.208C399.307 208.048 399.499 207.968 399.723 207.968C399.947 207.968 400.139 208.048 400.299 208.208C400.459 208.357 400.539 208.549 400.539 208.784C400.539 209.019 400.459 209.216 400.299 209.376C400.139 209.536 399.947 209.616 399.723 209.616ZM400.283 211.264V220H399.163V211.264H400.283ZM402.307 215.632C402.307 214.725 402.488 213.936 402.851 213.264C403.214 212.581 403.715 212.059 404.355 211.696C404.995 211.323 405.726 211.136 406.547 211.136C407.624 211.136 408.51 211.403 409.203 211.936C409.907 212.469 410.36 213.195 410.563 214.112H409.363C409.214 213.483 408.888 212.992 408.387 212.64C407.896 212.277 407.283 212.096 406.547 212.096C405.96 212.096 405.432 212.229 404.963 212.496C404.494 212.763 404.12 213.163 403.843 213.696C403.576 214.219 403.443 214.864 403.443 215.632C403.443 216.4 403.576 217.051 403.843 217.584C404.12 218.117 404.494 218.517 404.963 218.784C405.432 219.051 405.96 219.184 406.547 219.184C407.283 219.184 407.896 219.008 408.387 218.656C408.888 218.293 409.214 217.792 409.363 217.152H410.563C410.36 218.048 409.907 218.768 409.203 219.312C408.499 219.856 407.614 220.128 406.547 220.128C405.726 220.128 404.995 219.947 404.355 219.584C403.715 219.211 403.214 218.688 402.851 218.016C402.488 217.333 402.307 216.539 402.307 215.632ZM412.12 215.616C412.12 214.72 412.296 213.936 412.648 213.264C413.01 212.581 413.506 212.059 414.136 211.696C414.776 211.323 415.496 211.136 416.296 211.136C417.128 211.136 417.842 211.328 418.44 211.712C419.048 212.096 419.485 212.587 419.752 213.184V211.264H420.872V220H419.752V218.064C419.474 218.661 419.032 219.157 418.424 219.552C417.826 219.936 417.112 220.128 416.28 220.128C415.49 220.128 414.776 219.941 414.136 219.568C413.506 219.195 413.01 218.667 412.648 217.984C412.296 217.301 412.12 216.512 412.12 215.616ZM419.752 215.632C419.752 214.928 419.608 214.309 419.32 213.776C419.032 213.243 418.637 212.832 418.136 212.544C417.645 212.256 417.101 212.112 416.504 212.112C415.885 212.112 415.33 212.251 414.84 212.528C414.349 212.805 413.96 213.211 413.672 213.744C413.394 214.267 413.256 214.891 413.256 215.616C413.256 216.331 413.394 216.96 413.672 217.504C413.96 218.037 414.349 218.448 414.84 218.736C415.33 219.013 415.885 219.152 416.504 219.152C417.101 219.152 417.645 219.008 418.136 218.72C418.637 218.432 419.032 218.021 419.32 217.488C419.608 216.955 419.752 216.336 419.752 215.632ZM435.723 215.184C435.723 215.568 435.712 215.861 435.691 216.064H428.443C428.475 216.725 428.635 217.291 428.923 217.76C429.211 218.229 429.59 218.587 430.059 218.832C430.528 219.067 431.04 219.184 431.595 219.184C432.32 219.184 432.928 219.008 433.419 218.656C433.92 218.304 434.251 217.829 434.411 217.232H435.595C435.382 218.085 434.923 218.784 434.219 219.328C433.526 219.861 432.651 220.128 431.595 220.128C430.774 220.128 430.038 219.947 429.387 219.584C428.736 219.211 428.224 218.688 427.851 218.016C427.488 217.333 427.307 216.539 427.307 215.632C427.307 214.725 427.488 213.931 427.851 213.248C428.214 212.565 428.72 212.043 429.371 211.68C430.022 211.317 430.763 211.136 431.595 211.136C432.427 211.136 433.152 211.317 433.771 211.68C434.4 212.043 434.88 212.533 435.211 213.152C435.552 213.76 435.723 214.437 435.723 215.184ZM434.587 215.152C434.598 214.501 434.464 213.947 434.187 213.488C433.92 213.029 433.552 212.683 433.083 212.448C432.614 212.213 432.102 212.096 431.547 212.096C430.715 212.096 430.006 212.363 429.419 212.896C428.832 213.429 428.507 214.181 428.443 215.152H434.587ZM443.283 212.816C443.528 212.272 443.901 211.851 444.403 211.552C444.915 211.253 445.539 211.104 446.275 211.104V212.272H445.971C445.16 212.272 444.509 212.491 444.019 212.928C443.528 213.365 443.283 214.096 443.283 215.12V220H442.163V211.264H443.283V212.816ZM455.864 215.184C455.864 215.568 455.853 215.861 455.832 216.064H448.584C448.616 216.725 448.776 217.291 449.064 217.76C449.352 218.229 449.73 218.587 450.2 218.832C450.669 219.067 451.181 219.184 451.736 219.184C452.461 219.184 453.069 219.008 453.56 218.656C454.061 218.304 454.392 217.829 454.552 217.232H455.736C455.522 218.085 455.064 218.784 454.36 219.328C453.666 219.861 452.792 220.128 451.736 220.128C450.914 220.128 450.178 219.947 449.528 219.584C448.877 219.211 448.365 218.688 447.992 218.016C447.629 217.333 447.448 216.539 447.448 215.632C447.448 214.725 447.629 213.931 447.992 213.248C448.354 212.565 448.861 212.043 449.512 211.68C450.162 211.317 450.904 211.136 451.736 211.136C452.568 211.136 453.293 211.317 453.912 211.68C454.541 212.043 455.021 212.533 455.352 213.152C455.693 213.76 455.864 214.437 455.864 215.184ZM454.728 215.152C454.738 214.501 454.605 213.947 454.328 213.488C454.061 213.029 453.693 212.683 453.224 212.448C452.754 212.213 452.242 212.096 451.688 212.096C450.856 212.096 450.146 212.363 449.56 212.896C448.973 213.429 448.648 214.181 448.584 215.152H454.728ZM468.313 211.104C469.337 211.104 470.169 211.429 470.809 212.08C471.459 212.72 471.785 213.653 471.785 214.88V220H470.681V215.008C470.681 214.059 470.451 213.333 469.993 212.832C469.534 212.331 468.91 212.08 468.121 212.08C467.299 212.08 466.643 212.352 466.153 212.896C465.662 213.44 465.417 214.229 465.417 215.264V220H464.313V215.008C464.313 214.059 464.083 213.333 463.625 212.832C463.166 212.331 462.537 212.08 461.737 212.08C460.915 212.08 460.259 212.352 459.769 212.896C459.278 213.44 459.033 214.229 459.033 215.264V220H457.913V211.264H459.033V212.768C459.31 212.224 459.705 211.813 460.217 211.536C460.729 211.248 461.299 211.104 461.929 211.104C462.686 211.104 463.347 211.285 463.913 211.648C464.489 212.011 464.905 212.544 465.161 213.248C465.395 212.555 465.795 212.027 466.361 211.664C466.937 211.291 467.587 211.104 468.313 211.104ZM478.096 220.128C477.275 220.128 476.534 219.947 475.872 219.584C475.222 219.211 474.704 218.688 474.32 218.016C473.947 217.333 473.76 216.539 473.76 215.632C473.76 214.725 473.952 213.936 474.336 213.264C474.72 212.581 475.243 212.059 475.904 211.696C476.566 211.323 477.307 211.136 478.128 211.136C478.95 211.136 479.691 211.323 480.352 211.696C481.024 212.059 481.547 212.581 481.92 213.264C482.304 213.936 482.496 214.725 482.496 215.632C482.496 216.528 482.304 217.317 481.92 218C481.536 218.683 481.008 219.211 480.336 219.584C479.664 219.947 478.918 220.128 478.096 220.128ZM478.096 219.152C478.672 219.152 479.206 219.024 479.696 218.768C480.187 218.501 480.582 218.107 480.88 217.584C481.19 217.051 481.344 216.4 481.344 215.632C481.344 214.864 481.195 214.219 480.896 213.696C480.598 213.163 480.203 212.768 479.712 212.512C479.222 212.245 478.688 212.112 478.112 212.112C477.536 212.112 477.003 212.245 476.512 212.512C476.022 212.768 475.627 213.163 475.328 213.696C475.04 214.219 474.896 214.864 474.896 215.632C474.896 216.4 475.04 217.051 475.328 217.584C475.627 218.107 476.016 218.501 476.496 218.768C476.987 219.024 477.52 219.152 478.096 219.152ZM485.994 212.208V217.632C485.994 218.165 486.095 218.533 486.298 218.736C486.5 218.939 486.858 219.04 487.37 219.04H488.394V220H487.194C486.404 220 485.818 219.819 485.434 219.456C485.05 219.083 484.858 218.475 484.858 217.632V212.208H483.642V211.264H484.858V209.072H485.994V211.264H488.394V212.208H485.994ZM489.729 215.616C489.729 214.72 489.905 213.936 490.257 213.264C490.62 212.581 491.116 212.059 491.745 211.696C492.385 211.323 493.105 211.136 493.905 211.136C494.737 211.136 495.452 211.328 496.049 211.712C496.657 212.096 497.094 212.587 497.361 213.184V211.264H498.481V220H497.361V218.064C497.084 218.661 496.641 219.157 496.033 219.552C495.436 219.936 494.721 220.128 493.889 220.128C493.1 220.128 492.385 219.941 491.745 219.568C491.116 219.195 490.62 218.667 490.257 217.984C489.905 217.301 489.729 216.512 489.729 215.616ZM497.361 215.632C497.361 214.928 497.217 214.309 496.929 213.776C496.641 213.243 496.246 212.832 495.745 212.544C495.254 212.256 494.71 212.112 494.113 212.112C493.494 212.112 492.94 212.251 492.449 212.528C491.958 212.805 491.569 213.211 491.281 213.744C491.004 214.267 490.865 214.891 490.865 215.616C490.865 216.331 491.004 216.96 491.281 217.504C491.569 218.037 491.958 218.448 492.449 218.736C492.94 219.013 493.494 219.152 494.113 219.152C494.71 219.152 495.254 219.008 495.745 218.72C496.246 218.432 496.641 218.021 496.929 217.488C497.217 216.955 497.361 216.336 497.361 215.632Z" fill="white"/>
<path d="M158.463 191.924H145.625L143.567 198H134.796L147.242 163.602H156.944L169.39 198H160.521L158.463 191.924ZM156.307 185.456L152.044 172.863L147.83 185.456H156.307ZM181.557 174.529C182.374 173.255 183.501 172.226 184.938 171.442C186.375 170.658 188.058 170.266 189.985 170.266C192.239 170.266 194.281 170.838 196.11 171.981C197.939 173.124 199.377 174.758 200.422 176.881C201.5 179.004 202.039 181.471 202.039 184.28C202.039 187.089 201.5 189.572 200.422 191.728C199.377 193.851 197.939 195.501 196.11 196.677C194.281 197.82 192.239 198.392 189.985 198.392C188.09 198.392 186.408 198 184.938 197.216C183.501 196.432 182.374 195.419 181.557 194.178V211.034H173.178V170.658H181.557V174.529ZM193.513 184.28C193.513 182.189 192.925 180.556 191.749 179.38C190.606 178.171 189.185 177.567 187.486 177.567C185.82 177.567 184.399 178.171 183.223 179.38C182.08 180.589 181.508 182.238 181.508 184.329C181.508 186.42 182.08 188.069 183.223 189.278C184.399 190.487 185.82 191.091 187.486 191.091C189.152 191.091 190.573 190.487 191.749 189.278C192.925 188.037 193.513 186.371 193.513 184.28ZM214.814 175.215C215.794 173.712 217.019 172.536 218.489 171.687C219.959 170.805 221.592 170.364 223.389 170.364V179.233H221.086C218.995 179.233 217.427 179.69 216.382 180.605C215.337 181.487 214.814 183.055 214.814 185.309V198H206.435V170.658H214.814V175.215ZM253.168 183.888C253.168 184.672 253.119 185.489 253.021 186.338H234.058C234.189 188.037 234.728 189.343 235.675 190.258C236.655 191.14 237.847 191.581 239.252 191.581C241.343 191.581 242.796 190.699 243.613 188.935H252.531C252.074 190.732 251.241 192.349 250.032 193.786C248.856 195.223 247.37 196.35 245.573 197.167C243.776 197.984 241.767 198.392 239.546 198.392C236.867 198.392 234.483 197.82 232.392 196.677C230.301 195.534 228.668 193.9 227.492 191.777C226.316 189.654 225.728 187.171 225.728 184.329C225.728 181.487 226.3 179.004 227.443 176.881C228.619 174.758 230.252 173.124 232.343 171.981C234.434 170.838 236.835 170.266 239.546 170.266C242.192 170.266 244.544 170.821 246.602 171.932C248.66 173.043 250.261 174.627 251.404 176.685C252.58 178.743 253.168 181.144 253.168 183.888ZM244.593 181.683C244.593 180.246 244.103 179.102 243.123 178.253C242.143 177.404 240.918 176.979 239.448 176.979C238.043 176.979 236.851 177.387 235.871 178.204C234.924 179.021 234.336 180.18 234.107 181.683H244.593ZM274.248 170.364C277.45 170.364 279.998 171.409 281.892 173.5C283.82 175.558 284.783 178.4 284.783 182.026V198H276.453V183.153C276.453 181.324 275.98 179.903 275.032 178.89C274.085 177.877 272.811 177.371 271.21 177.371C269.61 177.371 268.336 177.877 267.388 178.89C266.441 179.903 265.967 181.324 265.967 183.153V198H257.588V170.658H265.967V174.284C266.817 173.075 267.96 172.128 269.397 171.442C270.835 170.723 272.452 170.364 274.248 170.364ZM288.94 184.28C288.94 181.471 289.463 179.004 290.508 176.881C291.586 174.758 293.04 173.124 294.869 171.981C296.698 170.838 298.74 170.266 300.994 170.266C302.791 170.266 304.424 170.642 305.894 171.393C307.397 172.144 308.573 173.157 309.422 174.431V161.74H317.801V198H309.422V194.08C308.638 195.387 307.511 196.432 306.041 197.216C304.604 198 302.921 198.392 300.994 198.392C298.74 198.392 296.698 197.82 294.869 196.677C293.04 195.501 291.586 193.851 290.508 191.728C289.463 189.572 288.94 187.089 288.94 184.28ZM309.422 184.329C309.422 182.238 308.834 180.589 307.658 179.38C306.515 178.171 305.11 177.567 303.444 177.567C301.778 177.567 300.357 178.171 299.181 179.38C298.038 180.556 297.466 182.189 297.466 184.28C297.466 186.371 298.038 188.037 299.181 189.278C300.357 190.487 301.778 191.091 303.444 191.091C305.11 191.091 306.515 190.487 307.658 189.278C308.834 188.069 309.422 186.42 309.422 184.329ZM322.197 184.28C322.197 181.471 322.719 179.004 323.765 176.881C324.843 174.758 326.296 173.124 328.126 171.981C329.955 170.838 331.997 170.266 334.251 170.266C336.178 170.266 337.86 170.658 339.298 171.442C340.768 172.226 341.895 173.255 342.679 174.529V170.658H351.058V198H342.679V194.129C341.862 195.403 340.719 196.432 339.249 197.216C337.811 198 336.129 198.392 334.202 198.392C331.98 198.392 329.955 197.82 328.126 196.677C326.296 195.501 324.843 193.851 323.765 191.728C322.719 189.572 322.197 187.089 322.197 184.28ZM342.679 184.329C342.679 182.238 342.091 180.589 340.915 179.38C339.771 178.171 338.367 177.567 336.701 177.567C335.035 177.567 333.614 178.171 332.438 179.38C331.294 180.556 330.723 182.189 330.723 184.28C330.723 186.371 331.294 188.037 332.438 189.278C333.614 190.487 335.035 191.091 336.701 191.091C338.367 191.091 339.771 190.487 340.915 189.278C342.091 188.069 342.679 186.42 342.679 184.329ZM375.882 174.529C376.666 173.255 377.793 172.226 379.263 171.442C380.733 170.658 382.416 170.266 384.31 170.266C386.564 170.266 388.606 170.838 390.435 171.981C392.265 173.124 393.702 174.758 394.747 176.881C395.825 179.004 396.364 181.471 396.364 184.28C396.364 187.089 395.825 189.572 394.747 191.728C393.702 193.851 392.265 195.501 390.435 196.677C388.606 197.82 386.564 198.392 384.31 198.392C382.383 198.392 380.701 198.016 379.263 197.265C377.826 196.481 376.699 195.452 375.882 194.178V198H367.503V161.74H375.882V174.529ZM387.838 184.28C387.838 182.189 387.25 180.556 386.074 179.38C384.931 178.171 383.51 177.567 381.811 177.567C380.145 177.567 378.724 178.171 377.548 179.38C376.405 180.589 375.833 182.238 375.833 184.329C375.833 186.42 376.405 188.069 377.548 189.278C378.724 190.487 380.145 191.091 381.811 191.091C383.477 191.091 384.898 190.487 386.074 189.278C387.25 188.037 387.838 186.371 387.838 184.28ZM404.974 167.816C403.504 167.816 402.296 167.391 401.348 166.542C400.434 165.66 399.976 164.582 399.976 163.308C399.976 162.001 400.434 160.923 401.348 160.074C402.296 159.192 403.504 158.751 404.974 158.751C406.412 158.751 407.588 159.192 408.502 160.074C409.45 160.923 409.923 162.001 409.923 163.308C409.923 164.582 409.45 165.66 408.502 166.542C407.588 167.391 406.412 167.816 404.974 167.816ZM409.139 170.658V198H400.76V170.658H409.139ZM427.657 198.392C424.979 198.392 422.561 197.82 420.405 196.677C418.282 195.534 416.6 193.9 415.358 191.777C414.15 189.654 413.545 187.171 413.545 184.329C413.545 181.52 414.166 179.053 415.407 176.93C416.649 174.774 418.347 173.124 420.503 171.981C422.659 170.838 425.077 170.266 427.755 170.266C430.434 170.266 432.851 170.838 435.007 171.981C437.163 173.124 438.862 174.774 440.103 176.93C441.345 179.053 441.965 181.52 441.965 184.329C441.965 187.138 441.328 189.621 440.054 191.777C438.813 193.9 437.098 195.534 434.909 196.677C432.753 197.82 430.336 198.392 427.657 198.392ZM427.657 191.14C429.258 191.14 430.614 190.552 431.724 189.376C432.868 188.2 433.439 186.518 433.439 184.329C433.439 182.14 432.884 180.458 431.773 179.282C430.695 178.106 429.356 177.518 427.755 177.518C426.122 177.518 424.766 178.106 423.688 179.282C422.61 180.425 422.071 182.108 422.071 184.329C422.071 186.518 422.594 188.2 423.639 189.376C424.717 190.552 426.057 191.14 427.657 191.14ZM454.79 161.74V198H446.411V161.74H454.79ZM473.308 198.392C470.629 198.392 468.212 197.82 466.056 196.677C463.932 195.534 462.25 193.9 461.009 191.777C459.8 189.654 459.196 187.171 459.196 184.329C459.196 181.52 459.816 179.053 461.058 176.93C462.299 174.774 463.998 173.124 466.154 171.981C468.31 170.838 470.727 170.266 473.406 170.266C476.084 170.266 478.502 170.838 480.658 171.981C482.814 173.124 484.512 174.774 485.754 176.93C486.995 179.053 487.616 181.52 487.616 184.329C487.616 187.138 486.979 189.621 485.705 191.777C484.463 193.9 482.748 195.534 480.56 196.677C478.404 197.82 475.986 198.392 473.308 198.392ZM473.308 191.14C474.908 191.14 476.264 190.552 477.375 189.376C478.518 188.2 479.09 186.518 479.09 184.329C479.09 182.14 478.534 180.458 477.424 179.282C476.346 178.106 475.006 177.518 473.406 177.518C471.772 177.518 470.417 178.106 469.339 179.282C468.261 180.425 467.722 182.108 467.722 184.329C467.722 186.518 468.244 188.2 469.29 189.376C470.368 190.552 471.707 191.14 473.308 191.14ZM502.449 170.266C504.376 170.266 506.059 170.658 507.496 171.442C508.966 172.226 510.093 173.255 510.877 174.529V170.658H519.256V197.951C519.256 200.466 518.75 202.737 517.737 204.762C516.757 206.82 515.238 208.453 513.18 209.662C511.155 210.871 508.623 211.475 505.585 211.475C501.534 211.475 498.251 210.511 495.736 208.584C493.221 206.689 491.783 204.109 491.424 200.842H499.705C499.966 201.887 500.587 202.704 501.567 203.292C502.547 203.913 503.756 204.223 505.193 204.223C506.924 204.223 508.296 203.717 509.309 202.704C510.354 201.724 510.877 200.14 510.877 197.951V194.08C510.06 195.354 508.933 196.399 507.496 197.216C506.059 198 504.376 198.392 502.449 198.392C500.195 198.392 498.153 197.82 496.324 196.677C494.495 195.501 493.041 193.851 491.963 191.728C490.918 189.572 490.395 187.089 490.395 184.28C490.395 181.471 490.918 179.004 491.963 176.881C493.041 174.758 494.495 173.124 496.324 171.981C498.153 170.838 500.195 170.266 502.449 170.266ZM510.877 184.329C510.877 182.238 510.289 180.589 509.113 179.38C507.97 178.171 506.565 177.567 504.899 177.567C503.233 177.567 501.812 178.171 500.636 179.38C499.493 180.556 498.921 182.189 498.921 184.28C498.921 186.371 499.493 188.037 500.636 189.278C501.812 190.487 503.233 191.091 504.899 191.091C506.565 191.091 507.97 190.487 509.113 189.278C510.289 188.069 510.877 186.42 510.877 184.329ZM529.532 167.816C528.062 167.816 526.853 167.391 525.906 166.542C524.991 165.66 524.534 164.582 524.534 163.308C524.534 162.001 524.991 160.923 525.906 160.074C526.853 159.192 528.062 158.751 529.532 158.751C530.969 158.751 532.145 159.192 533.06 160.074C534.007 160.923 534.481 162.001 534.481 163.308C534.481 164.582 534.007 165.66 533.06 166.542C532.145 167.391 530.969 167.816 529.532 167.816ZM533.697 170.658V198H525.318V170.658H533.697ZM538.103 184.28C538.103 181.471 538.626 179.004 539.671 176.881C540.749 174.758 542.203 173.124 544.032 171.981C545.861 170.838 547.903 170.266 550.157 170.266C552.084 170.266 553.767 170.658 555.204 171.442C556.674 172.226 557.801 173.255 558.585 174.529V170.658H566.964V198H558.585V194.129C557.768 195.403 556.625 196.432 555.155 197.216C553.718 198 552.035 198.392 550.108 198.392C547.887 198.392 545.861 197.82 544.032 196.677C542.203 195.501 540.749 193.851 539.671 191.728C538.626 189.572 538.103 187.089 538.103 184.28ZM558.585 184.329C558.585 182.238 557.997 180.589 556.821 179.38C555.678 178.171 554.273 177.567 552.607 177.567C550.941 177.567 549.52 178.171 548.344 179.38C547.201 180.556 546.629 182.189 546.629 184.28C546.629 186.371 547.201 188.037 548.344 189.278C549.52 190.487 550.941 191.091 552.607 191.091C554.273 191.091 555.678 190.487 556.821 189.278C557.997 188.069 558.585 186.42 558.585 184.329Z" fill="white"/>
<path d="M350.576 327.264C348.583 330.069 344.417 330.069 342.424 327.264L330.893 311.037C328.541 307.726 330.908 303.141 334.969 303.141H358.031C362.092 303.141 364.459 307.726 362.107 311.037L350.576 327.264Z" fill="white"/>
<path d="M350.576 378.264C348.583 381.069 344.417 381.069 342.424 378.264L330.893 362.037C328.541 358.726 330.908 354.141 334.969 354.141H358.031C362.092 354.141 364.459 358.726 362.107 362.037L350.576 378.264Z" fill="white"/>
<path d="M349.576 277.077C347.583 279.882 343.417 279.882 341.424 277.077L329.893 260.849C327.541 257.539 329.908 252.953 333.969 252.953H357.031C361.092 252.953 363.459 257.539 361.107 260.849L349.576 277.077Z" fill="white"/>
<path d="M528.71 299.507C517.575 299.507 508.816 298.78 500.487 298.09C496.953 297.796 493.496 297.51 489.968 297.288C478.139 296.544 465.671 296.545 447.183 299.519C438.631 300.895 432.886 304.608 428.708 309.414C424.56 314.186 421.988 320.004 419.707 325.512C419.489 326.038 419.274 326.561 419.061 327.079C417.015 332.052 415.131 336.632 412.44 340.103C409.535 343.85 405.71 346.27 399.644 346.27C386.214 346.27 376.347 344.601 369.083 341.438C361.853 338.29 357.169 333.648 354.103 327.594C351.018 321.505 349.546 313.939 348.857 304.918C348.247 296.927 348.256 287.879 348.266 277.798C348.268 276.5 348.269 275.184 348.269 273.852C348.269 262.365 351.104 253.694 356.109 247.114C361.121 240.525 368.38 235.939 377.392 232.758C395.471 226.379 420.309 225.75 447.342 225.75C462.721 225.75 490.16 227.23 515.234 232.047C527.774 234.457 539.678 237.693 549.174 241.973C558.706 246.269 565.627 251.535 568.482 257.894C572.817 267.552 570.708 277.893 563.615 285.873C556.511 293.866 544.374 299.507 528.71 299.507Z" stroke="white" stroke-opacity="0.1" stroke-width="2"/>
<path d="M535.192 181.728C535.192 187.456 534.217 191.634 532.497 194.616C530.793 197.569 528.317 199.424 525.138 200.448C521.927 201.482 517.982 201.673 513.386 201.224C508.798 200.776 503.628 199.697 498 198.245C492.374 196.794 486.323 194.979 479.969 193.065L479.396 192.893C473.223 191.033 466.774 189.091 460.193 187.32C446.631 183.669 432.446 180.728 418.817 180.728C391.86 180.728 367.028 177.77 348.967 169.086C339.953 164.751 332.66 159.006 327.617 151.52C322.578 144.04 319.743 134.759 319.743 123.274C319.743 100.426 332.945 83.6455 352.976 72.5258C373.032 61.3922 399.847 56 426.729 56C441.59 56 451.191 65.9483 458.645 79.5652C462.367 86.3633 465.514 94.0081 468.492 101.66C469.181 103.43 469.861 105.201 470.537 106.961C472.776 112.793 474.972 118.513 477.293 123.684C479.65 128.933 484.557 133.973 490.436 138.851C495.219 142.819 500.737 146.751 506.205 150.648C507.476 151.554 508.745 152.458 510.001 153.36C516.689 158.163 523.024 162.914 527.686 167.689C532.37 172.487 535.192 177.137 535.192 181.728Z" stroke="white" stroke-opacity="0.1" stroke-width="2"/>
<path d="M328.499 217.781C328.499 240.411 311.069 254.189 285.535 262.334C260.04 270.467 226.885 272.821 196.371 272.821C193 272.821 189.771 272.829 186.678 272.837C175.74 272.865 166.507 272.889 158.718 272.524C148.715 272.054 141.238 270.946 135.69 268.457C130.212 266 126.576 262.178 124.279 256.12C121.958 249.997 121 241.577 121 229.948C121 206.99 136.221 176.345 159.179 151.385C182.127 126.435 212.554 107.439 242.695 107.439C251.146 107.439 256.766 110.374 260.734 115.121C264.749 119.924 267.139 126.666 268.898 134.399C270.022 139.34 270.869 144.588 271.732 149.925C272.222 152.961 272.717 156.026 273.27 159.08C274.785 167.438 276.725 175.633 280.197 182.472C282.876 187.748 287.369 191.373 292.483 194.159C297.08 196.664 302.262 198.533 307.18 200.307C307.718 200.501 308.252 200.694 308.783 200.887C314.218 202.859 319.176 204.776 322.783 207.398C326.335 209.979 328.499 213.182 328.499 217.781Z" stroke="white" stroke-opacity="0.1" stroke-width="2"/>
<path d="M107 119L113.752 137.248L132 144L113.752 150.752L107 169L100.248 150.752L82 144L100.248 137.248L107 119Z" fill="white"/>
<path d="M599 143L604.132 156.868L618 162L604.132 167.132L599 181L593.868 167.132L580 162L593.868 156.868L599 143Z" fill="white"/>
<path d="M554.5 99L561.387 117.613L580 124.5L561.387 131.387L554.5 150L547.613 131.387L529 124.5L547.613 117.613L554.5 99Z" fill="white"/>
<defs>
<filter id="filter0_f_3_62" x="0" y="0" width="692" height="392" filterUnits="userSpaceOnUse" color-interpolation-filters="sRGB">
<feFlood flood-opacity="0" result="BackgroundImageFix"/>
<feBlend mode="normal" in="SourceGraphic" in2="BackgroundImageFix" result="shape"/>
<feGaussianBlur stdDeviation="59.5" result="effect1_foregroundBlur_3_62"/>
</filter>
</defs>
</svg>
