<svg width="232" height="96" viewBox="0 0 232 96" fill="none" xmlns="http://www.w3.org/2000/svg">
<rect x="0.5" width="231" height="96" rx="19" fill="#834105"/>
<path d="M176.196 18.412C176.244 17.668 176.528 17.088 177.048 16.672C177.576 16.256 178.248 16.048 179.064 16.048C179.624 16.048 180.108 16.148 180.516 16.348C180.924 16.548 181.232 16.82 181.44 17.164C181.648 17.508 181.752 17.896 181.752 18.328C181.752 18.824 181.62 19.248 181.356 19.6C181.092 19.952 180.776 20.188 180.408 20.308V20.356C180.88 20.5 181.248 20.764 181.512 21.148C181.776 21.524 181.908 22.008 181.908 22.6C181.908 23.072 181.8 23.492 181.584 23.86C181.368 24.228 181.048 24.52 180.624 24.736C180.2 24.944 179.692 25.048 179.1 25.048C178.236 25.048 177.524 24.828 176.964 24.388C176.412 23.94 176.116 23.3 176.076 22.468H177.396C177.428 22.892 177.592 23.24 177.888 23.512C178.184 23.776 178.584 23.908 179.088 23.908C179.576 23.908 179.952 23.776 180.216 23.512C180.48 23.24 180.612 22.892 180.612 22.468C180.612 21.908 180.432 21.512 180.072 21.28C179.72 21.04 179.176 20.92 178.44 20.92H178.128V19.792H178.452C179.1 19.784 179.592 19.676 179.928 19.468C180.272 19.26 180.444 18.932 180.444 18.484C180.444 18.1 180.32 17.796 180.072 17.572C179.824 17.34 179.472 17.224 179.016 17.224C178.568 17.224 178.22 17.34 177.972 17.572C177.724 17.796 177.576 18.076 177.528 18.412H176.196ZM183.345 20.512C183.345 19.128 183.577 18.048 184.041 17.272C184.513 16.488 185.321 16.096 186.465 16.096C187.609 16.096 188.413 16.488 188.877 17.272C189.349 18.048 189.585 19.128 189.585 20.512C189.585 21.912 189.349 23.008 188.877 23.8C188.413 24.584 187.609 24.976 186.465 24.976C185.321 24.976 184.513 24.584 184.041 23.8C183.577 23.008 183.345 21.912 183.345 20.512ZM188.241 20.512C188.241 19.864 188.197 19.316 188.109 18.868C188.029 18.42 187.861 18.056 187.605 17.776C187.349 17.488 186.969 17.344 186.465 17.344C185.961 17.344 185.581 17.488 185.325 17.776C185.069 18.056 184.897 18.42 184.809 18.868C184.729 19.316 184.689 19.864 184.689 20.512C184.689 21.184 184.729 21.748 184.809 22.204C184.889 22.66 185.057 23.028 185.313 23.308C185.577 23.588 185.961 23.728 186.465 23.728C186.969 23.728 187.349 23.588 187.605 23.308C187.869 23.028 188.041 22.66 188.121 22.204C188.201 21.748 188.241 21.184 188.241 20.512ZM199.217 18.28C199.737 18.28 200.201 18.388 200.609 18.604C201.025 18.82 201.349 19.14 201.581 19.564C201.821 19.988 201.941 20.5 201.941 21.1V25H200.585V21.304C200.585 20.712 200.437 20.26 200.141 19.948C199.845 19.628 199.441 19.468 198.929 19.468C198.417 19.468 198.009 19.628 197.705 19.948C197.409 20.26 197.261 20.712 197.261 21.304V25H195.905V21.304C195.905 20.712 195.757 20.26 195.461 19.948C195.165 19.628 194.761 19.468 194.249 19.468C193.737 19.468 193.329 19.628 193.025 19.948C192.729 20.26 192.581 20.712 192.581 21.304V25H191.213V18.388H192.581V19.144C192.805 18.872 193.089 18.66 193.433 18.508C193.777 18.356 194.145 18.28 194.537 18.28C195.065 18.28 195.537 18.392 195.953 18.616C196.369 18.84 196.689 19.164 196.913 19.588C197.113 19.188 197.425 18.872 197.849 18.64C198.273 18.4 198.729 18.28 199.217 18.28ZM204.377 17.512C204.129 17.512 203.921 17.428 203.753 17.26C203.585 17.092 203.501 16.884 203.501 16.636C203.501 16.388 203.585 16.18 203.753 16.012C203.921 15.844 204.129 15.76 204.377 15.76C204.617 15.76 204.821 15.844 204.989 16.012C205.157 16.18 205.241 16.388 205.241 16.636C205.241 16.884 205.157 17.092 204.989 17.26C204.821 17.428 204.617 17.512 204.377 17.512ZM205.049 18.388V25H203.681V18.388H205.049ZM210.181 18.28C210.701 18.28 211.165 18.388 211.573 18.604C211.989 18.82 212.313 19.14 212.545 19.564C212.777 19.988 212.893 20.5 212.893 21.1V25H211.537V21.304C211.537 20.712 211.389 20.26 211.093 19.948C210.797 19.628 210.393 19.468 209.881 19.468C209.369 19.468 208.961 19.628 208.657 19.948C208.361 20.26 208.213 20.712 208.213 21.304V25H206.845V18.388H208.213V19.144C208.437 18.872 208.721 18.66 209.065 18.508C209.417 18.356 209.789 18.28 210.181 18.28Z" fill="#FEBD59"/>
<circle cx="34" cy="24.5" r="13.5" fill="#979A2B"/>
<rect x="20.5" y="54" width="36" height="32" rx="5" fill="#BA5F04"/>
<path d="M42.5 67.768C43.8333 68.5378 43.8333 70.4623 42.5 71.2321L37.25 74.2631C35.9167 75.0329 34.25 74.0707 34.25 72.5311V66.4689C34.25 64.9293 35.9167 63.9671 37.25 64.7369L42.5 67.768Z" fill="#814507"/>
<path d="M24.5 82H52.5" stroke="#814507" stroke-width="4" stroke-linecap="round"/>
<rect x="65.5" y="54" width="36" height="32" rx="5" fill="#BA5F04"/>
<path d="M92.5 78L94.5 80M96.5 82L94.5 80M94.5 80L92.5 82M94.5 80L96.5 78" stroke="#814507" stroke-width="3" stroke-linecap="round"/>
<path d="M70.5 59H96.5" stroke="#814507" stroke-width="4" stroke-linecap="round"/>
<path d="M70.5 65H96.5" stroke="#814507" stroke-width="4" stroke-linecap="round"/>
<path d="M70.5 71H87.5" stroke="#814507" stroke-width="4" stroke-linecap="round"/>
<circle cx="94.5" cy="72" r="3" fill="#814507"/>
<rect x="111.254" y="53.6876" width="36" height="32" rx="5" fill="#BA5F04"/>
<rect x="119.033" y="69.745" width="17" height="9" transform="rotate(-20.5368 119.033 69.745)" fill="#814507"/>
<circle cx="119.963" cy="76.3827" r="7.54183" transform="rotate(-20.5368 119.963 76.3827)" fill="#814507"/>
<circle cx="138.672" cy="69.267" r="7.44171" transform="rotate(-20.5368 138.672 69.267)" fill="#814507"/>
<circle cx="117.92" cy="73.8997" r="1.5" transform="rotate(-20.5368 117.92 73.8997)" fill="#BA5F04"/>
<circle cx="116.514" cy="78.6978" r="1.5" transform="rotate(-20.5368 116.514 78.6978)" fill="#BA5F04"/>
<circle cx="121.312" cy="80.1039" r="1.5" transform="rotate(-20.5368 121.312 80.1039)" fill="#BA5F04"/>
<circle cx="122.718" cy="75.3057" r="1.5" transform="rotate(-20.5368 122.718 75.3057)" fill="#BA5F04"/>
<path d="M136.356 67.5271L138.93 68.6984M141.505 69.8696L138.93 68.6984M138.93 68.6984L137.759 71.2729M138.93 68.6984L140.102 66.1239" stroke="#BA5F04" stroke-width="3" stroke-linecap="round"/>
<path d="M127.754 68.6876L121.864 64.5297C120.469 63.5449 120.233 61.5688 121.358 60.2837V60.2837C122.188 59.3346 123.54 59.0368 124.692 59.5489L125.866 60.0707C126.739 60.4585 127.744 60.4078 128.573 59.934L130.754 58.6876" stroke="#814507" stroke-width="4" stroke-linecap="round"/>
</svg>
