<svg width="305" height="82" viewBox="0 0 305 82" fill="none" xmlns="http://www.w3.org/2000/svg">
<path d="M85.7359 41C85.7359 61.7107 68.9465 78.5 48.2359 78.5C27.5252 78.5 10.7359 61.7107 10.7359 41C10.7359 20.2893 27.5252 3.5 48.2359 3.5C68.9465 3.5 85.7359 20.2893 85.7359 41Z" stroke="#BA5F04" stroke-width="7"/>
<rect x="43.412" y="13.2817" width="62.7059" height="55.9886" fill="#979A2B"/>
<path d="M58.9719 41.4164C60.8832 41.8238 62.4186 42.7794 63.5779 44.2834C64.7372 45.7561 65.3169 47.4481 65.3169 49.3594C65.3169 52.1168 64.3456 54.3101 62.4029 55.9394C60.4916 57.5374 57.8126 58.3364 54.3659 58.3364H38.9969V25.3424H53.8489C57.2016 25.3424 59.8179 26.1101 61.6979 27.6454C63.6092 29.1808 64.5649 31.2644 64.5649 33.8964C64.5649 35.8391 64.0479 37.4528 63.0139 38.7374C62.0112 40.0221 60.6639 40.9151 58.9719 41.4164ZM47.0339 38.6904H52.2979C53.6139 38.6904 54.6166 38.4084 55.3059 37.8444C56.0266 37.2491 56.3869 36.3874 56.3869 35.2594C56.3869 34.1314 56.0266 33.2698 55.3059 32.6744C54.6166 32.0791 53.6139 31.7814 52.2979 31.7814H47.0339V38.6904ZM52.9559 51.8504C54.3032 51.8504 55.3372 51.5528 56.0579 50.9574C56.8099 50.3308 57.1859 49.4378 57.1859 48.2784C57.1859 47.1191 56.7942 46.2104 56.0109 45.5524C55.2589 44.8944 54.2092 44.5654 52.8619 44.5654H47.0339V51.8504H52.9559ZM78.0153 25.3424V58.3364H69.9783V25.3424H78.0153ZM99.4437 58.6654C96.3417 58.6654 93.4903 57.9448 90.8897 56.5034C88.3203 55.0621 86.268 53.0568 84.7327 50.4874C83.2287 47.8868 82.4767 44.9728 82.4767 41.7454C82.4767 38.5181 83.2287 35.6198 84.7327 33.0504C86.268 30.4811 88.3203 28.4758 90.8897 27.0344C93.4903 25.5931 96.3417 24.8724 99.4437 24.8724C102.546 24.8724 105.381 25.5931 107.951 27.0344C110.551 28.4758 112.588 30.4811 114.061 33.0504C115.565 35.6198 116.317 38.5181 116.317 41.7454C116.317 44.9728 115.565 47.8868 114.061 50.4874C112.557 53.0568 110.52 55.0621 107.951 56.5034C105.381 57.9448 102.546 58.6654 99.4437 58.6654ZM99.4437 51.3334C102.076 51.3334 104.175 50.4561 105.742 48.7014C107.34 46.9468 108.139 44.6281 108.139 41.7454C108.139 38.8314 107.34 36.5128 105.742 34.7894C104.175 33.0348 102.076 32.1574 99.4437 32.1574C96.7803 32.1574 94.6497 33.0191 93.0517 34.7424C91.485 36.4658 90.7017 38.8001 90.7017 41.7454C90.7017 44.6594 91.485 46.9938 93.0517 48.7484C94.6497 50.4718 96.7803 51.3334 99.4437 51.3334ZM142.76 56.3389L142.713 58.3364H122.785V25.0839H142.713V27.0814H125.206V40.5234H139.776V42.4739H125.206V56.3389H142.76ZM163.139 29.1259C162.998 29.3923 162.794 29.5254 162.528 29.5254C162.324 29.5254 162.058 29.3844 161.729 29.1024C161.415 28.8048 160.984 28.4836 160.436 28.1389C159.888 27.7786 159.198 27.4496 158.368 27.1519C157.553 26.8543 156.543 26.7054 155.337 26.7054C154.13 26.7054 153.065 26.8778 152.141 27.2224C151.232 27.5671 150.464 28.0371 149.838 28.6324C149.227 29.2278 148.757 29.9171 148.428 30.7004C148.114 31.4838 147.958 32.3063 147.958 33.1679C147.958 34.2959 148.193 35.2281 148.663 35.9644C149.148 36.7008 149.783 37.3274 150.566 37.8444C151.349 38.3614 152.235 38.8001 153.222 39.1604C154.224 39.5051 155.25 39.8498 156.3 40.1944C157.35 40.5391 158.368 40.9229 159.355 41.3459C160.358 41.7533 161.251 42.2703 162.034 42.8969C162.817 43.5236 163.444 44.2991 163.914 45.2234C164.4 46.1321 164.643 47.2679 164.643 48.6309C164.643 50.0253 164.4 51.3413 163.914 52.5789C163.444 53.8009 162.755 54.8663 161.846 55.7749C160.937 56.6836 159.825 57.4043 158.509 57.9369C157.193 58.4539 155.689 58.7124 153.997 58.7124C151.804 58.7124 149.916 58.3286 148.334 57.5609C146.751 56.7776 145.365 55.7123 144.174 54.3649L144.832 53.3309C145.02 53.0959 145.239 52.9784 145.49 52.9784C145.631 52.9784 145.811 53.0724 146.031 53.2604C146.25 53.4484 146.516 53.6834 146.83 53.9654C147.143 54.2318 147.519 54.5294 147.958 54.8584C148.396 55.1718 148.905 55.4694 149.485 55.7514C150.065 56.0178 150.731 56.2449 151.483 56.4329C152.235 56.6209 153.088 56.7149 154.044 56.7149C155.36 56.7149 156.535 56.5191 157.569 56.1274C158.603 55.7201 159.473 55.1718 160.178 54.4824C160.898 53.7931 161.447 52.9784 161.823 52.0384C162.199 51.0828 162.387 50.0644 162.387 48.9834C162.387 47.8084 162.144 46.8449 161.658 46.0929C161.188 45.3253 160.561 44.6908 159.778 44.1894C158.995 43.6724 158.102 43.2416 157.099 42.8969C156.112 42.5523 155.094 42.2154 154.044 41.8864C152.994 41.5574 151.968 41.1893 150.966 40.7819C149.979 40.3746 149.093 39.8576 148.31 39.2309C147.527 38.5886 146.892 37.7974 146.407 36.8574C145.937 35.9018 145.702 34.7111 145.702 33.2854C145.702 32.1731 145.913 31.0999 146.336 30.0659C146.759 29.0319 147.378 28.1233 148.193 27.3399C149.007 26.5409 150.01 25.9064 151.201 25.4364C152.407 24.9508 153.778 24.7079 155.313 24.7079C157.036 24.7079 158.58 24.9821 159.943 25.5304C161.321 26.0788 162.575 26.9169 163.703 28.0449L163.139 29.1259ZM171.512 27.0814V41.0639H186.669V43.0614H171.512V58.3364H169.091V25.0839H189.019V27.0814H171.512ZM212.541 56.3389L212.494 58.3364H192.566V25.0839H212.494V27.0814H194.986V40.5234H209.556V42.4739H194.986V56.3389H212.541ZM224.952 41.5104C226.425 41.5104 227.741 41.3381 228.9 40.9934C230.075 40.6331 231.062 40.1239 231.861 39.4659C232.676 38.8079 233.295 38.0168 233.718 37.0924C234.141 36.1681 234.352 35.1263 234.352 33.9669C234.352 31.6013 233.577 29.8466 232.026 28.7029C230.491 27.5593 228.242 26.9874 225.281 26.9874H219.195V41.5104H224.952ZM239.71 58.3364H237.642C237.376 58.3364 237.149 58.2973 236.961 58.2189C236.789 58.1249 236.624 57.9604 236.467 57.7254L225.798 44.2364C225.673 44.0641 225.54 43.9153 225.399 43.7899C225.274 43.6646 225.125 43.5706 224.952 43.5079C224.796 43.4296 224.6 43.3748 224.365 43.3434C224.146 43.3121 223.871 43.2964 223.542 43.2964H219.195V58.3364H216.774V25.0839H225.281C229.104 25.0839 231.963 25.8281 233.859 27.3164C235.77 28.7891 236.726 30.9589 236.726 33.8259C236.726 35.0949 236.507 36.2543 236.068 37.3039C235.629 38.3536 234.995 39.2779 234.164 40.0769C233.35 40.8603 232.355 41.5026 231.18 42.0039C230.021 42.5053 228.712 42.8421 227.255 43.0144C227.631 43.2494 227.968 43.5628 228.266 43.9544L239.71 58.3364ZM260.199 46.2574L253.431 29.4549C253.196 28.9066 252.969 28.2486 252.749 27.4809C252.655 27.8569 252.553 28.2173 252.444 28.5619C252.334 28.8909 252.217 29.1964 252.091 29.4784L245.323 46.2574H260.199ZM267.554 58.3364H265.698C265.478 58.3364 265.298 58.2816 265.157 58.1719C265.016 58.0466 264.907 57.8899 264.828 57.7019L260.927 48.0434H244.595L240.694 57.7019C240.631 57.8743 240.521 58.0231 240.365 58.1484C240.208 58.2738 240.02 58.3364 239.801 58.3364H237.968L251.574 25.0839H253.948L267.554 58.3364Z" fill="#454D11"/>
</svg>
