<svg width="426" height="509" viewBox="0 0 426 509" fill="none" xmlns="http://www.w3.org/2000/svg">
<g filter="url(#filter0_d_72_15)">
<path d="M96.9245 152.511L394.557 215.829L340.961 467.761C336.777 487.428 316.464 499.77 295.591 495.33L73.5478 448.093C52.6745 443.652 39.1449 424.11 43.3286 404.443L96.9245 152.511Z" fill="#BA5F04"/>
<path d="M394.557 215.829C378.136 293.019 298.408 341.464 216.48 324.035C134.552 306.606 80.5032 229.701 96.9245 152.511C113.346 75.3209 194.019 27.0763 275.947 44.5056C357.875 61.9349 410.978 138.639 394.557 215.829Z" fill="#BA5F04"/>
<path d="M395.74 215.058C411.633 137.606 358.221 60.9863 276.155 43.5275C194.096 26.0704 113.177 74.1049 96.1581 151.325L96.1545 151.325L95.9464 152.303L42.3505 404.235C38.0403 424.496 51.9819 444.527 73.3397 449.071L295.383 496.308C316.741 500.852 337.629 488.23 341.939 467.97L395.535 216.037L395.743 215.059L395.74 215.058Z" stroke="#FEBD59" stroke-width="2"/>
</g>
<path d="M269.724 69.7359L283.526 84.7566L303.835 82.8369L312.321 101.388L332.229 105.838L334.567 126.103L352.125 136.487L348.086 156.483L361.577 171.784L351.556 189.553L359.658 208.275L344.637 222.078L346.557 242.387L328.006 250.872L323.556 270.78L303.291 273.118L292.907 290.676L272.911 286.637L257.609 300.128L239.84 290.107L221.119 298.209L207.316 283.188L187.007 285.108L178.522 266.557L158.614 262.107L156.276 241.842L138.717 231.458L142.756 211.462L129.266 196.16L139.286 178.392L131.185 159.67L146.206 145.867L144.286 125.558L162.837 117.073L167.287 97.1647L187.552 94.8271L197.936 77.2685L217.931 81.3075L233.233 67.8171L251.002 77.8374L269.724 69.7359Z" fill="#814507"/>
<path d="M267.885 78.3808L280.643 92.2649L299.415 90.4904L307.258 107.637L325.66 111.751L327.82 130.482L344.05 140.081L340.317 158.563L352.786 172.707L343.524 189.131L351.013 206.436L337.129 219.194L338.903 237.966L321.756 245.809L317.643 264.211L298.911 266.372L289.313 282.601L270.831 278.868L256.687 291.338L240.263 282.075L222.958 289.564L210.2 275.68L191.428 277.454L183.584 260.307L165.183 256.194L163.022 237.463L146.792 227.864L150.526 209.382L138.056 195.238L147.318 178.814L139.83 161.509L153.714 148.751L151.939 129.979L169.086 122.135L173.2 103.734L191.931 101.573L201.529 85.3433L220.012 89.0767L234.156 76.6073L250.58 85.8693L267.885 78.3808Z" fill="#BA5F04"/>
<path d="M266.046 87.0257L277.759 99.7731L294.994 98.1439L302.195 113.887L319.091 117.664L321.074 134.861L335.975 143.674L332.548 160.643L343.996 173.629L335.493 188.709L342.368 204.597L329.621 216.31L331.25 233.545L315.507 240.747L311.73 257.642L294.532 259.625L285.72 274.527L268.75 271.099L255.765 282.547L240.685 274.044L224.797 280.919L213.083 268.172L195.848 269.801L188.647 254.058L171.752 250.281L169.768 233.083L154.867 224.271L158.295 207.302L146.846 194.316L155.35 179.236L148.475 163.348L161.222 151.634L159.593 134.399L175.336 127.198L179.112 110.303L196.31 108.319L205.123 93.4182L222.092 96.846L235.078 85.3974L250.157 93.9011L266.046 87.0257Z" fill="#FEBD59"/>
<path d="M59.6502 324.761L63.6203 351.988L86.8734 366.697L59.6465 370.667L44.9373 393.921L40.9672 366.694L17.714 351.984L44.941 348.014L59.6502 324.761Z" fill="white"/>
<path d="M367.136 58.4055L371.106 85.6325L394.359 100.342L367.132 104.312L352.423 127.565L348.453 100.338L325.2 85.6288L352.427 81.6586L367.136 58.4055Z" fill="white"/>
<path d="M129.749 306.705C130.182 304.67 131.007 302.954 132.225 301.557C133.446 300.14 134.933 299.158 136.685 298.611C138.461 298.048 140.347 297.979 142.342 298.403C144.787 298.924 146.743 300.014 148.21 301.676C149.676 303.337 150.465 305.346 150.578 307.701L145.061 306.527C144.834 305.579 144.386 304.799 143.719 304.186C143.071 303.578 142.268 303.172 141.31 302.968C139.764 302.64 138.398 302.911 137.21 303.783C136.023 304.655 135.238 305.991 134.855 307.791C134.472 309.591 134.645 311.13 135.375 312.41C136.105 313.69 137.242 314.494 138.788 314.823C139.746 315.027 140.645 314.983 141.484 314.691C142.343 314.404 143.069 313.873 143.663 313.1L149.18 314.274C148.118 316.379 146.58 317.892 144.564 318.812C142.553 319.714 140.324 319.904 137.879 319.384C135.883 318.959 134.187 318.138 132.79 316.921C131.416 315.688 130.458 314.186 129.915 312.414C129.372 310.642 129.316 308.739 129.749 306.705ZM158.157 323.79C156.553 323.449 155.179 322.798 154.033 321.839C152.907 320.884 152.108 319.691 151.635 318.262C151.182 316.836 151.136 315.273 151.498 313.571C151.856 311.888 152.542 310.49 153.556 309.377C154.574 308.244 155.801 307.473 157.238 307.063C158.675 306.652 160.195 306.618 161.799 306.959C163.403 307.301 164.778 307.951 165.924 308.91C167.069 309.87 167.876 311.074 168.345 312.523C168.818 313.953 168.875 315.509 168.517 317.191C168.159 318.874 167.462 320.279 166.424 321.408C165.41 322.521 164.175 323.281 162.719 323.687C161.282 324.097 159.762 324.131 158.157 323.79ZM159.081 319.447C160.04 319.651 160.927 319.472 161.742 318.909C162.576 318.35 163.133 317.416 163.412 316.105C163.69 314.794 163.572 313.716 163.057 312.87C162.561 312.029 161.834 311.506 160.875 311.302C159.897 311.094 159.011 311.274 158.215 311.84C157.424 312.388 156.887 313.327 156.604 314.657C156.325 315.967 156.424 317.041 156.9 317.879C157.396 318.72 158.123 319.243 159.081 319.447ZM182.935 311.517C184.852 311.925 186.245 312.876 187.113 314.369C188.005 315.847 188.22 317.672 187.758 319.843L185.723 329.409L180.735 328.348L182.626 319.457C182.859 318.361 182.757 317.45 182.318 316.723C181.88 315.996 181.182 315.53 180.223 315.326C179.265 315.122 178.437 315.263 177.741 315.749C177.045 316.235 176.58 317.025 176.347 318.121L174.455 327.012L169.438 325.944L172.921 309.571L177.939 310.638L177.477 312.81C178.139 312.194 178.945 311.772 179.893 311.545C180.845 311.297 181.859 311.288 182.935 311.517ZM189.948 321.781C190.293 320.157 190.934 318.78 191.869 317.65C192.824 316.525 193.944 315.73 195.229 315.267C196.537 314.789 197.866 314.693 199.216 314.981C200.252 315.201 201.142 315.585 201.885 316.131C202.631 316.658 203.19 317.298 203.562 318.052L203.961 316.174L208.979 317.242L203.835 341.421L198.817 340.353L200.915 330.494C200.202 331.058 199.391 331.458 198.482 331.694C197.592 331.934 196.629 331.944 195.593 331.723C194.262 331.44 193.105 330.826 192.12 329.88C191.135 328.935 190.436 327.753 190.022 326.336C189.627 324.923 189.602 323.405 189.948 321.781ZM202.22 324.361C202.407 323.481 202.387 322.71 202.16 322.048C201.956 321.371 201.612 320.827 201.126 320.417C200.645 319.988 200.101 319.708 199.495 319.579C198.908 319.455 198.307 319.49 197.693 319.687C197.083 319.864 196.537 320.218 196.056 320.749C195.575 321.281 195.241 321.987 195.053 322.867C194.866 323.747 194.884 324.528 195.107 325.21C195.335 325.871 195.689 326.417 196.17 326.847C196.655 327.257 197.191 327.524 197.778 327.649C198.365 327.774 198.964 327.748 199.574 327.571C200.208 327.378 200.755 327.014 201.217 326.479C201.698 325.947 202.032 325.241 202.22 324.361ZM228.777 321.454L225.294 337.827L220.276 336.76L220.751 334.53C220.088 335.145 219.269 335.584 218.293 335.847C217.34 336.094 216.336 336.105 215.28 335.881C214.028 335.614 212.981 335.105 212.139 334.354C211.301 333.583 210.73 332.613 210.427 331.444C210.123 330.275 210.123 328.977 210.427 327.549L212.462 317.983L217.451 319.044L215.559 327.935C215.326 329.03 215.429 329.942 215.867 330.669C216.305 331.396 217.004 331.862 217.962 332.065C218.94 332.274 219.778 332.135 220.474 331.649C221.17 331.163 221.635 330.373 221.868 329.277L223.759 320.386L228.777 321.454ZM235.267 321.055C234.387 320.868 233.717 320.46 233.258 319.83C232.822 319.186 232.686 318.482 232.848 317.719C233.015 316.936 233.426 316.349 234.082 315.957C234.761 315.55 235.541 315.439 236.422 315.627C237.283 315.81 237.931 316.224 238.366 316.868C238.825 317.498 238.971 318.204 238.805 318.986C238.643 319.749 238.222 320.334 237.542 320.742C236.886 321.134 236.128 321.238 235.267 321.055ZM237.399 323.288L233.916 339.661L228.898 338.594L232.381 322.22L237.399 323.288ZM244.163 342.087C242.735 341.783 241.515 341.268 240.504 340.542C239.493 339.815 238.755 338.963 238.288 337.984C237.826 336.986 237.668 335.951 237.814 334.878L242.773 335.933C242.711 336.513 242.877 337.028 243.272 337.48C243.667 337.932 244.206 338.231 244.891 338.377C245.517 338.51 246.021 338.495 246.404 338.331C246.81 338.151 247.055 337.866 247.138 337.475C247.238 337.005 247.066 336.611 246.623 336.292C246.184 335.953 245.445 335.53 244.408 335.023C243.293 334.5 242.375 334.008 241.655 333.548C240.939 333.068 240.366 332.446 239.936 331.679C239.51 330.894 239.416 329.943 239.653 328.828C239.853 327.889 240.288 327.092 240.959 326.438C241.654 325.767 242.548 325.313 243.641 325.076C244.754 324.842 246.005 324.873 247.394 325.169C249.448 325.606 250.954 326.458 251.911 327.725C252.888 328.996 253.286 330.491 253.104 332.211L248.467 331.225C248.51 330.641 248.351 330.137 247.992 329.713C247.652 329.293 247.139 329.01 246.455 328.864C245.868 328.739 245.393 328.761 245.03 328.929C244.671 329.078 244.45 329.348 244.367 329.739C244.267 330.208 244.437 330.612 244.876 330.951C245.334 331.294 246.067 331.695 247.073 332.155C248.22 332.726 249.141 333.249 249.837 333.724C250.538 334.18 251.099 334.811 251.52 335.616C251.966 336.406 252.078 337.37 251.856 338.509C251.652 339.468 251.195 340.27 250.485 340.917C249.799 341.548 248.901 341.97 247.792 342.184C246.703 342.402 245.493 342.37 244.163 342.087ZM263.945 341.602L263.04 345.857L260.487 345.314C258.668 344.927 257.343 344.185 256.513 343.089C255.688 341.972 255.489 340.407 255.918 338.392L257.304 331.878L255.308 331.453L256.195 327.286L258.19 327.711L259.039 323.72L264.057 324.788L263.208 328.778L266.494 329.477L265.608 333.644L262.321 332.945L260.923 339.518C260.819 340.007 260.861 340.384 261.05 340.649C261.239 340.914 261.608 341.105 262.155 341.222L263.945 341.602ZM266.585 338.023C266.943 336.341 267.57 334.931 268.467 333.792C269.383 332.658 270.462 331.865 271.703 331.414C272.944 330.962 274.239 330.88 275.589 331.167C276.743 331.412 277.701 331.862 278.462 332.514C279.242 333.171 279.786 333.931 280.093 334.793L280.586 332.475L285.604 333.543L282.121 349.916L277.103 348.849L277.596 346.531C276.945 347.19 276.129 347.66 275.149 347.942C274.188 348.229 273.131 348.249 271.977 348.004C270.646 347.721 269.506 347.12 268.557 346.203C267.611 345.265 266.95 344.092 266.575 342.683C266.224 341.259 266.227 339.706 266.585 338.023ZM278.845 340.662C279.111 339.41 278.969 338.347 278.419 337.474C277.888 336.604 277.124 336.063 276.126 335.851C275.128 335.639 274.201 335.82 273.342 336.394C272.508 336.952 271.957 337.858 271.691 339.11C271.425 340.362 271.555 341.432 272.081 342.321C272.632 343.195 273.406 343.738 274.403 343.95C275.401 344.162 276.319 343.979 277.158 343.401C278.016 342.827 278.578 341.914 278.845 340.662ZM292.362 352.34C290.934 352.037 289.714 351.522 288.703 350.795C287.692 350.069 286.953 349.217 286.487 348.238C286.024 347.24 285.866 346.205 286.013 345.132L290.972 346.187C290.91 346.766 291.076 347.282 291.471 347.734C291.865 348.186 292.405 348.485 293.09 348.631C293.716 348.764 294.22 348.748 294.602 348.584C295.009 348.405 295.253 348.12 295.337 347.728C295.436 347.259 295.265 346.865 294.821 346.545C294.382 346.207 293.644 345.784 292.607 345.277C291.491 344.753 290.574 344.262 289.854 343.802C289.138 343.322 288.565 342.699 288.135 341.933C287.709 341.147 287.615 340.197 287.852 339.082C288.052 338.143 288.487 337.346 289.158 336.691C289.853 336.021 290.747 335.567 291.84 335.33C292.953 335.096 294.204 335.127 295.593 335.422C297.647 335.859 299.153 336.711 300.11 337.978C301.087 339.249 301.484 340.745 301.302 342.465L296.666 341.478C296.709 340.894 296.55 340.39 296.19 339.966C295.85 339.546 295.338 339.264 294.653 339.118C294.066 338.993 293.592 339.015 293.229 339.183C292.87 339.331 292.649 339.601 292.566 339.993C292.466 340.462 292.635 340.866 293.074 341.205C293.533 341.548 294.266 341.949 295.272 342.409C296.418 342.98 297.34 343.503 298.036 343.978C298.737 344.434 299.298 345.064 299.719 345.87C300.165 346.66 300.276 347.624 300.055 348.763C299.851 349.721 299.394 350.524 298.684 351.17C297.997 351.801 297.1 352.224 295.991 352.438C294.902 352.656 293.692 352.623 292.362 352.34Z" fill="white"/>
<path d="M248.978 154.021C250.834 152.811 253.32 153.34 254.523 155.201L267.812 175.771C268.189 176.356 268.408 177.029 268.446 177.724L269.777 202.178C269.898 204.39 268.196 206.279 265.983 206.39L241.524 207.613C240.829 207.648 240.137 207.501 239.516 207.186L217.673 196.113C215.696 195.111 214.911 192.693 215.922 190.72L227.092 168.927C227.409 168.307 227.883 167.781 228.466 167.401L248.978 154.021Z" fill="#BA5F04"/>
<defs>
<filter id="filter0_d_72_15" x="40.5671" y="38.9475" width="368.972" height="469.285" filterUnits="userSpaceOnUse" color-interpolation-filters="sRGB">
<feFlood flood-opacity="0" result="BackgroundImageFix"/>
<feColorMatrix in="SourceAlpha" type="matrix" values="0 0 0 0 0 0 0 0 0 0 0 0 0 0 0 0 0 0 127 0" result="hardAlpha"/>
<feOffset dx="10" dy="10"/>
<feComposite in2="hardAlpha" operator="out"/>
<feColorMatrix type="matrix" values="0 0 0 0 0.513726 0 0 0 0 0.254902 0 0 0 0 0.0196078 0 0 0 1 0"/>
<feBlend mode="normal" in2="BackgroundImageFix" result="effect1_dropShadow_72_15"/>
<feBlend mode="normal" in="SourceGraphic" in2="effect1_dropShadow_72_15" result="shape"/>
</filter>
</defs>
</svg>
