<svg width="430" height="499" viewBox="0 0 430 499" fill="none" xmlns="http://www.w3.org/2000/svg">
<g filter="url(#filter0_d_71_3)">
<path d="M65.5407 203.083L363.173 139.765L416.769 391.697C420.953 411.363 407.423 430.906 386.55 435.346L164.507 482.584C143.633 487.024 123.32 474.681 119.137 455.015L65.5407 203.083Z" fill="#BA5F04"/>
<path d="M363.173 139.765C379.594 216.955 326.491 293.659 244.563 311.088C162.635 328.517 81.962 280.273 65.5407 203.083C49.1194 125.893 103.168 48.9876 185.096 31.5584C267.024 14.1291 346.752 62.5747 363.173 139.765Z" fill="#BA5F04"/>
<path d="M363.94 138.579C346.93 61.3647 266.955 13.1215 184.888 30.5802C102.829 48.0373 48.4706 124.851 64.3581 202.312L64.3545 202.313L64.5626 203.291L118.158 455.223C122.469 475.484 143.357 488.105 164.715 483.562L386.758 436.325C408.116 431.781 422.057 411.75 417.747 391.489L364.151 139.557L363.943 138.578L363.94 138.579Z" stroke="#FEBD59" stroke-width="2"/>
</g>
<path d="M189.682 57.1369L208.404 65.2384L226.173 55.2181L241.474 68.7085L261.47 64.6694L271.854 82.2281L292.119 84.5657L296.569 104.474L315.12 112.959L313.2 133.268L328.221 147.071L320.12 165.793L330.14 183.561L316.65 198.863L320.689 218.859L303.13 229.243L300.792 249.508L280.884 253.958L272.399 272.509L252.09 270.589L238.287 285.61L219.566 277.508L201.797 287.529L186.495 274.038L166.499 278.077L156.115 260.519L135.85 258.181L131.4 238.273L112.849 229.788L114.769 209.479L99.7482 195.676L107.85 176.954L97.8294 159.185L111.32 143.884L107.281 123.888L124.839 113.504L127.177 93.2388L147.085 88.7888L155.571 70.2379L175.879 72.1576L189.682 57.1369Z" fill="#814507"/>
<path d="M191.521 65.7818L208.826 73.2703L225.25 64.0083L239.394 76.4777L257.877 72.7443L267.475 88.9742L286.206 91.1349L290.32 109.536L307.467 117.38L305.692 136.152L319.576 148.91L312.088 166.215L321.35 182.639L308.88 196.783L312.614 215.265L296.384 224.864L294.223 243.595L275.822 247.708L267.978 264.855L249.206 263.081L236.448 276.965L219.143 269.476L202.719 278.739L188.575 266.269L170.093 270.002L160.494 253.773L141.763 251.612L137.65 233.21L120.503 225.367L122.277 206.595L108.393 193.837L115.882 176.532L106.62 160.108L119.089 145.964L115.356 127.482L131.585 117.883L133.746 99.1517L152.148 95.0384L159.991 77.8914L178.763 79.6659L191.521 65.7818Z" fill="#BA5F04"/>
<path d="M193.36 74.4267L209.248 81.3021L224.328 72.7984L237.314 84.247L254.283 80.8192L263.096 95.7203L280.293 97.7041L284.07 114.599L299.813 121.8L298.184 139.035L310.931 150.749L304.056 166.637L312.56 181.717L301.111 194.703L304.539 211.672L289.638 220.484L287.654 237.682L270.759 241.459L263.558 257.202L246.323 255.573L234.609 268.32L218.721 261.445L203.641 269.948L190.656 258.5L173.686 261.928L164.874 247.026L147.676 245.043L143.899 228.148L128.156 220.946L129.785 203.711L117.038 191.998L123.913 176.11L115.41 161.03L126.858 148.044L123.431 131.075L138.332 122.262L140.315 105.065L157.21 101.288L164.412 85.5449L181.647 87.1741L193.36 74.4267Z" fill="#FEBD59"/>
<path d="M77.1101 261.485L91.8193 284.738L119.046 288.708L95.7932 303.418L91.823 330.644L77.1139 307.391L49.8869 303.421L73.14 288.712L77.1101 261.485Z" fill="white"/>
<path d="M160.62 341.077C158.683 341.489 156.807 341.418 154.992 340.864C153.197 340.305 151.649 339.326 150.349 337.926C149.065 336.502 148.208 334.782 147.78 332.767C147.351 330.752 147.436 328.843 148.033 327.039C148.651 325.231 149.666 323.707 151.078 322.465C152.511 321.22 154.195 320.392 156.132 319.98C158.068 319.568 159.934 319.641 161.73 320.199C163.545 320.754 165.083 321.735 166.344 323.144C167.624 324.548 168.478 326.258 168.907 328.273C169.336 330.288 169.253 332.207 168.66 334.03C168.062 335.834 167.057 337.357 165.644 338.598C164.231 339.839 162.557 340.665 160.62 341.077ZM159.646 336.5C161.289 336.15 162.484 335.324 163.229 334.02C163.993 332.712 164.184 331.159 163.801 329.359C163.414 327.54 162.607 326.198 161.381 325.335C160.17 324.447 158.742 324.178 157.099 324.528C155.436 324.882 154.221 325.702 153.452 326.991C152.703 328.275 152.524 329.836 152.915 331.675C153.302 333.494 154.101 334.848 155.312 335.735C156.539 336.599 157.983 336.854 159.646 336.5ZM176.017 323.325C176.412 322.3 176.996 321.44 177.768 320.744C178.536 320.029 179.458 319.556 180.534 319.328L181.664 324.639L180.285 324.932C179.033 325.198 178.152 325.672 177.643 326.353C177.129 327.014 177.016 328.02 177.303 329.37L178.92 336.97L173.902 338.037L170.419 321.664L175.436 320.596L176.017 323.325ZM189.141 317.435C190.295 317.19 191.352 317.21 192.313 317.497C193.293 317.779 194.099 318.251 194.731 318.914L194.238 316.596L199.255 315.529L202.733 331.873C203.053 333.379 203.039 334.803 202.691 336.145C202.366 337.503 201.664 338.674 200.586 339.66C199.527 340.642 198.088 341.326 196.269 341.713C193.843 342.23 191.754 342.071 190.002 341.237C188.255 340.423 187.065 339.06 186.434 337.15L191.393 336.095C191.683 336.688 192.158 337.098 192.82 337.325C193.486 337.572 194.249 337.604 195.11 337.421C196.147 337.2 196.904 336.722 197.381 335.987C197.882 335.267 197.994 334.251 197.715 332.941L197.222 330.622C196.895 331.489 196.353 332.259 195.596 332.931C194.836 333.584 193.878 334.033 192.724 334.278C191.374 334.565 190.079 334.483 188.838 334.032C187.592 333.56 186.512 332.758 185.595 331.624C184.695 330.466 184.066 329.045 183.708 327.363C183.35 325.681 183.349 324.137 183.704 322.732C184.079 321.324 184.742 320.16 185.691 319.243C186.641 318.325 187.791 317.722 189.141 317.435ZM195.979 324.783C195.713 323.531 195.151 322.618 194.293 322.044C193.454 321.466 192.536 321.283 191.538 321.495C190.54 321.708 189.766 322.25 189.216 323.124C188.681 323.974 188.547 325.025 188.813 326.277C189.08 327.529 189.634 328.454 190.477 329.051C191.335 329.625 192.263 329.806 193.261 329.594C194.259 329.382 195.023 328.841 195.554 327.971C196.104 327.098 196.246 326.035 195.979 324.783ZM203.623 323.126C203.265 321.444 203.264 319.9 203.62 318.496C203.995 317.087 204.657 315.923 205.607 315.006C206.557 314.088 207.707 313.486 209.056 313.198C210.211 312.953 211.268 312.973 212.229 313.26C213.209 313.542 214.015 314.015 214.647 314.678L214.153 312.359L219.171 311.292L222.654 327.666L217.637 328.733L217.144 326.415C216.817 327.282 216.263 328.044 215.483 328.701C214.722 329.353 213.764 329.802 212.61 330.048C211.28 330.331 209.994 330.246 208.753 329.795C207.508 329.324 206.427 328.521 205.511 327.387C204.61 326.229 203.981 324.809 203.623 323.126ZM215.895 320.546C215.629 319.294 215.066 318.381 214.208 317.807C213.37 317.229 212.451 317.046 211.454 317.258C210.456 317.471 209.682 318.014 209.132 318.887C208.597 319.737 208.463 320.788 208.729 322.04C208.995 323.292 209.55 324.217 210.393 324.815C211.251 325.389 212.179 325.569 213.177 325.357C214.174 325.145 214.938 324.604 215.469 323.735C216.019 322.861 216.161 321.798 215.895 320.546ZM232.74 308.221C234.658 307.813 236.317 308.115 237.718 309.125C239.134 310.112 240.073 311.691 240.535 313.863L242.57 323.429L237.582 324.49L235.69 315.599C235.457 314.503 234.992 313.713 234.296 313.227C233.6 312.741 232.772 312.6 231.814 312.804C230.855 313.008 230.157 313.474 229.719 314.201C229.28 314.928 229.178 315.839 229.411 316.935L231.302 325.826L226.285 326.893L222.801 310.52L227.819 309.452L228.281 311.624C228.636 310.792 229.199 310.079 229.973 309.485C230.742 308.871 231.665 308.45 232.74 308.221ZM244.735 304.075C243.855 304.262 243.077 304.162 242.401 303.774C241.741 303.362 241.33 302.775 241.168 302.012C241.001 301.229 241.138 300.525 241.577 299.9C242.032 299.251 242.7 298.833 243.58 298.646C244.441 298.463 245.201 298.577 245.861 298.989C246.537 299.377 246.958 299.962 247.124 300.745C247.287 301.507 247.14 302.213 246.685 302.862C246.246 303.487 245.596 303.891 244.735 304.075ZM247.591 305.246L251.075 321.619L246.057 322.687L242.574 306.313L247.591 305.246ZM258.526 315.71L265.627 314.199L266.507 318.336L253.801 321.039L252.952 317.049L258.006 307.355L251.257 308.791L250.377 304.653L262.877 301.994L263.726 305.985L258.526 315.71ZM266.522 309.745C266.164 308.063 266.163 306.519 266.519 305.115C266.894 303.706 267.556 302.542 268.506 301.625C269.456 300.707 270.606 300.104 271.955 299.817C273.11 299.572 274.167 299.592 275.128 299.879C276.108 300.161 276.914 300.633 277.546 301.296L277.052 298.978L282.07 297.911L285.553 314.284L280.536 315.352L280.043 313.034C279.716 313.901 279.162 314.663 278.382 315.319C277.621 315.972 276.663 316.421 275.509 316.667C274.179 316.95 272.893 316.865 271.652 316.414C270.407 315.943 269.326 315.14 268.41 314.006C267.51 312.848 266.88 311.428 266.522 309.745ZM278.794 307.165C278.528 305.913 277.965 305 277.107 304.426C276.269 303.848 275.35 303.665 274.353 303.877C273.355 304.09 272.581 304.633 272.031 305.506C271.496 306.356 271.362 307.407 271.628 308.659C271.894 309.911 272.449 310.836 273.292 311.434C274.15 312.007 275.078 312.188 276.076 311.976C277.073 311.764 277.838 311.223 278.368 310.354C278.918 309.48 279.06 308.417 278.794 307.165ZM295.453 307.946C296.744 307.671 297.481 306.86 297.665 305.512L303.005 304.376C302.987 306.118 302.533 307.636 301.643 308.929C300.752 310.223 299.503 311.174 297.894 311.782L298.125 312.868C299.142 312.651 300.091 312.736 300.97 313.121C301.854 313.526 302.414 314.286 302.651 315.401C302.889 316.516 302.667 317.443 301.985 318.181C301.308 318.938 300.412 319.435 299.297 319.673L294.778 320.634L294.191 317.876L298.035 317.058C298.426 316.975 298.707 316.854 298.878 316.695C299.049 316.536 299.105 316.319 299.047 316.045C298.988 315.771 298.849 315.597 298.628 315.521C298.412 315.465 298.108 315.478 297.717 315.561L295.633 316.005L294.872 312.425C292.79 312.54 290.987 311.994 289.462 310.785C287.933 309.556 286.927 307.807 286.444 305.538C286.082 303.836 286.108 302.276 286.522 300.859C286.956 299.438 287.716 298.254 288.803 297.307C289.909 296.356 291.265 295.71 292.869 295.368C294.923 294.931 296.749 295.105 298.347 295.89C299.965 296.67 301.197 297.993 302.044 299.857L296.703 300.993C295.987 299.837 294.983 299.396 293.692 299.671C292.773 299.867 292.116 300.385 291.722 301.225C291.324 302.046 291.267 303.121 291.55 304.451C291.833 305.782 292.325 306.75 293.027 307.358C293.725 307.945 294.533 308.142 295.453 307.946ZM304.204 301.729C303.847 300.046 303.845 298.503 304.201 297.098C304.576 295.689 305.238 294.526 306.188 293.608C307.138 292.69 308.288 292.088 309.638 291.801C310.792 291.555 311.849 291.576 312.81 291.862C313.79 292.144 314.596 292.617 315.228 293.28L314.735 290.962L319.752 289.894L323.236 306.268L318.218 307.335L317.725 305.017C317.398 305.884 316.844 306.646 316.064 307.303C315.303 307.956 314.346 308.405 313.191 308.65C311.861 308.933 310.576 308.849 309.334 308.397C308.089 307.926 307.008 307.123 306.092 305.989C305.192 304.831 304.562 303.411 304.204 301.729ZM316.476 299.149C316.21 297.897 315.648 296.984 314.789 296.41C313.951 295.832 313.033 295.649 312.035 295.861C311.037 296.073 310.263 296.616 309.713 297.49C309.178 298.34 309.044 299.391 309.31 300.643C309.577 301.895 310.131 302.819 310.974 303.417C311.832 303.991 312.76 304.172 313.758 303.96C314.755 303.747 315.52 303.207 316.05 302.337C316.601 301.463 316.743 300.401 316.476 299.149ZM305.55 291.474C305.404 288.479 306.446 286.744 308.676 286.27C309.106 286.178 309.492 286.168 309.834 286.238C310.192 286.285 310.632 286.385 311.156 286.54C311.55 286.66 311.865 286.747 312.101 286.799C312.333 286.831 312.566 286.823 312.801 286.773C313.524 286.619 313.851 286.089 313.781 285.184L316.364 284.634C316.51 287.63 315.468 289.364 313.238 289.839C312.808 289.93 312.414 289.953 312.056 289.906C311.714 289.836 311.281 289.723 310.758 289.569C310.364 289.448 310.051 289.372 309.819 289.339C309.583 289.287 309.348 289.286 309.113 289.336C308.389 289.49 308.053 290.022 308.103 290.931L305.55 291.474ZM334.369 304.145C332.765 304.486 331.244 304.452 329.808 304.042C328.39 303.628 327.175 302.864 326.161 301.75C325.167 300.633 324.488 299.223 324.126 297.521C323.768 295.839 323.826 294.283 324.299 292.853C324.767 291.404 325.575 290.2 326.72 289.24C327.865 288.281 329.24 287.631 330.844 287.289C332.448 286.948 333.969 286.982 335.406 287.392C336.842 287.803 338.07 288.574 339.088 289.707C340.102 290.82 340.788 292.218 341.145 293.901C341.503 295.583 341.438 297.151 340.95 298.604C340.477 300.034 339.658 301.231 338.493 302.194C337.348 303.153 335.973 303.804 334.369 304.145ZM333.445 299.802C334.403 299.598 335.14 299.073 335.656 298.228C336.191 297.378 336.319 296.297 336.04 294.987C335.761 293.676 335.214 292.739 334.399 292.177C333.604 291.61 332.727 291.428 331.768 291.632C330.79 291.84 330.053 292.365 329.557 293.207C329.058 294.029 328.949 295.105 329.232 296.435C329.511 297.746 330.038 298.687 330.814 299.258C331.609 299.825 332.486 300.006 333.445 299.802Z" fill="white"/>
<path d="M204.447 142.184C205.649 140.316 208.143 139.786 210.001 141.002L220.025 147.564C220.621 147.955 221.311 148.178 222.023 148.213L233.989 148.792C236.208 148.9 237.914 150.794 237.79 153.011L237.119 164.973C237.079 165.685 237.23 166.394 237.556 167.027L243.038 177.681C244.054 179.656 243.267 182.08 241.284 183.081L230.589 188.482C229.953 188.803 229.415 189.288 229.029 189.887L222.544 199.961C221.342 201.829 218.848 202.359 216.99 201.143L206.966 194.581C206.369 194.191 205.68 193.967 204.968 193.932L193.001 193.353C190.783 193.246 189.077 191.351 189.201 189.134L189.872 177.172C189.912 176.46 189.761 175.751 189.435 175.118L183.953 164.465C182.937 162.49 183.724 160.065 185.707 159.064L196.402 153.664C197.038 153.342 197.576 152.857 197.962 152.258L204.447 142.184Z" fill="#BA5F04"/>
<defs>
<filter id="filter0_d_71_3" x="60.5969" y="26.0104" width="368.934" height="469.476" filterUnits="userSpaceOnUse" color-interpolation-filters="sRGB">
<feFlood flood-opacity="0" result="BackgroundImageFix"/>
<feColorMatrix in="SourceAlpha" type="matrix" values="0 0 0 0 0 0 0 0 0 0 0 0 0 0 0 0 0 0 127 0" result="hardAlpha"/>
<feOffset dx="10" dy="10"/>
<feComposite in2="hardAlpha" operator="out"/>
<feColorMatrix type="matrix" values="0 0 0 0 0.513726 0 0 0 0 0.254902 0 0 0 0 0.0196078 0 0 0 1 0"/>
<feBlend mode="normal" in2="BackgroundImageFix" result="effect1_dropShadow_71_3"/>
<feBlend mode="normal" in="SourceGraphic" in2="effect1_dropShadow_71_3" result="shape"/>
</filter>
</defs>
</svg>
