<svg width="432" height="533" viewBox="0 0 432 533" fill="none" xmlns="http://www.w3.org/2000/svg">
<g filter="url(#filter0_d_72_9)">
<path d="M69.1548 139.765L366.787 203.083L313.191 455.015C309.008 474.682 288.695 487.024 267.821 482.584L45.7781 435.347C24.9048 430.906 11.3752 411.364 15.5589 391.697L69.1548 139.765Z" fill="#FEBD59"/>
<path d="M366.787 203.083C350.366 280.273 270.638 328.718 188.71 311.289C106.782 293.86 52.7335 216.955 69.1548 139.765C85.5761 62.5748 166.249 14.3302 248.177 31.7595C330.105 49.1888 383.209 125.893 366.787 203.083Z" fill="#FEBD59"/>
<path d="M367.97 202.312C383.864 124.86 330.452 48.2402 248.385 30.7814C166.326 13.3244 85.4078 61.3588 68.3884 138.579L68.3848 138.579L68.1767 139.557L14.5808 391.489C10.2706 411.75 24.2122 431.781 45.5701 436.325L267.613 483.562C288.971 488.106 309.859 475.484 314.169 455.223L367.765 203.291L367.973 202.313L367.97 202.312Z" stroke="#BA5F04" stroke-width="2"/>
</g>
<path d="M241.954 56.9898L255.757 72.0106L276.066 70.0908L284.551 88.6417L304.459 93.0917L306.797 113.357L324.356 123.741L320.316 143.737L333.807 159.038L323.787 176.807L331.888 195.529L316.867 209.332L318.787 229.64L300.236 238.126L295.786 258.034L275.521 260.372L265.137 277.93L245.141 273.891L229.839 287.382L212.071 277.361L193.349 285.463L179.546 270.442L159.237 272.362L150.752 253.811L130.844 249.361L128.506 229.096L110.948 218.712L114.987 198.716L101.496 183.414L111.517 165.645L103.415 146.924L118.436 133.121L116.516 112.812L135.067 104.327L139.517 84.4186L159.782 82.081L170.166 64.5224L190.162 68.5614L205.464 55.071L223.232 65.0914L241.954 56.9898Z" fill="#814507"/>
<path d="M240.115 65.6347L252.873 79.5188L271.645 77.7443L279.488 94.8913L297.89 99.0046L300.051 117.736L316.281 127.334L312.547 145.817L325.017 159.961L315.755 176.385L323.243 193.69L309.359 206.448L311.134 225.22L293.987 233.063L289.873 251.465L271.142 253.625L261.543 269.855L243.061 266.122L228.917 278.591L212.493 269.329L195.188 276.818L182.43 262.934L163.658 264.708L155.815 247.561L137.413 243.448L135.252 224.717L119.023 215.118L122.756 196.636L110.286 182.492L119.548 166.068L112.06 148.763L125.944 136.005L124.17 117.233L141.317 109.389L145.43 90.9878L164.161 88.8271L173.76 72.5972L192.242 76.3306L206.386 63.8612L222.81 73.1232L240.115 65.6347Z" fill="#BA5F04"/>
<path d="M238.276 74.2797L249.99 87.027L267.225 85.3978L274.426 101.141L291.321 104.917L293.305 122.115L308.206 130.928L304.778 147.897L316.227 160.883L307.723 175.962L314.598 191.851L301.851 203.564L303.48 220.799L287.737 228.001L283.96 244.896L266.762 246.879L257.95 261.78L240.981 258.353L227.995 269.801L212.915 261.298L197.027 268.173L185.314 255.426L168.079 257.055L160.877 241.312L143.982 237.535L141.999 220.337L127.097 211.525L130.525 194.555L119.077 181.57L127.58 166.49L120.705 150.602L133.452 138.888L131.823 121.653L147.566 114.452L151.343 97.5571L168.541 95.5732L177.353 80.6721L194.322 84.0999L207.308 72.6513L222.388 81.155L238.276 74.2797Z" fill="#FEBD59"/>
<path d="M231.995 438.851L235.965 466.078L259.218 480.787L231.991 484.757L217.282 508.01L213.312 480.783L190.059 466.074L217.286 462.104L231.995 438.851Z" fill="white"/>
<path d="M369.634 189.695L373.604 216.922L396.857 231.631L369.63 235.601L354.921 258.855L350.951 231.628L327.698 216.918L354.925 212.948L369.634 189.695Z" fill="white"/>
<path d="M141.412 291.612L138.428 305.638C137.966 307.81 136.994 309.351 135.512 310.263C134.049 311.179 132.281 311.416 130.207 310.975C128.036 310.513 126.426 309.526 125.378 308.015C124.329 306.504 124.046 304.613 124.529 302.344L129.517 303.405C129.334 304.266 129.371 304.959 129.627 305.484C129.888 305.989 130.351 306.313 131.016 306.454C131.622 306.583 132.133 306.487 132.549 306.167C132.965 305.846 133.252 305.314 133.41 304.571L136.394 290.545L141.412 291.612ZM148.486 314.894C146.882 314.553 145.507 313.902 144.361 312.943C143.235 311.988 142.436 310.795 141.963 309.366C141.51 307.94 141.464 306.376 141.826 304.675C142.184 302.992 142.87 301.594 143.884 300.481C144.902 299.348 146.129 298.576 147.566 298.166C149.003 297.756 150.523 297.722 152.128 298.063C153.732 298.405 155.106 299.055 156.252 300.014C157.397 300.974 158.204 302.178 158.673 303.627C159.146 305.057 159.203 306.613 158.846 308.295C158.488 309.978 157.79 311.383 156.752 312.512C155.738 313.625 154.503 314.385 153.047 314.791C151.61 315.201 150.09 315.235 148.486 314.894ZM149.41 310.551C150.368 310.755 151.255 310.576 152.07 310.013C152.904 309.454 153.461 308.52 153.74 307.209C154.019 305.898 153.9 304.82 153.385 303.974C152.889 303.133 152.162 302.61 151.204 302.406C150.226 302.198 149.339 302.377 148.543 302.944C147.752 303.492 147.215 304.431 146.932 305.761C146.653 307.071 146.752 308.145 147.228 308.983C147.724 309.824 148.451 310.347 149.41 310.551ZM167.686 304.471C168.465 303.696 169.348 303.148 170.337 302.827C171.329 302.486 172.363 302.43 173.439 302.659L172.31 307.97L170.93 307.676C169.678 307.41 168.681 307.484 167.939 307.899C167.2 308.294 166.688 309.166 166.4 310.516L164.784 318.116L159.766 317.048L163.249 300.675L168.267 301.742L167.686 304.471ZM185.814 305.291C187.732 305.699 189.124 306.65 189.993 308.143C190.885 309.621 191.1 311.446 190.638 313.617L188.603 323.183L183.614 322.122L185.506 313.231C185.739 312.135 185.636 311.224 185.198 310.497C184.76 309.77 184.061 309.304 183.103 309.1C182.144 308.896 181.317 309.037 180.62 309.523C179.924 310.009 179.459 310.799 179.226 311.895L177.335 320.786L172.317 319.718L175.8 303.345L180.818 304.412L180.356 306.584C181.019 305.968 181.824 305.546 182.772 305.319C183.724 305.071 184.739 305.062 185.814 305.291ZM192.84 315.496C193.197 313.814 193.825 312.404 194.721 311.265C195.637 310.131 196.716 309.338 197.957 308.887C199.198 308.435 200.494 308.353 201.843 308.64C202.998 308.885 203.955 309.334 204.716 309.987C205.496 310.644 206.04 311.404 206.347 312.266L206.841 309.948L211.858 311.016L208.375 327.389L203.357 326.322L203.85 324.004C203.199 324.663 202.383 325.133 201.403 325.415C200.442 325.702 199.385 325.722 198.231 325.477C196.901 325.194 195.761 324.593 194.811 323.676C193.865 322.738 193.205 321.565 192.83 320.156C192.478 318.732 192.482 317.179 192.84 315.496ZM205.099 318.135C205.365 316.883 205.223 315.82 204.673 314.947C204.142 314.077 203.378 313.536 202.38 313.324C201.383 313.112 200.455 313.293 199.597 313.867C198.762 314.425 198.212 315.331 197.945 316.583C197.679 317.835 197.809 318.905 198.336 319.794C198.886 320.668 199.66 321.211 200.658 321.423C201.655 321.635 202.573 321.452 203.412 320.874C204.27 320.3 204.833 319.387 205.099 318.135ZM212.755 319.733C213.113 318.051 213.74 316.641 214.637 315.502C215.553 314.368 216.632 313.575 217.873 313.123C219.114 312.672 220.409 312.59 221.759 312.877C222.835 313.106 223.765 313.539 224.55 314.176C225.354 314.817 225.929 315.573 226.275 316.445L227.892 308.845L232.91 309.912L228.291 331.626L223.273 330.559L223.772 328.211C223.136 328.894 222.328 329.376 221.348 329.658C220.387 329.945 219.33 329.965 218.176 329.72C216.826 329.433 215.676 328.83 214.726 327.912C213.781 326.975 213.12 325.802 212.745 324.393C212.394 322.969 212.397 321.416 212.755 319.733ZM225.015 322.372C225.281 321.12 225.139 320.057 224.589 319.184C224.058 318.314 223.294 317.773 222.296 317.561C221.298 317.349 220.37 317.53 219.512 318.104C218.678 318.662 218.127 319.567 217.861 320.819C217.595 322.071 217.725 323.142 218.251 324.031C218.802 324.905 219.575 325.447 220.573 325.66C221.571 325.872 222.489 325.689 223.328 325.111C224.186 324.537 224.748 323.624 225.015 322.372ZM232.671 323.97C233.029 322.288 233.656 320.877 234.552 319.739C235.469 318.605 236.547 317.812 237.788 317.36C239.029 316.909 240.325 316.826 241.675 317.114C242.829 317.359 243.786 317.808 244.547 318.461C245.328 319.117 245.871 319.877 246.179 320.74L246.672 318.422L251.69 319.489L248.206 335.863L243.189 334.796L243.682 332.477C243.03 333.136 242.215 333.607 241.234 333.889C240.274 334.175 239.216 334.196 238.062 333.95C236.732 333.667 235.592 333.067 234.642 332.149C233.696 331.212 233.036 330.039 232.661 328.63C232.31 327.206 232.313 325.652 232.671 323.97ZM244.93 326.609C245.197 325.357 245.055 324.294 244.504 323.42C243.974 322.551 243.209 322.01 242.212 321.798C241.214 321.586 240.286 321.766 239.428 322.34C238.593 322.899 238.043 323.804 237.777 325.056C237.51 326.308 237.64 327.379 238.167 328.268C238.717 329.141 239.491 329.684 240.489 329.897C241.486 330.109 242.405 329.926 243.243 329.348C244.102 328.774 244.664 327.861 244.93 326.609Z" fill="white"/>
<path d="M221.171 140.925C222.976 139.835 225.317 140.333 226.522 142.063L237.719 158.147L247.852 174.922C248.942 176.727 248.444 179.068 246.714 180.273L230.63 191.47L213.855 201.603C212.05 202.693 209.709 202.195 208.504 200.465L197.307 184.381L187.174 167.606C186.084 165.801 186.582 163.46 188.312 162.255L204.396 151.058L221.171 140.925Z" fill="#BA5F04"/>
<defs>
<filter id="filter0_d_72_9" x="12.7974" y="26.2014" width="368.972" height="469.285" filterUnits="userSpaceOnUse" color-interpolation-filters="sRGB">
<feFlood flood-opacity="0" result="BackgroundImageFix"/>
<feColorMatrix in="SourceAlpha" type="matrix" values="0 0 0 0 0 0 0 0 0 0 0 0 0 0 0 0 0 0 127 0" result="hardAlpha"/>
<feOffset dx="10" dy="10"/>
<feComposite in2="hardAlpha" operator="out"/>
<feColorMatrix type="matrix" values="0 0 0 0 0.513726 0 0 0 0 0.254902 0 0 0 0 0.0196078 0 0 0 1 0"/>
<feBlend mode="normal" in2="BackgroundImageFix" result="effect1_dropShadow_72_9"/>
<feBlend mode="normal" in="SourceGraphic" in2="effect1_dropShadow_72_9" result="shape"/>
</filter>
</defs>
</svg>
