<svg width="459" height="507" viewBox="0 0 459 507" fill="none" xmlns="http://www.w3.org/2000/svg">
<g filter="url(#filter0_d_1029_342)">
<path d="M65.6033 211.13L363.236 147.812L416.832 399.745C421.015 419.411 407.486 438.953 386.612 443.394L164.569 490.631C143.696 495.072 123.383 482.729 119.199 463.063L65.6033 211.13Z" fill="#BA5F04"/>
<path d="M363.236 147.812C379.657 225.002 326.553 301.706 244.625 319.135C162.697 336.564 82.0246 288.32 65.6033 211.13C49.182 133.94 103.23 57.035 185.159 39.6057C267.086 22.1764 346.814 70.622 363.236 147.812Z" fill="#BA5F04"/>
<path d="M364.002 146.627C346.992 69.4121 267.017 21.1688 184.95 38.6276C102.892 56.0847 48.5332 132.898 64.4207 210.359L64.4171 210.36L64.6252 211.338L118.221 463.271C122.531 483.531 143.419 496.153 164.777 491.609L386.82 444.372C408.178 439.828 422.12 419.797 417.81 399.536L364.214 147.604L364.006 146.626L364.002 146.627Z" stroke="#FEBD59" stroke-width="2"/>
</g>
<path d="M189.745 65.1843L208.466 73.2858L226.235 63.2655L241.537 76.7558L261.533 72.7168L271.917 90.2754L292.182 92.613L296.632 112.521L315.183 121.007L313.263 141.316L328.284 155.118L320.182 173.84L330.203 191.609L316.712 206.911L320.751 226.906L303.193 237.29L300.855 257.555L280.947 262.005L272.461 280.556L252.153 278.636L238.35 293.657L219.628 285.556L201.859 295.576L186.558 282.086L166.562 286.125L156.178 268.566L135.913 266.228L131.463 246.32L112.912 237.835L114.832 217.526L99.8109 203.723L107.912 185.002L97.8921 167.233L111.382 151.931L107.343 131.935L124.902 121.551L127.24 101.286L147.148 96.8361L155.633 78.2853L175.942 80.205L189.745 65.1843Z" fill="#814507"/>
<path d="M191.584 73.8292L208.889 81.3176L225.313 72.0556L239.457 84.5251L257.939 80.7917L267.538 97.0216L286.269 99.1823L290.382 117.584L307.529 125.427L305.755 144.199L319.639 156.957L312.15 174.262L321.412 190.686L308.943 204.83L312.676 223.313L296.447 232.911L294.286 251.642L275.884 255.756L268.041 272.903L249.269 271.128L236.511 285.012L219.206 277.524L202.782 286.786L188.638 274.316L170.155 278.05L160.557 261.82L141.826 259.659L137.712 241.258L120.565 233.414L122.34 214.642L108.456 201.884L115.944 184.579L106.682 168.155L119.152 154.011L115.418 135.529L131.648 125.931L133.809 107.199L152.21 103.086L160.054 85.9388L178.826 87.7132L191.584 73.8292Z" fill="#BA5F04"/>
<path d="M193.423 82.4741L209.311 89.3495L224.391 80.8457L237.376 92.2943L254.346 88.8666L263.158 103.768L280.356 105.752L284.133 122.647L299.876 129.848L298.247 147.083L310.994 158.796L304.119 174.685L312.622 189.764L301.174 202.75L304.601 219.719L289.7 228.532L287.717 245.73L270.822 249.506L263.62 265.249L246.385 263.62L234.672 276.367L218.784 269.492L203.704 277.996L190.718 266.547L173.749 269.975L164.936 255.074L147.739 253.09L143.962 236.195L128.219 228.994L129.848 211.759L117.101 200.045L123.976 184.157L115.472 169.077L126.921 156.092L123.493 139.122L138.394 130.31L140.378 113.112L157.273 109.335L164.474 93.5923L181.709 95.2214L193.423 82.4741Z" fill="#FEBD59"/>
<path d="M97.9017 366.399L112.611 389.653L139.838 393.623L116.585 408.332L112.615 435.559L97.9054 412.306L70.6785 408.336L93.9316 393.626L97.9017 366.399Z" fill="white"/>
<path d="M360.386 134.425L375.096 157.678L402.323 161.649L379.069 176.358L375.099 203.585L360.39 180.332L333.163 176.361L356.416 161.652L360.386 134.425Z" fill="white"/>
<path d="M162.434 337.741C162.001 335.706 162.057 333.803 162.6 332.031C163.139 330.24 164.097 328.738 165.475 327.524C166.868 326.287 168.562 325.457 170.558 325.032C173.003 324.512 175.233 324.712 177.249 325.633C179.265 326.554 180.803 328.067 181.865 330.172L176.348 331.346C175.754 330.572 175.028 330.042 174.169 329.754C173.33 329.462 172.431 329.418 171.473 329.622C169.927 329.951 168.79 330.755 168.06 332.035C167.331 333.315 167.157 334.855 167.54 336.655C167.923 338.454 168.708 339.79 169.895 340.662C171.083 341.534 172.449 341.806 173.995 341.477C174.953 341.273 175.756 340.867 176.404 340.259C177.071 339.647 177.519 338.867 177.746 337.918L183.263 336.745C183.151 339.1 182.361 341.108 180.895 342.77C179.424 344.411 177.466 345.493 175.021 346.013C173.026 346.437 171.142 346.378 169.37 345.835C167.614 345.268 166.127 344.286 164.91 342.888C163.692 341.491 162.867 339.775 162.434 337.741ZM195.337 341.783C193.733 342.124 192.213 342.09 190.776 341.68C189.359 341.265 188.143 340.502 187.129 339.388C186.135 338.271 185.457 336.861 185.095 335.159C184.737 333.477 184.794 331.921 185.267 330.491C185.736 329.042 186.543 327.837 187.688 326.878C188.834 325.919 190.209 325.268 191.813 324.927C193.417 324.586 194.937 324.62 196.374 325.03C197.811 325.44 199.038 326.212 200.056 327.345C201.07 328.458 201.756 329.856 202.114 331.538C202.472 333.221 202.406 334.789 201.918 336.242C201.445 337.672 200.626 338.868 199.461 339.832C198.316 340.791 196.941 341.441 195.337 341.783ZM194.413 337.44C195.372 337.236 196.109 336.711 196.624 335.865C197.159 335.016 197.287 333.935 197.008 332.625C196.729 331.314 196.182 330.377 195.367 329.814C194.572 329.248 193.695 329.066 192.737 329.27C191.758 329.478 191.021 330.003 190.526 330.844C190.026 331.666 189.917 332.743 190.2 334.073C190.479 335.384 191.007 336.324 191.782 336.895C192.578 337.462 193.455 337.644 194.413 337.44ZM212.973 320.487C214.89 320.079 216.55 320.38 217.95 321.391C219.367 322.378 220.306 323.957 220.768 326.128L222.803 335.694L217.815 336.756L215.923 327.864C215.69 326.769 215.225 325.978 214.529 325.493C213.833 325.007 213.005 324.866 212.047 325.07C211.088 325.274 210.39 325.739 209.952 326.466C209.513 327.194 209.411 328.105 209.644 329.2L211.535 338.091L206.517 339.159L203.034 322.785L208.052 321.718L208.514 323.889C208.868 323.057 209.432 322.344 210.206 321.75C210.975 321.137 211.897 320.716 212.973 320.487ZM234.51 328.756L235.416 333.011L232.863 333.554C231.043 333.941 229.532 333.803 228.327 333.139C227.118 332.455 226.3 331.106 225.871 329.091L224.485 322.577L222.49 323.002L221.603 318.835L223.599 318.41L222.75 314.42L227.767 313.352L228.616 317.343L231.903 316.644L232.789 320.811L229.503 321.51L230.901 328.083C231.005 328.572 231.198 328.899 231.478 329.064C231.759 329.229 232.173 329.254 232.72 329.137L234.51 328.756ZM251.847 320.682C251.947 321.152 252.022 321.647 252.071 322.168L240.715 324.584C241.01 325.584 241.499 326.298 242.183 326.725C242.882 327.129 243.653 327.241 244.494 327.062C245.746 326.796 246.504 326.082 246.768 324.922L252.109 323.786C252.064 324.92 251.771 325.994 251.23 327.009C250.709 328.02 249.963 328.884 248.991 329.602C248.019 330.32 246.868 330.82 245.538 331.103C243.933 331.444 242.433 331.406 241.035 330.988C239.637 330.569 238.451 329.799 237.476 328.677C236.502 327.556 235.833 326.144 235.471 324.442C235.109 322.74 235.135 321.18 235.549 319.763C235.983 318.342 236.753 317.156 237.859 316.205C238.966 315.254 240.331 314.605 241.954 314.26C243.539 313.923 245.018 313.956 246.392 314.359C247.766 314.762 248.926 315.507 249.873 316.593C250.84 317.676 251.498 319.039 251.847 320.682ZM246.431 320.454C246.248 319.593 245.809 318.971 245.114 318.587C244.419 318.204 243.631 318.105 242.751 318.293C241.91 318.472 241.248 318.868 240.765 319.482C240.302 320.092 240.097 320.861 240.152 321.79L246.431 320.454ZM268.977 308.757L272.46 325.13L267.443 326.198L266.968 323.968C266.614 324.8 266.044 325.534 265.259 326.171C264.49 326.785 263.577 327.204 262.521 327.429C261.269 327.695 260.106 327.656 259.031 327.313C257.951 326.949 257.035 326.295 256.282 325.351C255.529 324.407 255.001 323.221 254.697 321.793L252.662 312.227L257.651 311.166L259.542 320.057C259.775 321.153 260.24 321.943 260.936 322.429C261.632 322.915 262.46 323.056 263.418 322.852C264.396 322.644 265.105 322.176 265.543 321.449C265.981 320.722 266.084 319.811 265.851 318.715L263.959 309.824L268.977 308.757ZM263.444 305.67L257.003 310.139L256.266 306.676L262.614 301.768L263.444 305.67ZM273.319 316.36C272.961 314.677 272.96 313.134 273.315 311.729C273.69 310.32 274.353 309.157 275.303 308.239C276.253 307.321 277.402 306.719 278.752 306.432C279.828 306.203 280.854 306.22 281.83 306.482C282.826 306.741 283.659 307.197 284.33 307.852L282.713 300.252L287.731 299.185L292.35 320.899L287.332 321.966L286.833 319.619C286.53 320.501 285.988 321.271 285.208 321.928C284.447 322.58 283.489 323.029 282.335 323.275C280.986 323.562 279.69 323.48 278.449 323.028C277.204 322.557 276.123 321.754 275.207 320.62C274.306 319.462 273.677 318.042 273.319 316.36ZM285.591 313.78C285.324 312.528 284.762 311.615 283.904 311.041C283.065 310.462 282.147 310.28 281.149 310.492C280.152 310.704 279.378 311.247 278.828 312.121C278.293 312.97 278.158 314.021 278.425 315.273C278.691 316.525 279.246 317.45 280.088 318.048C280.947 318.622 281.875 318.803 282.872 318.591C283.87 318.378 284.634 317.837 285.165 316.968C285.715 316.094 285.857 315.032 285.591 313.78ZM303.483 318.776C301.879 319.117 300.359 319.083 298.922 318.673C297.505 318.259 296.289 317.495 295.275 316.381C294.281 315.264 293.603 313.854 293.241 312.152C292.883 310.47 292.94 308.914 293.413 307.484C293.882 306.035 294.689 304.83 295.835 303.871C296.98 302.912 298.355 302.261 299.959 301.92C301.563 301.579 303.083 301.613 304.52 302.023C305.957 302.433 307.184 303.205 308.202 304.338C309.216 305.451 309.902 306.849 310.26 308.531C310.618 310.214 310.553 311.782 310.064 313.235C309.592 314.665 308.773 315.861 307.608 316.825C306.462 317.784 305.087 318.435 303.483 318.776ZM302.559 314.433C303.518 314.229 304.255 313.704 304.77 312.859C305.305 312.009 305.433 310.928 305.154 309.618C304.875 308.307 304.329 307.37 303.514 306.808C302.718 306.241 301.841 306.059 300.883 306.263C299.905 306.471 299.168 306.996 298.672 307.838C298.172 308.66 298.064 309.736 298.347 311.066C298.625 312.377 299.153 313.317 299.929 313.889C300.724 314.455 301.601 314.637 302.559 314.433ZM321.375 314.97C319.947 315.273 318.623 315.299 317.404 315.048C316.185 314.796 315.163 314.318 314.338 313.614C313.51 312.891 312.944 312.009 312.641 310.969L317.6 309.914C317.779 310.469 318.141 310.873 318.686 311.125C319.23 311.377 319.845 311.431 320.529 311.285C321.155 311.152 321.61 310.932 321.892 310.627C322.19 310.298 322.298 309.937 322.214 309.546C322.115 309.077 321.797 308.786 321.262 308.675C320.723 308.545 319.877 308.459 318.723 308.418C317.491 308.394 316.453 308.318 315.608 308.191C314.759 308.045 313.982 307.709 313.277 307.184C312.568 306.64 312.095 305.81 311.858 304.695C311.658 303.756 311.732 302.851 312.078 301.98C312.44 301.085 313.072 300.306 313.974 299.644C314.895 298.978 316.05 298.497 317.439 298.201C319.493 297.765 321.215 297.93 322.606 298.697C324.015 299.461 324.987 300.665 325.521 302.31L320.885 303.296C320.686 302.745 320.336 302.35 319.835 302.109C319.353 301.863 318.77 301.814 318.085 301.959C317.498 302.084 317.073 302.297 316.81 302.599C316.543 302.88 316.451 303.217 316.534 303.608C316.634 304.078 316.954 304.378 317.493 304.508C318.051 304.635 318.884 304.703 319.99 304.713C321.27 304.768 322.324 304.871 323.153 305.022C323.979 305.153 324.748 305.5 325.461 306.064C326.189 306.605 326.684 307.44 326.945 308.57C327.149 309.529 327.058 310.448 326.673 311.327C326.303 312.183 325.655 312.934 324.729 313.581C323.823 314.224 322.705 314.687 321.375 314.97Z" fill="white"/>
<path d="M205.279 150.481C206.484 148.717 208.863 148.211 210.681 149.332L223.635 157.316C223.939 157.503 224.267 157.649 224.609 157.749L239.212 162.028C241.262 162.629 242.478 164.735 241.974 166.811L238.384 181.598C238.3 181.945 238.262 182.301 238.273 182.658L238.715 197.869C238.777 200.004 237.151 201.811 235.021 201.974L219.848 203.129C219.492 203.156 219.141 203.23 218.805 203.35L204.476 208.472C202.464 209.191 200.243 208.202 199.43 206.226L193.643 192.153C193.507 191.823 193.328 191.512 193.11 191.23L183.811 179.184C182.506 177.493 182.759 175.075 184.387 173.692L195.984 163.839C196.256 163.608 196.496 163.341 196.697 163.046L205.279 150.481Z" fill="#BA5F04"/>
<defs>
<filter id="filter0_d_1029_342" x="60.6595" y="34.0576" width="368.934" height="469.477" filterUnits="userSpaceOnUse" color-interpolation-filters="sRGB">
<feFlood flood-opacity="0" result="BackgroundImageFix"/>
<feColorMatrix in="SourceAlpha" type="matrix" values="0 0 0 0 0 0 0 0 0 0 0 0 0 0 0 0 0 0 127 0" result="hardAlpha"/>
<feOffset dx="10" dy="10"/>
<feComposite in2="hardAlpha" operator="out"/>
<feColorMatrix type="matrix" values="0 0 0 0 0.513726 0 0 0 0 0.254902 0 0 0 0 0.0196078 0 0 0 1 0"/>
<feBlend mode="normal" in2="BackgroundImageFix" result="effect1_dropShadow_1029_342"/>
<feBlend mode="normal" in="SourceGraphic" in2="effect1_dropShadow_1029_342" result="shape"/>
</filter>
</defs>
</svg>
