<svg xmlns="http://www.w3.org/2000/svg" width="1691" height="356" viewBox="0 0 1691 356" fill="none">
  <path d="M610 49L613.833 143.574L639.288 52.4368L621.293 145.349L666.997 62.5618L628.145 148.804L691.634 78.8293L634.018 153.751L711.87 100.362L638.596 159.925L726.613 126L641.633 166.992L735.071 154.36L642.964 174.573L736.785 183.913L642.518 182.256L731.665 213.067L640.319 189.63L719.985 240.25L636.486 196.296L702.376 263.996L631.225 201.894L679.788 283.025L624.819 206.124L653.437 296.311L617.615 208.756L624.744 303.138L610 209.65L595.256 303.138L602.385 208.756L566.563 296.311L595.181 206.124L540.212 283.025L588.775 201.894L517.624 263.996L583.514 196.296L500.015 240.25L579.68 189.63L488.335 213.067L577.482 182.256L483.215 183.913L577.036 174.573L484.929 154.36L578.367 166.992L493.387 126L581.404 159.925L508.13 100.362L585.982 153.751L528.366 78.8293L591.855 148.804L553.003 62.5618L598.706 145.349L580.712 52.4368L606.167 143.574L610 49Z" fill="#BA5F04"/>
  <path d="M788.523 83.563L792.617 184.913L819.805 87.246L800.585 186.815L849.4 98.0965L807.903 190.517L875.713 115.529L814.175 195.819L897.326 138.605L819.065 202.435L913.073 166.079L822.309 210.009L922.106 196.471L823.731 218.132L923.938 228.142L823.255 226.366L834.916 243.2L820.906 234.268L905.994 288.514L816.812 241.411L887.187 313.961L811.192 247.411L863.061 334.354L804.351 251.944L834.916 348.592L796.656 254.765L804.27 355.908L788.523 255.722L772.776 355.908L780.39 254.765L742.13 348.592L772.695 251.944L713.985 334.354L765.853 247.411L689.859 313.961L760.234 241.411L671.052 288.514L756.14 234.268L658.577 259.384L753.791 226.366L653.108 228.142L753.315 218.132L654.939 196.471L754.737 210.009L663.972 166.079L757.98 202.435L679.719 138.605L762.87 195.819L701.332 115.529L769.143 190.517L727.646 98.0965L776.461 186.815L757.241 87.246L784.429 184.913L788.523 83.563Z" fill="#BA5F04"/>
  <path d="M337.415 20.8722L341.509 122.222L368.696 24.5552L349.477 124.124L398.292 35.4056L356.794 127.826L424.605 52.8385L363.067 133.128L446.218 75.9141L367.957 139.744L461.965 103.388L371.201 147.318L470.998 133.78L372.622 155.441L472.829 165.451L372.146 163.675L383.808 180.509L369.798 171.577L454.886 225.824L365.704 178.721L436.079 251.271L360.084 184.72L411.952 271.663L353.243 189.253L383.808 285.901L345.548 192.074L353.162 293.217L337.415 193.031L321.667 293.217L329.281 192.074L291.022 285.901L321.587 189.253L262.877 271.663L314.745 184.72L238.751 251.271L309.126 178.721L219.943 225.824L305.031 171.577L207.469 196.694L302.683 163.675L202 165.451L302.207 155.441L203.831 133.78L303.629 147.318L212.864 103.388L306.872 139.744L228.611 75.9141L311.762 133.128L250.224 52.8385L318.035 127.826L276.538 35.4056L325.352 124.124L306.133 24.5552L333.32 122.222L337.415 20.8722Z" fill="#FFC634"/>
  <path d="M1269.22 61.7808L1273.31 163.13L1300.5 65.4638L1281.28 165.033L1330.1 76.3142L1288.6 168.734L1356.41 93.7471L1294.87 174.036L1378.02 116.823L1299.76 180.653L1393.77 144.297L1303 188.226L1402.8 174.689L1304.43 196.349L1404.63 206.36L1303.95 204.584L1399.16 237.602L1301.6 212.486L1386.69 266.732L1297.51 219.629L1367.88 292.179L1291.89 225.629L1343.76 312.571L1285.05 230.161L1315.61 326.809L1277.35 232.982L1284.97 334.125L1269.22 233.94L1253.47 334.125L1261.08 232.982L1222.83 326.809L1253.39 230.161L1194.68 312.571L1246.55 225.629L1170.55 292.179L1240.93 219.629L1151.75 266.732L1236.83 212.486L1139.27 237.602L1234.49 204.584L1133.8 206.36L1234.01 196.349L1135.63 174.689L1235.43 188.226L1144.67 144.297L1238.68 180.653L1160.41 116.823L1243.57 174.036L1182.03 93.7471L1249.84 168.734L1208.34 76.3142L1257.16 165.033L1237.94 65.4638L1265.12 163.13L1269.22 61.7808Z" fill="#FFC634"/>
  <path d="M1110.31 83.563L1114.4 184.913L1141.59 87.246L1122.37 186.815L1171.18 98.0965L1129.69 190.517L1197.5 115.529L1135.96 195.819L1219.11 138.605L1140.85 202.435L1234.86 166.079L1144.09 210.009L1243.89 196.471L1145.51 218.132L1245.72 228.142L1145.04 226.366L1240.25 259.384L1142.69 234.268L1227.78 288.514L1138.6 241.411L1208.97 313.961L1132.98 247.411L1184.84 334.354L1126.13 251.944L1156.7 348.592L1118.44 254.765L1126.05 355.908L1110.31 255.722L1094.56 355.908L1102.17 254.765L1063.91 348.592L1094.48 251.944L1035.77 334.354L1087.64 247.411L1011.64 313.961L1082.02 241.411L992.835 288.514L1077.92 234.268L980.361 259.384L1075.57 226.366L974.892 228.142L1075.1 218.132L976.723 196.471L1076.52 210.009L985.756 166.079L1079.76 202.435L1001.5 138.605L1084.65 195.819L1023.12 115.529L1090.93 190.517L1049.43 98.0965L1098.24 186.815L1079.02 87.246L1106.21 184.913L1110.31 83.563Z" fill="#BA5F04"/>
  <path d="M1514.5 0L1519.83 132.033L1555.2 4.79802L1530.2 134.511L1593.71 18.9334L1539.72 139.334L1627.95 41.6441L1547.88 146.241L1656.07 71.7058L1554.24 154.86L1676.57 107.498L1558.46 164.727L1688.32 147.091L1560.31 175.309L1690.7 188.35L1559.69 186.036L1683.59 229.051L1556.64 196.331L1667.35 267L1551.31 205.637L1642.88 300.151L1544 213.453L1611.49 326.717L1535.1 219.357L1574.87 345.265L1525.08 223.033L1534.99 354.796L1514.5 224.28L1494.01 354.796L1503.92 223.033L1454.13 345.265L1493.9 219.357L1417.51 326.717L1485 213.453L1386.12 300.151L1477.69 205.637L1361.65 267L1472.36 196.331L1345.41 229.051L1469.31 186.036L1338.3 188.35L1468.69 175.309L1340.68 147.091L1470.54 164.727L1352.43 107.498L1474.76 154.86L1372.93 71.7058L1481.12 146.241L1401.05 41.6441L1489.28 139.334L1435.29 18.9334L1498.8 134.511L1473.8 4.79802L1509.17 132.033L1514.5 0Z" fill="#BA5F04"/>
  <path d="M701.336 107.308C706.325 98.5659 718.929 98.5659 723.918 107.308L727.266 113.174C730.588 118.997 737.793 121.338 743.903 118.58L750.06 115.802C759.235 111.662 769.431 119.07 768.329 129.075L767.589 135.789C766.855 142.453 771.308 148.581 777.872 149.942L784.486 151.314C794.342 153.357 798.237 165.344 791.464 172.79L780.2 185.175C779.38 186.076 778.691 187.089 778.153 188.182L769.867 205.017C767.68 209.461 763.157 212.277 758.203 212.277H742.33H754.312H692.128H706.833H667.05C662.097 212.277 657.574 209.461 655.386 205.017L647.101 188.182C646.563 187.089 645.874 186.076 645.054 185.175L633.79 172.79C627.017 165.344 630.912 153.357 640.768 151.314L647.382 149.942C653.946 148.581 658.399 142.453 657.664 135.789L656.925 129.075C655.822 119.07 666.019 111.662 675.194 115.802L681.35 118.58C687.461 121.338 694.666 118.997 697.988 113.174L701.336 107.308Z" fill="#979A2B"/>
  <path d="M701.336 107.308C706.325 98.5659 718.929 98.5659 723.918 107.308L727.266 113.174C730.588 118.997 737.793 121.338 743.903 118.58L750.06 115.802C759.235 111.662 769.431 119.07 768.329 129.075L767.589 135.789C766.855 142.453 771.308 148.581 777.872 149.942L784.486 151.314C794.342 153.357 798.237 165.344 791.464 172.79L780.2 185.175C779.38 186.076 778.691 187.089 778.153 188.182L769.867 205.017C767.68 209.461 763.157 212.277 758.203 212.277H742.33H754.312H692.128H706.833H667.05C662.097 212.277 657.574 209.461 655.386 205.017L647.101 188.182C646.563 187.089 645.874 186.076 645.054 185.175L633.79 172.79C627.017 165.344 630.912 153.357 640.768 151.314L647.382 149.942C653.946 148.581 658.399 142.453 657.664 135.789L656.925 129.075C655.822 119.07 666.019 111.662 675.194 115.802L681.35 118.58C687.461 121.338 694.666 118.997 697.988 113.174L701.336 107.308Z" fill="url(#paint0_linear_569_25)" fill-opacity="0.2"/>
  <path d="M403.42 81.5611C408.409 72.8202 421.011 72.8202 426 81.5611L433.583 94.8457C436.906 100.667 444.11 103.008 450.219 100.251L464.164 93.9596C473.339 89.8203 483.535 97.2287 482.432 107.233L480.758 122.431C480.024 129.094 484.477 135.223 491.041 136.584L506.016 139.688C515.872 141.731 519.767 153.719 512.994 161.165L495.985 179.863C495.165 180.764 494.476 181.777 493.938 182.87L483.036 205.018C480.848 209.462 476.325 212.277 471.372 212.277H450.548H465.005H389.976H407.719H358.047C353.094 212.277 348.571 209.462 346.384 205.018L335.482 182.87C334.944 181.777 334.255 180.764 333.435 179.863L316.426 161.165C309.653 153.719 313.547 141.731 323.404 139.688L338.379 136.584C344.943 135.223 349.396 129.094 348.662 122.431L346.987 107.233C345.885 97.2287 356.081 89.8203 365.255 93.9596L379.2 100.251C385.31 103.008 392.514 100.667 395.837 94.8457L403.42 81.5611Z" fill="#979A2B"/>
  <path d="M403.42 81.5611C408.409 72.8202 421.011 72.8202 426 81.5611L433.583 94.8457C436.906 100.667 444.11 103.008 450.219 100.251L464.164 93.9596C473.339 89.8203 483.535 97.2287 482.432 107.233L480.758 122.431C480.024 129.094 484.477 135.223 491.041 136.584L506.016 139.688C515.872 141.731 519.767 153.719 512.994 161.165L495.985 179.863C495.165 180.764 494.476 181.777 493.938 182.87L483.036 205.018C480.848 209.462 476.325 212.277 471.372 212.277H450.548H465.005H389.976H407.719H358.047C353.094 212.277 348.571 209.462 346.384 205.018L335.482 182.87C334.944 181.777 334.255 180.764 333.435 179.863L316.426 161.165C309.653 153.719 313.547 141.731 323.404 139.688L338.379 136.584C344.943 135.223 349.396 129.094 348.662 122.431L346.987 107.233C345.885 97.2287 356.081 89.8203 365.255 93.9596L379.2 100.251C385.31 103.008 392.514 100.667 395.837 94.8457L403.42 81.5611Z" fill="url(#paint1_linear_569_25)" fill-opacity="0.2"/>
  <path d="M142.208 13.7916C147.197 5.04773 159.803 5.04774 164.792 13.7916L183.45 46.4965C186.773 52.3201 193.979 54.6616 200.09 51.9033L234.402 36.4156C243.577 32.2744 253.774 39.6824 252.672 49.6877L248.549 87.1278C247.815 93.7906 252.267 99.9191 258.831 101.28L295.7 108.926C305.555 110.97 309.45 122.955 302.679 130.401L270.622 165.657C269.803 166.558 269.114 167.571 268.576 168.664L250.827 204.739C248.64 209.184 244.116 212 239.162 212H205.39H226.322H117.689H143.378H67.8377C62.8836 212 58.3601 209.184 56.1731 204.739L38.4238 168.664C37.886 167.571 37.1972 166.558 36.3776 165.657L4.32102 130.401C-2.44957 122.955 1.44509 110.97 11.2996 108.926L48.1691 101.28C54.7326 99.9191 59.185 93.7906 58.4512 87.1278L54.3275 49.6877C53.2255 39.6824 63.4231 32.2744 72.5976 36.4156L106.91 51.9033C113.021 54.6616 120.227 52.3201 123.55 46.4965L142.208 13.7916Z" fill="#979A2B"/>
  <path d="M142.208 13.7916C147.197 5.04773 159.803 5.04774 164.792 13.7916L183.45 46.4965C186.773 52.3201 193.979 54.6616 200.09 51.9033L234.402 36.4156C243.577 32.2744 253.774 39.6824 252.672 49.6877L248.549 87.1278C247.815 93.7906 252.267 99.9191 258.831 101.28L295.7 108.926C305.555 110.97 309.45 122.955 302.679 130.401L270.622 165.657C269.803 166.558 269.114 167.571 268.576 168.664L250.827 204.739C248.64 209.184 244.116 212 239.162 212H205.39H226.322H117.689H143.378H67.8377C62.8836 212 58.3601 209.184 56.1731 204.739L38.4238 168.664C37.886 167.571 37.1972 166.558 36.3776 165.657L4.32102 130.401C-2.44957 122.955 1.44509 110.97 11.2996 108.926L48.1691 101.28C54.7326 99.9191 59.185 93.7906 58.4512 87.1278L54.3275 49.6877C53.2255 39.6824 63.4231 32.2744 72.5976 36.4156L106.91 51.9033C113.021 54.6616 120.227 52.3201 123.55 46.4965L142.208 13.7916Z" fill="url(#paint2_linear_569_25)" fill-opacity="0.2"/>
  <path d="M1177.73 122.627C1182.72 113.892 1195.32 113.892 1200.31 122.627L1201.16 124.115C1204.48 129.931 1211.68 132.27 1217.79 129.517L1219.35 128.811C1228.53 124.675 1238.72 132.085 1237.62 142.088L1237.44 143.749C1236.7 150.414 1241.15 156.544 1247.72 157.904L1249.37 158.245C1259.23 160.287 1263.12 172.281 1256.34 179.727L1248.5 188.342C1247.68 189.243 1246.99 190.255 1246.45 191.349L1239.71 205.022C1237.52 209.464 1233 212.277 1228.05 212.277H1215.1H1225.62H1171.02H1183.93H1149.99C1145.04 212.277 1140.52 209.464 1138.33 205.022L1131.59 191.349C1131.05 190.255 1130.36 189.243 1129.54 188.342L1121.7 179.727C1114.92 172.281 1118.81 160.287 1128.67 158.245L1130.32 157.904C1136.88 156.544 1141.34 150.414 1140.6 143.749L1140.42 142.088C1139.32 132.085 1149.51 124.675 1158.68 128.811L1160.25 129.517C1166.36 132.27 1173.56 129.931 1176.88 124.115L1177.73 122.627Z" fill="#979A2B"/>
  <path d="M1177.73 122.627C1182.72 113.892 1195.32 113.892 1200.31 122.627L1201.16 124.115C1204.48 129.931 1211.68 132.27 1217.79 129.517L1219.35 128.811C1228.53 124.675 1238.72 132.085 1237.62 142.088L1237.44 143.749C1236.7 150.414 1241.15 156.544 1247.72 157.904L1249.37 158.245C1259.23 160.287 1263.12 172.281 1256.34 179.727L1248.5 188.342C1247.68 189.243 1246.99 190.255 1246.45 191.349L1239.71 205.022C1237.52 209.464 1233 212.277 1228.05 212.277H1215.1H1225.62H1171.02H1183.93H1149.99C1145.04 212.277 1140.52 209.464 1138.33 205.022L1131.59 191.349C1131.05 190.255 1130.36 189.243 1129.54 188.342L1121.7 179.727C1114.92 172.281 1118.81 160.287 1128.67 158.245L1130.32 157.904C1136.88 156.544 1141.34 150.414 1140.6 143.749L1140.42 142.088C1139.32 132.085 1149.51 124.675 1158.68 128.811L1160.25 129.517C1166.36 132.27 1173.56 129.931 1176.88 124.115L1177.73 122.627Z" fill="url(#paint3_linear_569_25)" fill-opacity="0.2"/>
  <path d="M1019.46 139.665C1023.72 132.175 1034.52 132.175 1038.77 139.665C1041.6 144.652 1047.77 146.659 1053 144.291C1060.83 140.742 1069.53 147.136 1068.6 155.68C1067.97 161.386 1071.78 166.674 1077.4 167.844C1085.83 169.6 1089.17 179.849 1083.39 186.233L1077.78 192.428C1076.96 193.329 1076.28 194.341 1075.74 195.433L1071.06 204.996C1068.87 209.452 1064.34 212.277 1059.38 212.277H1050.36H1058.92H1014.46H1024.98H998.853C993.891 212.277 989.362 209.452 987.179 204.996L982.494 195.433C981.959 194.341 981.273 193.329 980.457 192.428L974.849 186.233C969.068 179.849 972.406 169.6 980.837 167.844C986.457 166.674 990.264 161.386 989.638 155.68C988.701 147.136 997.409 140.742 1005.24 144.291C1010.46 146.659 1016.63 144.652 1019.46 139.665Z" fill="#979A2B"/>
  <path d="M1019.46 139.665C1023.72 132.175 1034.52 132.175 1038.77 139.665C1041.6 144.652 1047.77 146.659 1053 144.291C1060.83 140.742 1069.53 147.136 1068.6 155.68C1067.97 161.386 1071.78 166.674 1077.4 167.844C1085.83 169.6 1089.17 179.849 1083.39 186.233L1077.78 192.428C1076.96 193.329 1076.28 194.341 1075.74 195.433L1071.06 204.996C1068.87 209.452 1064.34 212.277 1059.38 212.277H1050.36H1058.92H1014.46H1024.98H998.853C993.891 212.277 989.362 209.452 987.179 204.996L982.494 195.433C981.959 194.341 981.273 193.329 980.457 192.428L974.849 186.233C969.068 179.849 972.406 169.6 980.837 167.844C986.457 166.674 990.264 161.386 989.638 155.68C988.701 147.136 997.409 140.742 1005.24 144.291C1010.46 146.659 1016.63 144.652 1019.46 139.665Z" fill="url(#paint4_linear_569_25)" fill-opacity="0.2"/>
  <path d="M1576.82 90.6337C1581.81 81.91 1594.39 81.91 1599.38 90.6337L1605.45 101.244C1608.78 107.052 1615.97 109.388 1622.07 106.642L1633.25 101.612C1642.42 97.4833 1652.61 104.894 1651.51 114.895L1650.17 126.933C1649.44 133.601 1653.9 139.734 1660.46 141.092L1672.38 143.555C1682.25 145.595 1686.14 157.601 1679.35 165.046L1664.46 181.37C1663.64 182.271 1662.95 183.283 1662.41 184.377L1652.45 204.552C1650.26 208.989 1645.74 211.799 1640.79 211.799H1621.74H1635.31H1564.88H1581.54H1535.4C1530.45 211.799 1525.93 208.989 1523.74 204.552L1513.79 184.377C1513.25 183.283 1512.56 182.271 1511.73 181.37L1496.85 165.046C1490.06 157.601 1493.95 145.595 1503.82 143.555L1515.73 141.092C1522.3 139.734 1526.76 133.601 1526.02 126.933L1524.69 114.895C1523.59 104.894 1533.77 97.4833 1542.95 101.612L1554.13 106.642C1560.23 109.388 1567.42 107.052 1570.74 101.244L1576.82 90.6337Z" fill="#979A2B"/>
  <path d="M1576.82 90.6337C1581.81 81.91 1594.39 81.91 1599.38 90.6337L1605.45 101.244C1608.78 107.052 1615.97 109.388 1622.07 106.642L1633.25 101.612C1642.42 97.4833 1652.61 104.894 1651.51 114.895L1650.17 126.933C1649.44 133.601 1653.9 139.734 1660.46 141.092L1672.38 143.555C1682.25 145.595 1686.14 157.601 1679.35 165.046L1664.46 181.37C1663.64 182.271 1662.95 183.283 1662.41 184.377L1652.45 204.552C1650.26 208.989 1645.74 211.799 1640.79 211.799H1621.74H1635.31H1564.88H1581.54H1535.4C1530.45 211.799 1525.93 208.989 1523.74 204.552L1513.79 184.377C1513.25 183.283 1512.56 182.271 1511.73 181.37L1496.85 165.046C1490.06 157.601 1493.95 145.595 1503.82 143.555L1515.73 141.092C1522.3 139.734 1526.76 133.601 1526.02 126.933L1524.69 114.895C1523.59 104.894 1533.77 97.4833 1542.95 101.612L1554.13 106.642C1560.23 109.388 1567.42 107.052 1570.74 101.244L1576.82 90.6337Z" fill="url(#paint5_linear_569_25)" fill-opacity="0.2"/>
  <path d="M272.433 124.798C274.685 118.695 283.315 118.695 285.567 124.798L294.815 149.859C296.121 153.4 300 155.267 303.583 154.081L329.034 145.651C335.223 143.601 340.607 150.381 337.209 155.945L323.358 178.62C321.379 181.861 322.344 186.088 325.533 188.149L344.064 200.12C349.925 203.907 347.243 213 340.265 213H217.735C210.757 213 208.075 203.907 213.936 200.12L232.467 188.149C235.656 186.088 236.621 181.861 234.642 178.62L220.791 155.945C217.393 150.381 222.777 143.601 228.966 145.651L254.417 154.081C258 155.267 261.879 153.4 263.185 149.859L272.433 124.798Z" fill="#454D11"/>
  <path d="M272.433 124.798C274.685 118.695 283.315 118.695 285.567 124.798L294.815 149.859C296.121 153.4 300 155.267 303.583 154.081L329.034 145.651C335.223 143.601 340.607 150.381 337.209 155.945L323.358 178.62C321.379 181.861 322.344 186.088 325.533 188.149L344.064 200.12C349.925 203.907 347.243 213 340.265 213H217.735C210.757 213 208.075 203.907 213.936 200.12L232.467 188.149C235.656 186.088 236.621 181.861 234.642 178.62L220.791 155.945C217.393 150.381 222.777 143.601 228.966 145.651L254.417 154.081C258 155.267 261.879 153.4 263.185 149.859L272.433 124.798Z" fill="url(#paint6_linear_569_25)" fill-opacity="0.2"/>
  <path d="M1226.03 158.897C1228.28 152.779 1236.93 152.779 1239.18 158.897L1242.43 167.766C1243.73 171.318 1247.62 173.192 1251.21 171.996L1260.18 169.011C1266.36 166.952 1271.76 173.717 1268.37 179.286L1263.47 187.361C1261.5 190.595 1262.46 194.804 1265.64 196.866L1269.74 199.534C1275.59 203.33 1272.9 212.404 1265.93 212.404H1199.28C1192.31 212.404 1189.62 203.33 1195.47 199.534L1199.57 196.866C1202.75 194.804 1203.71 190.595 1201.74 187.361L1196.84 179.286C1193.45 173.717 1198.85 166.952 1205.03 169.011L1214 171.996C1217.58 173.192 1221.48 171.318 1222.78 167.766L1226.03 158.897Z" fill="#454D11"/>
  <path d="M1226.03 158.897C1228.28 152.779 1236.93 152.779 1239.18 158.897L1242.43 167.766C1243.73 171.318 1247.62 173.192 1251.21 171.996L1260.18 169.011C1266.36 166.952 1271.76 173.717 1268.37 179.286L1263.47 187.361C1261.5 190.595 1262.46 194.804 1265.64 196.866L1269.74 199.534C1275.59 203.33 1272.9 212.404 1265.93 212.404H1199.28C1192.31 212.404 1189.62 203.33 1195.47 199.534L1199.57 196.866C1202.75 194.804 1203.71 190.595 1201.74 187.361L1196.84 179.286C1193.45 173.717 1198.85 166.952 1205.03 169.011L1214 171.996C1217.58 173.192 1221.48 171.318 1222.78 167.766L1226.03 158.897Z" fill="url(#paint7_linear_569_25)" fill-opacity="0.2"/>
  <path d="M968.295 180.365C970.391 174.677 978.438 174.677 980.535 180.365C981.751 183.665 985.385 185.399 988.723 184.292C994.459 182.39 999.508 188.653 996.36 193.812L995.868 194.619C994.31 197.172 995.07 200.502 997.581 202.126C1002.2 205.112 1000.08 212.277 994.585 212.277H954.244C948.746 212.277 946.631 205.112 951.248 202.126C953.76 200.502 954.52 197.172 952.962 194.619L952.469 193.812C949.322 188.653 954.371 182.39 960.107 184.292C963.444 185.399 967.079 183.665 968.295 180.365Z" fill="#454D11"/>
  <path d="M968.295 180.365C970.391 174.677 978.438 174.677 980.535 180.365C981.751 183.665 985.385 185.399 988.723 184.292C994.459 182.39 999.508 188.653 996.36 193.812L995.868 194.619C994.31 197.172 995.07 200.502 997.581 202.126C1002.2 205.112 1000.08 212.277 994.585 212.277H954.244C948.746 212.277 946.631 205.112 951.248 202.126C953.76 200.502 954.52 197.172 952.962 194.619L952.469 193.812C949.322 188.653 954.371 182.39 960.107 184.292C963.444 185.399 967.079 183.665 968.295 180.365Z" fill="url(#paint8_linear_569_25)" fill-opacity="0.2"/>
  <path d="M851.97 171.79C854.214 165.669 862.871 165.669 865.115 171.79L866.144 174.598C867.447 178.152 871.339 180.027 874.93 178.83L877.769 177.883C883.95 175.822 889.348 182.584 885.967 188.155L884.222 191.03C882.359 194.101 883.271 198.096 886.282 200.054C891.83 203.661 889.275 212.277 882.657 212.277H834.428C827.81 212.277 825.255 203.661 830.803 200.054C833.814 198.096 834.725 194.101 832.862 191.03L831.118 188.155C827.737 182.584 833.134 175.822 839.316 177.883L842.154 178.83C845.745 180.027 849.638 178.152 850.941 174.598L851.97 171.79Z" fill="#454D11"/>
  <path d="M851.97 171.79C854.214 165.669 862.871 165.669 865.115 171.79L866.144 174.598C867.447 178.152 871.339 180.027 874.93 178.83L877.769 177.883C883.95 175.822 889.348 182.584 885.967 188.155L884.222 191.03C882.359 194.101 883.271 198.096 886.282 200.054C891.83 203.661 889.275 212.277 882.657 212.277H834.428C827.81 212.277 825.255 203.661 830.803 200.054C833.814 198.096 834.725 194.101 832.862 191.03L831.118 188.155C827.737 182.584 833.134 175.822 839.316 177.883L842.154 178.83C845.745 180.027 849.638 178.152 850.941 174.598L851.97 171.79Z" fill="url(#paint9_linear_569_25)" fill-opacity="0.2"/>
  <path d="M596.309 133.586C598.558 127.477 607.198 127.477 609.447 133.586L617.034 154.195C618.339 157.741 622.223 159.611 625.809 158.421L646.694 151.487C652.88 149.433 658.269 156.207 654.877 161.773L643.492 180.455C641.519 183.693 642.482 187.913 645.665 189.973L660.223 199.401C666.077 203.192 663.393 212.277 656.418 212.277H549.338C542.364 212.277 539.679 203.192 545.533 199.401L560.092 189.973C563.274 187.913 564.238 183.693 562.265 180.455L550.88 161.773C547.488 156.207 552.876 149.433 559.063 151.487L579.948 158.421C583.534 159.611 587.417 157.741 588.723 154.195L596.309 133.586Z" fill="#454D11"/>
  <path d="M596.309 133.586C598.558 127.477 607.198 127.477 609.447 133.586L617.034 154.195C618.339 157.741 622.223 159.611 625.809 158.421L646.694 151.487C652.88 149.433 658.269 156.207 654.877 161.773L643.492 180.455C641.519 183.693 642.482 187.913 645.665 189.973L660.223 199.401C666.077 203.192 663.393 212.277 656.418 212.277H549.338C542.364 212.277 539.679 203.192 545.533 199.401L560.092 189.973C563.274 187.913 564.238 183.693 562.265 180.455L550.88 161.773C547.488 156.207 552.876 149.433 559.063 151.487L579.948 158.421C583.534 159.611 587.417 157.741 588.723 154.195L596.309 133.586Z" fill="url(#paint10_linear_569_25)" fill-opacity="0.2"/>
  <path d="M1416.86 115.679C1419.11 109.57 1427.75 109.57 1429.99 115.679L1440.59 144.46C1441.9 148.006 1445.78 149.876 1449.36 148.686L1478.53 139.001C1484.72 136.947 1490.11 143.721 1486.72 149.287L1470.8 175.409C1468.83 178.647 1469.79 182.867 1472.97 184.928L1494.85 199.097C1500.71 202.888 1498.02 211.973 1491.05 211.973H1355.8C1348.83 211.973 1346.14 202.888 1352 199.097L1373.88 184.928C1377.06 182.867 1378.03 178.647 1376.05 175.409L1360.13 149.287C1356.74 143.721 1362.13 136.947 1368.32 139.001L1397.49 148.686C1401.07 149.876 1404.96 148.006 1406.26 144.46L1416.86 115.679Z" fill="#454D11"/>
  <path d="M1416.86 115.679C1419.11 109.57 1427.75 109.57 1429.99 115.679L1440.59 144.46C1441.9 148.006 1445.78 149.876 1449.36 148.686L1478.53 139.001C1484.72 136.947 1490.11 143.721 1486.72 149.287L1470.8 175.409C1468.83 178.647 1469.79 182.867 1472.97 184.928L1494.85 199.097C1500.71 202.888 1498.02 211.973 1491.05 211.973H1355.8C1348.83 211.973 1346.14 202.888 1352 199.097L1373.88 184.928C1377.06 182.867 1378.03 178.647 1376.05 175.409L1360.13 149.287C1356.74 143.721 1362.13 136.947 1368.32 139.001L1397.49 148.686C1401.07 149.876 1404.96 148.006 1406.26 144.46L1416.86 115.679Z" fill="url(#paint11_linear_569_25)" fill-opacity="0.2"/>
  <path d="M207 209H1647V356H207V209Z" fill="#454D11"/>
  <defs>
    <linearGradient id="paint0_linear_569_25" x1="969.248" y1="356" x2="1030.04" y2="-64.7098" gradientUnits="userSpaceOnUse">
      <stop stop-color="#102404"/>
      <stop offset="1" stop-opacity="0"/>
    </linearGradient>
    <linearGradient id="paint1_linear_569_25" x1="680.653" y1="265.456" x2="824.077" y2="-35.1299" gradientUnits="userSpaceOnUse">
      <stop offset="0.0590967" stop-color="#102404"/>
      <stop offset="1" stop-color="#102404" stop-opacity="0"/>
    </linearGradient>
    <linearGradient id="paint2_linear_569_25" x1="1315.2" y1="213.717" x2="1596.31" y2="-295.639" gradientUnits="userSpaceOnUse">
      <stop offset="0.0590967" stop-color="#102404"/>
      <stop offset="1" stop-color="#102404" stop-opacity="0"/>
    </linearGradient>
    <linearGradient id="paint3_linear_569_25" x1="1022.89" y1="256.932" x2="715.444" y2="-514.105" gradientUnits="userSpaceOnUse">
      <stop stop-color="#102404"/>
      <stop offset="1" stop-color="#102404" stop-opacity="0"/>
    </linearGradient>
    <linearGradient id="paint4_linear_569_25" x1="1187.5" y1="449.425" x2="1136.43" y2="-148.596" gradientUnits="userSpaceOnUse">
      <stop stop-color="#1E1E1E"/>
      <stop offset="1" stop-opacity="0"/>
    </linearGradient>
    <linearGradient id="paint5_linear_569_25" x1="1022.89" y1="256.932" x2="715.444" y2="-514.105" gradientUnits="userSpaceOnUse">
      <stop stop-color="#102404"/>
      <stop offset="1" stop-color="#102404" stop-opacity="0"/>
    </linearGradient>
    <linearGradient id="paint6_linear_569_25" x1="1368.45" y1="-20.082" x2="1330.61" y2="354.181" gradientUnits="userSpaceOnUse">
      <stop/>
      <stop offset="1" stop-opacity="0"/>
    </linearGradient>
    <linearGradient id="paint7_linear_569_25" x1="603.152" y1="48.1223" x2="624.096" y2="381.397" gradientUnits="userSpaceOnUse">
      <stop/>
      <stop offset="1" stop-opacity="0"/>
    </linearGradient>
    <linearGradient id="paint8_linear_569_25" x1="1034.17" y1="-452.265" x2="1013.19" y2="278.913" gradientUnits="userSpaceOnUse">
      <stop/>
      <stop offset="1" stop-opacity="0"/>
    </linearGradient>
    <linearGradient id="paint9_linear_569_25" x1="845.815" y1="79.9492" x2="865.226" y2="365.967" gradientUnits="userSpaceOnUse">
      <stop/>
      <stop offset="1" stop-opacity="0"/>
    </linearGradient>
    <linearGradient id="paint10_linear_569_25" x1="1368.45" y1="-20.082" x2="1330.61" y2="354.181" gradientUnits="userSpaceOnUse">
      <stop/>
      <stop offset="1" stop-opacity="0"/>
    </linearGradient>
    <linearGradient id="paint11_linear_569_25" x1="603.152" y1="48.1223" x2="624.096" y2="381.397" gradientUnits="userSpaceOnUse">
      <stop/>
      <stop offset="1" stop-opacity="0"/>
    </linearGradient>
  </defs>
</svg>