<svg width="338" height="338" viewBox="0 0 338 338" fill="none" xmlns="http://www.w3.org/2000/svg">
<path d="M168.629 0L192.634 17.0659L220.738 8.25329L238.295 31.9019L267.747 32.2053L277.136 60.1218L305.053 69.5113L305.356 98.9631L329.005 116.52L320.192 144.624L337.258 168.629L320.192 192.634L329.005 220.738L305.356 238.295L305.053 267.747L277.136 277.136L267.747 305.053L238.295 305.356L220.738 329.005L192.634 320.192L168.629 337.258L144.624 320.192L116.52 329.005L98.9631 305.356L69.5113 305.053L60.1218 277.136L32.2053 267.747L31.9019 238.295L8.25329 220.738L17.0659 192.634L0 168.629L17.0659 144.624L8.25329 116.52L31.9019 98.9631L32.2053 69.5113L60.1218 60.1218L69.5113 32.2053L98.9631 31.9019L116.52 8.25329L144.624 17.0659L168.629 0Z" fill="#814507"/>
<path d="M168.629 12.7611L190.818 28.5355L216.795 20.3898L233.023 42.2488L260.246 42.5292L268.925 68.3331L294.729 77.0121L295.009 104.235L316.868 120.463L308.722 146.44L324.497 168.629L308.722 190.818L316.868 216.795L295.009 233.023L294.729 260.246L268.925 268.925L260.246 294.729L233.023 295.009L216.795 316.868L190.818 308.722L168.629 324.497L146.44 308.722L120.463 316.868L104.235 295.009L77.0121 294.729L68.3331 268.925L42.5292 260.246L42.2488 233.023L20.3898 216.795L28.5355 190.818L12.7611 168.629L28.5355 146.44L20.3898 120.463L42.2488 104.235L42.5292 77.0121L68.3331 68.3331L77.0121 42.5292L104.235 42.2488L120.463 20.3898L146.44 28.5355L168.629 12.7611Z" fill="#BA5F04"/>
<path d="M168.629 25.5222L189.001 40.0051L212.851 32.5264L227.751 52.5957L252.745 52.8532L260.713 76.5445L284.405 84.5129L284.662 109.507L304.732 124.407L297.253 148.257L311.736 168.629L297.253 189.001L304.732 212.851L284.662 227.751L284.405 252.745L260.713 260.713L252.745 284.405L227.751 284.662L212.851 304.732L189.001 297.253L168.629 311.736L148.257 297.253L124.407 304.732L109.507 284.662L84.5129 284.405L76.5445 260.713L52.8532 252.745L52.5957 227.751L32.5264 212.851L40.0051 189.001L25.5222 168.629L40.0051 148.257L32.5264 124.407L52.5957 109.507L52.8532 84.5129L76.5445 76.5445L84.5129 52.8532L109.507 52.5957L124.407 32.5264L148.257 40.0051L168.629 25.5222Z" fill="#FEBD59"/>
<circle cx="168.629" cy="168.629" r="111" stroke="#814507" stroke-width="5"/>
</svg>
