<svg xmlns="http://www.w3.org/2000/svg" width="320" height="247" viewBox="0 0 320 247" fill="none">
  <g filter="url(#filter0_d_255_146)">
    <path d="M97 -189L127.464 -167.342L163.13 -178.526L185.41 -148.515L222.786 -148.13L234.702 -112.702L270.13 -100.786L270.515 -63.4101L300.526 -41.1296L289.342 -5.46405L311 25L289.342 55.4641L300.526 91.1296L270.515 113.41L270.13 150.786L234.702 162.702L222.786 198.13L185.41 198.515L163.13 228.526L127.464 217.342L97 239L66.5359 217.342L30.8704 228.526L8.58989 198.515L-28.786 198.13L-40.702 162.702L-76.1296 150.786L-76.5146 113.41L-106.526 91.1296L-95.3424 55.4641L-117 25L-95.3424 -5.46405L-106.526 -41.1296L-76.5146 -63.4101L-76.1296 -100.786L-40.702 -112.702L-28.786 -148.13L8.58989 -148.515L30.8704 -178.526L66.5359 -167.342L97 -189Z" fill="#814507"/>
    <path d="M97 -172.805L125.159 -152.787L158.125 -163.124L178.72 -135.384L213.267 -135.028L224.281 -102.281L257.028 -91.2671L257.384 -56.7196L285.124 -36.1252L274.787 -3.15866L294.805 25L274.787 53.1587L285.124 86.1252L257.384 106.72L257.028 141.267L224.281 152.281L213.267 185.028L178.72 185.384L158.125 213.124L125.159 202.787L97 222.805L68.8413 202.787L35.8748 213.124L15.2804 185.384L-19.2671 185.028L-30.2813 152.281L-63.0279 141.267L-63.3838 106.72L-91.1241 86.1252L-80.7868 53.1587L-100.805 25L-80.7868 -3.15866L-91.1241 -36.1252L-63.3838 -56.7196L-63.0279 -91.2671L-30.2813 -102.281L-19.2671 -135.028L15.2804 -135.384L35.8748 -163.124L68.8413 -152.787L97 -172.805Z" fill="#BA5F04"/>
    <path d="M97 -156.611L122.853 -138.231L153.121 -147.722L172.029 -122.253L203.748 -121.926L213.861 -91.8606L243.926 -81.7482L244.253 -50.0291L269.722 -31.1208L260.231 -0.853271L278.611 25L260.231 50.8533L269.722 81.1208L244.253 100.029L243.926 131.748L213.861 141.861L203.748 171.926L172.029 172.253L153.121 197.722L122.853 188.231L97 206.611L71.1467 188.231L40.8792 197.722L21.9709 172.253L-9.74816 171.926L-19.8606 141.861L-49.9262 131.748L-50.2529 100.029L-75.7221 81.1208L-66.2311 50.8533L-84.6108 25L-66.2311 -0.853271L-75.7221 -31.1208L-50.2529 -50.0291L-49.9262 -81.7482L-19.8606 -91.8606L-9.74816 -121.926L21.9709 -122.253L40.8792 -147.722L71.1467 -138.231L97 -156.611Z" fill="#FEBD59"/>
  </g>
  <defs>
    <filter id="filter0_d_255_146" x="-117" y="19" width="437" height="436" filterUnits="userSpaceOnUse" color-interpolation-filters="sRGB">
      <feFlood flood-opacity="0" result="BackgroundImageFix"/>
      <feColorMatrix in="SourceAlpha" type="matrix" values="0 0 0 0 0 0 0 0 0 0 0 0 0 0 0 0 0 0 127 0" result="hardAlpha"/>
      <feOffset dx="9" dy="8"/>
      <feComposite in2="hardAlpha" operator="out"/>
      <feColorMatrix type="matrix" values="0 0 0 0 0 0 0 0 0 0 0 0 0 0 0 0 0 0 0.25 0"/>
      <feBlend mode="normal" in2="BackgroundImageFix" result="effect1_dropShadow_255_146"/>
      <feBlend mode="normal" in="SourceGraphic" in2="effect1_dropShadow_255_146" result="shape"/>
    </filter>
  </defs>
</svg>