<svg xmlns="http://www.w3.org/2000/svg" width="287" height="147" viewBox="0 0 287 147" fill="none">
  <g filter="url(#filter0_d_255_147)">
    <path d="M139 -139L158.787 -124.933L181.953 -132.197L196.425 -112.703L220.702 -112.453L228.442 -89.4419L251.453 -81.7021L251.703 -57.4253L271.197 -42.9534L263.933 -19.7874L278 0L263.933 19.7874L271.197 42.9534L251.703 57.4252L251.453 81.7021L228.442 89.4419L220.702 112.453L196.425 112.703L181.953 132.197L158.787 124.933L139 139L119.213 124.933L96.0466 132.197L81.5747 112.703L57.2979 112.453L49.5581 89.4419L26.5466 81.7021L26.2966 57.4252L6.80315 42.9534L14.0673 19.7874L0 0L14.0673 -19.7874L6.80315 -42.9534L26.2966 -57.4253L26.5466 -81.7021L49.5581 -89.4419L57.2979 -112.453L81.5747 -112.703L96.0466 -132.197L119.213 -124.933L139 -139Z" fill="#814507"/>
    <path d="M139 -128.481L157.29 -115.478L178.703 -122.193L192.08 -104.175L214.519 -103.943L221.673 -82.6734L242.943 -75.5193L243.175 -53.0796L261.193 -39.7028L254.478 -18.29L267.481 0L254.478 18.29L261.193 39.7028L243.175 53.0796L242.943 75.5193L221.673 82.6734L214.519 103.943L192.08 104.175L178.703 122.193L157.29 115.478L139 128.481L120.71 115.478L99.2972 122.193L85.9204 104.175L63.4807 103.943L56.3266 82.6734L35.0566 75.5193L34.8255 53.0796L16.8072 39.7028L23.5217 18.29L10.5189 0L23.5217 -18.29L16.8072 -39.7028L34.8255 -53.0796L35.0566 -75.5193L56.3266 -82.6734L63.4807 -103.943L85.9204 -104.175L99.2972 -122.193L120.71 -115.478L139 -128.481Z" fill="#BA5F04"/>
    <path d="M139 -117.962L155.793 -106.024L175.452 -112.189L187.734 -95.6456L208.336 -95.4334L214.905 -75.9048L234.433 -69.3364L234.646 -48.7339L251.189 -36.4523L245.024 -16.7925L256.962 0L245.024 16.7925L251.189 36.4523L234.646 48.7339L234.433 69.3364L214.905 75.9048L208.336 95.4334L187.734 95.6456L175.452 112.189L155.793 106.024L139 117.962L122.207 106.024L102.548 112.189L90.2661 95.6456L69.6636 95.4334L63.0952 75.9048L43.5666 69.3364L43.3544 48.7339L26.8113 36.4523L32.976 16.7925L21.0378 0L32.976 -16.7925L26.8113 -36.4523L43.3544 -48.7339L43.5666 -69.3364L63.0952 -75.9048L69.6636 -95.4334L90.2661 -95.6456L102.548 -112.189L122.207 -106.024L139 -117.962Z" fill="#FEBD59"/>
  </g>
  <defs>
    <filter id="filter0_d_255_147" x="0" y="37" width="287" height="286" filterUnits="userSpaceOnUse" color-interpolation-filters="sRGB">
      <feFlood flood-opacity="0" result="BackgroundImageFix"/>
      <feColorMatrix in="SourceAlpha" type="matrix" values="0 0 0 0 0 0 0 0 0 0 0 0 0 0 0 0 0 0 127 0" result="hardAlpha"/>
      <feOffset dx="9" dy="8"/>
      <feComposite in2="hardAlpha" operator="out"/>
      <feColorMatrix type="matrix" values="0 0 0 0 0 0 0 0 0 0 0 0 0 0 0 0 0 0 0.25 0"/>
      <feBlend mode="normal" in2="BackgroundImageFix" result="effect1_dropShadow_255_147"/>
      <feBlend mode="normal" in="SourceGraphic" in2="effect1_dropShadow_255_147" result="shape"/>
    </filter>
  </defs>
</svg>