<svg width="1440" height="687" viewBox="0 0 1440 687" fill="none" xmlns="http://www.w3.org/2000/svg">
<g filter="url(#filter0_d_0_1)">
<path d="M1419 438L1449.46 459.658L1485.13 448.474L1507.41 478.485L1544.79 478.87L1556.7 514.298L1592.13 526.214L1592.51 563.59L1622.53 585.87L1611.34 621.536L1633 652L1611.34 682.464L1622.53 718.13L1592.51 740.41L1592.13 777.786L1556.7 789.702L1544.79 825.13L1507.41 825.515L1485.13 855.526L1449.46 844.342L1419 866L1388.54 844.342L1352.87 855.526L1330.59 825.515L1293.21 825.13L1281.3 789.702L1245.87 777.786L1245.49 740.41L1215.47 718.13L1226.66 682.464L1205 652L1226.66 621.536L1215.47 585.87L1245.49 563.59L1245.87 526.214L1281.3 514.298L1293.21 478.87L1330.59 478.485L1352.87 448.474L1388.54 459.658L1419 438Z" fill="#814507"/>
<path d="M1419 454.195L1447.16 474.213L1480.13 463.876L1500.72 491.616L1535.27 491.972L1546.28 524.719L1579.03 535.733L1579.38 570.28L1607.12 590.875L1596.79 623.841L1616.81 652L1596.79 680.159L1607.12 713.125L1579.38 733.72L1579.03 768.267L1546.28 779.281L1535.27 812.028L1500.72 812.384L1480.13 840.124L1447.16 829.787L1419 849.805L1390.84 829.787L1357.87 840.124L1337.28 812.384L1302.73 812.028L1291.72 779.281L1258.97 768.267L1258.62 733.72L1230.88 713.125L1241.21 680.159L1221.19 652L1241.21 623.841L1230.88 590.875L1258.62 570.28L1258.97 535.733L1291.72 524.719L1302.73 491.972L1337.28 491.616L1357.87 463.876L1390.84 474.213L1419 454.195Z" fill="#BA5F04"/>
<path d="M1419 470.389L1444.85 488.769L1475.12 479.278L1494.03 504.747L1525.75 505.074L1535.86 535.139L1565.93 545.252L1566.25 576.971L1591.72 595.879L1582.23 626.147L1600.61 652L1582.23 677.853L1591.72 708.121L1566.25 727.029L1565.93 758.748L1535.86 768.861L1525.75 798.926L1494.03 799.253L1475.12 824.722L1444.85 815.231L1419 833.611L1393.15 815.231L1362.88 824.722L1343.97 799.253L1312.25 798.926L1302.14 768.861L1272.07 758.748L1271.75 727.029L1246.28 708.121L1255.77 677.853L1237.39 652L1255.77 626.147L1246.28 595.879L1271.75 576.971L1272.07 545.252L1302.14 535.139L1312.25 505.074L1343.97 504.747L1362.88 479.278L1393.15 488.769L1419 470.389Z" fill="#FEBD59"/>
</g>
<g filter="url(#filter1_d_0_1)">
<path d="M-34 0L-3.53595 21.6576L32.1296 10.4739L54.4101 40.4854L91.786 40.8704L103.702 76.298L139.13 88.214L139.515 125.59L169.526 147.87L158.342 183.536L180 214L158.342 244.464L169.526 280.13L139.515 302.41L139.13 339.786L103.702 351.702L91.786 387.13L54.4101 387.515L32.1296 417.526L-3.53595 406.342L-34 428L-64.4641 406.342L-100.13 417.526L-122.41 387.515L-159.786 387.13L-171.702 351.702L-207.13 339.786L-207.515 302.41L-237.526 280.13L-226.342 244.464L-248 214L-226.342 183.536L-237.526 147.87L-207.515 125.59L-207.13 88.214L-171.702 76.298L-159.786 40.8704L-122.41 40.4854L-100.13 10.4739L-64.4641 21.6576L-34 0Z" fill="#814507"/>
<path d="M-34 16.1946L-5.84134 36.2132L27.1252 25.8759L47.7196 53.6162L82.2671 53.9721L93.2813 86.7187L126.028 97.7329L126.384 132.28L154.124 152.875L143.787 185.841L163.805 214L143.787 242.159L154.124 275.125L126.384 295.72L126.028 330.267L93.2813 341.281L82.2671 374.028L47.7196 374.384L27.1252 402.124L-5.84134 391.787L-34 411.805L-62.1587 391.787L-95.1252 402.124L-115.72 374.384L-150.267 374.028L-161.281 341.281L-194.028 330.267L-194.384 295.72L-222.124 275.125L-211.787 242.159L-231.805 214L-211.787 185.841L-222.124 152.875L-194.384 132.28L-194.028 97.7329L-161.281 86.7187L-150.267 53.9721L-115.72 53.6162L-95.1252 25.8759L-62.1587 36.2132L-34 16.1946Z" fill="#BA5F04"/>
<path d="M-34 32.3892L-8.14673 50.7689L22.1208 41.2779L41.0291 66.7471L72.7482 67.0738L82.8606 97.1394L112.926 107.252L113.253 138.971L138.722 157.879L129.231 188.147L147.611 214L129.231 239.853L138.722 270.121L113.253 289.029L112.926 320.748L82.8606 330.861L72.7482 360.926L41.0291 361.253L22.1208 386.722L-8.14673 377.231L-34 395.611L-59.8533 377.231L-90.1208 386.722L-109.029 361.253L-140.748 360.926L-150.861 330.861L-180.926 320.748L-181.253 289.029L-206.722 270.121L-197.231 239.853L-215.611 214L-197.231 188.147L-206.722 157.879L-181.253 138.971L-180.926 107.252L-150.861 97.1394L-140.748 67.0738L-109.029 66.7471L-90.1208 41.2779L-59.8533 50.7689L-34 32.3892Z" fill="#FEBD59"/>
</g>
<g filter="url(#filter2_d_0_1)">
<path d="M1230 580L1245.23 590.829L1263.06 585.237L1274.21 600.243L1292.89 600.435L1298.85 618.149L1316.56 624.107L1316.76 642.795L1331.76 653.935L1326.17 671.768L1337 687L1326.17 702.232L1331.76 720.065L1316.76 731.205L1316.56 749.893L1298.85 755.851L1292.89 773.565L1274.21 773.757L1263.06 788.763L1245.23 783.171L1230 794L1214.77 783.171L1196.94 788.763L1185.79 773.757L1167.11 773.565L1161.15 755.851L1143.44 749.893L1143.24 731.205L1128.24 720.065L1133.83 702.232L1123 687L1133.83 671.768L1128.24 653.935L1143.24 642.795L1143.44 624.107L1161.15 618.149L1167.11 600.435L1185.79 600.243L1196.94 585.237L1214.77 590.829L1230 580Z" fill="#814507"/>
<path d="M1230 588.097L1244.08 598.107L1260.56 592.938L1270.86 606.808L1288.13 606.986L1293.64 623.359L1310.01 628.866L1310.19 646.14L1324.06 656.437L1318.89 672.921L1328.9 687L1318.89 701.079L1324.06 717.563L1310.19 727.86L1310.01 745.134L1293.64 750.641L1288.13 767.014L1270.86 767.192L1260.56 781.062L1244.08 775.893L1230 785.903L1215.92 775.893L1199.44 781.062L1189.14 767.192L1171.87 767.014L1166.36 750.641L1149.99 745.134L1149.81 727.86L1135.94 717.563L1141.11 701.079L1131.1 687L1141.11 672.921L1135.94 656.437L1149.81 646.14L1149.99 628.866L1166.36 623.359L1171.87 606.986L1189.14 606.808L1199.44 592.938L1215.92 598.107L1230 588.097Z" fill="#BA5F04"/>
<path d="M1230 596.195L1242.93 605.384L1258.06 600.639L1267.51 613.374L1283.37 613.537L1288.43 628.57L1303.46 633.626L1303.63 649.485L1316.36 658.94L1311.62 674.073L1320.81 687L1311.62 699.927L1316.36 715.06L1303.63 724.515L1303.46 740.374L1288.43 745.43L1283.37 760.463L1267.51 760.626L1258.06 773.361L1242.93 768.616L1230 777.805L1217.07 768.616L1201.94 773.361L1192.49 760.626L1176.63 760.463L1171.57 745.43L1156.54 740.374L1156.37 724.515L1143.64 715.06L1148.38 699.927L1139.19 687L1148.38 674.073L1143.64 658.94L1156.37 649.485L1156.54 633.626L1171.57 628.57L1176.63 613.537L1192.49 613.374L1201.94 600.639L1217.07 605.384L1230 596.195Z" fill="#FEBD59"/>
</g>
<defs>
<filter id="filter0_d_0_1" x="1205" y="438" width="437" height="436" filterUnits="userSpaceOnUse" color-interpolation-filters="sRGB">
<feFlood flood-opacity="0" result="BackgroundImageFix"/>
<feColorMatrix in="SourceAlpha" type="matrix" values="0 0 0 0 0 0 0 0 0 0 0 0 0 0 0 0 0 0 127 0" result="hardAlpha"/>
<feOffset dx="9" dy="8"/>
<feComposite in2="hardAlpha" operator="out"/>
<feColorMatrix type="matrix" values="0 0 0 0 0 0 0 0 0 0 0 0 0 0 0 0 0 0 0.25 0"/>
<feBlend mode="normal" in2="BackgroundImageFix" result="effect1_dropShadow_0_1"/>
<feBlend mode="normal" in="SourceGraphic" in2="effect1_dropShadow_0_1" result="shape"/>
</filter>
<filter id="filter1_d_0_1" x="-248" y="0" width="437" height="436" filterUnits="userSpaceOnUse" color-interpolation-filters="sRGB">
<feFlood flood-opacity="0" result="BackgroundImageFix"/>
<feColorMatrix in="SourceAlpha" type="matrix" values="0 0 0 0 0 0 0 0 0 0 0 0 0 0 0 0 0 0 127 0" result="hardAlpha"/>
<feOffset dx="9" dy="8"/>
<feComposite in2="hardAlpha" operator="out"/>
<feColorMatrix type="matrix" values="0 0 0 0 0 0 0 0 0 0 0 0 0 0 0 0 0 0 0.25 0"/>
<feBlend mode="normal" in2="BackgroundImageFix" result="effect1_dropShadow_0_1"/>
<feBlend mode="normal" in="SourceGraphic" in2="effect1_dropShadow_0_1" result="shape"/>
</filter>
<filter id="filter2_d_0_1" x="1123" y="580" width="223" height="222" filterUnits="userSpaceOnUse" color-interpolation-filters="sRGB">
<feFlood flood-opacity="0" result="BackgroundImageFix"/>
<feColorMatrix in="SourceAlpha" type="matrix" values="0 0 0 0 0 0 0 0 0 0 0 0 0 0 0 0 0 0 127 0" result="hardAlpha"/>
<feOffset dx="9" dy="8"/>
<feComposite in2="hardAlpha" operator="out"/>
<feColorMatrix type="matrix" values="0 0 0 0 0 0 0 0 0 0 0 0 0 0 0 0 0 0 0.25 0"/>
<feBlend mode="normal" in2="BackgroundImageFix" result="effect1_dropShadow_0_1"/>
<feBlend mode="normal" in="SourceGraphic" in2="effect1_dropShadow_0_1" result="shape"/>
</filter>
</defs>
</svg>
