<svg xmlns="http://www.w3.org/2000/svg" width="310" height="180" viewBox="0 0 310 180" fill="none">
  <g filter="url(#filter0_d_255_182)">
    <path d="M150.5 0L171.924 15.2311L197.007 7.366L212.676 28.4722L238.962 28.7429L247.342 53.6582L272.257 62.0383L272.528 88.3237L293.634 103.993L285.769 129.076L301 150.5L285.769 171.924L293.634 197.007L272.528 212.676L272.257 238.962L247.342 247.342L238.962 272.257L212.676 272.528L197.007 293.634L171.924 285.769L150.5 301L129.076 285.769L103.993 293.634L88.3237 272.528L62.0383 272.257L53.6582 247.342L28.7429 238.962L28.4722 212.676L7.366 197.007L15.2311 171.924L0 150.5L15.2311 129.076L7.366 103.993L28.4722 88.3237L28.7429 62.0383L53.6582 53.6582L62.0383 28.7429L88.3237 28.4722L103.993 7.366L129.076 15.2311L150.5 0Z" fill="#814507"/>
    <path d="M150.5 11.3892L170.303 25.4677L193.488 18.1978L207.971 37.7067L232.267 37.957L240.013 60.9868L263.043 68.7327L263.293 93.029L282.802 107.512L275.532 130.697L289.611 150.5L275.532 170.303L282.802 193.488L263.293 207.971L263.043 232.267L240.013 240.013L232.267 263.043L207.971 263.293L193.488 282.802L170.303 275.532L150.5 289.611L130.697 275.532L107.512 282.802L93.029 263.293L68.7327 263.043L60.9868 240.013L37.957 232.267L37.7067 207.971L18.1978 193.488L25.4677 170.303L11.3892 150.5L25.4677 130.697L18.1978 107.512L37.7067 93.029L37.957 68.7327L60.9868 60.9868L68.7327 37.957L93.029 37.7067L107.512 18.1978L130.697 25.4677L150.5 11.3892Z" fill="#BA5F04"/>
    <path d="M150.5 22.7784L168.682 35.7043L189.968 29.0295L203.266 46.9413L225.573 47.171L232.685 68.3153L253.829 75.4271L254.059 97.7342L271.97 111.032L265.296 132.318L278.222 150.5L265.296 168.682L271.97 189.968L254.059 203.266L253.829 225.573L232.685 232.685L225.573 253.829L203.266 254.059L189.968 271.97L168.682 265.296L150.5 278.222L132.318 265.296L111.032 271.97L97.7342 254.059L75.4271 253.829L68.3153 232.685L47.171 225.573L46.9413 203.266L29.0295 189.968L35.7043 168.682L22.7784 150.5L35.7043 132.318L29.0295 111.032L46.9413 97.7342L47.171 75.4271L68.3153 68.3153L75.4271 47.171L97.7342 46.9413L111.032 29.0295L132.318 35.7043L150.5 22.7784Z" fill="#FEBD59"/>
  </g>
  <defs>
    <filter id="filter0_d_255_182" x="0" y="0" width="310" height="180" filterUnits="userSpaceOnUse" color-interpolation-filters="sRGB">
      <feFlood flood-opacity="0" result="BackgroundImageFix"/>
      <feColorMatrix in="SourceAlpha" type="matrix" values="0 0 0 0 0 0 0 0 0 0 0 0 0 0 0 0 0 0 127 0" result="hardAlpha"/>
      <feOffset dx="9" dy="8"/>
      <feComposite in2="hardAlpha" operator="out"/>
      <feColorMatrix type="matrix" values="0 0 0 0 0 0 0 0 0 0 0 0 0 0 0 0 0 0 0.25 0"/>
      <feBlend mode="normal" in2="BackgroundImageFix" result="effect1_dropShadow_255_182"/>
      <feBlend mode="normal" in="SourceGraphic" in2="effect1_dropShadow_255_182" result="shape"/>
    </filter>
  </defs>
</svg>