<svg xmlns="http://www.w3.org/2000/svg" width="450" height="180" viewBox="0 0 450 180" fill="none">
  <g filter="url(#filter0_d_255_184)">
    <path d="M220.5 0L251.889 22.3154L288.638 10.792L311.595 41.7151L350.107 42.1118L362.384 78.6155L398.888 90.8933L399.285 129.405L430.208 152.362L418.685 189.111L441 220.5L418.685 251.889L430.208 288.638L399.285 311.595L398.888 350.107L362.384 362.384L350.107 398.888L311.595 399.285L288.638 430.208L251.889 418.685L220.5 441L189.111 418.685L152.362 430.208L129.405 399.285L90.8933 398.888L78.6155 362.384L42.1118 350.107L41.7151 311.595L10.792 288.638L22.3154 251.889L0 220.5L22.3154 189.111L10.792 152.362L41.7151 129.405L42.1118 90.8933L78.6155 78.6155L90.8933 42.1118L129.405 41.7151L152.362 10.792L189.111 22.3154L220.5 0Z" fill="#814507"/>
    <path d="M220.5 16.6865L249.514 37.3131L283.482 26.6618L304.702 55.2448L340.299 55.6114L351.647 89.3527L385.389 100.701L385.755 136.298L414.338 157.518L403.687 191.486L424.314 220.5L403.687 249.514L414.338 283.482L385.755 304.702L385.389 340.299L351.647 351.647L340.299 385.389L304.702 385.755L283.482 414.338L249.514 403.687L220.5 424.314L191.486 403.687L157.518 414.338L136.298 385.755L100.701 385.389L89.3527 351.647L55.6114 340.299L55.2448 304.702L26.6618 283.482L37.3131 249.514L16.6865 220.5L37.3131 191.486L26.6618 157.518L55.2448 136.298L55.6114 100.701L89.3527 89.3527L100.701 55.6114L136.298 55.2448L157.518 26.6618L191.486 37.3131L220.5 16.6865Z" fill="#BA5F04"/>
    <path d="M220.5 33.373L247.139 52.3109L278.325 42.5316L297.808 68.7744L330.491 69.1111L340.91 100.09L371.889 110.509L372.226 143.192L398.468 162.675L388.689 193.861L407.627 220.5L388.689 247.139L398.468 278.325L372.226 297.808L371.889 330.491L340.91 340.91L330.491 371.889L297.808 372.226L278.325 398.468L247.139 388.689L220.5 407.627L193.861 388.689L162.675 398.468L143.192 372.226L110.509 371.889L100.09 340.91L69.1111 330.491L68.7744 297.808L42.5316 278.325L52.3109 247.139L33.373 220.5L52.3109 193.861L42.5316 162.675L68.7744 143.192L69.1111 110.509L100.09 100.09L110.509 69.1111L143.192 68.7744L162.675 42.5316L193.861 52.3109L220.5 33.373Z" fill="#FEBD59"/>
  </g>
  <defs>
    <filter id="filter0_d_255_184" x="0" y="0" width="450" height="180" filterUnits="userSpaceOnUse" color-interpolation-filters="sRGB">
      <feFlood flood-opacity="0" result="BackgroundImageFix"/>
      <feColorMatrix in="SourceAlpha" type="matrix" values="0 0 0 0 0 0 0 0 0 0 0 0 0 0 0 0 0 0 127 0" result="hardAlpha"/>
      <feOffset dx="9" dy="8"/>
      <feComposite in2="hardAlpha" operator="out"/>
      <feColorMatrix type="matrix" values="0 0 0 0 0 0 0 0 0 0 0 0 0 0 0 0 0 0 0.25 0"/>
      <feBlend mode="normal" in2="BackgroundImageFix" result="effect1_dropShadow_255_184"/>
      <feBlend mode="normal" in="SourceGraphic" in2="effect1_dropShadow_255_184" result="shape"/>
    </filter>
  </defs>
</svg>