<svg xmlns="http://www.w3.org/2000/svg" width="433" height="273" viewBox="0 0 433 273" fill="none">
  <g filter="url(#filter0_d_255_148)">
    <path d="M214 -163L244.464 -141.342L280.13 -152.526L302.41 -122.515L339.786 -122.13L351.702 -86.702L387.13 -74.786L387.515 -37.4101L417.526 -15.1296L406.342 20.5359L428 51L406.342 81.4641L417.526 117.13L387.515 139.41L387.13 176.786L351.702 188.702L339.786 224.13L302.41 224.515L280.13 254.526L244.464 243.342L214 265L183.536 243.342L147.87 254.526L125.59 224.515L88.214 224.13L76.298 188.702L40.8704 176.786L40.4854 139.41L10.4739 117.13L21.6576 81.4641L0 51L21.6576 20.5359L10.4739 -15.1296L40.4854 -37.4101L40.8704 -74.786L76.298 -86.702L88.214 -122.13L125.59 -122.515L147.87 -152.526L183.536 -141.342L214 -163Z" fill="#814507"/>
    <path d="M214 -146.805L242.159 -126.787L275.125 -137.124L295.72 -109.384L330.267 -109.028L341.281 -76.2813L374.028 -65.2671L374.384 -30.7196L402.124 -10.1252L391.787 22.8413L411.805 51L391.787 79.1587L402.124 112.125L374.384 132.72L374.028 167.267L341.281 178.281L330.267 211.028L295.72 211.384L275.125 239.124L242.159 228.787L214 248.805L185.841 228.787L152.875 239.124L132.28 211.384L97.7329 211.028L86.7187 178.281L53.9721 167.267L53.6162 132.72L25.8759 112.125L36.2132 79.1587L16.1946 51L36.2132 22.8413L25.8759 -10.1252L53.6162 -30.7196L53.9721 -65.2671L86.7187 -76.2813L97.7329 -109.028L132.28 -109.384L152.875 -137.124L185.841 -126.787L214 -146.805Z" fill="#BA5F04"/>
    <path d="M214 -130.611L239.853 -112.231L270.121 -121.722L289.029 -96.2529L320.748 -95.9262L330.861 -65.8606L360.926 -55.7482L361.253 -24.0291L386.722 -5.12083L377.231 25.1467L395.611 51L377.231 76.8533L386.722 107.121L361.253 126.029L360.926 157.748L330.861 167.861L320.748 197.926L289.029 198.253L270.121 223.722L239.853 214.231L214 232.611L188.147 214.231L157.879 223.722L138.971 198.253L107.252 197.926L97.1394 167.861L67.0738 157.748L66.7471 126.029L41.2779 107.121L50.7689 76.8533L32.3892 51L50.7689 25.1467L41.2779 -5.12083L66.7471 -24.0291L67.0738 -55.7482L97.1394 -65.8606L107.252 -95.9262L138.971 -96.2529L157.879 -121.722L188.147 -112.231L214 -130.611Z" fill="#FEBD59"/>
  </g>
  <defs>
    <filter id="filter0_d_255_148" x="0" y="50" width="437" height="436" filterUnits="userSpaceOnUse" color-interpolation-filters="sRGB">
      <feFlood flood-opacity="0" result="BackgroundImageFix"/>
      <feColorMatrix in="SourceAlpha" type="matrix" values="0 0 0 0 0 0 0 0 0 0 0 0 0 0 0 0 0 0 127 0" result="hardAlpha"/>
      <feOffset dx="9" dy="8"/>
      <feComposite in2="hardAlpha" operator="out"/>
      <feColorMatrix type="matrix" values="0 0 0 0 0 0 0 0 0 0 0 0 0 0 0 0 0 0 0.25 0"/>
      <feBlend mode="normal" in2="BackgroundImageFix" result="effect1_dropShadow_255_148"/>
      <feBlend mode="normal" in="SourceGraphic" in2="effect1_dropShadow_255_148" result="shape"/>
    </filter>
  </defs>
</svg>