<svg xmlns="http://www.w3.org/2000/svg" width="437" height="147" viewBox="0 0 437 147" fill="none">
  <g filter="url(#filter0_d_255_149)">
    <path d="M214 -289L244.464 -267.342L280.13 -278.526L302.41 -248.515L339.786 -248.13L351.702 -212.702L387.13 -200.786L387.515 -163.41L417.526 -141.13L406.342 -105.464L428 -75L406.342 -44.5359L417.526 -8.87036L387.515 13.4101L387.13 50.786L351.702 62.702L339.786 98.1296L302.41 98.5146L280.13 128.526L244.464 117.342L214 139L183.536 117.342L147.87 128.526L125.59 98.5146L88.214 98.1296L76.298 62.702L40.8704 50.786L40.4854 13.4101L10.4739 -8.87036L21.6576 -44.5359L0 -75L21.6576 -105.464L10.4739 -141.13L40.4854 -163.41L40.8704 -200.786L76.298 -212.702L88.214 -248.13L125.59 -248.515L147.87 -278.526L183.536 -267.342L214 -289Z" fill="#814507"/>
    <path d="M214 -272.805L242.159 -252.787L275.125 -263.124L295.72 -235.384L330.267 -235.028L341.281 -202.281L374.028 -191.267L374.384 -156.72L402.124 -136.125L391.787 -103.159L411.805 -75L391.787 -46.8413L402.124 -13.8748L374.384 6.7196L374.028 41.2671L341.281 52.2813L330.267 85.028L295.72 85.3838L275.125 113.124L242.159 102.787L214 122.805L185.841 102.787L152.875 113.124L132.28 85.3838L97.7329 85.028L86.7187 52.2813L53.9721 41.2671L53.6162 6.7196L25.8759 -13.8748L36.2132 -46.8413L16.1946 -75L36.2132 -103.159L25.8759 -136.125L53.6162 -156.72L53.9721 -191.267L86.7187 -202.281L97.7329 -235.028L132.28 -235.384L152.875 -263.124L185.841 -252.787L214 -272.805Z" fill="#BA5F04"/>
    <path d="M214 -256.611L239.853 -238.231L270.121 -247.722L289.029 -222.253L320.748 -221.926L330.861 -191.861L360.926 -181.748L361.253 -150.029L386.722 -131.121L377.231 -100.853L395.611 -75L377.231 -49.1467L386.722 -18.8792L361.253 0.0291138L360.926 31.7482L330.861 41.8606L320.748 71.9262L289.029 72.2529L270.121 97.7221L239.853 88.2311L214 106.611L188.147 88.2311L157.879 97.7221L138.971 72.2529L107.252 71.9262L97.1394 41.8606L67.0738 31.7482L66.7471 0.0291138L41.2779 -18.8792L50.7689 -49.1467L32.3892 -75L50.7689 -100.853L41.2779 -131.121L66.7471 -150.029L67.0738 -181.748L97.1394 -191.861L107.252 -221.926L138.971 -222.253L157.879 -247.722L188.147 -238.231L214 -256.611Z" fill="#FEBD59"/>
  </g>
  <defs>
    <filter id="filter0_d_255_149" x="0" y="50" width="437" height="436" filterUnits="userSpaceOnUse" color-interpolation-filters="sRGB">
      <feFlood flood-opacity="0" result="BackgroundImageFix"/>
      <feColorMatrix in="SourceAlpha" type="matrix" values="0 0 0 0 0 0 0 0 0 0 0 0 0 0 0 0 0 0 127 0" result="hardAlpha"/>
      <feOffset dx="9" dy="8"/>
      <feComposite in2="hardAlpha" operator="out"/>
      <feColorMatrix type="matrix" values="0 0 0 0 0 0 0 0 0 0 0 0 0 0 0 0 0 0 0.25 0"/>
      <feBlend mode="normal" in2="BackgroundImageFix" result="effect1_dropShadow_255_149"/>
      <feBlend mode="normal" in="SourceGraphic" in2="effect1_dropShadow_255_149" result="shape"/>
    </filter>
  </defs>
</svg>