<svg xmlns="http://www.w3.org/2000/svg" width="308" height="246" viewBox="0 0 308 246" fill="none">
  <g filter="url(#filter0_d_255_181)">
    <path d="M214 0L244.464 21.6576L280.13 10.4739L302.41 40.4854L339.786 40.8704L351.702 76.298L387.13 88.214L387.515 125.59L417.526 147.87L406.342 183.536L428 214L406.342 244.464L417.526 280.13L387.515 302.41L387.13 339.786L351.702 351.702L339.786 387.13L302.41 387.515L280.13 417.526L244.464 406.342L214 428L183.536 406.342L147.87 417.526L125.59 387.515L88.214 387.13L76.298 351.702L40.8704 339.786L40.4854 302.41L10.4739 280.13L21.6576 244.464L0 214L21.6576 183.536L10.4739 147.87L40.4854 125.59L40.8704 88.214L76.298 76.298L88.214 40.8704L125.59 40.4854L147.87 10.4739L183.536 21.6576L214 0Z" fill="#814507"/>
    <path d="M214 16.1946L242.159 36.2132L275.125 25.8759L295.72 53.6162L330.267 53.9721L341.281 86.7187L374.028 97.7329L374.384 132.28L402.124 152.875L391.787 185.841L411.805 214L391.787 242.159L402.124 275.125L374.384 295.72L374.028 330.267L341.281 341.281L330.267 374.028L295.72 374.384L275.125 402.124L242.159 391.787L214 411.805L185.841 391.787L152.875 402.124L132.28 374.384L97.7329 374.028L86.7187 341.281L53.9721 330.267L53.6162 295.72L25.8759 275.125L36.2132 242.159L16.1946 214L36.2132 185.841L25.8759 152.875L53.6162 132.28L53.9721 97.7329L86.7187 86.7187L97.7329 53.9721L132.28 53.6162L152.875 25.8759L185.841 36.2132L214 16.1946Z" fill="#BA5F04"/>
    <path d="M214 32.3892L239.853 50.7689L270.121 41.2779L289.029 66.7471L320.748 67.0738L330.861 97.1394L360.926 107.252L361.253 138.971L386.722 157.879L377.231 188.147L395.611 214L377.231 239.853L386.722 270.121L361.253 289.029L360.926 320.748L330.861 330.861L320.748 360.926L289.029 361.253L270.121 386.722L239.853 377.231L214 395.611L188.147 377.231L157.879 386.722L138.971 361.253L107.252 360.926L97.1394 330.861L67.0738 320.748L66.7471 289.029L41.2779 270.121L50.7689 239.853L32.3892 214L50.7689 188.147L41.2779 157.879L66.7471 138.971L67.0738 107.252L97.1394 97.1394L107.252 67.0738L138.971 66.7471L157.879 41.2779L188.147 50.7689L214 32.3892Z" fill="#FEBD59"/>
  </g>
  <defs>
    <filter id="filter0_d_255_181" x="0" y="0" width="437" height="246" filterUnits="userSpaceOnUse" color-interpolation-filters="sRGB">
      <feFlood flood-opacity="0" result="BackgroundImageFix"/>
      <feColorMatrix in="SourceAlpha" type="matrix" values="0 0 0 0 0 0 0 0 0 0 0 0 0 0 0 0 0 0 127 0" result="hardAlpha"/>
      <feOffset dx="9" dy="8"/>
      <feComposite in2="hardAlpha" operator="out"/>
      <feColorMatrix type="matrix" values="0 0 0 0 0 0 0 0 0 0 0 0 0 0 0 0 0 0 0.25 0"/>
      <feBlend mode="normal" in2="BackgroundImageFix" result="effect1_dropShadow_255_181"/>
      <feBlend mode="normal" in="SourceGraphic" in2="effect1_dropShadow_255_181" result="shape"/>
    </filter>
  </defs>
</svg>