<svg xmlns="http://www.w3.org/2000/svg" width="361" height="246" viewBox="0 0 361 246" fill="none">
  <g filter="url(#filter0_d_255_183)">
    <path d="M138 0L168.464 21.6576L204.13 10.4739L226.41 40.4854L263.786 40.8704L275.702 76.298L311.13 88.214L311.515 125.59L341.526 147.87L330.342 183.536L352 214L330.342 244.464L341.526 280.13L311.515 302.41L311.13 339.786L275.702 351.702L263.786 387.13L226.41 387.515L204.13 417.526L168.464 406.342L138 428L107.536 406.342L71.8704 417.526L49.5899 387.515L12.214 387.13L0.298035 351.702L-35.1296 339.786L-35.5146 302.41L-65.5261 280.13L-54.3424 244.464L-76 214L-54.3424 183.536L-65.5261 147.87L-35.5146 125.59L-35.1296 88.214L0.298035 76.298L12.214 40.8704L49.5899 40.4854L71.8704 10.4739L107.536 21.6576L138 0Z" fill="#814507"/>
    <path d="M138 16.1946L166.159 36.2132L199.125 25.8759L219.72 53.6162L254.267 53.9721L265.281 86.7187L298.028 97.7329L298.384 132.28L326.124 152.875L315.787 185.841L335.805 214L315.787 242.159L326.124 275.125L298.384 295.72L298.028 330.267L265.281 341.281L254.267 374.028L219.72 374.384L199.125 402.124L166.159 391.787L138 411.805L109.841 391.787L76.8748 402.124L56.2804 374.384L21.7329 374.028L10.7187 341.281L-22.0279 330.267L-22.3838 295.72L-50.1241 275.125L-39.7868 242.159L-59.8054 214L-39.7868 185.841L-50.1241 152.875L-22.3838 132.28L-22.0279 97.7329L10.7187 86.7187L21.7329 53.9721L56.2804 53.6162L76.8748 25.8759L109.841 36.2132L138 16.1946Z" fill="#BA5F04"/>
    <path d="M138 32.3892L163.853 50.7689L194.121 41.2779L213.029 66.7471L244.748 67.0738L254.861 97.1394L284.926 107.252L285.253 138.971L310.722 157.879L301.231 188.147L319.611 214L301.231 239.853L310.722 270.121L285.253 289.029L284.926 320.748L254.861 330.861L244.748 360.926L213.029 361.253L194.121 386.722L163.853 377.231L138 395.611L112.147 377.231L81.8792 386.722L62.9709 361.253L31.2518 360.926L21.1394 330.861L-8.92624 320.748L-9.25293 289.029L-34.7221 270.121L-25.2311 239.853L-43.6108 214L-25.2311 188.147L-34.7221 157.879L-9.25293 138.971L-8.92624 107.252L21.1394 97.1394L31.2518 67.0738L62.9709 66.7471L81.8792 41.2779L112.147 50.7689L138 32.3892Z" fill="#FEBD59"/>
  </g>
  <defs>
    <filter id="filter0_d_255_183" x="-76" y="0" width="440" height="246" filterUnits="userSpaceOnUse" color-interpolation-filters="sRGB">
      <feFlood flood-opacity="0" result="BackgroundImageFix"/>
      <feColorMatrix in="SourceAlpha" type="matrix" values="0 0 0 0 0 0 0 0 0 0 0 0 0 0 0 0 0 0 127 0" result="hardAlpha"/>
      <feOffset dx="9" dy="8"/>
      <feComposite in2="hardAlpha" operator="out"/>
      <feColorMatrix type="matrix" values="0 0 0 0 0 0 0 0 0 0 0 0 0 0 0 0 0 0 0.25 0"/>
      <feBlend mode="normal" in2="BackgroundImageFix" result="effect1_dropShadow_255_183"/>
      <feBlend mode="normal" in="SourceGraphic" in2="effect1_dropShadow_255_183" result="shape"/>
    </filter>
  </defs>
</svg>