<svg width="183" height="2418" viewBox="0 0 183 2418" fill="none" xmlns="http://www.w3.org/2000/svg">
<g opacity="0.35">
<path d="M94.5 2148L97.5748 2145.44L94.8131 2142.12L91.7144 2145.13L94.5 2148ZM149 2213.5L145.925 2216.06L148.729 2219.43L151.828 2216.33L149 2213.5ZM214.5 2148L217.529 2145.39L214.716 2142.13L211.672 2145.17L214.5 2148ZM271 2213.5L267.971 2216.11L270.742 2219.32L273.786 2216.37L271 2213.5ZM341.286 2150.87L344.156 2148.09L338.585 2142.34L335.714 2145.13L341.286 2150.87ZM29.7856 2216.37L97.2856 2150.87L91.7144 2145.13L24.2144 2210.63L29.7856 2216.37ZM91.4252 2150.56L145.925 2216.06L152.075 2210.94L97.5748 2145.44L91.4252 2150.56ZM151.828 2216.33L217.328 2150.83L211.672 2145.17L146.172 2210.67L151.828 2216.33ZM211.471 2150.61L267.971 2216.11L274.029 2210.89L217.529 2145.39L211.471 2150.61ZM273.786 2216.37L341.286 2150.87L335.714 2145.13L268.214 2210.63L273.786 2216.37Z" fill="white"/>
<path d="M94.5 2148L97.5748 2145.44L94.8131 2142.12L91.7144 2145.13L94.5 2148ZM149 2213.5L145.925 2216.06L148.729 2219.43L151.828 2216.33L149 2213.5ZM214.5 2148L217.529 2145.39L214.716 2142.13L211.672 2145.17L214.5 2148ZM271 2213.5L267.971 2216.11L270.742 2219.32L273.786 2216.37L271 2213.5ZM341.286 2150.87L344.156 2148.09L338.585 2142.34L335.714 2145.13L341.286 2150.87ZM29.7856 2216.37L97.2856 2150.87L91.7144 2145.13L24.2144 2210.63L29.7856 2216.37ZM91.4252 2150.56L145.925 2216.06L152.075 2210.94L97.5748 2145.44L91.4252 2150.56ZM151.828 2216.33L217.328 2150.83L211.672 2145.17L146.172 2210.67L151.828 2216.33ZM211.471 2150.61L267.971 2216.11L274.029 2210.89L217.529 2145.39L211.471 2150.61ZM273.786 2216.37L341.286 2150.87L335.714 2145.13L268.214 2210.63L273.786 2216.37Z" fill="white"/>
<path d="M94.5 2346L97.5748 2343.44L94.8131 2340.12L91.7144 2343.13L94.5 2346ZM149 2411.5L145.925 2414.06L148.729 2417.43L151.828 2414.33L149 2411.5ZM214.5 2346L217.529 2343.39L214.716 2340.13L211.672 2343.17L214.5 2346ZM271 2411.5L267.971 2414.11L270.742 2417.32L273.786 2414.37L271 2411.5ZM341.286 2348.87L344.156 2346.09L338.585 2340.34L335.714 2343.13L341.286 2348.87ZM29.7856 2414.37L97.2856 2348.87L91.7144 2343.13L24.2144 2408.63L29.7856 2414.37ZM91.4252 2348.56L145.925 2414.06L152.075 2408.94L97.5748 2343.44L91.4252 2348.56ZM151.828 2414.33L217.328 2348.83L211.672 2343.17L146.172 2408.67L151.828 2414.33ZM211.471 2348.61L267.971 2414.11L274.029 2408.89L217.529 2343.39L211.471 2348.61ZM273.786 2414.37L341.286 2348.87L335.714 2343.13L268.214 2408.63L273.786 2414.37Z" fill="white"/>
<path d="M94.5 2346L97.5748 2343.44L94.8131 2340.12L91.7144 2343.13L94.5 2346ZM149 2411.5L145.925 2414.06L148.729 2417.43L151.828 2414.33L149 2411.5ZM214.5 2346L217.529 2343.39L214.716 2340.13L211.672 2343.17L214.5 2346ZM271 2411.5L267.971 2414.11L270.742 2417.32L273.786 2414.37L271 2411.5ZM341.286 2348.87L344.156 2346.09L338.585 2340.34L335.714 2343.13L341.286 2348.87ZM29.7856 2414.37L97.2856 2348.87L91.7144 2343.13L24.2144 2408.63L29.7856 2414.37ZM91.4252 2348.56L145.925 2414.06L152.075 2408.94L97.5748 2343.44L91.4252 2348.56ZM151.828 2414.33L217.328 2348.83L211.672 2343.17L146.172 2408.67L151.828 2414.33ZM211.471 2348.61L267.971 2414.11L274.029 2408.89L217.529 2343.39L211.471 2348.61ZM273.786 2414.37L341.286 2348.87L335.714 2343.13L268.214 2408.63L273.786 2414.37Z" fill="white"/>
<path d="M94.5 2280L97.5748 2277.44L94.8131 2274.12L91.7144 2277.13L94.5 2280ZM149 2345.5L145.925 2348.06L148.729 2351.43L151.828 2348.33L149 2345.5ZM214.5 2280L217.529 2277.39L214.716 2274.13L211.672 2277.17L214.5 2280ZM271 2345.5L267.971 2348.11L270.742 2351.32L273.786 2348.37L271 2345.5ZM341.286 2282.87L344.156 2280.09L338.585 2274.34L335.714 2277.13L341.286 2282.87ZM29.7856 2348.37L97.2856 2282.87L91.7144 2277.13L24.2144 2342.63L29.7856 2348.37ZM91.4252 2282.56L145.925 2348.06L152.075 2342.94L97.5748 2277.44L91.4252 2282.56ZM151.828 2348.33L217.328 2282.83L211.672 2277.17L146.172 2342.67L151.828 2348.33ZM211.471 2282.61L267.971 2348.11L274.029 2342.89L217.529 2277.39L211.471 2282.61ZM273.786 2348.37L341.286 2282.87L335.714 2277.13L268.214 2342.63L273.786 2348.37Z" fill="white"/>
<path d="M94.5 2280L97.5748 2277.44L94.8131 2274.12L91.7144 2277.13L94.5 2280ZM149 2345.5L145.925 2348.06L148.729 2351.43L151.828 2348.33L149 2345.5ZM214.5 2280L217.529 2277.39L214.716 2274.13L211.672 2277.17L214.5 2280ZM271 2345.5L267.971 2348.11L270.742 2351.32L273.786 2348.37L271 2345.5ZM341.286 2282.87L344.156 2280.09L338.585 2274.34L335.714 2277.13L341.286 2282.87ZM29.7856 2348.37L97.2856 2282.87L91.7144 2277.13L24.2144 2342.63L29.7856 2348.37ZM91.4252 2282.56L145.925 2348.06L152.075 2342.94L97.5748 2277.44L91.4252 2282.56ZM151.828 2348.33L217.328 2282.83L211.672 2277.17L146.172 2342.67L151.828 2348.33ZM211.471 2282.61L267.971 2348.11L274.029 2342.89L217.529 2277.39L211.471 2282.61ZM273.786 2348.37L341.286 2282.87L335.714 2277.13L268.214 2342.63L273.786 2348.37Z" fill="white"/>
<path d="M94.5 2214L97.5748 2211.44L94.8131 2208.12L91.7144 2211.13L94.5 2214ZM149 2279.5L145.925 2282.06L148.729 2285.43L151.828 2282.33L149 2279.5ZM214.5 2214L217.529 2211.39L214.716 2208.13L211.672 2211.17L214.5 2214ZM271 2279.5L267.971 2282.11L270.742 2285.32L273.786 2282.37L271 2279.5ZM341.286 2216.87L344.156 2214.09L338.585 2208.34L335.714 2211.13L341.286 2216.87ZM29.7856 2282.37L97.2856 2216.87L91.7144 2211.13L24.2144 2276.63L29.7856 2282.37ZM91.4252 2216.56L145.925 2282.06L152.075 2276.94L97.5748 2211.44L91.4252 2216.56ZM151.828 2282.33L217.328 2216.83L211.672 2211.17L146.172 2276.67L151.828 2282.33ZM211.471 2216.61L267.971 2282.11L274.029 2276.89L217.529 2211.39L211.471 2216.61ZM273.786 2282.37L341.286 2216.87L335.714 2211.13L268.214 2276.63L273.786 2282.37Z" fill="white"/>
<path d="M94.5 2214L97.5748 2211.44L94.8131 2208.12L91.7144 2211.13L94.5 2214ZM149 2279.5L145.925 2282.06L148.729 2285.43L151.828 2282.33L149 2279.5ZM214.5 2214L217.529 2211.39L214.716 2208.13L211.672 2211.17L214.5 2214ZM271 2279.5L267.971 2282.11L270.742 2285.32L273.786 2282.37L271 2279.5ZM341.286 2216.87L344.156 2214.09L338.585 2208.34L335.714 2211.13L341.286 2216.87ZM29.7856 2282.37L97.2856 2216.87L91.7144 2211.13L24.2144 2276.63L29.7856 2282.37ZM91.4252 2216.56L145.925 2282.06L152.075 2276.94L97.5748 2211.44L91.4252 2216.56ZM151.828 2282.33L217.328 2216.83L211.672 2211.17L146.172 2276.67L151.828 2282.33ZM211.471 2216.61L267.971 2282.11L274.029 2276.89L217.529 2211.39L211.471 2216.61ZM273.786 2282.37L341.286 2216.87L335.714 2211.13L268.214 2276.63L273.786 2282.37Z" fill="white"/>
</g>
<g opacity="0.35">
<path d="M253.044 12.3329L250.037 9.69554L252.884 6.44924L255.903 9.53554L253.044 12.3329ZM196.863 76.3963L199.87 79.0337L196.98 82.3293L193.962 79.1504L196.863 76.3963ZM133.085 9.21836L130.125 6.52796L133.021 3.34153L135.986 6.4643L133.085 9.21836ZM74.9037 73.2299L77.8637 75.9203L75.0108 79.059L72.0445 76.0272L74.9037 73.2299ZM6.26727 8.79737L3.4699 5.93822L9.1882 0.343482L11.9856 3.20263L6.26727 8.79737ZM315.962 82.3601L250.185 15.1303L255.903 9.53554L321.681 76.7654L315.962 82.3601ZM256.052 14.9703L199.87 79.0337L193.855 73.7589L250.037 9.69554L256.052 14.9703ZM193.962 79.1504L130.184 11.9724L135.986 6.4643L199.763 73.6423L193.962 79.1504ZM136.045 11.9088L77.8637 75.9203L71.9436 70.5395L130.125 6.52796L136.045 11.9088ZM72.0445 76.0272L6.26727 8.79737L11.9856 3.20263L77.7628 70.4325L72.0445 76.0272Z" fill="white"/>
<path d="M253.044 12.3329L250.037 9.69554L252.884 6.44924L255.903 9.53554L253.044 12.3329ZM196.863 76.3963L199.87 79.0337L196.98 82.3293L193.962 79.1504L196.863 76.3963ZM133.085 9.21836L130.125 6.52796L133.021 3.34153L135.986 6.4643L133.085 9.21836ZM74.9037 73.2299L77.8637 75.9203L75.0108 79.059L72.0445 76.0272L74.9037 73.2299ZM6.26727 8.79737L3.4699 5.93822L9.1882 0.343482L11.9856 3.20263L6.26727 8.79737ZM315.962 82.3601L250.185 15.1303L255.903 9.53554L321.681 76.7654L315.962 82.3601ZM256.052 14.9703L199.87 79.0337L193.855 73.7589L250.037 9.69554L256.052 14.9703ZM193.962 79.1504L130.184 11.9724L135.986 6.4643L199.763 73.6423L193.962 79.1504ZM136.045 11.9088L77.8637 75.9203L71.9436 70.5395L130.125 6.52796L136.045 11.9088ZM72.0445 76.0272L6.26727 8.79737L11.9856 3.20263L77.7628 70.4325L72.0445 76.0272Z" fill="white"/>
<path d="M249.618 144.288L246.611 141.651L249.458 138.405L252.478 141.491L249.618 144.288ZM193.437 208.352L196.444 210.989L193.554 214.285L190.536 211.106L193.437 208.352ZM129.659 141.174L126.699 138.483L129.595 135.297L132.56 138.42L129.659 141.174ZM71.4779 205.185L74.4379 207.876L71.585 211.015L68.6187 207.983L71.4779 205.185ZM2.84149 140.753L0.0441214 137.894L5.76242 132.299L8.55979 135.158L2.84149 140.753ZM312.537 214.316L246.759 147.086L252.478 141.491L318.255 208.721L312.537 214.316ZM252.626 146.926L196.444 210.989L190.429 205.714L246.611 141.651L252.626 146.926ZM190.536 211.106L126.758 143.928L132.56 138.42L196.338 205.598L190.536 211.106ZM132.619 143.864L74.4379 207.876L68.5179 202.495L126.699 138.483L132.619 143.864ZM68.6187 207.983L2.84149 140.753L8.55979 135.158L74.337 202.388L68.6187 207.983Z" fill="white"/>
<path d="M249.618 144.288L246.611 141.651L249.458 138.405L252.478 141.491L249.618 144.288ZM193.437 208.352L196.444 210.989L193.554 214.285L190.536 211.106L193.437 208.352ZM129.659 141.174L126.699 138.483L129.595 135.297L132.56 138.42L129.659 141.174ZM71.4779 205.185L74.4379 207.876L71.585 211.015L68.6187 207.983L71.4779 205.185ZM2.84149 140.753L0.0441214 137.894L5.76242 132.299L8.55979 135.158L2.84149 140.753ZM312.537 214.316L246.759 147.086L252.478 141.491L318.255 208.721L312.537 214.316ZM252.626 146.926L196.444 210.989L190.429 205.714L246.611 141.651L252.626 146.926ZM190.536 211.106L126.758 143.928L132.56 138.42L196.338 205.598L190.536 211.106ZM132.619 143.864L74.4379 207.876L68.5179 202.495L126.699 138.483L132.619 143.864ZM68.6187 207.983L2.84149 140.753L8.55979 135.158L74.337 202.388L68.6187 207.983Z" fill="white"/>
<path d="M251.331 78.3107L248.324 75.6733L251.171 72.427L254.19 75.5133L251.331 78.3107ZM195.15 142.374L198.157 145.011L195.267 148.307L192.249 145.128L195.15 142.374ZM131.372 75.1961L128.412 72.5057L131.308 69.3193L134.273 72.4421L131.372 75.1961ZM73.1908 139.208L76.1508 141.898L73.2979 145.037L70.3316 142.005L73.1908 139.208ZM4.55438 74.7751L1.75701 71.916L7.47531 66.3212L10.2727 69.1804L4.55438 74.7751ZM314.249 148.338L248.472 81.108L254.19 75.5133L319.968 142.743L314.249 148.338ZM254.339 80.948L198.157 145.011L192.142 139.737L248.324 75.6733L254.339 80.948ZM192.249 145.128L128.471 77.9502L134.273 72.4421L198.051 139.62L192.249 145.128ZM134.332 77.8865L76.1508 141.898L70.2307 136.517L128.412 72.5057L134.332 77.8865ZM70.3316 142.005L4.55438 74.7751L10.2727 69.1804L76.0499 136.41L70.3316 142.005Z" fill="white"/>
<path d="M251.331 78.3107L248.324 75.6733L251.171 72.427L254.19 75.5133L251.331 78.3107ZM195.15 142.374L198.157 145.011L195.267 148.307L192.249 145.128L195.15 142.374ZM131.372 75.1961L128.412 72.5057L131.308 69.3193L134.273 72.4421L131.372 75.1961ZM73.1908 139.208L76.1508 141.898L73.2979 145.037L70.3316 142.005L73.1908 139.208ZM4.55438 74.7751L1.75701 71.916L7.47531 66.3212L10.2727 69.1804L4.55438 74.7751ZM314.249 148.338L248.472 81.108L254.19 75.5133L319.968 142.743L314.249 148.338ZM254.339 80.948L198.157 145.011L192.142 139.737L248.324 75.6733L254.339 80.948ZM192.249 145.128L128.471 77.9502L134.273 72.4421L198.051 139.62L192.249 145.128ZM134.332 77.8865L76.1508 141.898L70.2307 136.517L128.412 72.5057L134.332 77.8865ZM70.3316 142.005L4.55438 74.7751L10.2727 69.1804L76.0499 136.41L70.3316 142.005Z" fill="white"/>
</g>
<g opacity="0.35">
<path d="M102.121 897.353L105.583 899.356L102.337 904.968L98.7773 899.549L102.121 897.353ZM139.594 832.564L136.132 830.561L139.429 824.86L142.968 830.415L139.594 832.564ZM181.849 898.892L185.28 900.947L181.953 906.5L178.475 901.041L181.849 898.892ZM220.651 834.128L217.22 832.072L220.496 826.605L223.995 831.932L220.651 834.128ZM267.578 898.285L269.774 901.628L263.088 906.021L260.892 902.677L267.578 898.285ZM61.8803 828.804L105.464 895.157L98.7773 899.549L55.1938 833.196L61.8803 828.804ZM98.6581 895.35L136.132 830.561L143.057 834.567L105.583 899.356L98.6581 895.35ZM142.968 830.415L185.223 896.742L178.475 901.041L136.221 834.713L142.968 830.415ZM178.418 896.836L217.22 832.072L224.083 836.184L185.28 900.947L178.418 896.836ZM223.995 831.932L267.578 898.285L260.892 902.677L217.308 836.324L223.995 831.932Z" fill="white"/>
<path d="M102.121 897.353L105.583 899.356L102.337 904.968L98.7773 899.549L102.121 897.353ZM139.594 832.564L136.132 830.561L139.429 824.86L142.968 830.415L139.594 832.564ZM181.849 898.892L185.28 900.947L181.953 906.5L178.475 901.041L181.849 898.892ZM220.651 834.128L217.22 832.072L220.496 826.605L223.995 831.932L220.651 834.128ZM267.578 898.285L269.774 901.628L263.088 906.021L260.892 902.677L267.578 898.285ZM61.8803 828.804L105.464 895.157L98.7773 899.549L55.1938 833.196L61.8803 828.804ZM98.6581 895.35L136.132 830.561L143.057 834.567L105.583 899.356L98.6581 895.35ZM142.968 830.415L185.223 896.742L178.475 901.041L136.221 834.713L142.968 830.415ZM178.418 896.836L217.22 832.072L224.083 836.184L185.28 900.947L178.418 896.836ZM223.995 831.932L267.578 898.285L260.892 902.677L217.308 836.324L223.995 831.932Z" fill="white"/>
<path d="M100.847 963.341L104.31 965.344L101.063 970.956L97.5039 965.537L100.847 963.341ZM138.321 898.552L134.858 896.549L138.156 890.848L141.694 896.403L138.321 898.552ZM180.576 964.879L184.007 966.935L180.68 972.488L177.202 967.028L180.576 964.879ZM219.378 900.116L215.947 898.06L219.222 892.593L222.721 897.92L219.378 900.116ZM266.305 964.273L268.501 967.616L261.814 972.008L259.618 968.665L266.305 964.273ZM60.6069 894.792L104.19 961.145L97.5039 965.537L53.9203 899.184L60.6069 894.792ZM97.3847 961.338L134.858 896.549L141.783 900.554L104.31 965.344L97.3847 961.338ZM141.694 896.403L183.949 962.73L177.202 967.028L134.947 900.701L141.694 896.403ZM177.144 962.823L215.947 898.06L222.809 902.172L184.007 966.935L177.144 962.823ZM222.721 897.92L266.305 964.273L259.618 968.665L216.035 902.312L222.721 897.92Z" fill="white"/>
<path d="M100.847 963.341L104.31 965.344L101.063 970.956L97.5039 965.537L100.847 963.341ZM138.321 898.552L134.858 896.549L138.156 890.848L141.694 896.403L138.321 898.552ZM180.576 964.879L184.007 966.935L180.68 972.488L177.202 967.028L180.576 964.879ZM219.378 900.116L215.947 898.06L219.222 892.593L222.721 897.92L219.378 900.116ZM266.305 964.273L268.501 967.616L261.814 972.008L259.618 968.665L266.305 964.273ZM60.6069 894.792L104.19 961.145L97.5039 965.537L53.9203 899.184L60.6069 894.792ZM97.3847 961.338L134.858 896.549L141.783 900.554L104.31 965.344L97.3847 961.338ZM141.694 896.403L183.949 962.73L177.202 967.028L134.947 900.701L141.694 896.403ZM177.144 962.823L215.947 898.06L222.809 902.172L184.007 966.935L177.144 962.823ZM222.721 897.92L266.305 964.273L259.618 968.665L216.035 902.312L222.721 897.92Z" fill="white"/>
</g>
</svg>
