<svg width="206" height="1835" viewBox="0 0 206 1835" fill="none" xmlns="http://www.w3.org/2000/svg">
<g opacity="0.35">
<path d="M37.8555 74L41.3561 72.0645L38.2187 66.3904L34.5552 71.7399L37.8555 74ZM74.0722 139.5L70.5717 141.436L73.7586 147.199L77.4037 141.714L74.0722 139.5ZM117.599 74L121.069 72.0108L117.85 66.3949L114.267 71.7861L117.599 74ZM155.144 139.5L151.674 141.489L154.844 147.019L158.445 141.76L155.144 139.5ZM203.3 76.2601L205.56 72.9598L198.96 68.4396L196.7 71.7399L203.3 76.2601ZM-3.6997 141.76L41.1558 76.2601L34.5552 71.7399L-10.3003 137.24L-3.6997 141.76ZM34.355 75.9355L70.5717 141.436L77.5728 137.564L41.3561 72.0645L34.355 75.9355ZM77.4037 141.714L120.93 76.2139L114.267 71.7861L70.7407 137.286L77.4037 141.714ZM114.128 75.9892L151.674 141.489L158.615 137.511L121.069 72.0108L114.128 75.9892ZM158.445 141.76L203.3 76.2601L196.7 71.7399L151.844 137.24L158.445 141.76Z" fill="white"/>
<path d="M37.8555 74L41.3561 72.0645L38.2187 66.3904L34.5552 71.7399L37.8555 74ZM74.0722 139.5L70.5717 141.436L73.7586 147.199L77.4037 141.714L74.0722 139.5ZM117.599 74L121.069 72.0108L117.85 66.3949L114.267 71.7861L117.599 74ZM155.144 139.5L151.674 141.489L154.844 147.019L158.445 141.76L155.144 139.5ZM203.3 76.2601L205.56 72.9598L198.96 68.4396L196.7 71.7399L203.3 76.2601ZM-3.6997 141.76L41.1558 76.2601L34.5552 71.7399L-10.3003 137.24L-3.6997 141.76ZM34.355 75.9355L70.5717 141.436L77.5728 137.564L41.3561 72.0645L34.355 75.9355ZM77.4037 141.714L120.93 76.2139L114.267 71.7861L70.7407 137.286L77.4037 141.714ZM114.128 75.9892L151.674 141.489L158.615 137.511L121.069 72.0108L114.128 75.9892ZM158.445 141.76L203.3 76.2601L196.7 71.7399L151.844 137.24L158.445 141.76Z" fill="white"/>
<path d="M37.8555 8L41.3561 6.06446L38.2187 0.390357L34.5552 5.7399L37.8555 8ZM74.0722 73.5L70.5717 75.4355L73.7586 81.1992L77.4037 75.7139L74.0722 73.5ZM117.599 8L121.069 6.01077L117.85 0.394859L114.267 5.78614L117.599 8ZM155.144 73.5L151.674 75.4892L154.844 81.0186L158.445 75.7601L155.144 73.5ZM203.3 10.2601L205.56 6.9598L198.96 2.43961L196.7 5.7399L203.3 10.2601ZM-3.6997 75.7601L41.1558 10.2601L34.5552 5.7399L-10.3003 71.2399L-3.6997 75.7601ZM34.355 9.93554L70.5717 75.4355L77.5728 71.5645L41.3561 6.06446L34.355 9.93554ZM77.4037 75.7139L120.93 10.2139L114.267 5.78614L70.7407 71.2861L77.4037 75.7139ZM114.128 9.98923L151.674 75.4892L158.615 71.5108L121.069 6.01077L114.128 9.98923ZM158.445 75.7601L203.3 10.2601L196.7 5.7399L151.844 71.2399L158.445 75.7601Z" fill="white"/>
<path d="M37.8555 8L41.3561 6.06446L38.2187 0.390357L34.5552 5.7399L37.8555 8ZM74.0722 73.5L70.5717 75.4355L73.7586 81.1992L77.4037 75.7139L74.0722 73.5ZM117.599 8L121.069 6.01077L117.85 0.394859L114.267 5.78614L117.599 8ZM155.144 73.5L151.674 75.4892L154.844 81.0186L158.445 75.7601L155.144 73.5ZM203.3 10.2601L205.56 6.9598L198.96 2.43961L196.7 5.7399L203.3 10.2601ZM-3.6997 75.7601L41.1558 10.2601L34.5552 5.7399L-10.3003 71.2399L-3.6997 75.7601ZM34.355 9.93554L70.5717 75.4355L77.5728 71.5645L41.3561 6.06446L34.355 9.93554ZM77.4037 75.7139L120.93 10.2139L114.267 5.78614L70.7407 71.2861L77.4037 75.7139ZM114.128 9.98923L151.674 75.4892L158.615 71.5108L121.069 6.01077L114.128 9.98923ZM158.445 75.7601L203.3 10.2601L196.7 5.7399L151.844 71.2399L158.445 75.7601Z" fill="white"/>
</g>
<g opacity="0.35">
<path d="M-51.626 1631L-48.3982 1628.64L-51.2952 1624.68L-54.5896 1628.31L-51.626 1631ZM-3.687 1696.5L-6.91483 1698.86L-3.97318 1702.88L-0.683571 1699.14L-3.687 1696.5ZM53.9278 1631L57.1143 1628.58L54.1564 1624.68L50.9243 1628.36L53.9278 1631ZM103.626 1696.5L100.439 1698.92L103.353 1702.76L106.59 1699.19L103.626 1696.5ZM165.964 1633.69L168.65 1630.72L162.723 1625.35L160.036 1628.31L165.964 1633.69ZM-108.036 1699.19L-48.6624 1633.69L-54.5896 1628.31L-113.964 1693.81L-108.036 1699.19ZM-54.8538 1633.36L-6.91483 1698.86L-0.45916 1694.14L-48.3982 1628.64L-54.8538 1633.36ZM-0.683571 1699.14L56.9312 1633.64L50.9243 1628.36L-6.69042 1693.86L-0.683571 1699.14ZM50.7412 1633.42L100.439 1698.92L106.813 1694.08L57.1143 1628.58L50.7412 1633.42ZM106.59 1699.19L165.964 1633.69L160.036 1628.31L100.662 1693.81L106.59 1699.19Z" fill="white"/>
<path d="M-51.626 1631L-48.3982 1628.64L-51.2952 1624.68L-54.5896 1628.31L-51.626 1631ZM-3.687 1696.5L-6.91483 1698.86L-3.97318 1702.88L-0.683571 1699.14L-3.687 1696.5ZM53.9278 1631L57.1143 1628.58L54.1564 1624.68L50.9243 1628.36L53.9278 1631ZM103.626 1696.5L100.439 1698.92L103.353 1702.76L106.59 1699.19L103.626 1696.5ZM165.964 1633.69L168.65 1630.72L162.723 1625.35L160.036 1628.31L165.964 1633.69ZM-108.036 1699.19L-48.6624 1633.69L-54.5896 1628.31L-113.964 1693.81L-108.036 1699.19ZM-54.8538 1633.36L-6.91483 1698.86L-0.45916 1694.14L-48.3982 1628.64L-54.8538 1633.36ZM-0.683571 1699.14L56.9312 1633.64L50.9243 1628.36L-6.69042 1693.86L-0.683571 1699.14ZM50.7412 1633.42L100.439 1698.92L106.813 1694.08L57.1143 1628.58L50.7412 1633.42ZM106.59 1699.19L165.964 1633.69L160.036 1628.31L100.662 1693.81L106.59 1699.19Z" fill="white"/>
<path d="M-51.626 1763L-48.3982 1760.64L-51.2952 1756.68L-54.5896 1760.31L-51.626 1763ZM-3.687 1828.5L-6.91483 1830.86L-3.97318 1834.88L-0.683571 1831.14L-3.687 1828.5ZM53.9278 1763L57.1143 1760.58L54.1564 1756.68L50.9243 1760.36L53.9278 1763ZM103.626 1828.5L100.439 1830.92L103.353 1834.76L106.59 1831.19L103.626 1828.5ZM165.964 1765.69L168.65 1762.72L162.723 1757.35L160.036 1760.31L165.964 1765.69ZM-108.036 1831.19L-48.6624 1765.69L-54.5896 1760.31L-113.964 1825.81L-108.036 1831.19ZM-54.8538 1765.36L-6.91483 1830.86L-0.45916 1826.14L-48.3982 1760.64L-54.8538 1765.36ZM-0.683571 1831.14L56.9312 1765.64L50.9243 1760.36L-6.69042 1825.86L-0.683571 1831.14ZM50.7412 1765.42L100.439 1830.92L106.813 1826.08L57.1143 1760.58L50.7412 1765.42ZM106.59 1831.19L165.964 1765.69L160.036 1760.31L100.662 1825.81L106.59 1831.19Z" fill="white"/>
<path d="M-51.626 1763L-48.3982 1760.64L-51.2952 1756.68L-54.5896 1760.31L-51.626 1763ZM-3.687 1828.5L-6.91483 1830.86L-3.97318 1834.88L-0.683571 1831.14L-3.687 1828.5ZM53.9278 1763L57.1143 1760.58L54.1564 1756.68L50.9243 1760.36L53.9278 1763ZM103.626 1828.5L100.439 1830.92L103.353 1834.76L106.59 1831.19L103.626 1828.5ZM165.964 1765.69L168.65 1762.72L162.723 1757.35L160.036 1760.31L165.964 1765.69ZM-108.036 1831.19L-48.6624 1765.69L-54.5896 1760.31L-113.964 1825.81L-108.036 1831.19ZM-54.8538 1765.36L-6.91483 1830.86L-0.45916 1826.14L-48.3982 1760.64L-54.8538 1765.36ZM-0.683571 1831.14L56.9312 1765.64L50.9243 1760.36L-6.69042 1825.86L-0.683571 1831.14ZM50.7412 1765.42L100.439 1830.92L106.813 1826.08L57.1143 1760.58L50.7412 1765.42ZM106.59 1831.19L165.964 1765.69L160.036 1760.31L100.662 1825.81L106.59 1831.19Z" fill="white"/>
<path d="M-51.626 1697L-48.3982 1694.64L-51.2952 1690.68L-54.5896 1694.31L-51.626 1697ZM-3.687 1762.5L-6.91483 1764.86L-3.97318 1768.88L-0.683571 1765.14L-3.687 1762.5ZM53.9278 1697L57.1143 1694.58L54.1564 1690.68L50.9243 1694.36L53.9278 1697ZM103.626 1762.5L100.439 1764.92L103.353 1768.76L106.59 1765.19L103.626 1762.5ZM165.964 1699.69L168.65 1696.72L162.723 1691.35L160.036 1694.31L165.964 1699.69ZM-108.036 1765.19L-48.6624 1699.69L-54.5896 1694.31L-113.964 1759.81L-108.036 1765.19ZM-54.8538 1699.36L-6.91483 1764.86L-0.45916 1760.14L-48.3982 1694.64L-54.8538 1699.36ZM-0.683571 1765.14L56.9312 1699.64L50.9243 1694.36L-6.69042 1759.86L-0.683571 1765.14ZM50.7412 1699.42L100.439 1764.92L106.813 1760.08L57.1143 1694.58L50.7412 1699.42ZM106.59 1765.19L165.964 1699.69L160.036 1694.31L100.662 1759.81L106.59 1765.19Z" fill="white"/>
<path d="M-51.626 1697L-48.3982 1694.64L-51.2952 1690.68L-54.5896 1694.31L-51.626 1697ZM-3.687 1762.5L-6.91483 1764.86L-3.97318 1768.88L-0.683571 1765.14L-3.687 1762.5ZM53.9278 1697L57.1143 1694.58L54.1564 1690.68L50.9243 1694.36L53.9278 1697ZM103.626 1762.5L100.439 1764.92L103.353 1768.76L106.59 1765.19L103.626 1762.5ZM165.964 1699.69L168.65 1696.72L162.723 1691.35L160.036 1694.31L165.964 1699.69ZM-108.036 1765.19L-48.6624 1699.69L-54.5896 1694.31L-113.964 1759.81L-108.036 1765.19ZM-54.8538 1699.36L-6.91483 1764.86L-0.45916 1760.14L-48.3982 1694.64L-54.8538 1699.36ZM-0.683571 1765.14L56.9312 1699.64L50.9243 1694.36L-6.69042 1759.86L-0.683571 1765.14ZM50.7412 1699.42L100.439 1764.92L106.813 1760.08L57.1143 1694.58L50.7412 1699.42ZM106.59 1765.19L165.964 1699.69L160.036 1694.31L100.662 1759.81L106.59 1765.19Z" fill="white"/>
</g>
</svg>
